G04 Layer_Color=16711935*
%FSLAX44Y44*%
%MOMM*%
G71*
G01*
G75*
%ADD99C,0.3100*%
%ADD128C,0.5000*%
%ADD142R,2.7000X2.7000*%
G04:AMPARAMS|DCode=180|XSize=1.4mm|YSize=0.9mm|CornerRadius=0.15mm|HoleSize=0mm|Usage=FLASHONLY|Rotation=0.000|XOffset=0mm|YOffset=0mm|HoleType=Round|Shape=RoundedRectangle|*
%AMROUNDEDRECTD180*
21,1,1.4000,0.6000,0,0,0.0*
21,1,1.1000,0.9000,0,0,0.0*
1,1,0.3000,0.5500,-0.3000*
1,1,0.3000,-0.5500,-0.3000*
1,1,0.3000,-0.5500,0.3000*
1,1,0.3000,0.5500,0.3000*
%
%ADD180ROUNDEDRECTD180*%
G04:AMPARAMS|DCode=181|XSize=1.4mm|YSize=0.9mm|CornerRadius=0.15mm|HoleSize=0mm|Usage=FLASHONLY|Rotation=90.000|XOffset=0mm|YOffset=0mm|HoleType=Round|Shape=RoundedRectangle|*
%AMROUNDEDRECTD181*
21,1,1.4000,0.6000,0,0,90.0*
21,1,1.1000,0.9000,0,0,90.0*
1,1,0.3000,0.3000,0.5500*
1,1,0.3000,0.3000,-0.5500*
1,1,0.3000,-0.3000,-0.5500*
1,1,0.3000,-0.3000,0.5500*
%
%ADD181ROUNDEDRECTD181*%
%ADD182R,0.4000X0.4500*%
G04:AMPARAMS|DCode=185|XSize=0.7mm|YSize=0.7mm|CornerRadius=0.11mm|HoleSize=0mm|Usage=FLASHONLY|Rotation=0.000|XOffset=0mm|YOffset=0mm|HoleType=Round|Shape=RoundedRectangle|*
%AMROUNDEDRECTD185*
21,1,0.7000,0.4800,0,0,0.0*
21,1,0.4800,0.7000,0,0,0.0*
1,1,0.2200,0.2400,-0.2400*
1,1,0.2200,-0.2400,-0.2400*
1,1,0.2200,-0.2400,0.2400*
1,1,0.2200,0.2400,0.2400*
%
%ADD185ROUNDEDRECTD185*%
G04:AMPARAMS|DCode=189|XSize=0.6mm|YSize=0.7mm|CornerRadius=0.1mm|HoleSize=0mm|Usage=FLASHONLY|Rotation=180.000|XOffset=0mm|YOffset=0mm|HoleType=Round|Shape=RoundedRectangle|*
%AMROUNDEDRECTD189*
21,1,0.6000,0.5000,0,0,180.0*
21,1,0.4000,0.7000,0,0,180.0*
1,1,0.2000,-0.2000,0.2500*
1,1,0.2000,0.2000,0.2500*
1,1,0.2000,0.2000,-0.2500*
1,1,0.2000,-0.2000,-0.2500*
%
%ADD189ROUNDEDRECTD189*%
G04:AMPARAMS|DCode=194|XSize=0.6mm|YSize=0.7mm|CornerRadius=0.1mm|HoleSize=0mm|Usage=FLASHONLY|Rotation=90.000|XOffset=0mm|YOffset=0mm|HoleType=Round|Shape=RoundedRectangle|*
%AMROUNDEDRECTD194*
21,1,0.6000,0.5000,0,0,90.0*
21,1,0.4000,0.7000,0,0,90.0*
1,1,0.2000,0.2500,0.2000*
1,1,0.2000,0.2500,-0.2000*
1,1,0.2000,-0.2500,-0.2000*
1,1,0.2000,-0.2500,0.2000*
%
%ADD194ROUNDEDRECTD194*%
G04:AMPARAMS|DCode=196|XSize=0.7mm|YSize=0.7mm|CornerRadius=0.11mm|HoleSize=0mm|Usage=FLASHONLY|Rotation=270.000|XOffset=0mm|YOffset=0mm|HoleType=Round|Shape=RoundedRectangle|*
%AMROUNDEDRECTD196*
21,1,0.7000,0.4800,0,0,270.0*
21,1,0.4800,0.7000,0,0,270.0*
1,1,0.2200,-0.2400,-0.2400*
1,1,0.2200,-0.2400,0.2400*
1,1,0.2200,0.2400,0.2400*
1,1,0.2200,0.2400,-0.2400*
%
%ADD196ROUNDEDRECTD196*%
%ADD197R,0.8000X0.4000*%
%ADD198R,1.7000X2.4500*%
%ADD199C,3.0000*%
G04:AMPARAMS|DCode=207|XSize=1.1mm|YSize=1mm|CornerRadius=0.1625mm|HoleSize=0mm|Usage=FLASHONLY|Rotation=90.000|XOffset=0mm|YOffset=0mm|HoleType=Round|Shape=RoundedRectangle|*
%AMROUNDEDRECTD207*
21,1,1.1000,0.6750,0,0,90.0*
21,1,0.7750,1.0000,0,0,90.0*
1,1,0.3250,0.3375,0.3875*
1,1,0.3250,0.3375,-0.3875*
1,1,0.3250,-0.3375,-0.3875*
1,1,0.3250,-0.3375,0.3875*
%
%ADD207ROUNDEDRECTD207*%
G04:AMPARAMS|DCode=208|XSize=1.1mm|YSize=1mm|CornerRadius=0.1625mm|HoleSize=0mm|Usage=FLASHONLY|Rotation=180.000|XOffset=0mm|YOffset=0mm|HoleType=Round|Shape=RoundedRectangle|*
%AMROUNDEDRECTD208*
21,1,1.1000,0.6750,0,0,180.0*
21,1,0.7750,1.0000,0,0,180.0*
1,1,0.3250,-0.3875,0.3375*
1,1,0.3250,0.3875,0.3375*
1,1,0.3250,0.3875,-0.3375*
1,1,0.3250,-0.3875,-0.3375*
%
%ADD208ROUNDEDRECTD208*%
G04:AMPARAMS|DCode=214|XSize=0.6mm|YSize=0.7mm|CornerRadius=0.1mm|HoleSize=0mm|Usage=FLASHONLY|Rotation=225.000|XOffset=0mm|YOffset=0mm|HoleType=Round|Shape=RoundedRectangle|*
%AMROUNDEDRECTD214*
21,1,0.6000,0.5000,0,0,225.0*
21,1,0.4000,0.7000,0,0,225.0*
1,1,0.2000,-0.3182,0.0354*
1,1,0.2000,-0.0354,0.3182*
1,1,0.2000,0.3182,-0.0354*
1,1,0.2000,0.0354,-0.3182*
%
%ADD214ROUNDEDRECTD214*%
G04:AMPARAMS|DCode=220|XSize=0.7mm|YSize=0.7mm|CornerRadius=0.11mm|HoleSize=0mm|Usage=FLASHONLY|Rotation=45.000|XOffset=0mm|YOffset=0mm|HoleType=Round|Shape=RoundedRectangle|*
%AMROUNDEDRECTD220*
21,1,0.7000,0.4800,0,0,45.0*
21,1,0.4800,0.7000,0,0,45.0*
1,1,0.2200,0.3394,0.0000*
1,1,0.2200,0.0000,-0.3394*
1,1,0.2200,-0.3394,0.0000*
1,1,0.2200,0.0000,0.3394*
%
%ADD220ROUNDEDRECTD220*%
%ADD226R,0.7000X0.4500*%
%ADD227R,0.7000X0.4000*%
G04:AMPARAMS|DCode=234|XSize=1.9mm|YSize=1.25mm|CornerRadius=0.1938mm|HoleSize=0mm|Usage=FLASHONLY|Rotation=180.000|XOffset=0mm|YOffset=0mm|HoleType=Round|Shape=RoundedRectangle|*
%AMROUNDEDRECTD234*
21,1,1.9000,0.8625,0,0,180.0*
21,1,1.5125,1.2500,0,0,180.0*
1,1,0.3875,-0.7562,0.4313*
1,1,0.3875,0.7562,0.4313*
1,1,0.3875,0.7562,-0.4313*
1,1,0.3875,-0.7562,-0.4313*
%
%ADD234ROUNDEDRECTD234*%
G04:AMPARAMS|DCode=241|XSize=1.9mm|YSize=1.25mm|CornerRadius=0.1938mm|HoleSize=0mm|Usage=FLASHONLY|Rotation=90.000|XOffset=0mm|YOffset=0mm|HoleType=Round|Shape=RoundedRectangle|*
%AMROUNDEDRECTD241*
21,1,1.9000,0.8625,0,0,90.0*
21,1,1.5125,1.2500,0,0,90.0*
1,1,0.3875,0.4313,0.7562*
1,1,0.3875,0.4313,-0.7562*
1,1,0.3875,-0.4313,-0.7562*
1,1,0.3875,-0.4313,0.7562*
%
%ADD241ROUNDEDRECTD241*%
%ADD256R,0.4000X0.8000*%
%ADD257R,2.4500X1.7000*%
%ADD261O,4.1000X2.1000*%
%ADD262O,2.3000X4.1000*%
%ADD263O,2.1000X4.1000*%
G04:AMPARAMS|DCode=264|XSize=1.3mm|YSize=1.2mm|CornerRadius=0.1875mm|HoleSize=0mm|Usage=FLASHONLY|Rotation=90.000|XOffset=0mm|YOffset=0mm|HoleType=Round|Shape=RoundedRectangle|*
%AMROUNDEDRECTD264*
21,1,1.3000,0.8250,0,0,90.0*
21,1,0.9250,1.2000,0,0,90.0*
1,1,0.3750,0.4125,0.4625*
1,1,0.3750,0.4125,-0.4625*
1,1,0.3750,-0.4125,-0.4625*
1,1,0.3750,-0.4125,0.4625*
%
%ADD264ROUNDEDRECTD264*%
%ADD265O,1.2000X1.3000*%
%ADD266C,1.1000*%
%ADD267C,1.8500*%
G04:AMPARAMS|DCode=268|XSize=1.5mm|YSize=1.5mm|CornerRadius=0.4mm|HoleSize=0mm|Usage=FLASHONLY|Rotation=90.000|XOffset=0mm|YOffset=0mm|HoleType=Round|Shape=RoundedRectangle|*
%AMROUNDEDRECTD268*
21,1,1.5000,0.7000,0,0,90.0*
21,1,0.7000,1.5000,0,0,90.0*
1,1,0.8000,0.3500,0.3500*
1,1,0.8000,0.3500,-0.3500*
1,1,0.8000,-0.3500,-0.3500*
1,1,0.8000,-0.3500,0.3500*
%
%ADD268ROUNDEDRECTD268*%
%ADD269C,1.5000*%
%ADD270C,5.1000*%
%ADD271C,1.7000*%
G04:AMPARAMS|DCode=272|XSize=1.624mm|YSize=1.624mm|CornerRadius=0.2405mm|HoleSize=0mm|Usage=FLASHONLY|Rotation=90.000|XOffset=0mm|YOffset=0mm|HoleType=Round|Shape=RoundedRectangle|*
%AMROUNDEDRECTD272*
21,1,1.6240,1.1430,0,0,90.0*
21,1,1.1430,1.6240,0,0,90.0*
1,1,0.4810,0.5715,0.5715*
1,1,0.4810,0.5715,-0.5715*
1,1,0.4810,-0.5715,-0.5715*
1,1,0.4810,-0.5715,0.5715*
%
%ADD272ROUNDEDRECTD272*%
%ADD273R,0.8000X0.8000*%
%ADD274R,1.1000X0.8000*%
%ADD275R,0.8000X0.8000*%
%ADD276R,0.8000X1.1000*%
G04:AMPARAMS|DCode=277|XSize=0.7mm|YSize=1.1mm|CornerRadius=0.125mm|HoleSize=0mm|Usage=FLASHONLY|Rotation=90.000|XOffset=0mm|YOffset=0mm|HoleType=Round|Shape=RoundedRectangle|*
%AMROUNDEDRECTD277*
21,1,0.7000,0.8500,0,0,90.0*
21,1,0.4500,1.1000,0,0,90.0*
1,1,0.2500,0.4250,0.2250*
1,1,0.2500,0.4250,-0.2250*
1,1,0.2500,-0.4250,-0.2250*
1,1,0.2500,-0.4250,0.2250*
%
%ADD277ROUNDEDRECTD277*%
%ADD278R,0.3500X0.9000*%
%ADD279R,0.9000X0.3500*%
%ADD280R,2.8000X2.8000*%
%ADD281R,0.4500X0.4000*%
%ADD282R,0.9000X0.4000*%
%ADD283R,0.4000X0.9000*%
%ADD284R,1.3500X1.3500*%
%ADD285C,0.5500*%
G04:AMPARAMS|DCode=286|XSize=1.9mm|YSize=1.3mm|CornerRadius=0.2mm|HoleSize=0mm|Usage=FLASHONLY|Rotation=180.000|XOffset=0mm|YOffset=0mm|HoleType=Round|Shape=RoundedRectangle|*
%AMROUNDEDRECTD286*
21,1,1.9000,0.9000,0,0,180.0*
21,1,1.5000,1.3000,0,0,180.0*
1,1,0.4000,-0.7500,0.4500*
1,1,0.4000,0.7500,0.4500*
1,1,0.4000,0.7500,-0.4500*
1,1,0.4000,-0.7500,-0.4500*
%
%ADD286ROUNDEDRECTD286*%
%ADD287R,2.3000X0.6500*%
%ADD288R,0.6500X2.3000*%
%ADD289R,1.5000X0.5500*%
%ADD290O,0.3500X1.0000*%
%ADD291O,1.0000X0.3500*%
G04:AMPARAMS|DCode=292|XSize=1.5mm|YSize=1.3mm|CornerRadius=0.2mm|HoleSize=0mm|Usage=FLASHONLY|Rotation=0.000|XOffset=0mm|YOffset=0mm|HoleType=Round|Shape=RoundedRectangle|*
%AMROUNDEDRECTD292*
21,1,1.5000,0.9000,0,0,0.0*
21,1,1.1000,1.3000,0,0,0.0*
1,1,0.4000,0.5500,-0.4500*
1,1,0.4000,-0.5500,-0.4500*
1,1,0.4000,-0.5500,0.4500*
1,1,0.4000,0.5500,0.4500*
%
%ADD292ROUNDEDRECTD292*%
%ADD293C,0.3000*%
G04:AMPARAMS|DCode=294|XSize=0.4mm|YSize=0.45mm|CornerRadius=0mm|HoleSize=0mm|Usage=FLASHONLY|Rotation=225.000|XOffset=0mm|YOffset=0mm|HoleType=Round|Shape=Rectangle|*
%AMROTATEDRECTD294*
4,1,4,-0.0177,0.3005,0.3005,-0.0177,0.0177,-0.3005,-0.3005,0.0177,-0.0177,0.3005,0.0*
%
%ADD294ROTATEDRECTD294*%

G04:AMPARAMS|DCode=295|XSize=0.4mm|YSize=0.45mm|CornerRadius=0mm|HoleSize=0mm|Usage=FLASHONLY|Rotation=315.000|XOffset=0mm|YOffset=0mm|HoleType=Round|Shape=Rectangle|*
%AMROTATEDRECTD295*
4,1,4,-0.3005,-0.0177,0.0177,0.3005,0.3005,0.0177,-0.0177,-0.3005,-0.3005,-0.0177,0.0*
%
%ADD295ROTATEDRECTD295*%

%ADD296R,1.0000X1.5000*%
%ADD297R,1.3000X1.6000*%
%ADD298R,2.2000X2.2000*%
G04:AMPARAMS|DCode=299|XSize=1.9mm|YSize=1.25mm|CornerRadius=0.1938mm|HoleSize=0mm|Usage=FLASHONLY|Rotation=315.000|XOffset=0mm|YOffset=0mm|HoleType=Round|Shape=RoundedRectangle|*
%AMROUNDEDRECTD299*
21,1,1.9000,0.8625,0,0,315.0*
21,1,1.5125,1.2500,0,0,315.0*
1,1,0.3875,0.2298,-0.8397*
1,1,0.3875,-0.8397,0.2298*
1,1,0.3875,-0.2298,0.8397*
1,1,0.3875,0.8397,-0.2298*
%
%ADD299ROUNDEDRECTD299*%
G36*
X14500Y598752D02*
X988000Y598752D01*
X988423D01*
X988456Y598750D01*
X988489D01*
X988521Y598746D01*
X988554Y598744D01*
X988586Y598737D01*
X988619Y598733D01*
X990599Y598339D01*
X990631Y598330D01*
X990663Y598324D01*
X990694Y598314D01*
X990726Y598305D01*
X990756Y598293D01*
X990787Y598282D01*
X992653Y597509D01*
X992682Y597495D01*
X992712Y597482D01*
X992741Y597466D01*
X992770Y597451D01*
X992797Y597433D01*
X992826Y597417D01*
X994505Y596295D01*
X994531Y596275D01*
X994558Y596257D01*
X994583Y596235D01*
X994609Y596215D01*
X994632Y596192D01*
X994657Y596170D01*
X996084Y594743D01*
X996106Y594718D01*
X996129Y594695D01*
X996149Y594669D01*
X996171Y594644D01*
X996189Y594617D01*
X996209Y594591D01*
X997331Y592912D01*
X997347Y592883D01*
X997365Y592856D01*
X997380Y592827D01*
X997396Y592798D01*
X997409Y592768D01*
X997423Y592739D01*
X998196Y590873D01*
X998206Y590842D01*
X998219Y590812D01*
X998227Y590780D01*
X998238Y590749D01*
X998244Y590717D01*
X998253Y590685D01*
X998647Y588705D01*
X998651Y588672D01*
X998658Y588640D01*
X998660Y588608D01*
X998664Y588575D01*
Y588542D01*
X998666Y588509D01*
Y587500D01*
Y584750D01*
X998658Y584619D01*
X998632Y584491D01*
X998590Y584366D01*
X998532Y584249D01*
X998459Y584140D01*
X998372Y584041D01*
X998274Y583955D01*
X998252Y583941D01*
X998252Y556750D01*
X998243Y556652D01*
X998214Y556558D01*
X998168Y556471D01*
X998166Y556469D01*
X998166Y15252D01*
X998166Y15250D01*
Y12500D01*
Y11490D01*
X998164Y11458D01*
Y11425D01*
X998160Y11392D01*
X998157Y11360D01*
X998151Y11328D01*
X998147Y11295D01*
X997753Y9315D01*
X997744Y9283D01*
X997738Y9251D01*
X997728Y9220D01*
X997719Y9188D01*
X997706Y9158D01*
X997696Y9127D01*
X996923Y7261D01*
X996909Y7232D01*
X996896Y7202D01*
X996880Y7173D01*
X996865Y7144D01*
X996847Y7116D01*
X996831Y7088D01*
X995709Y5409D01*
X995689Y5383D01*
X995671Y5356D01*
X995649Y5331D01*
X995629Y5305D01*
X995606Y5282D01*
X995584Y5257D01*
X994156Y3830D01*
X994132Y3808D01*
X994109Y3785D01*
X994083Y3765D01*
X994058Y3743D01*
X994031Y3725D01*
X994005Y3705D01*
X992326Y2583D01*
X992297Y2567D01*
X992270Y2549D01*
X992241Y2534D01*
X992212Y2518D01*
X992182Y2505D01*
X992153Y2491D01*
X990287Y1718D01*
X990256Y1708D01*
X990226Y1695D01*
X990194Y1686D01*
X990163Y1676D01*
X990131Y1670D01*
X990099Y1661D01*
X988352Y1313D01*
X988259Y1282D01*
X988131Y1257D01*
X988000Y1248D01*
X14500Y1248D01*
D01*
X11490D01*
X11458Y1250D01*
X11425D01*
X11392Y1254D01*
X11360Y1256D01*
X11328Y1263D01*
X11295Y1267D01*
X9315Y1661D01*
X9283Y1669D01*
X9251Y1676D01*
X9220Y1686D01*
X9188Y1695D01*
X9158Y1707D01*
X9127Y1718D01*
X7261Y2491D01*
X7232Y2505D01*
X7201Y2518D01*
X7173Y2534D01*
X7144Y2549D01*
X7117Y2567D01*
X7088Y2583D01*
X5409Y3705D01*
X5383Y3725D01*
X5356Y3743D01*
X5331Y3765D01*
X5305Y3785D01*
X5282Y3808D01*
X5257Y3830D01*
X3830Y5257D01*
X3808Y5282D01*
X3785Y5305D01*
X3765Y5331D01*
X3743Y5356D01*
X3725Y5383D01*
X3705Y5409D01*
X2583Y7088D01*
X2567Y7116D01*
X2549Y7144D01*
X2534Y7173D01*
X2518Y7201D01*
X2505Y7232D01*
X2491Y7261D01*
X1718Y9127D01*
X1708Y9158D01*
X1695Y9188D01*
X1686Y9220D01*
X1676Y9251D01*
X1670Y9283D01*
X1661Y9315D01*
X1267Y11295D01*
X1263Y11328D01*
X1256Y11360D01*
X1254Y11392D01*
X1250Y11425D01*
Y11458D01*
X1248Y11490D01*
Y12500D01*
Y15250D01*
X1256Y15381D01*
X1282Y15509D01*
X1324Y15633D01*
X1382Y15751D01*
X1455Y15860D01*
X1541Y15959D01*
X1640Y16045D01*
X1748Y16117D01*
X1748Y45000D01*
X1757Y45098D01*
X1786Y45192D01*
X1832Y45279D01*
X1895Y45355D01*
X1971Y45418D01*
X2058Y45464D01*
X2152Y45493D01*
X2250Y45502D01*
X15449D01*
X15453Y45502D01*
X15458Y45502D01*
X15503Y45497D01*
X15547Y45493D01*
X15551Y45491D01*
X15556Y45491D01*
X15599Y45477D01*
X15641Y45464D01*
X15645Y45462D01*
X15650Y45460D01*
X15689Y45439D01*
X15728Y45418D01*
X15732Y45415D01*
X15736Y45412D01*
X15769Y45384D01*
X15804Y45355D01*
X15807Y45352D01*
X15811Y45348D01*
X15838Y45314D01*
X15866Y45279D01*
X15869Y45275D01*
X15872Y45271D01*
X34474Y16252D01*
X968997Y16252D01*
Y25750D01*
X969007Y25848D01*
X969036Y25942D01*
X969082Y26029D01*
X969145Y26105D01*
X969221Y26168D01*
X969308Y26214D01*
X969402Y26243D01*
X969500Y26252D01*
X980498D01*
X980498Y562142D01*
X966648Y583748D01*
X33352Y583748D01*
X15872Y556479D01*
X15869Y556475D01*
X15866Y556471D01*
X15838Y556437D01*
X15811Y556402D01*
X15807Y556399D01*
X15804Y556395D01*
X15769Y556366D01*
X15736Y556338D01*
X15732Y556335D01*
X15728Y556332D01*
X15689Y556311D01*
X15650Y556290D01*
X15645Y556288D01*
X15641Y556286D01*
X15599Y556273D01*
X15556Y556259D01*
X15551Y556259D01*
X15547Y556257D01*
X15503Y556253D01*
X15458Y556248D01*
X15453Y556248D01*
X15449Y556248D01*
X2250D01*
X2152Y556257D01*
X2058Y556286D01*
X1971Y556332D01*
X1895Y556395D01*
X1832Y556471D01*
X1786Y556558D01*
X1757Y556652D01*
X1748Y556750D01*
X1748Y583883D01*
X1640Y583955D01*
X1541Y584041D01*
X1455Y584140D01*
X1382Y584249D01*
X1324Y584366D01*
X1282Y584491D01*
X1256Y584619D01*
X1248Y584750D01*
Y587500D01*
Y588510D01*
X1250Y588542D01*
Y588575D01*
X1254Y588608D01*
X1256Y588640D01*
X1263Y588672D01*
X1267Y588705D01*
X1661Y590685D01*
X1670Y590717D01*
X1676Y590749D01*
X1686Y590780D01*
X1695Y590812D01*
X1708Y590842D01*
X1718Y590873D01*
X2491Y592739D01*
X2505Y592768D01*
X2518Y592799D01*
X2534Y592827D01*
X2549Y592856D01*
X2567Y592884D01*
X2583Y592912D01*
X3705Y594591D01*
X3725Y594617D01*
X3743Y594644D01*
X3765Y594669D01*
X3785Y594695D01*
X3808Y594718D01*
X3830Y594743D01*
X5257Y596170D01*
X5282Y596192D01*
X5305Y596215D01*
X5331Y596235D01*
X5356Y596257D01*
X5383Y596275D01*
X5409Y596295D01*
X7088Y597417D01*
X7117Y597433D01*
X7144Y597451D01*
X7173Y597466D01*
X7201Y597482D01*
X7232Y597495D01*
X7261Y597509D01*
X9127Y598282D01*
X9158Y598293D01*
X9188Y598305D01*
X9220Y598314D01*
X9251Y598324D01*
X9283Y598330D01*
X9315Y598339D01*
X11295Y598733D01*
X11328Y598737D01*
X11360Y598744D01*
X11392Y598746D01*
X11425Y598750D01*
X11458D01*
X11490Y598752D01*
X14500D01*
D01*
D02*
G37*
G36*
X785604Y279288D02*
X785698Y279260D01*
X785785Y279213D01*
X785861Y279151D01*
X785924Y279074D01*
X785970Y278988D01*
X785999Y278893D01*
X786008Y278795D01*
Y273545D01*
X785999Y273447D01*
X785970Y273353D01*
X785924Y273266D01*
X785861Y273190D01*
X785785Y273128D01*
X785698Y273081D01*
X785604Y273053D01*
X785506Y273043D01*
X769256D01*
X769158Y273053D01*
X769064Y273081D01*
X768977Y273128D01*
X768901Y273190D01*
X768838Y273266D01*
X768792Y273353D01*
X768763Y273447D01*
X768754Y273545D01*
Y278795D01*
X768763Y278893D01*
X768792Y278988D01*
X768838Y279074D01*
X768901Y279151D01*
X768977Y279213D01*
X769064Y279260D01*
X769158Y279288D01*
X769256Y279298D01*
X785506D01*
X785604Y279288D01*
D02*
G37*
G36*
X691250Y516003D02*
X820500Y516002D01*
X820500Y516002D01*
X820598Y515993D01*
X820692Y515964D01*
X820779Y515918D01*
X820855Y515855D01*
X837458Y499252D01*
X873542Y499253D01*
X875998Y501708D01*
X875997Y511999D01*
X875997Y512000D01*
X876007Y512098D01*
X876015Y512126D01*
X876035Y512192D01*
X876057Y512232D01*
X876082Y512279D01*
X876110Y512313D01*
X876144Y512355D01*
X876144Y512355D01*
X879645Y515855D01*
X879721Y515918D01*
X879808Y515964D01*
X879830Y515971D01*
X879902Y515993D01*
X879951Y515998D01*
X880000Y516002D01*
X880000Y516002D01*
X904750Y516002D01*
X904848Y515993D01*
X904942Y515964D01*
X905029Y515918D01*
X905105Y515855D01*
X905105Y515855D01*
X928605Y492355D01*
X928668Y492279D01*
X928714Y492192D01*
X928721Y492170D01*
X928743Y492098D01*
X928748Y492049D01*
X928753Y492000D01*
X928753Y492000D01*
X928752Y450500D01*
X928752Y450500D01*
X928744Y450411D01*
X928743Y450402D01*
X928714Y450308D01*
X928668Y450221D01*
X928633Y450179D01*
X928605Y450145D01*
X928605Y450145D01*
X904252Y425792D01*
X904252Y411750D01*
X904243Y411652D01*
X904221Y411580D01*
X904214Y411558D01*
X904168Y411471D01*
X904105Y411395D01*
X904105Y411395D01*
X869605Y376895D01*
X869529Y376832D01*
X869442Y376786D01*
X869420Y376779D01*
X869348Y376757D01*
X869299Y376752D01*
X869250Y376748D01*
X869250Y376748D01*
X812208Y376748D01*
X797533Y362073D01*
Y361727D01*
X797533Y332617D01*
X797533Y332617D01*
X797528Y332568D01*
X797523Y332519D01*
X797502Y332446D01*
X797495Y332424D01*
X797449Y332337D01*
X797417Y332299D01*
X797386Y332261D01*
X797386Y332261D01*
X793386Y328261D01*
X793310Y328199D01*
X793223Y328153D01*
X793201Y328146D01*
X793129Y328124D01*
X793080Y328119D01*
X793031Y328114D01*
X793031Y328114D01*
X788739Y328114D01*
X787783Y327159D01*
Y323575D01*
X788739Y322619D01*
X797031D01*
X797129Y322609D01*
X797223Y322581D01*
X797310Y322534D01*
X797386Y322472D01*
X797449Y322396D01*
X797495Y322309D01*
X797524Y322215D01*
X797533Y322117D01*
X797533Y310367D01*
X797533Y310367D01*
X797524Y310278D01*
X797524Y310269D01*
X797495Y310175D01*
X797449Y310088D01*
X797414Y310046D01*
X797386Y310012D01*
X797386Y310011D01*
X792783Y305409D01*
X792783Y281867D01*
X792774Y281769D01*
X792745Y281674D01*
X792699Y281588D01*
X792636Y281511D01*
X792560Y281449D01*
X792473Y281403D01*
X792379Y281374D01*
X792281Y281364D01*
X786239D01*
X784636Y279762D01*
X784560Y279699D01*
X784473Y279653D01*
X784451Y279646D01*
X784379Y279624D01*
X784330Y279619D01*
X784281Y279614D01*
X784281Y279614D01*
X774281D01*
X774183Y279624D01*
X774110Y279646D01*
X774089Y279653D01*
X774002Y279699D01*
X773926Y279762D01*
X773925Y279762D01*
X767426Y286262D01*
X767426Y286262D01*
X759823Y293864D01*
X758489Y293864D01*
X754533Y289909D01*
Y287825D01*
X757636Y284722D01*
X757636Y284722D01*
X757664Y284688D01*
X757699Y284646D01*
X757745Y284559D01*
X757774Y284465D01*
X757775Y284456D01*
X757783Y284367D01*
X757778Y284318D01*
X757774Y284269D01*
X757752Y284196D01*
X757745Y284174D01*
X757699Y284088D01*
X757636Y284011D01*
X757602Y283983D01*
X757560Y283949D01*
X757473Y283902D01*
X757379Y283874D01*
X757370Y283873D01*
X757281Y283864D01*
X757281Y283864D01*
X735489D01*
X729886Y278261D01*
X729886D01*
Y278261D01*
X729810Y278199D01*
X729734Y278158D01*
X729723Y278153D01*
D01*
X729723Y278153D01*
X729629Y278124D01*
X729540Y278115D01*
X729531Y278114D01*
D01*
X729531D01*
X729433Y278124D01*
X729404Y278133D01*
X729339Y278153D01*
X729252Y278199D01*
X729175Y278261D01*
X729175Y278262D01*
X727426Y280012D01*
X727363Y280088D01*
X727342Y280128D01*
X727317Y280175D01*
X727308Y280203D01*
X727288Y280269D01*
X727279Y280367D01*
X727288Y280465D01*
X727297Y280493D01*
X727317Y280559D01*
X727338Y280599D01*
X727363Y280646D01*
X727426Y280722D01*
X727426Y280722D01*
X734028Y287325D01*
X734028Y297617D01*
X734038Y297715D01*
X734067Y297809D01*
X734113Y297896D01*
X734176Y297972D01*
X734252Y298034D01*
X734339Y298081D01*
X734433Y298109D01*
X734531Y298119D01*
X743073Y298119D01*
X744278Y299325D01*
X744278Y302909D01*
X738676Y308512D01*
X738613Y308588D01*
X738567Y308675D01*
X738560Y308696D01*
X738538Y308769D01*
X738533Y308818D01*
X738528Y308867D01*
X738529Y308867D01*
X738528Y333867D01*
X738538Y333965D01*
X738567Y334059D01*
X738613Y334146D01*
X738676Y334222D01*
X738752Y334284D01*
X738839Y334331D01*
X738933Y334360D01*
X739031Y334369D01*
X753781D01*
X753781Y334369D01*
X753830Y334364D01*
X753879Y334360D01*
X753951Y334338D01*
X753973Y334331D01*
X754060Y334284D01*
X754136Y334222D01*
X754136Y334222D01*
X755989Y332369D01*
X767823Y332369D01*
X768778Y333325D01*
X768778Y336116D01*
X768778Y336117D01*
X768787Y336206D01*
X768788Y336215D01*
X768817Y336309D01*
X768863Y336396D01*
X768897Y336438D01*
X768925Y336472D01*
X768926Y336472D01*
X775028Y342575D01*
Y406393D01*
X742424Y438998D01*
X727000Y438997D01*
X727000Y438997D01*
X726902Y439007D01*
X726808Y439036D01*
X726721Y439082D01*
X726645Y439145D01*
X703402Y462388D01*
X605956Y462388D01*
X605956Y462388D01*
X605956Y462388D01*
X605909Y462393D01*
X605858Y462397D01*
X605858Y462398D01*
X605858Y462398D01*
X605811Y462412D01*
X605764Y462426D01*
X605764Y462426D01*
X605764Y462426D01*
X605724Y462447D01*
X605677Y462472D01*
X605677Y462473D01*
X605677Y462473D01*
X605645Y462499D01*
X605601Y462535D01*
X605601Y462535D01*
X605601Y462536D01*
X605572Y462570D01*
X605539Y462611D01*
X605539Y462612D01*
X605538Y462612D01*
X605518Y462649D01*
X605492Y462698D01*
X605492Y462698D01*
X605492Y462699D01*
X605478Y462746D01*
X605464Y462792D01*
X605464Y462793D01*
X605464Y462793D01*
X605459Y462844D01*
X605454Y462890D01*
X605454Y462891D01*
X605454Y462891D01*
X605532Y515501D01*
X605537Y515547D01*
X605542Y515598D01*
X605542Y515598D01*
X605542Y515599D01*
X605556Y515646D01*
X605570Y515692D01*
X605570Y515692D01*
X605570Y515693D01*
X605595Y515738D01*
X605617Y515779D01*
X605617Y515779D01*
X605617Y515780D01*
X605648Y515817D01*
X605679Y515855D01*
X605679Y515855D01*
X605680Y515856D01*
X605718Y515887D01*
X605755Y515918D01*
X605756Y515918D01*
X605756Y515918D01*
X605798Y515940D01*
X605842Y515964D01*
X605843Y515964D01*
X605843Y515964D01*
X605890Y515979D01*
X605936Y515993D01*
X605937Y515993D01*
X605937Y515993D01*
X605989Y515998D01*
X606034Y516002D01*
X657500Y516003D01*
X657500Y516003D01*
X657598Y515993D01*
X657692Y515964D01*
X657779Y515918D01*
X657855Y515855D01*
X660855Y512855D01*
X660918Y512779D01*
X660964Y512692D01*
X660971Y512670D01*
X660993Y512598D01*
X660998Y512549D01*
X661002Y512500D01*
X661002Y512500D01*
X661003Y492958D01*
X664958Y489002D01*
X683792D01*
X687747Y492958D01*
X687747Y512500D01*
X687747Y512500D01*
X687752Y512549D01*
X687757Y512598D01*
X687779Y512670D01*
X687786Y512692D01*
X687832Y512779D01*
X687895Y512855D01*
X690895Y515855D01*
X690971Y515918D01*
X691058Y515964D01*
X691080Y515971D01*
X691152Y515993D01*
X691201Y515998D01*
X691250Y516003D01*
X691250Y516003D01*
D02*
G37*
D99*
X776750Y346384D02*
D03*
X766760Y249813D02*
D03*
X763430Y246483D02*
D03*
X713480Y309753D02*
D03*
X710150Y306423D02*
D03*
X740120Y349713D02*
D03*
X733460D02*
D03*
X746780Y343053D02*
D03*
X716810Y333063D02*
D03*
X740120Y256473D02*
D03*
X720140Y276453D02*
D03*
X713480Y329733D02*
D03*
X743450Y346383D02*
D03*
X763430Y353043D02*
D03*
X760100Y349714D02*
D03*
X753440Y349713D02*
D03*
X810050Y326403D02*
D03*
X816510Y331937D02*
D03*
X720140Y269793D02*
D03*
X756770Y259803D02*
D03*
X753440Y263133D02*
D03*
X750110Y253143D02*
D03*
X756770Y346383D02*
D03*
X806720Y323073D02*
D03*
X733460Y356373D02*
D03*
X736790Y339723D02*
D03*
X740120Y263133D02*
D03*
X723470Y313083D02*
D03*
X716810Y306423D02*
D03*
X713480Y303093D02*
D03*
X720140Y303093D02*
D03*
X723470Y293103D02*
D03*
X720140Y289773D02*
D03*
X733460Y256473D02*
D03*
X736790Y259803D02*
D03*
X730130D02*
D03*
X760100Y263133D02*
D03*
X750110Y259803D02*
D03*
X800060Y256473D02*
D03*
X750110Y346383D02*
D03*
X743450Y353044D02*
D03*
X720140Y336393D02*
D03*
Y316413D02*
D03*
X723470Y319743D02*
D03*
X716810Y326403D02*
D03*
X723470Y326403D02*
D03*
X720140Y329733D02*
D03*
X716810Y286443D02*
D03*
X713480Y289773D02*
D03*
X716810Y273123D02*
D03*
X720140Y323073D02*
D03*
X736790Y253143D02*
D03*
X730130Y253143D02*
D03*
X723510Y286437D02*
D03*
X716810Y279783D02*
D03*
X720140Y283113D02*
D03*
X720140Y263133D02*
D03*
X726800Y256473D02*
D03*
X726800Y263133D02*
D03*
X716810Y293103D02*
D03*
Y299763D02*
D03*
X723470Y299763D02*
D03*
X713480Y269793D02*
D03*
X713480Y276453D02*
D03*
X800060Y323073D02*
D03*
Y329733D02*
D03*
X803390Y333063D02*
D03*
X793400Y263133D02*
D03*
X800060Y269793D02*
D03*
X803390Y279783D02*
D03*
X816710Y286443D02*
D03*
X810050Y266463D02*
D03*
X810050Y273123D02*
D03*
X806720Y289773D02*
D03*
X800060Y289773D02*
D03*
X813380Y276453D02*
D03*
X803390Y273123D02*
D03*
Y266463D02*
D03*
X806720Y283113D02*
D03*
X780080Y343053D02*
D03*
X803390Y259803D02*
D03*
X800060Y276453D02*
D03*
X763430Y259803D02*
D03*
X766750Y256500D02*
D03*
X713480Y316413D02*
D03*
X716810Y319743D02*
D03*
X723470Y253143D02*
D03*
X736790Y353044D02*
D03*
X796730Y253143D02*
D03*
D128*
X549500Y200500D02*
D03*
X529500Y330500D02*
D03*
X489500Y310500D02*
D03*
X499500Y220500D02*
D03*
Y260500D02*
D03*
Y250500D02*
D03*
X509500Y260500D02*
D03*
X529500D02*
D03*
X539500D02*
D03*
X489500Y260500D02*
D03*
X479500Y260500D02*
D03*
X469500Y260500D02*
D03*
X519500Y350500D02*
D03*
X539500D02*
D03*
X379500Y210500D02*
D03*
X674500Y312500D02*
D03*
X349500Y270500D02*
D03*
Y210500D02*
D03*
X179500Y336250D02*
D03*
X277250Y587750D02*
D03*
X667500Y280000D02*
D03*
X379500Y240500D02*
D03*
X529500Y350500D02*
D03*
X549500Y260500D02*
D03*
X529500Y210500D02*
D03*
X549500Y220500D02*
D03*
X219500Y312250D02*
D03*
X211500Y304250D02*
D03*
Y320250D02*
D03*
X203500Y320250D02*
D03*
X211500Y328250D02*
D03*
X199500Y345907D02*
D03*
X223500D02*
D03*
X207500D02*
D03*
X195500Y320250D02*
D03*
X329500Y370500D02*
D03*
X260250Y254000D02*
D03*
X162500Y272250D02*
D03*
X549500Y250500D02*
D03*
X529500Y240500D02*
D03*
X171500Y304250D02*
D03*
Y272250D02*
D03*
X479500Y360500D02*
D03*
Y350500D02*
D03*
X479500Y280500D02*
D03*
X187500Y312250D02*
D03*
Y304250D02*
D03*
X539500Y220500D02*
D03*
X539500Y230500D02*
D03*
X549500D02*
D03*
X549500Y240500D02*
D03*
X529500Y340500D02*
D03*
X369500Y260500D02*
D03*
X7250Y587750D02*
D03*
X14000Y594500D02*
D03*
X27500D02*
D03*
X34250Y589000D02*
D03*
X41000Y594500D02*
D03*
X47750Y587750D02*
D03*
X54500Y594500D02*
D03*
X61250Y587750D02*
D03*
X101750D02*
D03*
X95000Y594500D02*
D03*
X88250Y587750D02*
D03*
X81500Y594500D02*
D03*
X74750Y587750D02*
D03*
X68000Y594500D02*
D03*
X142250Y587750D02*
D03*
X135500Y594500D02*
D03*
X128750Y587750D02*
D03*
X122000Y594500D02*
D03*
X115250Y587750D02*
D03*
X108500Y594500D02*
D03*
X176000D02*
D03*
X169250Y587750D02*
D03*
X162500Y594500D02*
D03*
X155750Y587750D02*
D03*
X149000Y594500D02*
D03*
X223250Y587750D02*
D03*
X209750D02*
D03*
X196250D02*
D03*
X263750D02*
D03*
X257000Y594500D02*
D03*
X250250Y587750D02*
D03*
X243500Y594500D02*
D03*
X236750Y587750D02*
D03*
X230000Y594500D02*
D03*
X304250Y587750D02*
D03*
X297500Y594500D02*
D03*
X290750Y587750D02*
D03*
X284000Y594500D02*
D03*
X270500D02*
D03*
X344750Y587750D02*
D03*
X338000Y594500D02*
D03*
X331250Y587750D02*
D03*
X324500Y594500D02*
D03*
X317750Y587750D02*
D03*
X311000Y594500D02*
D03*
X385250Y587750D02*
D03*
X378500Y594500D02*
D03*
X371750Y587750D02*
D03*
X365000Y594500D02*
D03*
X358250Y587750D02*
D03*
X351500Y594500D02*
D03*
X425750Y587750D02*
D03*
X419000Y594500D02*
D03*
X412250Y587750D02*
D03*
X405500Y594500D02*
D03*
X398750Y587750D02*
D03*
X392000Y594500D02*
D03*
X466250Y587750D02*
D03*
X459500Y594500D02*
D03*
X452750Y587750D02*
D03*
X446000Y594500D02*
D03*
X439250Y587750D02*
D03*
X432500Y594500D02*
D03*
X506750Y587750D02*
D03*
X500000Y594500D02*
D03*
X493250Y587750D02*
D03*
X486500Y594500D02*
D03*
X479750Y587750D02*
D03*
X473000Y594500D02*
D03*
X547250Y587750D02*
D03*
X540500Y594500D02*
D03*
X533750Y587750D02*
D03*
X527000Y594500D02*
D03*
X520250Y587750D02*
D03*
X513500Y594500D02*
D03*
X587750Y587750D02*
D03*
X581000Y594500D02*
D03*
X574250Y587750D02*
D03*
X567500Y594500D02*
D03*
X560750Y587750D02*
D03*
X554000Y594500D02*
D03*
X628250Y587750D02*
D03*
X621500Y594500D02*
D03*
X614750Y587750D02*
D03*
X608000Y594500D02*
D03*
X601250Y587750D02*
D03*
X594500Y594500D02*
D03*
X668750Y587750D02*
D03*
X662000Y594500D02*
D03*
X655250Y587750D02*
D03*
X648500Y594500D02*
D03*
X641750Y587750D02*
D03*
X635000Y594500D02*
D03*
X709250Y587750D02*
D03*
X702500Y594500D02*
D03*
X695750Y587750D02*
D03*
X689000Y594500D02*
D03*
X682250Y587750D02*
D03*
X675500Y594500D02*
D03*
X749750Y587750D02*
D03*
X743000Y594500D02*
D03*
X736250Y587750D02*
D03*
X729500Y594500D02*
D03*
X722750Y587750D02*
D03*
X716000Y594500D02*
D03*
X790250Y587750D02*
D03*
X776750D02*
D03*
X770000Y594500D02*
D03*
X763250Y587750D02*
D03*
X756500Y594500D02*
D03*
X830750Y587750D02*
D03*
X824000Y594500D02*
D03*
X817250Y587750D02*
D03*
X803750D02*
D03*
X871250D02*
D03*
X864500Y594500D02*
D03*
X857750Y587750D02*
D03*
X851000Y594500D02*
D03*
X844250Y587750D02*
D03*
X837500Y594500D02*
D03*
X911750Y587750D02*
D03*
X905000Y594500D02*
D03*
X898250Y587750D02*
D03*
X891500Y594500D02*
D03*
X884750Y587750D02*
D03*
X878000Y594500D02*
D03*
X952250Y587750D02*
D03*
X945500Y594500D02*
D03*
X938750Y587750D02*
D03*
X932000Y594500D02*
D03*
X925250Y587750D02*
D03*
X918500Y594500D02*
D03*
X992750Y587750D02*
D03*
X986000Y594500D02*
D03*
X979250Y587750D02*
D03*
X972500Y594500D02*
D03*
X965750Y588750D02*
D03*
X959000Y594500D02*
D03*
X20750Y587750D02*
D03*
Y12250D02*
D03*
X959000Y5500D02*
D03*
X965750Y11000D02*
D03*
X972500Y5500D02*
D03*
X979250Y12250D02*
D03*
X986000Y5500D02*
D03*
X992750Y12250D02*
D03*
X918500Y5500D02*
D03*
X925250Y12250D02*
D03*
X932000Y5500D02*
D03*
X938750Y12250D02*
D03*
X945500Y5500D02*
D03*
X952250Y12250D02*
D03*
X878000Y5500D02*
D03*
X884750Y12250D02*
D03*
X891500Y5500D02*
D03*
X898250Y12250D02*
D03*
X905000Y5500D02*
D03*
X911750Y12250D02*
D03*
X837500Y5500D02*
D03*
X844250Y12250D02*
D03*
X851000Y5500D02*
D03*
X857750Y12250D02*
D03*
X864500Y5500D02*
D03*
X871250Y12250D02*
D03*
X803750D02*
D03*
X817250D02*
D03*
X824000Y5500D02*
D03*
X830750Y12250D02*
D03*
X756500Y5500D02*
D03*
X763250Y12250D02*
D03*
X770000Y5500D02*
D03*
X776750Y12250D02*
D03*
X790250D02*
D03*
X716000Y5500D02*
D03*
X722750Y12250D02*
D03*
X729500Y5500D02*
D03*
X736250Y12250D02*
D03*
X743000Y5500D02*
D03*
X749750Y12250D02*
D03*
X675500Y5500D02*
D03*
X682250Y12250D02*
D03*
X689000Y5500D02*
D03*
X695750Y12250D02*
D03*
X702500Y5500D02*
D03*
X709250Y12250D02*
D03*
X635000Y5500D02*
D03*
X641750Y12250D02*
D03*
X648500Y5500D02*
D03*
X655250Y12250D02*
D03*
X662000Y5500D02*
D03*
X668750Y12250D02*
D03*
X594500Y5500D02*
D03*
X601250Y12250D02*
D03*
X608000Y5500D02*
D03*
X614750Y12250D02*
D03*
X621500Y5500D02*
D03*
X628250Y12250D02*
D03*
X554000Y5500D02*
D03*
X560750Y12250D02*
D03*
X567500Y5500D02*
D03*
X574250Y12250D02*
D03*
X581000Y5500D02*
D03*
X587750Y12250D02*
D03*
X513500Y5500D02*
D03*
X520250Y12250D02*
D03*
X527000Y5500D02*
D03*
X533750Y12250D02*
D03*
X540500Y5500D02*
D03*
X547250Y12250D02*
D03*
X473000Y5500D02*
D03*
X479750Y12250D02*
D03*
X486500Y5500D02*
D03*
X493250Y12250D02*
D03*
X500000Y5500D02*
D03*
X506750Y12250D02*
D03*
X432500Y5500D02*
D03*
X439250Y12250D02*
D03*
X446000Y5500D02*
D03*
X452750Y12250D02*
D03*
X459500Y5500D02*
D03*
X466250Y12250D02*
D03*
X392000Y5500D02*
D03*
X398750Y12250D02*
D03*
X405500Y5500D02*
D03*
X412250Y12250D02*
D03*
X419000Y5500D02*
D03*
X425750Y12250D02*
D03*
X351500Y5500D02*
D03*
X358250Y12250D02*
D03*
X365000Y5500D02*
D03*
X371750Y12250D02*
D03*
X378500Y5500D02*
D03*
X385250Y12250D02*
D03*
X311000Y5500D02*
D03*
X317750Y12250D02*
D03*
X324500Y5500D02*
D03*
X331250Y12250D02*
D03*
X338000Y5500D02*
D03*
X344750Y12250D02*
D03*
X270500Y5500D02*
D03*
X277250Y12250D02*
D03*
X284000Y5500D02*
D03*
X290750Y12250D02*
D03*
X297500Y5500D02*
D03*
X304250Y12250D02*
D03*
X230000Y5500D02*
D03*
X236750Y12250D02*
D03*
X243500Y5500D02*
D03*
X250250Y12250D02*
D03*
X257000Y5500D02*
D03*
X263750Y12250D02*
D03*
X196250D02*
D03*
X209750D02*
D03*
X223250D02*
D03*
X149000Y5500D02*
D03*
X155750Y12250D02*
D03*
X162500Y5500D02*
D03*
X169250Y12250D02*
D03*
X176000Y5500D02*
D03*
X182750Y12250D02*
D03*
X108500Y5500D02*
D03*
X115250Y12250D02*
D03*
X122000Y5500D02*
D03*
X128750Y12250D02*
D03*
X135500Y5500D02*
D03*
X142250Y12250D02*
D03*
X68000Y5500D02*
D03*
X74750Y12250D02*
D03*
X81500Y5500D02*
D03*
X88250Y12250D02*
D03*
X95000Y5500D02*
D03*
X101750Y12250D02*
D03*
X61250D02*
D03*
X54500Y5500D02*
D03*
X47750Y12250D02*
D03*
X41000Y5500D02*
D03*
X34250Y10750D02*
D03*
X27500Y5500D02*
D03*
X14000D02*
D03*
X7250Y12250D02*
D03*
X239500Y254593D02*
D03*
X187500Y336250D02*
D03*
X479500Y310500D02*
D03*
X489500Y320500D02*
D03*
Y330500D02*
D03*
X499500Y340500D02*
D03*
Y310500D02*
D03*
X509500Y320500D02*
D03*
X509500Y340500D02*
D03*
X519500Y310500D02*
D03*
X539500Y320500D02*
D03*
X389500Y200500D02*
D03*
X399500Y200500D02*
D03*
X409500Y200500D02*
D03*
Y210500D02*
D03*
X429500Y200500D02*
D03*
X419500Y190500D02*
D03*
X419500Y210500D02*
D03*
X429500Y210500D02*
D03*
X519500Y200500D02*
D03*
X509500D02*
D03*
X529500D02*
D03*
X207500Y254593D02*
D03*
X179500Y272250D02*
D03*
X187500Y328250D02*
D03*
X171500Y336250D02*
D03*
X203500Y272250D02*
D03*
X231500Y345907D02*
D03*
X183500D02*
D03*
X175500D02*
D03*
Y254593D02*
D03*
X183500D02*
D03*
X199500D02*
D03*
X223500D02*
D03*
X231500D02*
D03*
X161500Y264000D02*
D03*
X161843Y308250D02*
D03*
X179500Y280250D02*
D03*
X187500Y296250D02*
D03*
Y272250D02*
D03*
X195500Y296250D02*
D03*
Y288250D02*
D03*
X203500Y312250D02*
D03*
Y304250D02*
D03*
Y296250D02*
D03*
Y288250D02*
D03*
X211500Y312250D02*
D03*
Y296250D02*
D03*
Y288250D02*
D03*
Y280250D02*
D03*
X219500Y336250D02*
D03*
Y328250D02*
D03*
Y320250D02*
D03*
X219500Y304250D02*
D03*
X219500Y296250D02*
D03*
Y288250D02*
D03*
Y280250D02*
D03*
Y272250D02*
D03*
X227500Y336250D02*
D03*
Y328250D02*
D03*
Y320250D02*
D03*
Y312250D02*
D03*
Y296250D02*
D03*
Y288250D02*
D03*
Y280250D02*
D03*
Y272250D02*
D03*
X235500Y336250D02*
D03*
Y328250D02*
D03*
Y320250D02*
D03*
Y312250D02*
D03*
Y304250D02*
D03*
Y296250D02*
D03*
Y288250D02*
D03*
Y280250D02*
D03*
Y272250D02*
D03*
X243500D02*
D03*
Y304250D02*
D03*
Y312250D02*
D03*
X243500Y320250D02*
D03*
Y328250D02*
D03*
Y336250D02*
D03*
X253157Y332250D02*
D03*
Y324250D02*
D03*
Y316250D02*
D03*
Y308250D02*
D03*
Y292250D02*
D03*
Y284250D02*
D03*
X409500Y330500D02*
D03*
X399500D02*
D03*
X489500Y360500D02*
D03*
X489500Y350500D02*
D03*
Y340500D02*
D03*
X399500Y340500D02*
D03*
X379500Y360500D02*
D03*
X529500Y190500D02*
D03*
X499500D02*
D03*
X449500Y190500D02*
D03*
X459500D02*
D03*
X469500D02*
D03*
X479500D02*
D03*
X489500D02*
D03*
X399500Y190500D02*
D03*
X369500D02*
D03*
X379500D02*
D03*
X389500D02*
D03*
X339500D02*
D03*
X449500Y200500D02*
D03*
X459500D02*
D03*
X469500D02*
D03*
X479500D02*
D03*
X489500D02*
D03*
X439500Y200500D02*
D03*
X369500D02*
D03*
X519500Y250500D02*
D03*
X509500D02*
D03*
X489500Y250500D02*
D03*
X429500Y250500D02*
D03*
X339500D02*
D03*
X369500Y240500D02*
D03*
X489500Y240500D02*
D03*
X499500Y240500D02*
D03*
X509500D02*
D03*
X379500Y230500D02*
D03*
X369500D02*
D03*
X359500D02*
D03*
X489500Y230500D02*
D03*
X469500D02*
D03*
X499500Y230500D02*
D03*
X519500D02*
D03*
X529500D02*
D03*
X389500Y220500D02*
D03*
X369500D02*
D03*
X439500D02*
D03*
X429500D02*
D03*
X459500Y220500D02*
D03*
X449500D02*
D03*
X489500Y210500D02*
D03*
X479500D02*
D03*
X469500D02*
D03*
X519500Y210500D02*
D03*
X539500Y300500D02*
D03*
X529500D02*
D03*
X519500D02*
D03*
X499500D02*
D03*
X459500Y300500D02*
D03*
X479500D02*
D03*
X399500Y300500D02*
D03*
X409500D02*
D03*
X349500D02*
D03*
X359500D02*
D03*
X379500D02*
D03*
X339500D02*
D03*
X329500D02*
D03*
X389500Y290500D02*
D03*
X379500D02*
D03*
X369500D02*
D03*
X359500D02*
D03*
X409500D02*
D03*
X489500Y290500D02*
D03*
X479500D02*
D03*
X459500D02*
D03*
X349500Y280500D02*
D03*
X409500D02*
D03*
X399500D02*
D03*
X489500Y280500D02*
D03*
X459500D02*
D03*
X499500Y280500D02*
D03*
X509500D02*
D03*
X529500D02*
D03*
X539500D02*
D03*
X389500Y270500D02*
D03*
X439500D02*
D03*
X429500D02*
D03*
X419500D02*
D03*
X409500D02*
D03*
X449500Y270500D02*
D03*
X529500Y270500D02*
D03*
X459500Y260500D02*
D03*
X369500Y330500D02*
D03*
X359500D02*
D03*
X429500D02*
D03*
X479500Y330500D02*
D03*
X449500D02*
D03*
X499500Y330500D02*
D03*
X329500Y320500D02*
D03*
X339500D02*
D03*
X389500D02*
D03*
X369500D02*
D03*
X439500D02*
D03*
X429500D02*
D03*
X419500D02*
D03*
X409500D02*
D03*
X399500D02*
D03*
X479500Y320500D02*
D03*
X459500D02*
D03*
X449500D02*
D03*
X499500Y320500D02*
D03*
X329500Y310500D02*
D03*
X339500D02*
D03*
X389500D02*
D03*
X379500D02*
D03*
X359500D02*
D03*
X349500D02*
D03*
X409500D02*
D03*
X459500Y310500D02*
D03*
X509500Y310500D02*
D03*
X539500D02*
D03*
X759260Y341687D02*
D03*
X509500Y350500D02*
D03*
X499500D02*
D03*
X449500Y350500D02*
D03*
X459500D02*
D03*
X469500D02*
D03*
X399500Y350500D02*
D03*
X409500D02*
D03*
X419500D02*
D03*
X429500D02*
D03*
X439500D02*
D03*
X329500Y360500D02*
D03*
X339500D02*
D03*
X369500D02*
D03*
X349500D02*
D03*
X439500D02*
D03*
X429500D02*
D03*
X419500D02*
D03*
X409500D02*
D03*
X399500D02*
D03*
X459500Y360500D02*
D03*
X449500D02*
D03*
X499500Y360500D02*
D03*
X509500D02*
D03*
X339500Y370500D02*
D03*
X389500D02*
D03*
X379500D02*
D03*
X369500D02*
D03*
X359500D02*
D03*
X439500D02*
D03*
X429500D02*
D03*
X419500D02*
D03*
X409500D02*
D03*
X399500D02*
D03*
X489500Y370500D02*
D03*
X469500D02*
D03*
X459500D02*
D03*
X449500D02*
D03*
X499500Y370500D02*
D03*
X509500D02*
D03*
X519500D02*
D03*
X529500D02*
D03*
X539500D02*
D03*
X329500Y380500D02*
D03*
X389500D02*
D03*
X379500D02*
D03*
X369500D02*
D03*
X439500D02*
D03*
X429500D02*
D03*
X419500D02*
D03*
X409500D02*
D03*
X399500D02*
D03*
X489500Y380500D02*
D03*
X479500D02*
D03*
X469500D02*
D03*
X459500D02*
D03*
X449500D02*
D03*
X499500Y380500D02*
D03*
X509500D02*
D03*
X529500D02*
D03*
X539500D02*
D03*
X329500Y390500D02*
D03*
X379500D02*
D03*
X419500D02*
D03*
X409500D02*
D03*
X489500Y390500D02*
D03*
X479500D02*
D03*
X469500D02*
D03*
X449500D02*
D03*
X509500Y390500D02*
D03*
X519500D02*
D03*
X529500D02*
D03*
X539500D02*
D03*
X529500Y410500D02*
D03*
X519500D02*
D03*
X509500D02*
D03*
X499500D02*
D03*
X459500Y410500D02*
D03*
X469500D02*
D03*
X479500D02*
D03*
X399500Y410500D02*
D03*
X409500D02*
D03*
X419500D02*
D03*
X349500D02*
D03*
X369500D02*
D03*
X379500D02*
D03*
X389500D02*
D03*
X339500D02*
D03*
Y400500D02*
D03*
X389500D02*
D03*
X379500D02*
D03*
X369500D02*
D03*
X349500D02*
D03*
X419500D02*
D03*
X409500D02*
D03*
X399500D02*
D03*
X489500Y400500D02*
D03*
X479500D02*
D03*
X469500D02*
D03*
X459500D02*
D03*
X449500D02*
D03*
X499500Y400500D02*
D03*
X509500D02*
D03*
X519500D02*
D03*
X539500D02*
D03*
X389500Y340500D02*
D03*
X479500D02*
D03*
X171500Y288250D02*
D03*
Y280250D02*
D03*
X359500Y340500D02*
D03*
X359500Y350500D02*
D03*
X349500Y370500D02*
D03*
Y380500D02*
D03*
X339500Y380500D02*
D03*
X349500Y340500D02*
D03*
X349500Y330500D02*
D03*
X254907Y349000D02*
D03*
X329500Y340500D02*
D03*
X379500Y320500D02*
D03*
X986000Y576250D02*
D03*
X992750Y569500D02*
D03*
Y556000D02*
D03*
Y529000D02*
D03*
X986000Y535750D02*
D03*
X992750Y542500D02*
D03*
X986250Y549250D02*
D03*
X992750Y502000D02*
D03*
X986000Y508750D02*
D03*
X992750Y515500D02*
D03*
X986000Y522250D02*
D03*
X992750Y475000D02*
D03*
X986000Y481750D02*
D03*
X992750Y488500D02*
D03*
X986000Y495250D02*
D03*
X992750Y461500D02*
D03*
X986000Y468250D02*
D03*
X179500Y312250D02*
D03*
X389500Y350500D02*
D03*
X359500Y380500D02*
D03*
X509500Y290500D02*
D03*
X519500D02*
D03*
X529500D02*
D03*
X549500Y290500D02*
D03*
X539500D02*
D03*
X661500Y280000D02*
D03*
X679913Y312413D02*
D03*
X509500Y190500D02*
D03*
X529500Y220500D02*
D03*
X519500D02*
D03*
X509500Y220500D02*
D03*
X479500Y230500D02*
D03*
X553000Y266750D02*
D03*
X243500Y296250D02*
D03*
X227500Y304250D02*
D03*
X211500Y272250D02*
D03*
X469500Y300500D02*
D03*
X469500Y280500D02*
D03*
X519500Y270500D02*
D03*
X509500D02*
D03*
X489500D02*
D03*
X472250Y250500D02*
D03*
X463500D02*
D03*
X369500Y310500D02*
D03*
X195500Y336250D02*
D03*
X203500Y336250D02*
D03*
X459500Y230500D02*
D03*
X187500Y280250D02*
D03*
X539500Y340500D02*
D03*
D142*
X243000Y530625D02*
D03*
D180*
X108000Y428750D02*
D03*
Y448750D02*
D03*
X37500Y233500D02*
D03*
Y213500D02*
D03*
X499500Y287750D02*
D03*
Y267750D02*
D03*
X435000Y108750D02*
D03*
Y128750D02*
D03*
X157750Y183500D02*
D03*
Y203500D02*
D03*
X128500Y151000D02*
D03*
Y171000D02*
D03*
X104250Y316000D02*
D03*
Y336000D02*
D03*
X86750Y299000D02*
D03*
Y279000D02*
D03*
X136750Y310750D02*
D03*
Y330750D02*
D03*
X119500Y310750D02*
D03*
X119500Y330750D02*
D03*
X568500Y243000D02*
D03*
Y263000D02*
D03*
X544650Y104890D02*
D03*
Y84890D02*
D03*
X499000Y60750D02*
D03*
Y40750D02*
D03*
X529125Y64250D02*
D03*
Y44250D02*
D03*
X113500Y129000D02*
D03*
Y109000D02*
D03*
X592500Y357250D02*
D03*
Y337250D02*
D03*
D181*
X283750Y572250D02*
D03*
X263750D02*
D03*
X119750Y275250D02*
D03*
X99750Y275250D02*
D03*
X119500Y246500D02*
D03*
X99500D02*
D03*
D182*
X17300Y339500D02*
D03*
X11700D02*
D03*
X739800Y416000D02*
D03*
X734200D02*
D03*
X805050Y297750D02*
D03*
X799450D02*
D03*
X780004Y210886D02*
D03*
X774404D02*
D03*
X819460Y348687D02*
D03*
X825060D02*
D03*
X823710Y337187D02*
D03*
X829310D02*
D03*
X823460Y330687D02*
D03*
X829060D02*
D03*
X824174Y323073D02*
D03*
X829774D02*
D03*
X795310Y325437D02*
D03*
X789710D02*
D03*
X805100Y305250D02*
D03*
X799500D02*
D03*
X819290Y297813D02*
D03*
X813690D02*
D03*
X828960Y296187D02*
D03*
X834560D02*
D03*
X826540Y288063D02*
D03*
X820940D02*
D03*
X817210Y280687D02*
D03*
X822810D02*
D03*
X842460Y271437D02*
D03*
X848060D02*
D03*
X802063Y285260D02*
D03*
X796463D02*
D03*
X817210Y271937D02*
D03*
X822810D02*
D03*
X848100Y264250D02*
D03*
X842500D02*
D03*
X828010Y258487D02*
D03*
X833610D02*
D03*
X793810Y278937D02*
D03*
X788210D02*
D03*
X793750Y270187D02*
D03*
X788150D02*
D03*
X791250Y258250D02*
D03*
X796850D02*
D03*
X771960Y249937D02*
D03*
X777560D02*
D03*
X817748Y246289D02*
D03*
X823348D02*
D03*
X735900Y427250D02*
D03*
X741500D02*
D03*
X762930Y399817D02*
D03*
X757330D02*
D03*
X763010Y392000D02*
D03*
X757410D02*
D03*
X758810Y384187D02*
D03*
X753210D02*
D03*
X752900Y376250D02*
D03*
X758500D02*
D03*
X720760Y376437D02*
D03*
X715160D02*
D03*
X720510Y353387D02*
D03*
X714910D02*
D03*
X753500Y354000D02*
D03*
X747900D02*
D03*
X741826Y337437D02*
D03*
X747426D02*
D03*
X687710Y299737D02*
D03*
X682110D02*
D03*
X735810Y236437D02*
D03*
X730210D02*
D03*
X709000Y269387D02*
D03*
X703400D02*
D03*
X734060Y267687D02*
D03*
X728460D02*
D03*
Y275437D02*
D03*
X734060D02*
D03*
X701310Y292187D02*
D03*
X695710D02*
D03*
X736460Y300937D02*
D03*
X742060D02*
D03*
D185*
X304000Y491000D02*
D03*
Y501000D02*
D03*
X844250Y559750D02*
D03*
Y569750D02*
D03*
X886000Y570500D02*
D03*
Y560500D02*
D03*
X897000D02*
D03*
Y550500D02*
D03*
X733448Y557125D02*
D03*
Y547125D02*
D03*
X677250Y568500D02*
D03*
Y558500D02*
D03*
X688250D02*
D03*
Y548500D02*
D03*
X744448Y547125D02*
D03*
Y557125D02*
D03*
X632750Y567750D02*
D03*
Y577750D02*
D03*
X793250Y557500D02*
D03*
Y567500D02*
D03*
X270250Y207250D02*
D03*
Y217250D02*
D03*
X213000Y68250D02*
D03*
Y58250D02*
D03*
X649750Y265250D02*
D03*
Y275250D02*
D03*
X35250Y409750D02*
D03*
Y399750D02*
D03*
X117750Y553500D02*
D03*
Y543500D02*
D03*
X90250Y553750D02*
D03*
Y543750D02*
D03*
X295250Y567000D02*
D03*
Y577000D02*
D03*
X89750Y368250D02*
D03*
Y378250D02*
D03*
X202605Y479429D02*
D03*
Y469429D02*
D03*
X189250Y535000D02*
D03*
Y545000D02*
D03*
X270750Y169750D02*
D03*
Y179750D02*
D03*
X209750Y174000D02*
D03*
Y184000D02*
D03*
X184750Y364250D02*
D03*
Y354250D02*
D03*
X252250Y266750D02*
D03*
Y276750D02*
D03*
X258500Y235000D02*
D03*
Y245000D02*
D03*
X247750Y235000D02*
D03*
Y245000D02*
D03*
X159500Y233500D02*
D03*
Y243500D02*
D03*
X448000Y229000D02*
D03*
Y239000D02*
D03*
X444500Y215500D02*
D03*
Y205500D02*
D03*
X440750Y70250D02*
D03*
Y80250D02*
D03*
X604000Y254500D02*
D03*
Y264500D02*
D03*
X603650Y114640D02*
D03*
Y104640D02*
D03*
Y83640D02*
D03*
Y93640D02*
D03*
X556000Y48250D02*
D03*
Y38250D02*
D03*
X616650Y103640D02*
D03*
X616650Y93640D02*
D03*
X630250Y217500D02*
D03*
Y227500D02*
D03*
X587750Y38250D02*
D03*
Y48250D02*
D03*
X604500Y422500D02*
D03*
Y412500D02*
D03*
X281610Y72360D02*
D03*
Y82360D02*
D03*
X513500Y29750D02*
D03*
Y39750D02*
D03*
X485000Y29750D02*
D03*
X485000Y39750D02*
D03*
X29750Y142500D02*
D03*
Y152500D02*
D03*
X8250Y142500D02*
D03*
X8250Y152500D02*
D03*
X19000Y142500D02*
D03*
Y152500D02*
D03*
X19000Y173000D02*
D03*
Y163000D02*
D03*
X8250Y173000D02*
D03*
Y163000D02*
D03*
X29750Y173000D02*
D03*
Y163000D02*
D03*
X300750Y438500D02*
D03*
Y448500D02*
D03*
X692250Y323000D02*
D03*
Y313000D02*
D03*
X729510Y290187D02*
D03*
Y300187D02*
D03*
X31000Y499250D02*
D03*
Y509250D02*
D03*
X285500Y512625D02*
D03*
Y522625D02*
D03*
X246000Y488125D02*
D03*
Y498125D02*
D03*
X235000Y488125D02*
D03*
Y498125D02*
D03*
X104250Y401750D02*
D03*
Y391750D02*
D03*
X107750Y494750D02*
D03*
Y484750D02*
D03*
X93250Y481000D02*
D03*
Y471000D02*
D03*
X80750Y525250D02*
D03*
Y515250D02*
D03*
X293500Y480000D02*
D03*
Y470000D02*
D03*
X164000Y63750D02*
D03*
Y73750D02*
D03*
X604250Y278000D02*
D03*
Y288000D02*
D03*
X169000Y33750D02*
D03*
Y23750D02*
D03*
X184750Y37500D02*
D03*
Y27500D02*
D03*
X555750Y260250D02*
D03*
Y250250D02*
D03*
X304000Y470000D02*
D03*
Y480000D02*
D03*
X567750Y393250D02*
D03*
X567750Y383250D02*
D03*
X619250Y220750D02*
D03*
Y210750D02*
D03*
X458500Y69000D02*
D03*
Y59000D02*
D03*
X97250Y90500D02*
D03*
Y80500D02*
D03*
X359750Y406750D02*
D03*
Y416750D02*
D03*
X344500Y405500D02*
D03*
Y395500D02*
D03*
D189*
X514750Y325500D02*
D03*
Y335500D02*
D03*
X682000Y509250D02*
D03*
Y499250D02*
D03*
X666750Y509250D02*
D03*
Y499250D02*
D03*
X904000Y98750D02*
D03*
Y108750D02*
D03*
X454750Y355750D02*
D03*
Y365750D02*
D03*
X514500Y415750D02*
D03*
Y405750D02*
D03*
X504500Y395250D02*
D03*
Y385250D02*
D03*
X514250Y365750D02*
D03*
Y355750D02*
D03*
X414500Y365500D02*
D03*
Y375500D02*
D03*
X384500Y356000D02*
D03*
Y366000D02*
D03*
X364250Y385750D02*
D03*
Y395750D02*
D03*
X424500Y395250D02*
D03*
Y385250D02*
D03*
X514250Y395250D02*
D03*
Y385250D02*
D03*
X374500Y395500D02*
D03*
Y385500D02*
D03*
X404500Y375500D02*
D03*
Y385500D02*
D03*
X494750Y395750D02*
D03*
Y385750D02*
D03*
X494500Y415750D02*
D03*
Y405750D02*
D03*
X537500Y208500D02*
D03*
Y198500D02*
D03*
X395250Y209000D02*
D03*
Y219000D02*
D03*
X434500Y215500D02*
D03*
Y225500D02*
D03*
X464500Y215250D02*
D03*
Y225250D02*
D03*
X354750Y274500D02*
D03*
Y264500D02*
D03*
X324500Y171750D02*
D03*
Y181750D02*
D03*
X484500Y355750D02*
D03*
Y345750D02*
D03*
X424000Y265250D02*
D03*
Y255250D02*
D03*
X434500Y285750D02*
D03*
Y275750D02*
D03*
X424500Y285750D02*
D03*
Y275750D02*
D03*
X414250Y255250D02*
D03*
Y265250D02*
D03*
X404500Y265000D02*
D03*
Y275000D02*
D03*
X394250Y265250D02*
D03*
Y275250D02*
D03*
X454500Y265500D02*
D03*
Y275500D02*
D03*
X444500Y285750D02*
D03*
Y275750D02*
D03*
X465000Y295500D02*
D03*
Y305500D02*
D03*
X434500Y305500D02*
D03*
Y315500D02*
D03*
X458000Y243500D02*
D03*
Y253500D02*
D03*
X434500Y345500D02*
D03*
Y335500D02*
D03*
X414750Y305500D02*
D03*
Y315500D02*
D03*
X424500Y305750D02*
D03*
Y315750D02*
D03*
X464000Y336750D02*
D03*
Y326750D02*
D03*
X514500Y255500D02*
D03*
Y245500D02*
D03*
X494500Y365250D02*
D03*
Y355250D02*
D03*
X374750Y265500D02*
D03*
Y255500D02*
D03*
X384250Y385750D02*
D03*
Y375750D02*
D03*
X474250Y345500D02*
D03*
Y335500D02*
D03*
X374250Y375250D02*
D03*
Y365250D02*
D03*
X484250Y325250D02*
D03*
Y335250D02*
D03*
X464500Y395500D02*
D03*
Y385500D02*
D03*
X435000Y405500D02*
D03*
Y395500D02*
D03*
X464500Y355250D02*
D03*
Y365250D02*
D03*
X524500Y415750D02*
D03*
Y405750D02*
D03*
X394250Y355500D02*
D03*
Y365500D02*
D03*
X504500Y365250D02*
D03*
Y355250D02*
D03*
X18000Y394500D02*
D03*
Y404500D02*
D03*
X127000Y442000D02*
D03*
Y432000D02*
D03*
X235000Y417000D02*
D03*
Y427000D02*
D03*
X369500Y442750D02*
D03*
Y432750D02*
D03*
X440750Y428250D02*
D03*
Y438250D02*
D03*
X470000Y546500D02*
D03*
Y536500D02*
D03*
X491000Y546500D02*
D03*
Y536500D02*
D03*
X505000Y546750D02*
D03*
Y536750D02*
D03*
X409750Y546750D02*
D03*
Y536750D02*
D03*
X425500Y546750D02*
D03*
Y536750D02*
D03*
X443000Y547000D02*
D03*
Y537000D02*
D03*
X396250Y546750D02*
D03*
Y536750D02*
D03*
X550500Y432250D02*
D03*
Y442250D02*
D03*
X522000Y432250D02*
D03*
Y442250D02*
D03*
X311500Y440500D02*
D03*
Y450500D02*
D03*
X480750Y546500D02*
D03*
Y536500D02*
D03*
X569000Y546750D02*
D03*
Y536750D02*
D03*
X409750Y432750D02*
D03*
Y442750D02*
D03*
X333500Y432750D02*
D03*
Y442750D02*
D03*
X455000Y550500D02*
D03*
Y540500D02*
D03*
X456750Y432250D02*
D03*
Y442250D02*
D03*
X421750Y432750D02*
D03*
Y442750D02*
D03*
X349500Y546500D02*
D03*
Y536500D02*
D03*
X374250Y546750D02*
D03*
Y536750D02*
D03*
X164500Y352250D02*
D03*
Y362250D02*
D03*
X232750Y244750D02*
D03*
Y234750D02*
D03*
X236250Y354250D02*
D03*
Y364250D02*
D03*
X205250Y354250D02*
D03*
Y364250D02*
D03*
X191250Y243250D02*
D03*
Y253250D02*
D03*
X195500Y304000D02*
D03*
Y314000D02*
D03*
X222750Y234750D02*
D03*
Y244750D02*
D03*
X226250Y364250D02*
D03*
Y354250D02*
D03*
X195250Y364250D02*
D03*
Y354250D02*
D03*
X174250Y354250D02*
D03*
Y364250D02*
D03*
X170000Y235000D02*
D03*
Y245000D02*
D03*
X180000D02*
D03*
Y235000D02*
D03*
X212500Y244750D02*
D03*
Y234750D02*
D03*
X216750Y364250D02*
D03*
Y354250D02*
D03*
X128104Y288354D02*
D03*
Y298354D02*
D03*
X153250Y254500D02*
D03*
Y264500D02*
D03*
X170500Y321500D02*
D03*
Y311500D02*
D03*
X209750Y153000D02*
D03*
Y163000D02*
D03*
X67000Y221000D02*
D03*
Y211000D02*
D03*
X142000Y197000D02*
D03*
Y207000D02*
D03*
X490500Y149000D02*
D03*
Y159000D02*
D03*
X428750Y37500D02*
D03*
Y27500D02*
D03*
X521000Y546750D02*
D03*
Y536750D02*
D03*
X539500Y442250D02*
D03*
Y432250D02*
D03*
X505000Y442250D02*
D03*
Y432250D02*
D03*
X489000Y442250D02*
D03*
Y432250D02*
D03*
X473000Y442250D02*
D03*
Y432250D02*
D03*
X582500Y251750D02*
D03*
Y261750D02*
D03*
X614150Y126140D02*
D03*
Y116140D02*
D03*
X213000Y535000D02*
D03*
Y525000D02*
D03*
X546650Y125140D02*
D03*
Y115140D02*
D03*
X282000Y94250D02*
D03*
X282000Y104250D02*
D03*
X567750Y406000D02*
D03*
Y416000D02*
D03*
X485250Y61000D02*
D03*
Y51000D02*
D03*
X512750D02*
D03*
Y61000D02*
D03*
X280250Y416500D02*
D03*
Y406500D02*
D03*
X270250Y409750D02*
D03*
Y399750D02*
D03*
X251750Y411000D02*
D03*
Y401000D02*
D03*
X112750Y564250D02*
D03*
Y574250D02*
D03*
X255500Y488250D02*
D03*
Y498250D02*
D03*
X224750Y488125D02*
D03*
Y498125D02*
D03*
X232500Y572000D02*
D03*
Y562000D02*
D03*
X242500Y577000D02*
D03*
Y567000D02*
D03*
X129250Y474500D02*
D03*
Y484500D02*
D03*
X122750Y564250D02*
D03*
Y574250D02*
D03*
X96250Y521750D02*
D03*
Y511750D02*
D03*
X181250Y499000D02*
D03*
Y509000D02*
D03*
X569500Y306250D02*
D03*
Y296250D02*
D03*
X534750Y285250D02*
D03*
Y295250D02*
D03*
X404500Y205750D02*
D03*
Y195750D02*
D03*
X354500Y325750D02*
D03*
Y335750D02*
D03*
X484500Y405750D02*
D03*
Y395750D02*
D03*
X112250Y51250D02*
D03*
Y41250D02*
D03*
X152250Y116250D02*
D03*
Y106250D02*
D03*
X385750Y432500D02*
D03*
Y442500D02*
D03*
X384000Y335500D02*
D03*
Y325500D02*
D03*
X318250Y377250D02*
D03*
Y387250D02*
D03*
X479000Y106500D02*
D03*
Y96500D02*
D03*
X608750Y323250D02*
D03*
Y313250D02*
D03*
X579750Y346250D02*
D03*
Y356250D02*
D03*
X632750Y557000D02*
D03*
Y547000D02*
D03*
Y526000D02*
D03*
Y536000D02*
D03*
X868750Y531500D02*
D03*
Y541500D02*
D03*
X519750Y182250D02*
D03*
Y192250D02*
D03*
D194*
X843250Y504500D02*
D03*
X853250D02*
D03*
X843250Y514500D02*
D03*
X853250D02*
D03*
X637500Y109750D02*
D03*
X647500D02*
D03*
X676250Y103000D02*
D03*
X666250D02*
D03*
X327500Y577500D02*
D03*
X317500D02*
D03*
X424250Y355250D02*
D03*
X434250D02*
D03*
X504250Y325500D02*
D03*
X494250D02*
D03*
X514250Y305250D02*
D03*
X504250D02*
D03*
X484500Y305250D02*
D03*
X494500D02*
D03*
X434250Y375250D02*
D03*
X424250D02*
D03*
X344750D02*
D03*
X354750D02*
D03*
X344750Y365250D02*
D03*
X354750D02*
D03*
X326750Y196500D02*
D03*
X336750D02*
D03*
X514500Y225750D02*
D03*
X504500D02*
D03*
X332750Y292250D02*
D03*
X342750D02*
D03*
X332500Y270500D02*
D03*
X342500D02*
D03*
X424250Y215500D02*
D03*
X414250D02*
D03*
X541250Y181750D02*
D03*
X531250D02*
D03*
X332000Y281750D02*
D03*
X342000D02*
D03*
X384750Y305250D02*
D03*
X394750D02*
D03*
X434750Y255250D02*
D03*
X444750D02*
D03*
X435000Y265500D02*
D03*
X445000D02*
D03*
X370500Y276000D02*
D03*
X380500D02*
D03*
X370500Y284750D02*
D03*
X380500D02*
D03*
X464500Y285500D02*
D03*
X454500D02*
D03*
X444750Y295500D02*
D03*
X454750D02*
D03*
X424500Y295750D02*
D03*
X414500D02*
D03*
X444750Y305000D02*
D03*
X454750D02*
D03*
X445000Y315500D02*
D03*
X455000D02*
D03*
X394250Y325500D02*
D03*
X404250D02*
D03*
X394250Y315500D02*
D03*
X404250D02*
D03*
X443500Y342000D02*
D03*
X453500D02*
D03*
X484000Y255500D02*
D03*
X494000D02*
D03*
X524500Y285250D02*
D03*
X514500D02*
D03*
X524500Y265250D02*
D03*
X514500D02*
D03*
X534250Y235750D02*
D03*
X524250D02*
D03*
X534250Y225750D02*
D03*
X524250D02*
D03*
X355000Y315500D02*
D03*
X365000D02*
D03*
X324500Y405500D02*
D03*
X334500D02*
D03*
X538750Y359750D02*
D03*
X528750D02*
D03*
X494500Y315250D02*
D03*
X504500D02*
D03*
X434250Y325500D02*
D03*
X444250D02*
D03*
X221750Y455750D02*
D03*
X231750D02*
D03*
X598750Y511500D02*
D03*
X588750D02*
D03*
X278500Y491500D02*
D03*
X268500D02*
D03*
X195000Y278750D02*
D03*
X205000D02*
D03*
X195000Y327000D02*
D03*
X205000D02*
D03*
X262000Y293250D02*
D03*
X272000D02*
D03*
X262000Y303250D02*
D03*
X272000D02*
D03*
X148500Y339500D02*
D03*
X158500D02*
D03*
X272000Y283250D02*
D03*
X262000D02*
D03*
X272000Y313250D02*
D03*
X262000D02*
D03*
X200000Y232750D02*
D03*
X190000D02*
D03*
X262000Y322500D02*
D03*
X272000D02*
D03*
X204000Y264250D02*
D03*
X194000D02*
D03*
X272000Y331250D02*
D03*
X262000D02*
D03*
X223250Y264250D02*
D03*
X213250D02*
D03*
X138750Y288500D02*
D03*
X148750D02*
D03*
X170500Y299000D02*
D03*
X180500D02*
D03*
X398750Y149750D02*
D03*
X408750D02*
D03*
X702002Y212507D02*
D03*
X712002Y212507D02*
D03*
X18750Y348500D02*
D03*
X8750D02*
D03*
X157000Y126750D02*
D03*
X147000D02*
D03*
X557250Y220000D02*
D03*
X567250D02*
D03*
X567900Y81390D02*
D03*
X557900D02*
D03*
X593250Y282750D02*
D03*
X583250D02*
D03*
X358500Y66000D02*
D03*
X368500D02*
D03*
X197750Y55500D02*
D03*
X187750D02*
D03*
X276500Y476250D02*
D03*
X266500D02*
D03*
X275500Y533125D02*
D03*
X285500D02*
D03*
X296500D02*
D03*
X306500D02*
D03*
X285500Y543125D02*
D03*
X275500D02*
D03*
X256000Y477750D02*
D03*
X246000D02*
D03*
X225000D02*
D03*
X235000D02*
D03*
X151500Y479500D02*
D03*
X141500D02*
D03*
X139750Y494250D02*
D03*
X149750D02*
D03*
X269500Y560000D02*
D03*
X259500D02*
D03*
X171000Y555750D02*
D03*
X161000D02*
D03*
X148250Y566750D02*
D03*
X138250D02*
D03*
X171000Y565750D02*
D03*
X161000D02*
D03*
X191750Y575750D02*
D03*
X181750D02*
D03*
X90250Y575000D02*
D03*
X80250D02*
D03*
X21000Y529000D02*
D03*
X31000D02*
D03*
X201750Y509000D02*
D03*
X191750D02*
D03*
X181750Y478500D02*
D03*
X191750D02*
D03*
X181750Y488500D02*
D03*
X191750D02*
D03*
X195000Y519500D02*
D03*
X185000D02*
D03*
X224500Y78750D02*
D03*
X214500D02*
D03*
X524500Y275250D02*
D03*
X514500D02*
D03*
X421750Y225500D02*
D03*
X411750D02*
D03*
X394750Y285500D02*
D03*
X404750D02*
D03*
X364250Y355250D02*
D03*
X354250D02*
D03*
X504250Y335250D02*
D03*
X494250D02*
D03*
X96750Y70500D02*
D03*
X106750D02*
D03*
X532250Y34000D02*
D03*
X542250D02*
D03*
X364250Y335750D02*
D03*
X374250D02*
D03*
X549500Y192000D02*
D03*
X559500D02*
D03*
X349000Y568750D02*
D03*
X339000D02*
D03*
X579500Y327250D02*
D03*
X589500D02*
D03*
X604000Y244750D02*
D03*
X594000D02*
D03*
X833250Y559750D02*
D03*
X823250D02*
D03*
X793250Y578000D02*
D03*
X803250D02*
D03*
X964552Y456605D02*
D03*
X974551D02*
D03*
D196*
X974625Y467198D02*
D03*
X964625D02*
D03*
X918000Y560500D02*
D03*
X908000D02*
D03*
X964750Y519250D02*
D03*
X954750D02*
D03*
X889250Y531500D02*
D03*
X879250D02*
D03*
X954750Y508250D02*
D03*
X964750D02*
D03*
X709250Y558500D02*
D03*
X699250D02*
D03*
X653250Y526000D02*
D03*
X643250D02*
D03*
X593500Y412500D02*
D03*
X583500Y412500D02*
D03*
X636750Y324750D02*
D03*
X646750D02*
D03*
X662250Y346750D02*
D03*
X672250D02*
D03*
X677500Y280750D02*
D03*
X687500D02*
D03*
X31250Y477000D02*
D03*
X21250D02*
D03*
X88750Y403250D02*
D03*
X78750D02*
D03*
X293500Y553750D02*
D03*
X283500D02*
D03*
X90250Y564750D02*
D03*
X80250D02*
D03*
X24500Y425000D02*
D03*
X14500D02*
D03*
X207500Y574500D02*
D03*
X217500D02*
D03*
X208000Y555500D02*
D03*
X198000D02*
D03*
X57000Y450000D02*
D03*
X67000D02*
D03*
X355750Y141000D02*
D03*
X345750D02*
D03*
X358500Y76500D02*
D03*
X368500D02*
D03*
X347500D02*
D03*
X337500D02*
D03*
X218000Y132750D02*
D03*
X228000D02*
D03*
X239000D02*
D03*
X249000D02*
D03*
X188500Y288750D02*
D03*
X178500D02*
D03*
X273750Y257750D02*
D03*
X283750D02*
D03*
X242500Y264250D02*
D03*
X232500D02*
D03*
X156465Y278750D02*
D03*
X166464D02*
D03*
X296250Y160500D02*
D03*
X306250D02*
D03*
X682500Y257750D02*
D03*
X692500D02*
D03*
X459000Y145250D02*
D03*
X449000D02*
D03*
X480000D02*
D03*
X470000D02*
D03*
X440750Y191750D02*
D03*
X430750D02*
D03*
X292610Y72360D02*
D03*
X302610D02*
D03*
X189750Y114750D02*
D03*
X199750D02*
D03*
X577000Y48250D02*
D03*
X567000D02*
D03*
X302610Y83360D02*
D03*
X292610Y83360D02*
D03*
X70000Y375000D02*
D03*
X80000D02*
D03*
X70000Y364000D02*
D03*
X80000D02*
D03*
X136125Y80125D02*
D03*
X146125D02*
D03*
X683510Y338687D02*
D03*
X693510D02*
D03*
X677510Y291687D02*
D03*
X687510D02*
D03*
X276750Y501750D02*
D03*
X286750D02*
D03*
X151500Y469000D02*
D03*
X141500D02*
D03*
X104250Y471000D02*
D03*
X114250D02*
D03*
X119250Y494250D02*
D03*
X129250D02*
D03*
X149000Y554250D02*
D03*
X139000D02*
D03*
X191500Y566000D02*
D03*
X181500D02*
D03*
X161000Y575500D02*
D03*
X171000D02*
D03*
X149750Y577250D02*
D03*
X139750D02*
D03*
X21000Y519750D02*
D03*
X31000D02*
D03*
X42000Y499250D02*
D03*
X52000D02*
D03*
X191750Y498500D02*
D03*
X201750D02*
D03*
X107750Y533750D02*
D03*
X117750D02*
D03*
X107750Y522750D02*
D03*
X117750D02*
D03*
X107750Y511750D02*
D03*
X117750D02*
D03*
X494000Y575500D02*
D03*
X504000D02*
D03*
X583250Y293250D02*
D03*
X593250D02*
D03*
X670750Y233500D02*
D03*
X680750D02*
D03*
X701000Y234000D02*
D03*
X711000D02*
D03*
X701000Y223000D02*
D03*
X711000D02*
D03*
X693000Y245000D02*
D03*
X703000D02*
D03*
X350250Y192000D02*
D03*
X360250D02*
D03*
X494500Y195500D02*
D03*
X504500D02*
D03*
X490500Y220000D02*
D03*
X480500D02*
D03*
X32500Y378500D02*
D03*
X42500D02*
D03*
X194250Y85750D02*
D03*
X184250D02*
D03*
X75500Y73500D02*
D03*
X85500D02*
D03*
D197*
X69000Y525250D02*
D03*
Y520250D02*
D03*
Y515250D02*
D03*
Y510250D02*
D03*
X42000Y525250D02*
D03*
Y520250D02*
D03*
Y515250D02*
D03*
Y510250D02*
D03*
X170500Y536000D02*
D03*
Y531000D02*
D03*
Y526000D02*
D03*
Y521000D02*
D03*
Y516000D02*
D03*
X129500D02*
D03*
Y521000D02*
D03*
Y526000D02*
D03*
Y531000D02*
D03*
Y536000D02*
D03*
X587250Y114750D02*
D03*
Y108250D02*
D03*
Y101750D02*
D03*
Y95250D02*
D03*
X559750D02*
D03*
Y101750D02*
D03*
Y108250D02*
D03*
Y114750D02*
D03*
X607000Y231000D02*
D03*
Y224500D02*
D03*
Y218000D02*
D03*
Y211500D02*
D03*
X579500D02*
D03*
Y218000D02*
D03*
Y224500D02*
D03*
Y231000D02*
D03*
X266350Y85360D02*
D03*
Y78860D02*
D03*
Y72360D02*
D03*
Y65860D02*
D03*
X238850D02*
D03*
Y72360D02*
D03*
Y78860D02*
D03*
Y85360D02*
D03*
D198*
X573500Y105000D02*
D03*
X593250Y221250D02*
D03*
X252600Y75610D02*
D03*
D199*
X1064375Y664375D02*
D03*
Y-64375D02*
D03*
X-64375Y664375D02*
D03*
Y-64375D02*
D03*
D207*
X542750Y59250D02*
D03*
X559750D02*
D03*
X408000Y342250D02*
D03*
X425000D02*
D03*
X189250Y203250D02*
D03*
X172250D02*
D03*
X97500Y160750D02*
D03*
X114500D02*
D03*
X111000Y261000D02*
D03*
X128000D02*
D03*
X7250Y212125D02*
D03*
X24250Y212125D02*
D03*
X605500Y526500D02*
D03*
X588500D02*
D03*
X162500Y98500D02*
D03*
X179500D02*
D03*
X341500Y229250D02*
D03*
X324500D02*
D03*
X338000Y328500D02*
D03*
X321000D02*
D03*
X334500Y536750D02*
D03*
X317500D02*
D03*
X101500Y372750D02*
D03*
X118500D02*
D03*
D208*
X379250Y202250D02*
D03*
Y219250D02*
D03*
X362750Y553750D02*
D03*
Y536750D02*
D03*
X101000Y289000D02*
D03*
X101000Y306000D02*
D03*
X142000Y241750D02*
D03*
Y258750D02*
D03*
X152250Y329250D02*
D03*
X152250Y312250D02*
D03*
X146750Y69500D02*
D03*
Y52500D02*
D03*
X131750Y107250D02*
D03*
X131750Y124250D02*
D03*
X123750Y64750D02*
D03*
Y47750D02*
D03*
X539500Y251000D02*
D03*
Y268000D02*
D03*
D214*
X932785Y83715D02*
D03*
X925714Y90786D02*
D03*
D220*
X759214Y289286D02*
D03*
X766285Y282215D02*
D03*
D226*
X303000Y249000D02*
D03*
X303000Y264000D02*
D03*
X315000Y249000D02*
D03*
X315000Y264000D02*
D03*
X303000Y283000D02*
D03*
Y298000D02*
D03*
X315000Y283000D02*
D03*
Y298000D02*
D03*
X307250Y209500D02*
D03*
Y194500D02*
D03*
X295250Y209500D02*
D03*
X295250Y194500D02*
D03*
X307250Y234000D02*
D03*
Y219000D02*
D03*
X295250Y234000D02*
D03*
Y219000D02*
D03*
X307250Y185500D02*
D03*
Y170500D02*
D03*
X295250Y185500D02*
D03*
Y170500D02*
D03*
D227*
X303000Y254000D02*
D03*
X303000Y259000D02*
D03*
X315000Y254000D02*
D03*
X315000Y259000D02*
D03*
X303000Y288000D02*
D03*
Y293000D02*
D03*
X315000Y288000D02*
D03*
X315000Y293000D02*
D03*
X307250Y204500D02*
D03*
Y199500D02*
D03*
X295250Y204500D02*
D03*
X295250Y199500D02*
D03*
X307250Y229000D02*
D03*
Y224000D02*
D03*
X295250Y229000D02*
D03*
X295250Y224000D02*
D03*
X307250Y180500D02*
D03*
Y175500D02*
D03*
X295250Y180500D02*
D03*
Y175500D02*
D03*
D234*
X473750Y241750D02*
D03*
Y271750D02*
D03*
X553500Y278750D02*
D03*
Y308750D02*
D03*
X551750Y388750D02*
D03*
Y418750D02*
D03*
D241*
X330000Y245500D02*
D03*
X360000D02*
D03*
X359500Y211750D02*
D03*
X329500D02*
D03*
X389000Y239250D02*
D03*
X419000D02*
D03*
X361500Y568250D02*
D03*
X391500D02*
D03*
D256*
X160000Y507000D02*
D03*
X155000D02*
D03*
X150000D02*
D03*
X145000D02*
D03*
X140000D02*
D03*
Y545000D02*
D03*
X145000D02*
D03*
X150000D02*
D03*
X155000D02*
D03*
X160000D02*
D03*
X581750Y396500D02*
D03*
X588250D02*
D03*
X594750D02*
D03*
X601250D02*
D03*
Y369000D02*
D03*
X594750D02*
D03*
X588250D02*
D03*
X581750D02*
D03*
D257*
X591500Y382750D02*
D03*
D261*
X66750Y90000D02*
D03*
D262*
X92000Y117000D02*
D03*
D263*
X42000D02*
D03*
D264*
X600000Y571250D02*
D03*
X59000Y391000D02*
D03*
D265*
X612700Y571250D02*
D03*
X46300Y391000D02*
D03*
D266*
X29075Y348500D02*
D03*
X29075Y250500D02*
D03*
D267*
X20575Y366000D02*
D03*
X54075Y233000D02*
D03*
Y366000D02*
D03*
X20575Y233000D02*
D03*
X50075Y288500D02*
D03*
D268*
X49500Y415250D02*
D03*
X74500D02*
D03*
Y461500D02*
D03*
X49500D02*
D03*
D269*
X49500Y440250D02*
D03*
X74500D02*
D03*
Y486500D02*
D03*
X49500D02*
D03*
D270*
X961500Y38500D02*
D03*
X38500Y561500D02*
D03*
Y38500D02*
D03*
X961500Y561500D02*
D03*
D271*
X64150Y193500D02*
D03*
X38750D02*
D03*
X579950Y571000D02*
D03*
D272*
X13350Y193500D02*
D03*
X554550Y571000D02*
D03*
D273*
X930875Y529375D02*
D03*
X911875D02*
D03*
X911625Y549125D02*
D03*
X855750Y572750D02*
D03*
X874750D02*
D03*
X875000Y553000D02*
D03*
X973750Y478250D02*
D03*
X954750D02*
D03*
X954500Y498000D02*
D03*
X647000Y578250D02*
D03*
X666000D02*
D03*
X666250Y558500D02*
D03*
X722125Y527375D02*
D03*
X703125D02*
D03*
X702875Y547125D02*
D03*
D274*
X928875Y549125D02*
D03*
X857750Y553000D02*
D03*
X971750Y498000D02*
D03*
X649000Y558500D02*
D03*
X720125Y547125D02*
D03*
D275*
X774448Y566375D02*
D03*
X774448Y547375D02*
D03*
X754698Y547125D02*
D03*
D276*
Y564375D02*
D03*
D277*
X539000Y568250D02*
D03*
X516000Y577750D02*
D03*
Y558750D02*
D03*
D278*
X251750Y463750D02*
D03*
X256750D02*
D03*
X261750D02*
D03*
X266750D02*
D03*
X271750D02*
D03*
Y425250D02*
D03*
X266750D02*
D03*
X261750D02*
D03*
X256750D02*
D03*
X251750D02*
D03*
D279*
X281000Y454500D02*
D03*
Y449500D02*
D03*
Y444500D02*
D03*
Y439500D02*
D03*
Y434500D02*
D03*
X242500D02*
D03*
Y439500D02*
D03*
Y444500D02*
D03*
Y449500D02*
D03*
Y454500D02*
D03*
D280*
X261750Y444500D02*
D03*
D281*
X768390Y205246D02*
D03*
Y210846D02*
D03*
X760500Y211950D02*
D03*
Y217550D02*
D03*
X781617Y199654D02*
D03*
Y205254D02*
D03*
X750010Y238737D02*
D03*
Y233137D02*
D03*
X819460Y361100D02*
D03*
Y355500D02*
D03*
X811910Y357137D02*
D03*
Y351537D02*
D03*
X800510Y340937D02*
D03*
Y346537D02*
D03*
X804860Y351537D02*
D03*
Y357137D02*
D03*
X831750Y344950D02*
D03*
Y350550D02*
D03*
X839260Y339137D02*
D03*
Y344737D02*
D03*
X817500Y323073D02*
D03*
Y317473D02*
D03*
X831560Y309287D02*
D03*
Y303687D02*
D03*
X830000Y276250D02*
D03*
Y281850D02*
D03*
X860937Y262790D02*
D03*
Y257190D02*
D03*
X852714Y262646D02*
D03*
Y257046D02*
D03*
X821960Y258487D02*
D03*
Y252887D02*
D03*
X781260Y257816D02*
D03*
Y263416D02*
D03*
X774437Y270560D02*
D03*
Y264960D02*
D03*
X767937Y263190D02*
D03*
Y268790D02*
D03*
X756770Y267937D02*
D03*
Y273537D02*
D03*
X746510Y280287D02*
D03*
Y274687D02*
D03*
X817710Y238687D02*
D03*
Y233087D02*
D03*
X771260Y241737D02*
D03*
Y236137D02*
D03*
X763510Y241737D02*
D03*
Y236137D02*
D03*
X808490Y246263D02*
D03*
Y251863D02*
D03*
X791250Y246237D02*
D03*
Y240637D02*
D03*
X799010Y246237D02*
D03*
Y240637D02*
D03*
X775437Y205040D02*
D03*
Y199440D02*
D03*
X767760Y365137D02*
D03*
Y370737D02*
D03*
X736010Y376187D02*
D03*
Y381787D02*
D03*
X727010Y382037D02*
D03*
Y376437D02*
D03*
X697500Y367000D02*
D03*
Y372600D02*
D03*
X707510Y372737D02*
D03*
Y367137D02*
D03*
X715250Y359750D02*
D03*
Y365350D02*
D03*
X722760Y364387D02*
D03*
Y369987D02*
D03*
X728260Y353387D02*
D03*
Y358987D02*
D03*
X730510Y364387D02*
D03*
Y369987D02*
D03*
X741260Y362387D02*
D03*
Y367987D02*
D03*
X753310Y360187D02*
D03*
Y365787D02*
D03*
X760750Y336750D02*
D03*
Y331150D02*
D03*
X764260Y348687D02*
D03*
Y343087D02*
D03*
X710000Y338687D02*
D03*
Y333087D02*
D03*
X701500Y338687D02*
D03*
Y333087D02*
D03*
X688250Y271500D02*
D03*
Y265900D02*
D03*
X767000Y222000D02*
D03*
Y216400D02*
D03*
X754430Y225320D02*
D03*
Y219720D02*
D03*
X745313Y228060D02*
D03*
Y222460D02*
D03*
X735560Y231537D02*
D03*
Y225937D02*
D03*
X732010Y248487D02*
D03*
Y242887D02*
D03*
X724010Y242637D02*
D03*
Y248237D02*
D03*
X705750Y257250D02*
D03*
Y262850D02*
D03*
X698760Y271487D02*
D03*
Y265887D02*
D03*
X708010Y285913D02*
D03*
Y280313D02*
D03*
X700750Y286000D02*
D03*
Y280400D02*
D03*
X736260Y312987D02*
D03*
Y307387D02*
D03*
X728750Y313083D02*
D03*
Y307483D02*
D03*
X708760Y310387D02*
D03*
Y315987D02*
D03*
X700960Y313187D02*
D03*
Y318787D02*
D03*
X728750Y323987D02*
D03*
Y318387D02*
D03*
X736260Y323987D02*
D03*
Y318387D02*
D03*
X131000Y574450D02*
D03*
Y580050D02*
D03*
D282*
X9000Y443500D02*
D03*
Y448500D02*
D03*
Y453500D02*
D03*
Y458500D02*
D03*
X37500D02*
D03*
Y453500D02*
D03*
Y448500D02*
D03*
Y443500D02*
D03*
D283*
X15750Y465250D02*
D03*
X20750D02*
D03*
X25750D02*
D03*
X30750D02*
D03*
Y436750D02*
D03*
X25750D02*
D03*
X20750D02*
D03*
X15750D02*
D03*
D284*
X23250Y451000D02*
D03*
D285*
X461000Y521750D02*
D03*
Y513750D02*
D03*
Y505750D02*
D03*
Y473750D02*
D03*
Y465750D02*
D03*
Y457750D02*
D03*
X469000Y521750D02*
D03*
Y513750D02*
D03*
Y505750D02*
D03*
Y473750D02*
D03*
X469000Y465750D02*
D03*
Y457750D02*
D03*
X477000Y521750D02*
D03*
Y513750D02*
D03*
Y505750D02*
D03*
Y473750D02*
D03*
Y465750D02*
D03*
Y457750D02*
D03*
X485000Y521750D02*
D03*
Y513750D02*
D03*
Y505750D02*
D03*
Y473750D02*
D03*
Y465750D02*
D03*
Y457750D02*
D03*
X493000Y521750D02*
D03*
Y513750D02*
D03*
Y505750D02*
D03*
Y473750D02*
D03*
Y465750D02*
D03*
Y457750D02*
D03*
X501000Y521750D02*
D03*
Y513750D02*
D03*
X501000Y505750D02*
D03*
X501000Y473750D02*
D03*
X501000Y465750D02*
D03*
Y457750D02*
D03*
X509000Y521750D02*
D03*
Y513750D02*
D03*
Y505750D02*
D03*
Y473750D02*
D03*
X509000Y465750D02*
D03*
Y457750D02*
D03*
X517000Y521750D02*
D03*
Y513750D02*
D03*
Y505750D02*
D03*
Y473750D02*
D03*
Y465750D02*
D03*
Y457750D02*
D03*
X525000Y521750D02*
D03*
Y513750D02*
D03*
Y505750D02*
D03*
Y473750D02*
D03*
Y465750D02*
D03*
Y457750D02*
D03*
X533000Y513750D02*
D03*
Y505750D02*
D03*
Y473750D02*
D03*
Y465750D02*
D03*
Y457750D02*
D03*
X541000Y521750D02*
D03*
Y513750D02*
D03*
Y505750D02*
D03*
Y473750D02*
D03*
Y465750D02*
D03*
X549000Y513750D02*
D03*
Y505750D02*
D03*
Y473750D02*
D03*
Y465750D02*
D03*
Y457750D02*
D03*
X557000Y521750D02*
D03*
Y513750D02*
D03*
X557000Y505750D02*
D03*
X557000Y473750D02*
D03*
X557000Y465750D02*
D03*
X565000Y513750D02*
D03*
Y505750D02*
D03*
Y473750D02*
D03*
Y465750D02*
D03*
Y457750D02*
D03*
X573000Y521750D02*
D03*
Y513750D02*
D03*
Y505750D02*
D03*
Y473750D02*
D03*
Y465750D02*
D03*
X437750Y457750D02*
D03*
Y465750D02*
D03*
Y473750D02*
D03*
Y505750D02*
D03*
Y513750D02*
D03*
Y521750D02*
D03*
X429750Y457750D02*
D03*
Y465750D02*
D03*
Y473750D02*
D03*
Y505750D02*
D03*
X429750Y513750D02*
D03*
Y521750D02*
D03*
X421750Y457750D02*
D03*
Y465750D02*
D03*
Y473750D02*
D03*
Y505750D02*
D03*
Y513750D02*
D03*
Y521750D02*
D03*
X413750Y457750D02*
D03*
Y465750D02*
D03*
Y473750D02*
D03*
Y505750D02*
D03*
Y513750D02*
D03*
Y521750D02*
D03*
X405750Y457750D02*
D03*
Y465750D02*
D03*
Y473750D02*
D03*
Y505750D02*
D03*
Y513750D02*
D03*
Y521750D02*
D03*
X397750Y457750D02*
D03*
Y465750D02*
D03*
X397750Y473750D02*
D03*
X397750Y505750D02*
D03*
X397750Y513750D02*
D03*
Y521750D02*
D03*
X389750Y457750D02*
D03*
Y465750D02*
D03*
Y473750D02*
D03*
Y505750D02*
D03*
X389750Y513750D02*
D03*
Y521750D02*
D03*
X381750Y457750D02*
D03*
Y465750D02*
D03*
Y473750D02*
D03*
Y505750D02*
D03*
Y513750D02*
D03*
Y521750D02*
D03*
X373750Y457750D02*
D03*
Y465750D02*
D03*
Y473750D02*
D03*
Y505750D02*
D03*
Y513750D02*
D03*
Y521750D02*
D03*
X365750Y465750D02*
D03*
Y473750D02*
D03*
Y505750D02*
D03*
Y513750D02*
D03*
Y521750D02*
D03*
X357750Y457750D02*
D03*
Y465750D02*
D03*
Y473750D02*
D03*
Y505750D02*
D03*
Y513750D02*
D03*
X349750Y465750D02*
D03*
Y473750D02*
D03*
Y505750D02*
D03*
Y513750D02*
D03*
Y521750D02*
D03*
X341750Y457750D02*
D03*
Y465750D02*
D03*
X341750Y473750D02*
D03*
X341750Y505750D02*
D03*
X341750Y513750D02*
D03*
X333750Y465750D02*
D03*
Y473750D02*
D03*
Y505750D02*
D03*
Y513750D02*
D03*
Y521750D02*
D03*
X325750Y457750D02*
D03*
Y465750D02*
D03*
Y473750D02*
D03*
Y505750D02*
D03*
Y513750D02*
D03*
D286*
X124500Y197000D02*
D03*
X84500D02*
D03*
Y221000D02*
D03*
X124500D02*
D03*
D287*
X374750Y127550D02*
D03*
Y114850D02*
D03*
Y102150D02*
D03*
Y89450D02*
D03*
X326750Y127550D02*
D03*
Y114850D02*
D03*
Y102150D02*
D03*
Y89450D02*
D03*
D288*
X259050Y150500D02*
D03*
X246350D02*
D03*
X233650D02*
D03*
X220950D02*
D03*
X259050Y198500D02*
D03*
X246350D02*
D03*
X233650D02*
D03*
X220950D02*
D03*
D289*
X398750Y178500D02*
D03*
Y172000D02*
D03*
Y165500D02*
D03*
Y159000D02*
D03*
X339750Y178500D02*
D03*
Y172000D02*
D03*
Y165500D02*
D03*
Y159000D02*
D03*
X477750Y178500D02*
D03*
Y172000D02*
D03*
Y165500D02*
D03*
Y159000D02*
D03*
X418750Y178500D02*
D03*
Y172000D02*
D03*
Y165500D02*
D03*
Y159000D02*
D03*
X198500Y26750D02*
D03*
Y33250D02*
D03*
Y39750D02*
D03*
Y46250D02*
D03*
X257500Y26750D02*
D03*
Y33250D02*
D03*
Y39750D02*
D03*
Y46250D02*
D03*
D290*
X255500Y511375D02*
D03*
X250500D02*
D03*
X245500D02*
D03*
X240500D02*
D03*
X235500D02*
D03*
X230500D02*
D03*
Y549875D02*
D03*
X235500D02*
D03*
X240500D02*
D03*
X245500D02*
D03*
X250500D02*
D03*
X255500D02*
D03*
D291*
X223750Y518125D02*
D03*
Y523125D02*
D03*
Y528125D02*
D03*
Y533125D02*
D03*
Y538125D02*
D03*
Y543125D02*
D03*
X262250D02*
D03*
Y538125D02*
D03*
Y533125D02*
D03*
Y528125D02*
D03*
Y523125D02*
D03*
Y518125D02*
D03*
D292*
X249750Y387000D02*
D03*
X271750D02*
D03*
Y370000D02*
D03*
X249750D02*
D03*
D293*
X111375Y93125D02*
D03*
X111375Y89125D02*
D03*
Y85125D02*
D03*
Y81125D02*
D03*
X115375Y93125D02*
D03*
Y89125D02*
D03*
Y85125D02*
D03*
X115375Y81125D02*
D03*
X119375Y93125D02*
D03*
X119375Y89125D02*
D03*
X119375Y85125D02*
D03*
Y81125D02*
D03*
X123375Y93125D02*
D03*
X123375Y89125D02*
D03*
X123375Y85125D02*
D03*
X123375Y81125D02*
D03*
D294*
X810450Y280167D02*
D03*
X806490Y276207D02*
D03*
X750310Y270887D02*
D03*
X746350Y266927D02*
D03*
D295*
X807530Y262323D02*
D03*
X811490Y258363D02*
D03*
X699250Y361000D02*
D03*
X703210Y357040D02*
D03*
X733990Y342457D02*
D03*
X730030Y346417D02*
D03*
X720490Y309457D02*
D03*
X716530Y313417D02*
D03*
D296*
X170000Y449750D02*
D03*
Y385750D02*
D03*
D297*
X148000Y442250D02*
D03*
Y390250D02*
D03*
X192000D02*
D03*
Y442250D02*
D03*
X148000D02*
D03*
Y390250D02*
D03*
X192000D02*
D03*
Y442250D02*
D03*
D298*
X150000Y526000D02*
D03*
D299*
X320857Y425857D02*
D03*
X299643Y404643D02*
D03*
M02*
