G04 Layer_Color=16711935*
%FSLAX44Y44*%
%MOMM*%
G71*
G01*
G75*
%ADD10C,0.2000*%
%ADD11C,0.3090*%
%ADD17C,0.3000*%
%ADD95C,0.4000*%
%ADD97C,0.5000*%
%ADD101C,0.6000*%
%ADD167C,0.2540*%
D10*
X2332750Y-701500D02*
Y-583000D01*
X2055250Y-701500D02*
X2332750D01*
X2055250D02*
Y-583000D01*
X2169750Y-701500D02*
Y-583000D01*
X2055250D02*
X2332750D01*
X2055250D02*
Y-553000D01*
X2332750Y-583000D02*
Y-553000D01*
Y-434500D02*
Y-404500D01*
X2055250D02*
X2332750D01*
X2055250Y-434500D02*
Y-404500D01*
X2169750Y-553000D02*
Y-434500D01*
X2055250D02*
X2332750D01*
X2055250Y-553000D02*
Y-434500D01*
Y-553000D02*
X2332750D01*
Y-434500D01*
D11*
X12700Y600000D02*
X987300D01*
D17*
X0Y12700D02*
G03*
X12700Y0I12700J0D01*
G01*
X987300D02*
G03*
X1000000Y12700I0J12700D01*
G01*
Y587300D02*
G03*
X987300Y600000I-12700J0D01*
G01*
X12700D02*
G03*
X0Y587300I0J-12700D01*
G01*
X-36750Y-36750D02*
X182000D01*
X224000Y-36750D02*
X776000D01*
X-36750Y636750D02*
X182000D01*
X224000Y636750D02*
X776000D01*
X182000Y600000D02*
Y636750D01*
X224000Y600000D02*
Y636750D01*
X182000Y-36750D02*
Y0D01*
X224000Y-36750D02*
Y0D01*
X818000Y-36750D02*
X1036750D01*
X818000Y636750D02*
X1036750D01*
X818000Y600000D02*
Y636750D01*
X776000Y600000D02*
Y636750D01*
Y-36750D02*
Y0D01*
X818000Y-36750D02*
Y0D01*
X-36750Y321000D02*
Y636750D01*
Y-36750D02*
Y321000D01*
X-92000Y-92000D02*
X1092000D01*
X1036750Y-36750D02*
Y636750D01*
X-92000Y-92000D02*
Y692000D01*
X1092000D01*
Y-92000D02*
Y692000D01*
X0Y12700D02*
Y587300D01*
X12700Y0D02*
X987300D01*
X1000000Y12700D02*
Y587300D01*
X48000Y-177052D02*
X57997D01*
X77990Y-172054D02*
X80490Y-169554D01*
X85488D01*
X87987Y-172054D01*
Y-182050D01*
X85488Y-184550D01*
X80490D01*
X77990Y-182050D01*
Y-172054D01*
X92985Y-184550D02*
Y-182050D01*
X95485D01*
Y-184550D01*
X92985D01*
X105481Y-172054D02*
X107981Y-169554D01*
X112979D01*
X115478Y-172054D01*
Y-174553D01*
X112979Y-177052D01*
X110480D01*
X112979D01*
X115478Y-179551D01*
Y-182050D01*
X112979Y-184550D01*
X107981D01*
X105481Y-182050D01*
X130473Y-169554D02*
X120477D01*
Y-177052D01*
X125475Y-174553D01*
X127974D01*
X130473Y-177052D01*
Y-182050D01*
X127974Y-184550D01*
X122976D01*
X120477Y-182050D01*
X135472Y-184550D02*
Y-174553D01*
X137971D01*
X140470Y-177052D01*
Y-184550D01*
Y-177052D01*
X142969Y-174553D01*
X145468Y-177052D01*
Y-184550D01*
X150467D02*
Y-174553D01*
X152966D01*
X155465Y-177052D01*
Y-184550D01*
Y-177052D01*
X157964Y-174553D01*
X160464Y-177052D01*
Y-184550D01*
X180457Y-174553D02*
Y-184550D01*
Y-179551D01*
X182956Y-177052D01*
X185455Y-174553D01*
X187955D01*
X195452Y-184550D02*
X200451D01*
X197951D01*
Y-174553D01*
X195452D01*
X207948Y-184550D02*
Y-174553D01*
X215446D01*
X217945Y-177052D01*
Y-184550D01*
X227942Y-189548D02*
X230441D01*
X232940Y-187049D01*
Y-174553D01*
X225443D01*
X222943Y-177052D01*
Y-182050D01*
X225443Y-184550D01*
X232940D01*
X255433Y-174553D02*
X260431D01*
X262930Y-177052D01*
Y-184550D01*
X255433D01*
X252934Y-182050D01*
X255433Y-179551D01*
X262930D01*
X267929Y-184550D02*
Y-174553D01*
X275426D01*
X277926Y-177052D01*
Y-184550D01*
X292921Y-169554D02*
Y-184550D01*
X285423D01*
X282924Y-182050D01*
Y-177052D01*
X285423Y-174553D01*
X292921D01*
X312914Y-172054D02*
X315413Y-169554D01*
X320412D01*
X322911Y-172054D01*
Y-182050D01*
X320412Y-184550D01*
X315413D01*
X312914Y-182050D01*
Y-172054D01*
X327909Y-184550D02*
Y-182050D01*
X330409D01*
Y-184550D01*
X327909D01*
X350402D02*
X340405D01*
X350402Y-174553D01*
Y-172054D01*
X347903Y-169554D01*
X342905D01*
X340405Y-172054D01*
X355401Y-184550D02*
Y-174553D01*
X357900D01*
X360399Y-177052D01*
Y-184550D01*
Y-177052D01*
X362898Y-174553D01*
X365397Y-177052D01*
Y-184550D01*
X370396D02*
Y-174553D01*
X372895D01*
X375394Y-177052D01*
Y-184550D01*
Y-177052D01*
X377893Y-174553D01*
X380392Y-177052D01*
Y-184550D01*
X410383Y-169554D02*
Y-184550D01*
X402885D01*
X400386Y-182050D01*
Y-177052D01*
X402885Y-174553D01*
X410383D01*
X415381D02*
Y-184550D01*
Y-179551D01*
X417880Y-177052D01*
X420379Y-174553D01*
X422879D01*
X430376Y-184550D02*
X435375D01*
X432875D01*
Y-174553D01*
X430376D01*
X442872Y-184550D02*
X447871D01*
X445371D01*
Y-169554D01*
X442872D01*
X455368Y-184550D02*
X460367D01*
X457867D01*
Y-169554D01*
X455368D01*
X482859Y-174553D02*
X487858Y-184550D01*
X492856Y-174553D01*
X497854Y-184550D02*
X502853D01*
X500354D01*
Y-174553D01*
X497854D01*
X512850D02*
X517848D01*
X520347Y-177052D01*
Y-184550D01*
X512850D01*
X510350Y-182050D01*
X512850Y-179551D01*
X520347D01*
X525345Y-177052D02*
X535342D01*
X540341Y-184550D02*
X545339D01*
X542840D01*
Y-174553D01*
X540341D01*
X552837Y-184550D02*
Y-174553D01*
X560334D01*
X562833Y-177052D01*
Y-184550D01*
X567832Y-177052D02*
X577828D01*
X582827Y-189548D02*
Y-174553D01*
X590324D01*
X592824Y-177052D01*
Y-182050D01*
X590324Y-184550D01*
X582827D01*
X600321Y-174553D02*
X605320D01*
X607819Y-177052D01*
Y-184550D01*
X600321D01*
X597822Y-182050D01*
X600321Y-179551D01*
X607819D01*
X622814Y-169554D02*
Y-184550D01*
X615316D01*
X612817Y-182050D01*
Y-177052D01*
X615316Y-174553D01*
X622814D01*
X627812Y-184550D02*
X635310D01*
X637809Y-182050D01*
X635310Y-179551D01*
X630312D01*
X627812Y-177052D01*
X630312Y-174553D01*
X637809D01*
X662801Y-184550D02*
X657803Y-179551D01*
Y-174553D01*
X662801Y-169554D01*
X670299D02*
X675297D01*
X672798D01*
Y-184550D01*
X670299D01*
X675297D01*
X692791Y-172054D02*
X690292Y-169554D01*
X685294D01*
X682794Y-172054D01*
Y-182050D01*
X685294Y-184550D01*
X690292D01*
X692791Y-182050D01*
X697790Y-184550D02*
X702788D01*
X700289D01*
Y-169554D01*
X697790Y-172054D01*
X710286Y-184550D02*
X715284Y-179551D01*
Y-174553D01*
X710286Y-169554D01*
X737777Y-184550D02*
Y-174553D01*
X740276D01*
X742775Y-177052D01*
Y-184550D01*
Y-177052D01*
X745274Y-174553D01*
X747774Y-177052D01*
Y-184550D01*
X752772Y-174553D02*
Y-182050D01*
X755271Y-184550D01*
X762769D01*
Y-174553D01*
X767767Y-184550D02*
X775265D01*
X777764Y-182050D01*
X775265Y-179551D01*
X770266D01*
X767767Y-177052D01*
X770266Y-174553D01*
X777764D01*
X785261Y-172054D02*
Y-174553D01*
X782762D01*
X787761D01*
X785261D01*
Y-182050D01*
X787761Y-184550D01*
X810253Y-169554D02*
Y-184550D01*
X817751D01*
X820250Y-182050D01*
Y-179551D01*
Y-177052D01*
X817751Y-174553D01*
X810253D01*
X832746Y-184550D02*
X827748D01*
X825248Y-182050D01*
Y-177052D01*
X827748Y-174553D01*
X832746D01*
X835245Y-177052D01*
Y-179551D01*
X825248D01*
X855239Y-174553D02*
Y-184550D01*
Y-179551D01*
X857738Y-177052D01*
X860237Y-174553D01*
X862736D01*
X877731Y-184550D02*
X872733D01*
X870234Y-182050D01*
Y-177052D01*
X872733Y-174553D01*
X877731D01*
X880231Y-177052D01*
Y-179551D01*
X870234D01*
X885229Y-184550D02*
X892727D01*
X895226Y-182050D01*
X892727Y-179551D01*
X887728D01*
X885229Y-177052D01*
X887728Y-174553D01*
X895226D01*
X900224Y-184550D02*
X905222D01*
X902723D01*
Y-174553D01*
X900224D01*
X912720Y-184550D02*
Y-174553D01*
X920218D01*
X922717Y-177052D01*
Y-184550D01*
X945210D02*
Y-172054D01*
Y-177052D01*
X942710D01*
X947709D01*
X945210D01*
Y-172054D01*
X947709Y-169554D01*
X955206Y-184550D02*
X960205D01*
X957706D01*
Y-174553D01*
X955206D01*
X967702Y-184550D02*
X972701D01*
X970201D01*
Y-169554D01*
X967702D01*
X980198Y-184550D02*
X985197D01*
X982698D01*
Y-169554D01*
X980198D01*
X1000192Y-184550D02*
X995193D01*
X992694Y-182050D01*
Y-177052D01*
X995193Y-174553D01*
X1000192D01*
X1002691Y-177052D01*
Y-179551D01*
X992694D01*
X1017686Y-169554D02*
Y-184550D01*
X1010189D01*
X1007689Y-182050D01*
Y-177052D01*
X1010189Y-174553D01*
X1017686D01*
X1037680D02*
Y-182050D01*
X1040179Y-184550D01*
X1042678Y-182050D01*
X1045177Y-184550D01*
X1047676Y-182050D01*
Y-174553D01*
X1052675Y-184550D02*
X1057673D01*
X1055174D01*
Y-174553D01*
X1052675D01*
X1067670Y-172054D02*
Y-174553D01*
X1065171D01*
X1070169D01*
X1067670D01*
Y-182050D01*
X1070169Y-184550D01*
X1077667Y-169554D02*
Y-184550D01*
Y-177052D01*
X1080166Y-174553D01*
X1085164D01*
X1087663Y-177052D01*
Y-184550D01*
X1107657D02*
Y-174553D01*
X1110156D01*
X1112655Y-177052D01*
Y-184550D01*
Y-177052D01*
X1115155Y-174553D01*
X1117654Y-177052D01*
Y-184550D01*
X1130150D02*
X1125151D01*
X1122652Y-182050D01*
Y-177052D01*
X1125151Y-174553D01*
X1130150D01*
X1132649Y-177052D01*
Y-179551D01*
X1122652D01*
X1140146Y-172054D02*
Y-174553D01*
X1137647D01*
X1142646D01*
X1140146D01*
Y-182050D01*
X1142646Y-184550D01*
X1152642Y-174553D02*
X1157641D01*
X1160140Y-177052D01*
Y-184550D01*
X1152642D01*
X1150143Y-182050D01*
X1152642Y-179551D01*
X1160140D01*
X1165138Y-184550D02*
X1170137D01*
X1167638D01*
Y-169554D01*
X1165138D01*
X1202626Y-174553D02*
X1195129D01*
X1192629Y-177052D01*
Y-182050D01*
X1195129Y-184550D01*
X1202626D01*
X1210124Y-174553D02*
X1215122D01*
X1217621Y-177052D01*
Y-184550D01*
X1210124D01*
X1207625Y-182050D01*
X1210124Y-179551D01*
X1217621D01*
X1222620Y-189548D02*
Y-174553D01*
X1230117D01*
X1232617Y-177052D01*
Y-182050D01*
X1230117Y-184550D01*
X1222620D01*
X48000Y-207244D02*
X57997D01*
X87987Y-202246D02*
X85488Y-199747D01*
X80490D01*
X77990Y-202246D01*
Y-204745D01*
X80490Y-207244D01*
X85488D01*
X87987Y-209744D01*
Y-212243D01*
X85488Y-214742D01*
X80490D01*
X77990Y-212243D01*
X95485Y-214742D02*
X100483D01*
X102982Y-212243D01*
Y-207244D01*
X100483Y-204745D01*
X95485D01*
X92985Y-207244D01*
Y-212243D01*
X95485Y-214742D01*
X107981D02*
X112979D01*
X110480D01*
Y-199747D01*
X107981D01*
X130473D02*
Y-214742D01*
X122976D01*
X120477Y-212243D01*
Y-207244D01*
X122976Y-204745D01*
X130473D01*
X142969Y-214742D02*
X137971D01*
X135472Y-212243D01*
Y-207244D01*
X137971Y-204745D01*
X142969D01*
X145468Y-207244D01*
Y-209744D01*
X135472D01*
X150467Y-204745D02*
Y-214742D01*
Y-209744D01*
X152966Y-207244D01*
X155465Y-204745D01*
X157964D01*
X180457Y-214742D02*
Y-204745D01*
X182956D01*
X185455Y-207244D01*
Y-214742D01*
Y-207244D01*
X187955Y-204745D01*
X190454Y-207244D01*
Y-214742D01*
X197951Y-204745D02*
X202950D01*
X205449Y-207244D01*
Y-214742D01*
X197951D01*
X195452Y-212243D01*
X197951Y-209744D01*
X205449D01*
X210447Y-214742D02*
X217945D01*
X220444Y-212243D01*
X217945Y-209744D01*
X212947D01*
X210447Y-207244D01*
X212947Y-204745D01*
X220444D01*
X225443Y-214742D02*
Y-199747D01*
Y-209744D02*
X232940Y-204745D01*
X225443Y-209744D02*
X232940Y-214742D01*
X255433Y-204745D02*
X257932D01*
Y-207244D01*
X255433D01*
Y-204745D01*
Y-212243D02*
X257932D01*
Y-214742D01*
X255433D01*
Y-212243D01*
X282924Y-199747D02*
Y-214742D01*
X290422D01*
X292921Y-212243D01*
Y-202246D01*
X290422Y-199747D01*
X282924D01*
X297919Y-214742D02*
Y-204745D01*
X302917Y-199747D01*
X307916Y-204745D01*
Y-214742D01*
Y-207244D01*
X297919D01*
X312914Y-214742D02*
Y-199747D01*
X320412D01*
X322911Y-202246D01*
Y-207244D01*
X320412Y-209744D01*
X312914D01*
X317913D02*
X322911Y-214742D01*
X327909Y-199747D02*
Y-214742D01*
Y-209744D01*
X337906Y-199747D01*
X330409Y-207244D01*
X337906Y-214742D01*
X357900Y-199747D02*
Y-214742D01*
X365397D01*
X367896Y-212243D01*
Y-209744D01*
X365397Y-207244D01*
X357900D01*
X365397D01*
X367896Y-204745D01*
Y-202246D01*
X365397Y-199747D01*
X357900D01*
X372895D02*
Y-214742D01*
X382892D01*
X387890Y-199747D02*
Y-212243D01*
X390389Y-214742D01*
X395387D01*
X397887Y-212243D01*
Y-199747D01*
X412882D02*
X402885D01*
Y-214742D01*
X412882D01*
X402885Y-207244D02*
X407883D01*
X420379Y-217241D02*
X422879Y-214742D01*
Y-212243D01*
X420379D01*
Y-214742D01*
X422879D01*
X420379Y-217241D01*
X417880Y-219741D01*
X447870Y-199747D02*
Y-214742D01*
X455368D01*
X457867Y-212243D01*
Y-209744D01*
Y-207244D01*
X455368Y-204745D01*
X447870D01*
X465365Y-214742D02*
X470363D01*
X472862Y-212243D01*
Y-207244D01*
X470363Y-204745D01*
X465365D01*
X462866Y-207244D01*
Y-212243D01*
X465365Y-214742D01*
X480360Y-202246D02*
Y-204745D01*
X477861D01*
X482859D01*
X480360D01*
Y-212243D01*
X482859Y-214742D01*
X490357Y-199747D02*
Y-214742D01*
Y-207244D01*
X492856Y-204745D01*
X497854D01*
X500354Y-207244D01*
Y-214742D01*
X520347D02*
X527845D01*
X530344Y-212243D01*
X527845Y-209744D01*
X522846D01*
X520347Y-207244D01*
X522846Y-204745D01*
X530344D01*
X535342Y-214742D02*
X540341D01*
X537841D01*
Y-204745D01*
X535342D01*
X557835Y-199747D02*
Y-214742D01*
X550337D01*
X547838Y-212243D01*
Y-207244D01*
X550337Y-204745D01*
X557835D01*
X570331Y-214742D02*
X565332D01*
X562833Y-212243D01*
Y-207244D01*
X565332Y-204745D01*
X570331D01*
X572830Y-207244D01*
Y-209744D01*
X562833D01*
X577828Y-214742D02*
X585326D01*
X587825Y-212243D01*
X585326Y-209744D01*
X580328D01*
X577828Y-207244D01*
X580328Y-204745D01*
X587825D01*
X595323Y-217241D02*
X597822Y-214742D01*
Y-212243D01*
X595323D01*
Y-214742D01*
X597822D01*
X595323Y-217241D01*
X592824Y-219741D01*
X622814Y-199747D02*
Y-214742D01*
Y-207244D01*
X625313Y-204745D01*
X630312D01*
X632811Y-207244D01*
Y-214742D01*
X640308Y-204745D02*
X645307D01*
X647806Y-207244D01*
Y-214742D01*
X640308D01*
X637809Y-212243D01*
X640308Y-209744D01*
X647806D01*
X652804Y-214742D02*
X657803D01*
X655303D01*
Y-199747D01*
X652804D01*
X667799Y-214742D02*
X672798D01*
X675297Y-212243D01*
Y-207244D01*
X672798Y-204745D01*
X667799D01*
X665300Y-207244D01*
Y-212243D01*
X667799Y-214742D01*
X685294Y-219741D02*
X687793D01*
X690292Y-217241D01*
Y-204745D01*
X682794D01*
X680295Y-207244D01*
Y-212243D01*
X682794Y-214742D01*
X690292D01*
X702788D02*
X697790D01*
X695290Y-212243D01*
Y-207244D01*
X697790Y-204745D01*
X702788D01*
X705287Y-207244D01*
Y-209744D01*
X695290D01*
X710286Y-214742D02*
Y-204745D01*
X717783D01*
X720282Y-207244D01*
Y-214742D01*
X742775D02*
Y-202246D01*
Y-207244D01*
X740276D01*
X745274D01*
X742775D01*
Y-202246D01*
X745274Y-199747D01*
X752772Y-204745D02*
Y-214742D01*
Y-209744D01*
X755271Y-207244D01*
X757770Y-204745D01*
X760269D01*
X775265Y-214742D02*
X770266D01*
X767767Y-212243D01*
Y-207244D01*
X770266Y-204745D01*
X775265D01*
X777764Y-207244D01*
Y-209744D01*
X767767D01*
X790260Y-214742D02*
X785261D01*
X782762Y-212243D01*
Y-207244D01*
X785261Y-204745D01*
X790260D01*
X792759Y-207244D01*
Y-209744D01*
X782762D01*
X800256Y-217241D02*
X802756Y-214742D01*
Y-212243D01*
X800256D01*
Y-214742D01*
X802756D01*
X800256Y-217241D01*
X797757Y-219741D01*
X832746D02*
X835245D01*
X837744Y-217241D01*
Y-204745D01*
X830247D01*
X827747Y-207244D01*
Y-212243D01*
X830247Y-214742D01*
X837744D01*
X842743D02*
X847741D01*
X845242D01*
Y-199747D01*
X842743D01*
X857738Y-214742D02*
X862736D01*
X865235Y-212243D01*
Y-207244D01*
X862736Y-204745D01*
X857738D01*
X855239Y-207244D01*
Y-212243D01*
X857738Y-214742D01*
X870234D02*
X877731D01*
X880230Y-212243D01*
X877731Y-209744D01*
X872733D01*
X870234Y-207244D01*
X872733Y-204745D01*
X880230D01*
X885229Y-214742D02*
X892727D01*
X895226Y-212243D01*
X892727Y-209744D01*
X887728D01*
X885229Y-207244D01*
X887728Y-204745D01*
X895226D01*
X900224D02*
Y-212243D01*
X902723Y-214742D01*
X910221D01*
Y-217241D01*
X907722Y-219741D01*
X905222D01*
X910221Y-214742D02*
Y-204745D01*
X932714Y-214742D02*
Y-202246D01*
Y-207244D01*
X930214D01*
X935213D01*
X932714D01*
Y-202246D01*
X935213Y-199747D01*
X942710Y-214742D02*
X947709D01*
X945210D01*
Y-204745D01*
X942710D01*
X955206Y-214742D02*
Y-204745D01*
X962704D01*
X965203Y-207244D01*
Y-214742D01*
X970201D02*
X975200D01*
X972701D01*
Y-204745D01*
X970201D01*
X982697Y-214742D02*
X990195D01*
X992694Y-212243D01*
X990195Y-209744D01*
X985197D01*
X982697Y-207244D01*
X985197Y-204745D01*
X992694D01*
X997692Y-199747D02*
Y-214742D01*
Y-207244D01*
X1000192Y-204745D01*
X1005190D01*
X1007689Y-207244D01*
Y-214742D01*
X1032681D02*
X1027683Y-209744D01*
Y-204745D01*
X1032681Y-199747D01*
X1040179Y-214742D02*
Y-199747D01*
X1050175Y-214742D01*
Y-199747D01*
X1062672D02*
X1057673D01*
X1055174Y-202246D01*
Y-212243D01*
X1057673Y-214742D01*
X1062672D01*
X1065171Y-212243D01*
Y-202246D01*
X1062672Y-199747D01*
X1070169D02*
X1080166D01*
X1075167D01*
Y-214742D01*
X1100159D02*
Y-204745D01*
X1102659D01*
X1105158Y-207244D01*
Y-214742D01*
Y-207244D01*
X1107657Y-204745D01*
X1110156Y-207244D01*
Y-214742D01*
X1117654Y-204745D02*
X1122652D01*
X1125151Y-207244D01*
Y-214742D01*
X1117654D01*
X1115154Y-212243D01*
X1117654Y-209744D01*
X1125151D01*
X1132649Y-202246D02*
Y-204745D01*
X1130150D01*
X1135148D01*
X1132649D01*
Y-212243D01*
X1135148Y-214742D01*
X1145145Y-202246D02*
Y-204745D01*
X1142646D01*
X1147644D01*
X1145145D01*
Y-212243D01*
X1147644Y-214742D01*
X1162639D02*
X1157641D01*
X1155142Y-212243D01*
Y-207244D01*
X1157641Y-204745D01*
X1162639D01*
X1165138Y-207244D01*
Y-209744D01*
X1155142D01*
X1170137Y-214742D02*
X1175135Y-209744D01*
Y-204745D01*
X1170137Y-199747D01*
X48000Y-237437D02*
X57997D01*
X77990Y-229939D02*
Y-244935D01*
X85488D01*
X87987Y-242435D01*
Y-232439D01*
X85488Y-229939D01*
X77990D01*
X92985Y-244935D02*
Y-229939D01*
X100483D01*
X102982Y-232439D01*
Y-237437D01*
X100483Y-239936D01*
X92985D01*
X97984D02*
X102982Y-244935D01*
X117977Y-232439D02*
X115478Y-229939D01*
X110480D01*
X107981Y-232439D01*
Y-242435D01*
X110480Y-244935D01*
X115478D01*
X117977Y-242435D01*
X122976Y-244935D02*
X130473D01*
X132972Y-242435D01*
X130473Y-239936D01*
X125475D01*
X122976Y-237437D01*
X125475Y-234938D01*
X132972D01*
X152966Y-244935D02*
Y-234938D01*
X155465D01*
X157964Y-237437D01*
Y-244935D01*
Y-237437D01*
X160464Y-234938D01*
X162963Y-237437D01*
Y-244935D01*
X167961Y-234938D02*
Y-242435D01*
X170460Y-244935D01*
X177958D01*
Y-234938D01*
X182956Y-244935D02*
X190454D01*
X192953Y-242435D01*
X190454Y-239936D01*
X185455D01*
X182956Y-237437D01*
X185455Y-234938D01*
X192953D01*
X200451Y-232439D02*
Y-234938D01*
X197951D01*
X202950D01*
X200451D01*
Y-242435D01*
X202950Y-244935D01*
X225443Y-229939D02*
Y-244935D01*
X232940D01*
X235439Y-242435D01*
Y-239936D01*
Y-237437D01*
X232940Y-234938D01*
X225443D01*
X247935Y-244935D02*
X242937D01*
X240438Y-242435D01*
Y-237437D01*
X242937Y-234938D01*
X247935D01*
X250434Y-237437D01*
Y-239936D01*
X240438D01*
X270428Y-234938D02*
Y-244935D01*
Y-239936D01*
X272927Y-237437D01*
X275426Y-234938D01*
X277926D01*
X285423D02*
Y-242435D01*
X287922Y-244935D01*
X295420D01*
Y-234938D01*
X300418Y-244935D02*
Y-234938D01*
X307916D01*
X310415Y-237437D01*
Y-244935D01*
X332908D02*
X337906D01*
X340405Y-242435D01*
Y-237437D01*
X337906Y-234938D01*
X332908D01*
X330409Y-237437D01*
Y-242435D01*
X332908Y-244935D01*
X345404D02*
Y-234938D01*
X352901D01*
X355401Y-237437D01*
Y-244935D01*
X385391Y-232439D02*
X382892Y-229939D01*
X377893D01*
X375394Y-232439D01*
Y-242435D01*
X377893Y-244935D01*
X382892D01*
X385391Y-242435D01*
Y-237437D01*
X380392D01*
X397887Y-244935D02*
X392888D01*
X390389Y-242435D01*
Y-237437D01*
X392888Y-234938D01*
X397887D01*
X400386Y-237437D01*
Y-239936D01*
X390389D01*
X405384Y-234938D02*
Y-244935D01*
Y-239936D01*
X407883Y-237437D01*
X410383Y-234938D01*
X412882D01*
X420379Y-229939D02*
Y-244935D01*
X427877D01*
X430376Y-242435D01*
Y-239936D01*
Y-237437D01*
X427877Y-234938D01*
X420379D01*
X442872Y-244935D02*
X437874D01*
X435375Y-242435D01*
Y-237437D01*
X437874Y-234938D01*
X442872D01*
X445371Y-237437D01*
Y-239936D01*
X435375D01*
X450370Y-234938D02*
Y-244935D01*
Y-239936D01*
X452869Y-237437D01*
X455368Y-234938D01*
X457867D01*
X482859Y-244935D02*
Y-232439D01*
Y-237437D01*
X480360D01*
X485358D01*
X482859D01*
Y-232439D01*
X485358Y-229939D01*
X492856Y-244935D02*
X497854D01*
X495355D01*
Y-234938D01*
X492856D01*
X505352Y-244935D02*
X510350D01*
X507851D01*
Y-229939D01*
X505352D01*
X525345Y-244935D02*
X520347D01*
X517848Y-242435D01*
Y-237437D01*
X520347Y-234938D01*
X525345D01*
X527845Y-237437D01*
Y-239936D01*
X517848D01*
X532843Y-244935D02*
X540341D01*
X542840Y-242435D01*
X540341Y-239936D01*
X535342D01*
X532843Y-237437D01*
X535342Y-234938D01*
X542840D01*
X562833Y-229939D02*
Y-244935D01*
X570331D01*
X572830Y-242435D01*
Y-239936D01*
Y-237437D01*
X570331Y-234938D01*
X562833D01*
X585326Y-244935D02*
X580328D01*
X577828Y-242435D01*
Y-237437D01*
X580328Y-234938D01*
X585326D01*
X587825Y-237437D01*
Y-239936D01*
X577828D01*
X595323Y-244935D02*
Y-232439D01*
Y-237437D01*
X592824D01*
X597822D01*
X595323D01*
Y-232439D01*
X597822Y-229939D01*
X607819Y-244935D02*
X612817D01*
X615316Y-242435D01*
Y-237437D01*
X612817Y-234938D01*
X607819D01*
X605320Y-237437D01*
Y-242435D01*
X607819Y-244935D01*
X620315Y-234938D02*
Y-244935D01*
Y-239936D01*
X622814Y-237437D01*
X625313Y-234938D01*
X627812D01*
X642807Y-244935D02*
X637809D01*
X635310Y-242435D01*
Y-237437D01*
X637809Y-234938D01*
X642807D01*
X645307Y-237437D01*
Y-239936D01*
X635310D01*
X665300Y-229939D02*
Y-244935D01*
X672798D01*
X675297Y-242435D01*
Y-239936D01*
Y-237437D01*
X672798Y-234938D01*
X665300D01*
X680295D02*
Y-242435D01*
X682794Y-244935D01*
X690292D01*
Y-234938D01*
X695290Y-244935D02*
X700289D01*
X697790D01*
Y-234938D01*
X695290D01*
X707786Y-244935D02*
X712785D01*
X710286D01*
Y-229939D01*
X707786D01*
X730279D02*
Y-244935D01*
X722782D01*
X720282Y-242435D01*
Y-237437D01*
X722782Y-234938D01*
X730279D01*
X735277Y-244935D02*
X740276D01*
X737777D01*
Y-234938D01*
X735277D01*
X747774Y-244935D02*
Y-234938D01*
X755271D01*
X757770Y-237437D01*
Y-244935D01*
X767767Y-249933D02*
X770266D01*
X772765Y-247434D01*
Y-234938D01*
X765268D01*
X762769Y-237437D01*
Y-242435D01*
X765268Y-244935D01*
X772765D01*
X792759Y-229939D02*
Y-244935D01*
X800257D01*
X802756Y-242435D01*
Y-239936D01*
Y-237437D01*
X800257Y-234938D01*
X792759D01*
X810253Y-244935D02*
X815252D01*
X817751Y-242435D01*
Y-237437D01*
X815252Y-234938D01*
X810253D01*
X807754Y-237437D01*
Y-242435D01*
X810253Y-244935D01*
X825248Y-234938D02*
X830247D01*
X832746Y-237437D01*
Y-244935D01*
X825248D01*
X822749Y-242435D01*
X825248Y-239936D01*
X832746D01*
X837744Y-234938D02*
Y-244935D01*
Y-239936D01*
X840244Y-237437D01*
X842743Y-234938D01*
X845242D01*
X862736Y-229939D02*
Y-244935D01*
X855239D01*
X852739Y-242435D01*
Y-237437D01*
X855239Y-234938D01*
X862736D01*
X867735Y-244935D02*
X875232D01*
X877731Y-242435D01*
X875232Y-239936D01*
X870234D01*
X867735Y-237437D01*
X870234Y-234938D01*
X877731D01*
X48000Y-267630D02*
X57997D01*
X77990Y-260132D02*
Y-275127D01*
Y-267630D01*
X87987D01*
Y-260132D01*
Y-275127D01*
X95485D02*
X100483D01*
X102982Y-272628D01*
Y-267630D01*
X100483Y-265131D01*
X95485D01*
X92985Y-267630D01*
Y-272628D01*
X95485Y-275127D01*
X107981D02*
X112979D01*
X110480D01*
Y-260132D01*
X107981D01*
X127974Y-275127D02*
X122976D01*
X120477Y-272628D01*
Y-267630D01*
X122976Y-265131D01*
X127974D01*
X130473Y-267630D01*
Y-270129D01*
X120477D01*
X160464Y-260132D02*
Y-275127D01*
X152966D01*
X150467Y-272628D01*
Y-267630D01*
X152966Y-265131D01*
X160464D01*
X165462Y-275127D02*
X170460D01*
X167961D01*
Y-265131D01*
X165462D01*
X180457D02*
X185455D01*
X187955Y-267630D01*
Y-275127D01*
X180457D01*
X177958Y-272628D01*
X180457Y-270129D01*
X187955D01*
X192953Y-275127D02*
Y-265131D01*
X195452D01*
X197952Y-267630D01*
Y-275127D01*
Y-267630D01*
X200451Y-265131D01*
X202950Y-267630D01*
Y-275127D01*
X215446D02*
X210447D01*
X207948Y-272628D01*
Y-267630D01*
X210447Y-265131D01*
X215446D01*
X217945Y-267630D01*
Y-270129D01*
X207948D01*
X225443Y-262631D02*
Y-265131D01*
X222943D01*
X227942D01*
X225443D01*
Y-272628D01*
X227942Y-275127D01*
X242937D02*
X237938D01*
X235439Y-272628D01*
Y-267630D01*
X237938Y-265131D01*
X242937D01*
X245436Y-267630D01*
Y-270129D01*
X235439D01*
X250434Y-265131D02*
Y-275127D01*
Y-270129D01*
X252934Y-267630D01*
X255433Y-265131D01*
X257932D01*
X265430Y-275127D02*
X272927D01*
X275426Y-272628D01*
X272927Y-270129D01*
X267929D01*
X265430Y-267630D01*
X267929Y-265131D01*
X275426D01*
X297919D02*
X302917D01*
X305417Y-267630D01*
Y-275127D01*
X297919D01*
X295420Y-272628D01*
X297919Y-270129D01*
X305417D01*
X310415Y-265131D02*
Y-275127D01*
Y-270129D01*
X312914Y-267630D01*
X315413Y-265131D01*
X317913D01*
X332908Y-275127D02*
X327909D01*
X325410Y-272628D01*
Y-267630D01*
X327909Y-265131D01*
X332908D01*
X335407Y-267630D01*
Y-270129D01*
X325410D01*
X357900Y-275127D02*
Y-262631D01*
Y-267630D01*
X355401D01*
X360399D01*
X357900D01*
Y-262631D01*
X360399Y-260132D01*
X367896Y-275127D02*
X372895D01*
X370396D01*
Y-265131D01*
X367896D01*
X380392Y-275127D02*
Y-265131D01*
X387890D01*
X390389Y-267630D01*
Y-275127D01*
X397887Y-265131D02*
X402885D01*
X405384Y-267630D01*
Y-275127D01*
X397887D01*
X395388Y-272628D01*
X397887Y-270129D01*
X405384D01*
X410383Y-275127D02*
X415381D01*
X412882D01*
Y-260132D01*
X410383D01*
X437874Y-275127D02*
Y-265131D01*
X440373D01*
X442872Y-267630D01*
Y-275127D01*
Y-267630D01*
X445371Y-265131D01*
X447871Y-267630D01*
Y-275127D01*
X455368Y-265131D02*
X460367D01*
X462866Y-267630D01*
Y-275127D01*
X455368D01*
X452869Y-272628D01*
X455368Y-270129D01*
X462866D01*
X467864Y-275127D02*
Y-265131D01*
X475362D01*
X477861Y-267630D01*
Y-275127D01*
X482859Y-265131D02*
Y-272628D01*
X485358Y-275127D01*
X492856D01*
Y-265131D01*
X500354Y-275127D02*
Y-262631D01*
Y-267630D01*
X497854D01*
X502853D01*
X500354D01*
Y-262631D01*
X502853Y-260132D01*
X512850Y-265131D02*
X517848D01*
X520347Y-267630D01*
Y-275127D01*
X512850D01*
X510350Y-272628D01*
X512850Y-270129D01*
X520347D01*
X535342Y-265131D02*
X527845D01*
X525345Y-267630D01*
Y-272628D01*
X527845Y-275127D01*
X535342D01*
X542840Y-262631D02*
Y-265131D01*
X540341D01*
X545339D01*
X542840D01*
Y-272628D01*
X545339Y-275127D01*
X552837Y-265131D02*
Y-272628D01*
X555336Y-275127D01*
X562833D01*
Y-265131D01*
X567832D02*
Y-275127D01*
Y-270129D01*
X570331Y-267630D01*
X572830Y-265131D01*
X575329D01*
X590324Y-275127D02*
X585326D01*
X582827Y-272628D01*
Y-267630D01*
X585326Y-265131D01*
X590324D01*
X592824Y-267630D01*
Y-270129D01*
X582827D01*
X607819Y-260132D02*
Y-275127D01*
X600321D01*
X597822Y-272628D01*
Y-267630D01*
X600321Y-265131D01*
X607819D01*
X637809Y-260132D02*
Y-275127D01*
X630312D01*
X627812Y-272628D01*
Y-267630D01*
X630312Y-265131D01*
X637809D01*
X642807Y-275127D02*
X647806D01*
X645307D01*
Y-265131D01*
X642807D01*
X657803D02*
X662801D01*
X665300Y-267630D01*
Y-275127D01*
X657803D01*
X655303Y-272628D01*
X657803Y-270129D01*
X665300D01*
X670299Y-275127D02*
Y-265131D01*
X672798D01*
X675297Y-267630D01*
Y-275127D01*
Y-267630D01*
X677796Y-265131D01*
X680295Y-267630D01*
Y-275127D01*
X692791D02*
X687793D01*
X685294Y-272628D01*
Y-267630D01*
X687793Y-265131D01*
X692791D01*
X695291Y-267630D01*
Y-270129D01*
X685294D01*
X702788Y-262631D02*
Y-265131D01*
X700289D01*
X705287D01*
X702788D01*
Y-272628D01*
X705287Y-275127D01*
X720282D02*
X715284D01*
X712785Y-272628D01*
Y-267630D01*
X715284Y-265131D01*
X720282D01*
X722782Y-267630D01*
Y-270129D01*
X712785D01*
X727780Y-265131D02*
Y-275127D01*
Y-270129D01*
X730279Y-267630D01*
X732778Y-265131D01*
X735277D01*
X742775Y-275127D02*
X750273D01*
X752772Y-272628D01*
X750273Y-270129D01*
X745274D01*
X742775Y-267630D01*
X745274Y-265131D01*
X752772D01*
X772765Y-260132D02*
X777764D01*
X775265D01*
Y-275127D01*
X772765D01*
X777764D01*
X785261D02*
Y-260132D01*
X795258Y-275127D01*
Y-260132D01*
X810253Y-262631D02*
X807754Y-260132D01*
X802756D01*
X800257Y-262631D01*
Y-272628D01*
X802756Y-275127D01*
X807754D01*
X810253Y-272628D01*
X815252Y-260132D02*
Y-275127D01*
X825248D01*
X830247Y-260132D02*
Y-272628D01*
X832746Y-275127D01*
X837744D01*
X840244Y-272628D01*
Y-260132D01*
X845242D02*
Y-275127D01*
X852739D01*
X855239Y-272628D01*
Y-262631D01*
X852739Y-260132D01*
X845242D01*
X860237D02*
X865236D01*
X862736D01*
Y-275127D01*
X860237D01*
X865236D01*
X872733D02*
Y-260132D01*
X882730Y-275127D01*
Y-260132D01*
X897725Y-262631D02*
X895226Y-260132D01*
X890227D01*
X887728Y-262631D01*
Y-272628D01*
X890227Y-275127D01*
X895226D01*
X897725Y-272628D01*
Y-267630D01*
X892727D01*
X917719Y-260132D02*
Y-275127D01*
Y-267630D01*
X927715D01*
Y-260132D01*
Y-275127D01*
X940211Y-260132D02*
X935213D01*
X932714Y-262631D01*
Y-272628D01*
X935213Y-275127D01*
X940211D01*
X942710Y-272628D01*
Y-262631D01*
X940211Y-260132D01*
X947709D02*
Y-275127D01*
X957706D01*
X972701Y-260132D02*
X962704D01*
Y-275127D01*
X972701D01*
X962704Y-267630D02*
X967702D01*
X992694Y-275127D02*
Y-260132D01*
X997693Y-265131D01*
X1002691Y-260132D01*
Y-275127D01*
X1017686Y-260132D02*
X1007689D01*
Y-275127D01*
X1017686D01*
X1007689Y-267630D02*
X1012688D01*
X1022684Y-260132D02*
X1032681D01*
X1027683D01*
Y-275127D01*
X1037680D02*
Y-265131D01*
X1042678Y-260132D01*
X1047676Y-265131D01*
Y-275127D01*
Y-267630D01*
X1037680D01*
X1052675Y-260132D02*
Y-275127D01*
X1062672D01*
X1067670Y-260132D02*
X1072668D01*
X1070169D01*
Y-275127D01*
X1067670D01*
X1072668D01*
X1080166Y-260132D02*
X1090163D01*
Y-262631D01*
X1080166Y-272628D01*
Y-275127D01*
X1090163D01*
X1095161D02*
Y-265131D01*
X1100159Y-260132D01*
X1105158Y-265131D01*
Y-275127D01*
Y-267630D01*
X1095161D01*
X1110156Y-260132D02*
X1120153D01*
X1115154D01*
Y-275127D01*
X1125151Y-260132D02*
X1130150D01*
X1127651D01*
Y-275127D01*
X1125151D01*
X1130150D01*
X1145145Y-260132D02*
X1140146D01*
X1137647Y-262631D01*
Y-272628D01*
X1140146Y-275127D01*
X1145145D01*
X1147644Y-272628D01*
Y-262631D01*
X1145145Y-260132D01*
X1152642Y-275127D02*
Y-260132D01*
X1162639Y-275127D01*
Y-260132D01*
X1167637Y-275127D02*
Y-272628D01*
X1170137D01*
Y-275127D01*
X1167637D01*
X436250Y722745D02*
Y707750D01*
X443748D01*
X446247Y710249D01*
Y712748D01*
X443748Y715247D01*
X436250D01*
X443748D01*
X446247Y717747D01*
Y720246D01*
X443748Y722745D01*
X436250D01*
X453744Y707750D02*
X458743D01*
X461242Y710249D01*
Y715247D01*
X458743Y717747D01*
X453744D01*
X451245Y715247D01*
Y710249D01*
X453744Y707750D01*
X468740Y717747D02*
X473738D01*
X476237Y715247D01*
Y707750D01*
X468740D01*
X466240Y710249D01*
X468740Y712748D01*
X476237D01*
X481235Y717747D02*
Y707750D01*
Y712748D01*
X483735Y715247D01*
X486234Y717747D01*
X488733D01*
X506227Y722745D02*
Y707750D01*
X498730D01*
X496231Y710249D01*
Y715247D01*
X498730Y717747D01*
X506227D01*
X536218Y720246D02*
X533718Y722745D01*
X528720D01*
X526221Y720246D01*
Y710249D01*
X528720Y707750D01*
X533718D01*
X536218Y710249D01*
X541216Y717747D02*
Y710249D01*
X543715Y707750D01*
X551213D01*
Y717747D01*
X558710Y720246D02*
Y717747D01*
X556211D01*
X561209D01*
X558710D01*
Y710249D01*
X561209Y707750D01*
X571206D02*
X576205D01*
X578704Y710249D01*
Y715247D01*
X576205Y717747D01*
X571206D01*
X568707Y715247D01*
Y710249D01*
X571206Y707750D01*
X583702Y717747D02*
Y710249D01*
X586201Y707750D01*
X593699D01*
Y717747D01*
X601197Y720246D02*
Y717747D01*
X598697D01*
X603696D01*
X601197D01*
Y710249D01*
X603696Y707750D01*
X953500Y-807255D02*
Y-822250D01*
X960998D01*
X963497Y-819751D01*
Y-809754D01*
X960998Y-807255D01*
X953500D01*
X968495D02*
X973494D01*
X970994D01*
Y-822250D01*
X968495D01*
X973494D01*
X990988Y-807255D02*
X980991D01*
Y-814752D01*
X985990D01*
X980991D01*
Y-822250D01*
X1005983Y-807255D02*
X995986D01*
Y-814752D01*
X1000985D01*
X995986D01*
Y-822250D01*
X1020978Y-807255D02*
X1010982D01*
Y-822250D01*
X1020978D01*
X1010982Y-814752D02*
X1015980D01*
X1025977Y-822250D02*
Y-807255D01*
X1033474D01*
X1035974Y-809754D01*
Y-814752D01*
X1033474Y-817252D01*
X1025977D01*
X1030975D02*
X1035974Y-822250D01*
X1050969Y-807255D02*
X1040972D01*
Y-822250D01*
X1050969D01*
X1040972Y-814752D02*
X1045970D01*
X1055967Y-822250D02*
Y-807255D01*
X1065964Y-822250D01*
Y-807255D01*
X1070962D02*
X1080959D01*
X1075961D01*
Y-822250D01*
X1085957Y-807255D02*
X1090956D01*
X1088456D01*
Y-822250D01*
X1085957D01*
X1090956D01*
X1098453D02*
Y-812253D01*
X1103452Y-807255D01*
X1108450Y-812253D01*
Y-822250D01*
Y-814752D01*
X1098453D01*
X1113448Y-807255D02*
Y-822250D01*
X1123445D01*
X1143439Y-807255D02*
X1148437D01*
X1145938D01*
Y-822250D01*
X1143439D01*
X1148437D01*
X1155935D02*
Y-807255D01*
X1160933Y-812253D01*
X1165931Y-807255D01*
Y-822250D01*
X1170930D02*
Y-807255D01*
X1178427D01*
X1180927Y-809754D01*
Y-814752D01*
X1178427Y-817252D01*
X1170930D01*
X1195922Y-807255D02*
X1185925D01*
Y-822250D01*
X1195922D01*
X1185925Y-814752D02*
X1190923D01*
X1200920Y-807255D02*
Y-822250D01*
X1208418D01*
X1210917Y-819751D01*
Y-809754D01*
X1208418Y-807255D01*
X1200920D01*
X1215915Y-822250D02*
Y-812253D01*
X1220914Y-807255D01*
X1225912Y-812253D01*
Y-822250D01*
Y-814752D01*
X1215915D01*
X1230910Y-822250D02*
Y-807255D01*
X1240907Y-822250D01*
Y-807255D01*
X1255902Y-809754D02*
X1253403Y-807255D01*
X1248405D01*
X1245906Y-809754D01*
Y-819751D01*
X1248405Y-822250D01*
X1253403D01*
X1255902Y-819751D01*
X1270897Y-807255D02*
X1260901D01*
Y-822250D01*
X1270897D01*
X1260901Y-814752D02*
X1265899D01*
X1275896Y-812253D02*
X1278395D01*
Y-814752D01*
X1275896D01*
Y-812253D01*
Y-819751D02*
X1278395D01*
Y-822250D01*
X1275896D01*
Y-819751D01*
X1303387D02*
X1305886Y-822250D01*
X1310885D01*
X1313384Y-819751D01*
Y-809754D01*
X1310885Y-807255D01*
X1305886D01*
X1303387Y-809754D01*
Y-812253D01*
X1305886Y-814752D01*
X1313384D01*
X1318382Y-809754D02*
X1320881Y-807255D01*
X1325880D01*
X1328379Y-809754D01*
Y-819751D01*
X1325880Y-822250D01*
X1320881D01*
X1318382Y-819751D01*
Y-809754D01*
X1333377Y-822250D02*
Y-819751D01*
X1335876D01*
Y-822250D01*
X1333377D01*
X1355870Y-807255D02*
X1345873D01*
Y-814752D01*
X1350872Y-812253D01*
X1353371D01*
X1355870Y-814752D01*
Y-819751D01*
X1353371Y-822250D01*
X1348372D01*
X1345873Y-819751D01*
X1383361Y-807255D02*
X1378363D01*
X1375863Y-809754D01*
Y-819751D01*
X1378363Y-822250D01*
X1383361D01*
X1385860Y-819751D01*
Y-809754D01*
X1383361Y-807255D01*
X1390859D02*
Y-822250D01*
Y-814752D01*
X1393358Y-812253D01*
X1398356D01*
X1400855Y-814752D01*
Y-822250D01*
X1405854D02*
Y-812253D01*
X1408353D01*
X1410852Y-814752D01*
Y-822250D01*
Y-814752D01*
X1413351Y-812253D01*
X1415851Y-814752D01*
Y-822250D01*
X1420849D02*
X1428347D01*
X1430846Y-819751D01*
X1428347Y-817252D01*
X1423348D01*
X1420849Y-814752D01*
X1423348Y-812253D01*
X1430846D01*
X953500Y-837255D02*
X963497D01*
X958499D01*
Y-852250D01*
X975993Y-837255D02*
X970994D01*
X968495Y-839754D01*
Y-849751D01*
X970994Y-852250D01*
X975993D01*
X978492Y-849751D01*
Y-839754D01*
X975993Y-837255D01*
X983491D02*
Y-852250D01*
X993487D01*
X1008482Y-837255D02*
X998486D01*
Y-852250D01*
X1008482D01*
X998486Y-844752D02*
X1003484D01*
X1013481Y-852250D02*
Y-837255D01*
X1020978D01*
X1023477Y-839754D01*
Y-844752D01*
X1020978Y-847252D01*
X1013481D01*
X1018479D02*
X1023477Y-852250D01*
X1028476D02*
Y-842253D01*
X1033474Y-837255D01*
X1038473Y-842253D01*
Y-852250D01*
Y-844752D01*
X1028476D01*
X1043471Y-852250D02*
Y-837255D01*
X1053468Y-852250D01*
Y-837255D01*
X1068463Y-839754D02*
X1065964Y-837255D01*
X1060965D01*
X1058466Y-839754D01*
Y-849751D01*
X1060965Y-852250D01*
X1065964D01*
X1068463Y-849751D01*
X1083458Y-837255D02*
X1073461D01*
Y-852250D01*
X1083458D01*
X1073461Y-844752D02*
X1078460D01*
X1088456Y-842253D02*
X1090956D01*
Y-844752D01*
X1088456D01*
Y-842253D01*
Y-849751D02*
X1090956D01*
Y-852250D01*
X1088456D01*
Y-849751D01*
X1115948Y-844752D02*
X1125944D01*
X1120946Y-839754D02*
Y-849751D01*
X1130943Y-852250D02*
X1140939Y-842253D01*
X1145938Y-844752D02*
X1155935D01*
X1175928Y-852250D02*
X1180927D01*
X1178427D01*
Y-837255D01*
X1175928Y-839754D01*
X1188424D02*
X1190923Y-837255D01*
X1195922D01*
X1198421Y-839754D01*
Y-849751D01*
X1195922Y-852250D01*
X1190923D01*
X1188424Y-849751D01*
Y-839754D01*
X1203419Y-849751D02*
X1215915Y-837255D01*
X1203419D02*
Y-834756D01*
X1205919D01*
Y-837255D01*
X1203419D01*
X1213416Y-852250D02*
Y-849751D01*
X1215915D01*
Y-852250D01*
X1213416D01*
X953500Y-779755D02*
Y-794750D01*
X960998D01*
X963497Y-792251D01*
Y-782254D01*
X960998Y-779755D01*
X953500D01*
X968495D02*
X973494D01*
X970994D01*
Y-794750D01*
X968495D01*
X973494D01*
X990988Y-779755D02*
X980991D01*
Y-787252D01*
X985990D01*
X980991D01*
Y-794750D01*
X995986D02*
Y-792251D01*
X998486D01*
Y-794750D01*
X995986D01*
X1023478D02*
Y-779755D01*
X1030975D01*
X1033474Y-782254D01*
Y-787252D01*
X1030975Y-789752D01*
X1023478D01*
X1038473Y-794750D02*
Y-784753D01*
X1043471Y-779755D01*
X1048469Y-784753D01*
Y-794750D01*
Y-787252D01*
X1038473D01*
X1053468Y-779755D02*
X1058466D01*
X1055967D01*
Y-794750D01*
X1053468D01*
X1058466D01*
X1065964D02*
Y-779755D01*
X1073461D01*
X1075961Y-782254D01*
Y-787252D01*
X1073461Y-789752D01*
X1065964D01*
X1070962D02*
X1075961Y-794750D01*
X1105951Y-782254D02*
X1103452Y-779755D01*
X1098453D01*
X1095954Y-782254D01*
Y-784753D01*
X1098453Y-787252D01*
X1103452D01*
X1105951Y-789752D01*
Y-792251D01*
X1103452Y-794750D01*
X1098453D01*
X1095954Y-792251D01*
X1110949Y-794750D02*
Y-779755D01*
X1118447D01*
X1120946Y-782254D01*
Y-787252D01*
X1118447Y-789752D01*
X1110949D01*
X1125944Y-794750D02*
Y-784753D01*
X1130943Y-779755D01*
X1135941Y-784753D01*
Y-794750D01*
Y-787252D01*
X1125944D01*
X1150936Y-782254D02*
X1148437Y-779755D01*
X1143439D01*
X1140939Y-782254D01*
Y-792251D01*
X1143439Y-794750D01*
X1148437D01*
X1150936Y-792251D01*
X1155935Y-779755D02*
X1160933D01*
X1158434D01*
Y-794750D01*
X1155935D01*
X1160933D01*
X1168431D02*
Y-779755D01*
X1178427Y-794750D01*
Y-779755D01*
X1193422Y-782254D02*
X1190923Y-779755D01*
X1185925D01*
X1183426Y-782254D01*
Y-792251D01*
X1185925Y-794750D01*
X1190923D01*
X1193422Y-792251D01*
Y-787252D01*
X1188424D01*
X1198421Y-784753D02*
X1200920D01*
Y-787252D01*
X1198421D01*
Y-784753D01*
Y-792251D02*
X1200920D01*
Y-794750D01*
X1198421D01*
Y-792251D01*
X1225912Y-782254D02*
X1228411Y-779755D01*
X1233410D01*
X1235909Y-782254D01*
Y-792251D01*
X1233410Y-794750D01*
X1228411D01*
X1225912Y-792251D01*
Y-782254D01*
X1240907Y-794750D02*
Y-792251D01*
X1243406D01*
Y-794750D01*
X1240907D01*
X1253403D02*
X1258401D01*
X1255902D01*
Y-779755D01*
X1253403Y-782254D01*
X1265899Y-794750D02*
Y-784753D01*
X1268398D01*
X1270898Y-787252D01*
Y-794750D01*
Y-787252D01*
X1273397Y-784753D01*
X1275896Y-787252D01*
Y-794750D01*
X1280894D02*
Y-784753D01*
X1283393D01*
X1285893Y-787252D01*
Y-794750D01*
Y-787252D01*
X1288392Y-784753D01*
X1290891Y-787252D01*
Y-794750D01*
X952750Y-753505D02*
Y-768500D01*
X960248D01*
X962747Y-766001D01*
Y-756004D01*
X960248Y-753505D01*
X952750D01*
X967745D02*
X972744D01*
X970245D01*
Y-768500D01*
X967745D01*
X972744D01*
X990238Y-753505D02*
X980241D01*
Y-761002D01*
X985240D01*
X980241D01*
Y-768500D01*
X995237D02*
Y-766001D01*
X997736D01*
Y-768500D01*
X995237D01*
X1022728D02*
Y-753505D01*
X1030225D01*
X1032724Y-756004D01*
Y-761002D01*
X1030225Y-763502D01*
X1022728D01*
X1037723Y-768500D02*
Y-758503D01*
X1042721Y-753505D01*
X1047719Y-758503D01*
Y-768500D01*
Y-761002D01*
X1037723D01*
X1052718Y-753505D02*
X1057716D01*
X1055217D01*
Y-768500D01*
X1052718D01*
X1057716D01*
X1065214D02*
Y-753505D01*
X1072711D01*
X1075211Y-756004D01*
Y-761002D01*
X1072711Y-763502D01*
X1065214D01*
X1070212D02*
X1075211Y-768500D01*
X1095204Y-753505D02*
Y-768500D01*
X1100202Y-763502D01*
X1105201Y-768500D01*
Y-753505D01*
X1110199D02*
X1115198D01*
X1112698D01*
Y-768500D01*
X1110199D01*
X1115198D01*
X1122695Y-753505D02*
Y-768500D01*
X1130193D01*
X1132692Y-766001D01*
Y-756004D01*
X1130193Y-753505D01*
X1122695D01*
X1137690D02*
X1147687D01*
X1142689D01*
Y-768500D01*
X1152685Y-753505D02*
Y-768500D01*
Y-761002D01*
X1162682D01*
Y-753505D01*
Y-768500D01*
X1167681Y-758503D02*
X1170180D01*
Y-761002D01*
X1167681D01*
Y-758503D01*
Y-766001D02*
X1170180D01*
Y-768500D01*
X1167681D01*
Y-766001D01*
X1195172Y-756004D02*
X1197671Y-753505D01*
X1202669D01*
X1205169Y-756004D01*
Y-766001D01*
X1202669Y-768500D01*
X1197671D01*
X1195172Y-766001D01*
Y-756004D01*
X1210167Y-768500D02*
Y-766001D01*
X1212666D01*
Y-768500D01*
X1210167D01*
X1232660D02*
X1222663D01*
X1232660Y-758503D01*
Y-756004D01*
X1230160Y-753505D01*
X1225162D01*
X1222663Y-756004D01*
X1237658Y-768500D02*
Y-758503D01*
X1240157D01*
X1242656Y-761002D01*
Y-768500D01*
Y-761002D01*
X1245156Y-758503D01*
X1247655Y-761002D01*
Y-768500D01*
X1252653D02*
Y-758503D01*
X1255152D01*
X1257652Y-761002D01*
Y-768500D01*
Y-761002D01*
X1260151Y-758503D01*
X1262650Y-761002D01*
Y-768500D01*
X30000Y-135005D02*
Y-145002D01*
X34998Y-150000D01*
X39997Y-145002D01*
Y-135005D01*
X54992D02*
X44995D01*
Y-150000D01*
X54992D01*
X44995Y-142502D02*
X49994D01*
X59990Y-150000D02*
Y-135005D01*
X67488D01*
X69987Y-137504D01*
Y-142502D01*
X67488Y-145002D01*
X59990D01*
X64989D02*
X69987Y-150000D01*
X74985Y-135005D02*
Y-137504D01*
X79984Y-142502D01*
X84982Y-137504D01*
Y-135005D01*
X79984Y-142502D02*
Y-150000D01*
X104976Y-135005D02*
X109974D01*
X107475D01*
Y-150000D01*
X104976D01*
X109974D01*
X117472D02*
Y-135005D01*
X122470Y-140003D01*
X127468Y-135005D01*
Y-150000D01*
X132467D02*
Y-135005D01*
X139964D01*
X142464Y-137504D01*
Y-142502D01*
X139964Y-145002D01*
X132467D01*
X154959Y-135005D02*
X149961D01*
X147462Y-137504D01*
Y-147501D01*
X149961Y-150000D01*
X154959D01*
X157459Y-147501D01*
Y-137504D01*
X154959Y-135005D01*
X162457Y-150000D02*
Y-135005D01*
X169955D01*
X172454Y-137504D01*
Y-142502D01*
X169955Y-145002D01*
X162457D01*
X167456D02*
X172454Y-150000D01*
X177452Y-135005D02*
X187449D01*
X182451D01*
Y-150000D01*
X192447D02*
Y-140003D01*
X197446Y-135005D01*
X202444Y-140003D01*
Y-150000D01*
Y-142502D01*
X192447D01*
X207442Y-150000D02*
Y-135005D01*
X217439Y-150000D01*
Y-135005D01*
X222438D02*
X232434D01*
X227436D01*
Y-150000D01*
X252428D02*
Y-135005D01*
X262425Y-150000D01*
Y-135005D01*
X274921D02*
X269922D01*
X267423Y-137504D01*
Y-147501D01*
X269922Y-150000D01*
X274921D01*
X277420Y-147501D01*
Y-137504D01*
X274921Y-135005D01*
X282418D02*
X292415D01*
X287417D01*
Y-150000D01*
X307410Y-135005D02*
X297413D01*
Y-150000D01*
X307410D01*
X297413Y-142502D02*
X302412D01*
X322405Y-137504D02*
X319906Y-135005D01*
X314908D01*
X312409Y-137504D01*
Y-140003D01*
X314908Y-142502D01*
X319906D01*
X322405Y-145002D01*
Y-147501D01*
X319906Y-150000D01*
X314908D01*
X312409Y-147501D01*
X327404Y-140003D02*
X329903D01*
Y-142502D01*
X327404D01*
Y-140003D01*
Y-147501D02*
X329903D01*
Y-150000D01*
X327404D01*
Y-147501D01*
X955750Y-897255D02*
X960748D01*
X958249D01*
Y-912250D01*
X955750D01*
X960748D01*
X968246D02*
Y-897255D01*
X978243Y-912250D01*
Y-897255D01*
X983241D02*
X993238D01*
X988240D01*
Y-912250D01*
X1008233Y-897255D02*
X998236D01*
Y-912250D01*
X1008233D01*
X998236Y-904752D02*
X1003235D01*
X1013231Y-912250D02*
Y-897255D01*
X1020729D01*
X1023228Y-899754D01*
Y-904752D01*
X1020729Y-907252D01*
X1013231D01*
X1018230D02*
X1023228Y-912250D01*
X1028226D02*
Y-897255D01*
X1038223Y-912250D01*
Y-897255D01*
X1043222Y-912250D02*
Y-902253D01*
X1048220Y-897255D01*
X1053218Y-902253D01*
Y-912250D01*
Y-904752D01*
X1043222D01*
X1058217Y-897255D02*
Y-912250D01*
X1068214D01*
X1088207Y-897255D02*
Y-912250D01*
X1098204D01*
X1103202D02*
Y-902253D01*
X1108201Y-897255D01*
X1113199Y-902253D01*
Y-912250D01*
Y-904752D01*
X1103202D01*
X1118197Y-897255D02*
Y-899754D01*
X1123196Y-904752D01*
X1128194Y-899754D01*
Y-897255D01*
X1123196Y-904752D02*
Y-912250D01*
X1143189Y-897255D02*
X1133193D01*
Y-912250D01*
X1143189D01*
X1133193Y-904752D02*
X1138191D01*
X1148188Y-912250D02*
Y-897255D01*
X1155685D01*
X1158184Y-899754D01*
Y-904752D01*
X1155685Y-907252D01*
X1148188D01*
X1153186D02*
X1158184Y-912250D01*
X1188175Y-899754D02*
X1185676Y-897255D01*
X1180677D01*
X1178178Y-899754D01*
Y-909751D01*
X1180677Y-912250D01*
X1185676D01*
X1188175Y-909751D01*
X1200671Y-897255D02*
X1195672D01*
X1193173Y-899754D01*
Y-909751D01*
X1195672Y-912250D01*
X1200671D01*
X1203170Y-909751D01*
Y-899754D01*
X1200671Y-897255D01*
X1208168Y-912250D02*
Y-897255D01*
X1215666D01*
X1218165Y-899754D01*
Y-904752D01*
X1215666Y-907252D01*
X1208168D01*
X1223163Y-912250D02*
Y-897255D01*
X1230661D01*
X1233160Y-899754D01*
Y-904752D01*
X1230661Y-907252D01*
X1223163D01*
X1248155Y-897255D02*
X1238158D01*
Y-912250D01*
X1248155D01*
X1238158Y-904752D02*
X1243157D01*
X1253154Y-912250D02*
Y-897255D01*
X1260651D01*
X1263150Y-899754D01*
Y-904752D01*
X1260651Y-907252D01*
X1253154D01*
X1258152D02*
X1263150Y-912250D01*
X1293141Y-897255D02*
X1283144D01*
Y-904752D01*
X1288142D01*
X1283144D01*
Y-912250D01*
X1305637Y-897255D02*
X1300638D01*
X1298139Y-899754D01*
Y-909751D01*
X1300638Y-912250D01*
X1305637D01*
X1308136Y-909751D01*
Y-899754D01*
X1305637Y-897255D01*
X1313134D02*
X1318133D01*
X1315633D01*
Y-912250D01*
X1313134D01*
X1318133D01*
X1325630Y-897255D02*
Y-912250D01*
X1335627D01*
X1355621Y-897255D02*
X1365617D01*
X1360619D01*
Y-912250D01*
X1370616Y-897255D02*
Y-912250D01*
Y-904752D01*
X1380612D01*
Y-897255D01*
Y-912250D01*
X1385611Y-897255D02*
X1390609D01*
X1388110D01*
Y-912250D01*
X1385611D01*
X1390609D01*
X1408103Y-899754D02*
X1405604Y-897255D01*
X1400606D01*
X1398107Y-899754D01*
Y-909751D01*
X1400606Y-912250D01*
X1405604D01*
X1408103Y-909751D01*
X1413102Y-897255D02*
Y-912250D01*
Y-907252D01*
X1423099Y-897255D01*
X1415601Y-904752D01*
X1423099Y-912250D01*
X1428097D02*
Y-897255D01*
X1438094Y-912250D01*
Y-897255D01*
X1453089D02*
X1443092D01*
Y-912250D01*
X1453089D01*
X1443092Y-904752D02*
X1448091D01*
X1468084Y-899754D02*
X1465585Y-897255D01*
X1460587D01*
X1458087Y-899754D01*
Y-902253D01*
X1460587Y-904752D01*
X1465585D01*
X1468084Y-907252D01*
Y-909751D01*
X1465585Y-912250D01*
X1460587D01*
X1458087Y-909751D01*
X1483079Y-899754D02*
X1480580Y-897255D01*
X1475582D01*
X1473082Y-899754D01*
Y-902253D01*
X1475582Y-904752D01*
X1480580D01*
X1483079Y-907252D01*
Y-909751D01*
X1480580Y-912250D01*
X1475582D01*
X1473082Y-909751D01*
X1488078Y-902253D02*
X1490577D01*
Y-904752D01*
X1488078D01*
Y-902253D01*
Y-909751D02*
X1490577D01*
Y-912250D01*
X1488078D01*
Y-909751D01*
X1515569Y-899754D02*
X1518068Y-897255D01*
X1523066D01*
X1525565Y-899754D01*
Y-902253D01*
X1523066Y-904752D01*
X1520567D01*
X1523066D01*
X1525565Y-907252D01*
Y-909751D01*
X1523066Y-912250D01*
X1518068D01*
X1515569Y-909751D01*
X1530564Y-899754D02*
X1533063Y-897255D01*
X1538061D01*
X1540561Y-899754D01*
Y-902253D01*
X1538061Y-904752D01*
X1535562D01*
X1538061D01*
X1540561Y-907252D01*
Y-909751D01*
X1538061Y-912250D01*
X1533063D01*
X1530564Y-909751D01*
X1560554Y-902253D02*
Y-909751D01*
X1563053Y-912250D01*
X1570551D01*
Y-902253D01*
X1575549Y-912250D02*
Y-902253D01*
X1578049D01*
X1580548Y-904752D01*
Y-912250D01*
Y-904752D01*
X1583047Y-902253D01*
X1585546Y-904752D01*
Y-912250D01*
X47250Y-335250D02*
Y-320255D01*
X57247Y-335250D01*
Y-320255D01*
X69743D02*
X64744D01*
X62245Y-322754D01*
Y-332751D01*
X64744Y-335250D01*
X69743D01*
X72242Y-332751D01*
Y-322754D01*
X69743Y-320255D01*
X77240D02*
X87237D01*
X82239D01*
Y-335250D01*
X102232Y-320255D02*
X92235D01*
Y-335250D01*
X102232D01*
X92235Y-327752D02*
X97234D01*
X117227Y-322754D02*
X114728Y-320255D01*
X109730D01*
X107231Y-322754D01*
Y-325253D01*
X109730Y-327752D01*
X114728D01*
X117227Y-330252D01*
Y-332751D01*
X114728Y-335250D01*
X109730D01*
X107231Y-332751D01*
X122226Y-325253D02*
X124725D01*
Y-327752D01*
X122226D01*
Y-325253D01*
Y-332751D02*
X124725D01*
Y-335250D01*
X122226D01*
Y-332751D01*
X899750Y-395750D02*
Y-380755D01*
X907247D01*
X909747Y-383254D01*
Y-388252D01*
X907247Y-390752D01*
X899750D01*
X924742Y-383254D02*
X922243Y-380755D01*
X917244D01*
X914745Y-383254D01*
Y-393251D01*
X917244Y-395750D01*
X922243D01*
X924742Y-393251D01*
X929740Y-380755D02*
Y-395750D01*
X937238D01*
X939737Y-393251D01*
Y-390752D01*
X937238Y-388252D01*
X929740D01*
X937238D01*
X939737Y-385753D01*
Y-383254D01*
X937238Y-380755D01*
X929740D01*
X959731D02*
X964729D01*
X962230D01*
Y-395750D01*
X959731D01*
X964729D01*
X972226D02*
Y-380755D01*
X977225Y-385753D01*
X982223Y-380755D01*
Y-395750D01*
X987222D02*
Y-380755D01*
X994719D01*
X997218Y-383254D01*
Y-388252D01*
X994719Y-390752D01*
X987222D01*
X1012214Y-380755D02*
X1002217D01*
Y-395750D01*
X1012214D01*
X1002217Y-388252D02*
X1007215D01*
X1017212Y-380755D02*
Y-395750D01*
X1024709D01*
X1027209Y-393251D01*
Y-383254D01*
X1024709Y-380755D01*
X1017212D01*
X1032207Y-395750D02*
Y-385753D01*
X1037206Y-380755D01*
X1042204Y-385753D01*
Y-395750D01*
Y-388252D01*
X1032207D01*
X1047202Y-395750D02*
Y-380755D01*
X1057199Y-395750D01*
Y-380755D01*
X1072194Y-383254D02*
X1069695Y-380755D01*
X1064697D01*
X1062197Y-383254D01*
Y-393251D01*
X1064697Y-395750D01*
X1069695D01*
X1072194Y-393251D01*
X1087189Y-380755D02*
X1077193D01*
Y-395750D01*
X1087189D01*
X1077193Y-388252D02*
X1082191D01*
X1107183Y-395750D02*
Y-380755D01*
X1114680D01*
X1117180Y-383254D01*
Y-388252D01*
X1114680Y-390752D01*
X1107183D01*
X1122178Y-395750D02*
Y-385753D01*
X1127176Y-380755D01*
X1132175Y-385753D01*
Y-395750D01*
Y-388252D01*
X1122178D01*
X1137173Y-395750D02*
Y-380755D01*
X1144671D01*
X1147170Y-383254D01*
Y-388252D01*
X1144671Y-390752D01*
X1137173D01*
X1142171D02*
X1147170Y-395750D01*
X1152168D02*
Y-385753D01*
X1157167Y-380755D01*
X1162165Y-385753D01*
Y-395750D01*
Y-388252D01*
X1152168D01*
X1167163Y-395750D02*
Y-380755D01*
X1172162Y-385753D01*
X1177160Y-380755D01*
Y-395750D01*
X1192155Y-380755D02*
X1182159D01*
Y-395750D01*
X1192155D01*
X1182159Y-388252D02*
X1187157D01*
X1197154Y-380755D02*
X1207150D01*
X1202152D01*
Y-395750D01*
X1222146Y-380755D02*
X1212149D01*
Y-395750D01*
X1222146D01*
X1212149Y-388252D02*
X1217147D01*
X1227144Y-395750D02*
Y-380755D01*
X1234641D01*
X1237141Y-383254D01*
Y-388252D01*
X1234641Y-390752D01*
X1227144D01*
X1232142D02*
X1237141Y-395750D01*
X1252136Y-383254D02*
X1249637Y-380755D01*
X1244638D01*
X1242139Y-383254D01*
Y-385753D01*
X1244638Y-388252D01*
X1249637D01*
X1252136Y-390752D01*
Y-393251D01*
X1249637Y-395750D01*
X1244638D01*
X1242139Y-393251D01*
X1257134Y-385753D02*
X1259633D01*
Y-388252D01*
X1257134D01*
Y-385753D01*
Y-393251D02*
X1259633D01*
Y-395750D01*
X1257134D01*
Y-393251D01*
X948000Y-407005D02*
X957997D01*
X952998D01*
Y-422000D01*
X965494D02*
X970493D01*
X972992Y-419501D01*
Y-414502D01*
X970493Y-412003D01*
X965494D01*
X962995Y-414502D01*
Y-419501D01*
X965494Y-422000D01*
X977990Y-426998D02*
Y-412003D01*
X985488D01*
X987987Y-414502D01*
Y-419501D01*
X985488Y-422000D01*
X977990D01*
X992985Y-414502D02*
X1002982D01*
X1007981Y-407005D02*
Y-422000D01*
X1017977D01*
X1032972D02*
X1022976D01*
X1032972Y-412003D01*
Y-409504D01*
X1030473Y-407005D01*
X1025475D01*
X1022976Y-409504D01*
X1052966Y-414502D02*
X1062963D01*
X1067961Y-422000D02*
X1075459Y-414502D01*
X1067961Y-407005D01*
X1095452Y-422000D02*
X1100451D01*
X1097951D01*
Y-407005D01*
X1095452Y-409504D01*
X1107948Y-407005D02*
X1117945D01*
Y-409504D01*
X1107948Y-419501D01*
Y-422000D01*
X1122943Y-409504D02*
X1125443Y-407005D01*
X1130441D01*
X1132940Y-409504D01*
Y-412003D01*
X1130441Y-414502D01*
X1127942D01*
X1130441D01*
X1132940Y-417002D01*
Y-419501D01*
X1130441Y-422000D01*
X1125443D01*
X1122943Y-419501D01*
X1137939Y-412003D02*
Y-419501D01*
X1140438Y-422000D01*
X1147935D01*
Y-412003D01*
X1152934Y-422000D02*
Y-412003D01*
X1155433D01*
X1157932Y-414502D01*
Y-422000D01*
Y-414502D01*
X1160431Y-412003D01*
X1162930Y-414502D01*
Y-422000D01*
X1185423Y-409504D02*
Y-412003D01*
X1182924D01*
X1187922D01*
X1185423D01*
Y-419501D01*
X1187922Y-422000D01*
X1195420Y-407005D02*
Y-422000D01*
Y-414502D01*
X1197919Y-412003D01*
X1202917D01*
X1205417Y-414502D01*
Y-422000D01*
X1210415D02*
X1215413D01*
X1212914D01*
Y-412003D01*
X1210415D01*
X1232908D02*
X1225410D01*
X1222911Y-414502D01*
Y-419501D01*
X1225410Y-422000D01*
X1232908D01*
X1237906D02*
Y-407005D01*
Y-417002D02*
X1245404Y-412003D01*
X1237906Y-417002D02*
X1245404Y-422000D01*
X962997Y-462005D02*
X953000D01*
Y-477000D01*
X962997D01*
X953000Y-469502D02*
X957998D01*
X967995Y-467003D02*
Y-477000D01*
Y-472002D01*
X970494Y-469502D01*
X972993Y-467003D01*
X975493D01*
X987989Y-477000D02*
X982990Y-472002D01*
Y-467003D01*
X987989Y-462005D01*
X995486D02*
X1005483D01*
X1000485D01*
Y-477000D01*
X1012980D02*
X1017979D01*
X1020478Y-474501D01*
Y-469502D01*
X1017979Y-467003D01*
X1012980D01*
X1010481Y-469502D01*
Y-474501D01*
X1012980Y-477000D01*
X1025477Y-481998D02*
Y-467003D01*
X1032974D01*
X1035473Y-469502D01*
Y-474501D01*
X1032974Y-477000D01*
X1025477D01*
X1040472Y-469502D02*
X1050468D01*
X1055467Y-462005D02*
Y-477000D01*
X1065464D01*
X1080459D02*
X1070462D01*
X1080459Y-467003D01*
Y-464504D01*
X1077960Y-462005D01*
X1072961D01*
X1070462Y-464504D01*
X1085457Y-477000D02*
X1090455Y-472002D01*
Y-467003D01*
X1085457Y-462005D01*
X1112948Y-472002D02*
X1122945D01*
X1112948Y-467003D02*
X1122945D01*
X1150436Y-477000D02*
Y-462005D01*
X1142939Y-469502D01*
X1152935D01*
X1157934Y-477000D02*
Y-474501D01*
X1160433D01*
Y-477000D01*
X1157934D01*
X1180426D02*
X1170430D01*
X1180426Y-467003D01*
Y-464504D01*
X1177927Y-462005D01*
X1172929D01*
X1170430Y-464504D01*
X952250Y-623255D02*
Y-638250D01*
X959748D01*
X962247Y-635751D01*
Y-625754D01*
X959748Y-623255D01*
X952250D01*
X967245D02*
X972243D01*
X969744D01*
Y-638250D01*
X967245D01*
X972243D01*
X989738Y-623255D02*
X979741D01*
Y-630752D01*
X984740D01*
X979741D01*
Y-638250D01*
X994736D02*
Y-635751D01*
X997235D01*
Y-638250D01*
X994736D01*
X1022227D02*
Y-623255D01*
X1029725D01*
X1032224Y-625754D01*
Y-630752D01*
X1029725Y-633252D01*
X1022227D01*
X1037223Y-638250D02*
Y-628253D01*
X1042221Y-623255D01*
X1047219Y-628253D01*
Y-638250D01*
Y-630752D01*
X1037223D01*
X1052218Y-623255D02*
X1057216D01*
X1054717D01*
Y-638250D01*
X1052218D01*
X1057216D01*
X1064714D02*
Y-623255D01*
X1072211D01*
X1074710Y-625754D01*
Y-630752D01*
X1072211Y-633252D01*
X1064714D01*
X1069712D02*
X1074710Y-638250D01*
X1094704Y-623255D02*
Y-638250D01*
X1099702Y-633252D01*
X1104701Y-638250D01*
Y-623255D01*
X1109699D02*
X1114697D01*
X1112198D01*
Y-638250D01*
X1109699D01*
X1114697D01*
X1122195Y-623255D02*
Y-638250D01*
X1129693D01*
X1132192Y-635751D01*
Y-625754D01*
X1129693Y-623255D01*
X1122195D01*
X1137190D02*
X1147187D01*
X1142188D01*
Y-638250D01*
X1152185Y-623255D02*
Y-638250D01*
Y-630752D01*
X1162182D01*
Y-623255D01*
Y-638250D01*
X1167180Y-628253D02*
X1169680D01*
Y-630752D01*
X1167180D01*
Y-628253D01*
Y-635751D02*
X1169680D01*
Y-638250D01*
X1167180D01*
Y-635751D01*
X1194671Y-625754D02*
X1197171Y-623255D01*
X1202169D01*
X1204668Y-625754D01*
Y-635751D01*
X1202169Y-638250D01*
X1197171D01*
X1194671Y-635751D01*
Y-625754D01*
X1209667Y-638250D02*
Y-635751D01*
X1212166D01*
Y-638250D01*
X1209667D01*
X1232159D02*
X1222163D01*
X1232159Y-628253D01*
Y-625754D01*
X1229660Y-623255D01*
X1224662D01*
X1222163Y-625754D01*
X1237158Y-638250D02*
Y-628253D01*
X1239657D01*
X1242156Y-630752D01*
Y-638250D01*
Y-630752D01*
X1244655Y-628253D01*
X1247154Y-630752D01*
Y-638250D01*
X1252153D02*
Y-628253D01*
X1254652D01*
X1257151Y-630752D01*
Y-638250D01*
Y-630752D01*
X1259650Y-628253D01*
X1262150Y-630752D01*
Y-638250D01*
X953000Y-649505D02*
Y-664500D01*
X960498D01*
X962997Y-662001D01*
Y-652004D01*
X960498Y-649505D01*
X953000D01*
X967995D02*
X972993D01*
X970494D01*
Y-664500D01*
X967995D01*
X972993D01*
X990488Y-649505D02*
X980491D01*
Y-657002D01*
X985490D01*
X980491D01*
Y-664500D01*
X995486D02*
Y-662001D01*
X997985D01*
Y-664500D01*
X995486D01*
X1022977D02*
Y-649505D01*
X1030475D01*
X1032974Y-652004D01*
Y-657002D01*
X1030475Y-659502D01*
X1022977D01*
X1037972Y-664500D02*
Y-654503D01*
X1042971Y-649505D01*
X1047969Y-654503D01*
Y-664500D01*
Y-657002D01*
X1037972D01*
X1052968Y-649505D02*
X1057966D01*
X1055467D01*
Y-664500D01*
X1052968D01*
X1057966D01*
X1065464D02*
Y-649505D01*
X1072961D01*
X1075460Y-652004D01*
Y-657002D01*
X1072961Y-659502D01*
X1065464D01*
X1070462D02*
X1075460Y-664500D01*
X1105451Y-652004D02*
X1102951Y-649505D01*
X1097953D01*
X1095454Y-652004D01*
Y-654503D01*
X1097953Y-657002D01*
X1102951D01*
X1105451Y-659502D01*
Y-662001D01*
X1102951Y-664500D01*
X1097953D01*
X1095454Y-662001D01*
X1110449Y-664500D02*
Y-649505D01*
X1117947D01*
X1120446Y-652004D01*
Y-657002D01*
X1117947Y-659502D01*
X1110449D01*
X1125444Y-664500D02*
Y-654503D01*
X1130443Y-649505D01*
X1135441Y-654503D01*
Y-664500D01*
Y-657002D01*
X1125444D01*
X1150436Y-652004D02*
X1147937Y-649505D01*
X1142939D01*
X1140439Y-652004D01*
Y-662001D01*
X1142939Y-664500D01*
X1147937D01*
X1150436Y-662001D01*
X1155434Y-649505D02*
X1160433D01*
X1157934D01*
Y-664500D01*
X1155434D01*
X1160433D01*
X1167930D02*
Y-649505D01*
X1177927Y-664500D01*
Y-649505D01*
X1192922Y-652004D02*
X1190423Y-649505D01*
X1185425D01*
X1182925Y-652004D01*
Y-662001D01*
X1185425Y-664500D01*
X1190423D01*
X1192922Y-662001D01*
Y-657002D01*
X1187924D01*
X1197921Y-654503D02*
X1200420D01*
Y-657002D01*
X1197921D01*
Y-654503D01*
Y-662001D02*
X1200420D01*
Y-664500D01*
X1197921D01*
Y-662001D01*
X1225412Y-652004D02*
X1227911Y-649505D01*
X1232909D01*
X1235409Y-652004D01*
Y-662001D01*
X1232909Y-664500D01*
X1227911D01*
X1225412Y-662001D01*
Y-652004D01*
X1240407Y-664500D02*
Y-662001D01*
X1242906D01*
Y-664500D01*
X1240407D01*
X1252903D02*
X1257901D01*
X1255402D01*
Y-649505D01*
X1252903Y-652004D01*
X1272896Y-664500D02*
Y-649505D01*
X1265399Y-657002D01*
X1275396D01*
X1280394Y-664500D02*
Y-654503D01*
X1282893D01*
X1285392Y-657002D01*
Y-664500D01*
Y-657002D01*
X1287892Y-654503D01*
X1290391Y-657002D01*
Y-664500D01*
X1295389D02*
Y-654503D01*
X1297888D01*
X1300388Y-657002D01*
Y-664500D01*
Y-657002D01*
X1302887Y-654503D01*
X1305386Y-657002D01*
Y-664500D01*
X950500Y-434505D02*
X960497D01*
X955498D01*
Y-449500D01*
X972993Y-434505D02*
X967994D01*
X965495Y-437004D01*
Y-447001D01*
X967994Y-449500D01*
X972993D01*
X975492Y-447001D01*
Y-437004D01*
X972993Y-434505D01*
X980490Y-449500D02*
Y-434505D01*
X987988D01*
X990487Y-437004D01*
Y-442002D01*
X987988Y-444502D01*
X980490D01*
X1010481Y-434505D02*
Y-449500D01*
X1020477D01*
X1025476D02*
Y-439503D01*
X1030474Y-434505D01*
X1035472Y-439503D01*
Y-449500D01*
Y-442002D01*
X1025476D01*
X1040471Y-434505D02*
Y-437004D01*
X1045469Y-442002D01*
X1050468Y-437004D01*
Y-434505D01*
X1045469Y-442002D02*
Y-449500D01*
X1065463Y-434505D02*
X1055466D01*
Y-449500D01*
X1065463D01*
X1055466Y-442002D02*
X1060464D01*
X1070461Y-449500D02*
Y-434505D01*
X1077959D01*
X1080458Y-437004D01*
Y-442002D01*
X1077959Y-444502D01*
X1070461D01*
X1075460D02*
X1080458Y-449500D01*
X1110448Y-437004D02*
X1107949Y-434505D01*
X1102951D01*
X1100451Y-437004D01*
Y-447001D01*
X1102951Y-449500D01*
X1107949D01*
X1110448Y-447001D01*
X1122944Y-434505D02*
X1117946D01*
X1115447Y-437004D01*
Y-447001D01*
X1117946Y-449500D01*
X1122944D01*
X1125443Y-447001D01*
Y-437004D01*
X1122944Y-434505D01*
X1130442Y-449500D02*
Y-434505D01*
X1137939D01*
X1140439Y-437004D01*
Y-442002D01*
X1137939Y-444502D01*
X1130442D01*
X1145437Y-449500D02*
Y-434505D01*
X1152934D01*
X1155434Y-437004D01*
Y-442002D01*
X1152934Y-444502D01*
X1145437D01*
X1170429Y-434505D02*
X1160432D01*
Y-449500D01*
X1170429D01*
X1160432Y-442002D02*
X1165430D01*
X1175427Y-449500D02*
Y-434505D01*
X1182925D01*
X1185424Y-437004D01*
Y-442002D01*
X1182925Y-444502D01*
X1175427D01*
X1180425D02*
X1185424Y-449500D01*
X1215414Y-434505D02*
X1205417D01*
Y-442002D01*
X1210416D01*
X1205417D01*
Y-449500D01*
X1227910Y-434505D02*
X1222912D01*
X1220413Y-437004D01*
Y-447001D01*
X1222912Y-449500D01*
X1227910D01*
X1230409Y-447001D01*
Y-437004D01*
X1227910Y-434505D01*
X1235408D02*
X1240406D01*
X1237907D01*
Y-449500D01*
X1235408D01*
X1240406D01*
X1247904Y-434505D02*
Y-449500D01*
X1257900D01*
X1277894Y-434505D02*
X1287891D01*
X1282892D01*
Y-449500D01*
X1292889Y-434505D02*
Y-449500D01*
Y-442002D01*
X1302886D01*
Y-434505D01*
Y-449500D01*
X1307884Y-434505D02*
X1312883D01*
X1310383D01*
Y-449500D01*
X1307884D01*
X1312883D01*
X1330377Y-437004D02*
X1327878Y-434505D01*
X1322879D01*
X1320380Y-437004D01*
Y-447001D01*
X1322879Y-449500D01*
X1327878D01*
X1330377Y-447001D01*
X1335375Y-434505D02*
Y-449500D01*
Y-444502D01*
X1345372Y-434505D01*
X1337874Y-442002D01*
X1345372Y-449500D01*
X1350370D02*
Y-434505D01*
X1360367Y-449500D01*
Y-434505D01*
X1375362D02*
X1365366D01*
Y-449500D01*
X1375362D01*
X1365366Y-442002D02*
X1370364D01*
X1390358Y-437004D02*
X1387858Y-434505D01*
X1382860D01*
X1380361Y-437004D01*
Y-439503D01*
X1382860Y-442002D01*
X1387858D01*
X1390358Y-444502D01*
Y-447001D01*
X1387858Y-449500D01*
X1382860D01*
X1380361Y-447001D01*
X1405353Y-437004D02*
X1402854Y-434505D01*
X1397855D01*
X1395356Y-437004D01*
Y-439503D01*
X1397855Y-442002D01*
X1402854D01*
X1405353Y-444502D01*
Y-447001D01*
X1402854Y-449500D01*
X1397855D01*
X1395356Y-447001D01*
X1410351Y-439503D02*
X1412850D01*
Y-442002D01*
X1410351D01*
Y-439503D01*
Y-447001D02*
X1412850D01*
Y-449500D01*
X1410351D01*
Y-447001D01*
X1437842Y-449500D02*
X1442841D01*
X1440341D01*
Y-434505D01*
X1437842Y-437004D01*
X1450338Y-434505D02*
X1460335D01*
Y-437004D01*
X1450338Y-447001D01*
Y-449500D01*
X1465333D02*
Y-447001D01*
X1467832D01*
Y-449500D01*
X1465333D01*
X1487826Y-434505D02*
X1477829D01*
Y-442002D01*
X1482828Y-439503D01*
X1485327D01*
X1487826Y-442002D01*
Y-447001D01*
X1485327Y-449500D01*
X1480328D01*
X1477829Y-447001D01*
X1507820Y-439503D02*
Y-447001D01*
X1510319Y-449500D01*
X1517816D01*
Y-439503D01*
X1522815Y-449500D02*
Y-439503D01*
X1525314D01*
X1527813Y-442002D01*
Y-449500D01*
Y-442002D01*
X1530312Y-439503D01*
X1532811Y-442002D01*
Y-449500D01*
X953000Y-707005D02*
X962997D01*
X957998D01*
Y-722000D01*
X975493Y-707005D02*
X970494D01*
X967995Y-709504D01*
Y-719501D01*
X970494Y-722000D01*
X975493D01*
X977992Y-719501D01*
Y-709504D01*
X975493Y-707005D01*
X982990D02*
Y-722000D01*
X992987D01*
X1007982Y-707005D02*
X997985D01*
Y-722000D01*
X1007982D01*
X997985Y-714502D02*
X1002984D01*
X1012980Y-722000D02*
Y-707005D01*
X1020478D01*
X1022977Y-709504D01*
Y-714502D01*
X1020478Y-717002D01*
X1012980D01*
X1017979D02*
X1022977Y-722000D01*
X1027976D02*
Y-712003D01*
X1032974Y-707005D01*
X1037972Y-712003D01*
Y-722000D01*
Y-714502D01*
X1027976D01*
X1042971Y-722000D02*
Y-707005D01*
X1052968Y-722000D01*
Y-707005D01*
X1067963Y-709504D02*
X1065464Y-707005D01*
X1060465D01*
X1057966Y-709504D01*
Y-719501D01*
X1060465Y-722000D01*
X1065464D01*
X1067963Y-719501D01*
X1082958Y-707005D02*
X1072961D01*
Y-722000D01*
X1082958D01*
X1072961Y-714502D02*
X1077960D01*
X1087956Y-712003D02*
X1090455D01*
Y-714502D01*
X1087956D01*
Y-712003D01*
Y-719501D02*
X1090455D01*
Y-722000D01*
X1087956D01*
Y-719501D01*
X1115447Y-714502D02*
X1125444D01*
X1120446Y-709504D02*
Y-719501D01*
X1130443Y-722000D02*
X1140439Y-712003D01*
X1145438Y-714502D02*
X1155434D01*
X1175428Y-722000D02*
X1180426D01*
X1177927D01*
Y-707005D01*
X1175428Y-709504D01*
X1187924D02*
X1190423Y-707005D01*
X1195422D01*
X1197921Y-709504D01*
Y-719501D01*
X1195422Y-722000D01*
X1190423D01*
X1187924Y-719501D01*
Y-709504D01*
X1202919Y-719501D02*
X1215415Y-707005D01*
X1202919D02*
Y-704506D01*
X1205418D01*
Y-707005D01*
X1202919D01*
X1212916Y-722000D02*
Y-719501D01*
X1215415D01*
Y-722000D01*
X1212916D01*
X953000Y-677005D02*
Y-692000D01*
X960498D01*
X962997Y-689501D01*
Y-679504D01*
X960498Y-677005D01*
X953000D01*
X967995D02*
X972993D01*
X970494D01*
Y-692000D01*
X967995D01*
X972993D01*
X990488Y-677005D02*
X980491D01*
Y-684502D01*
X985490D01*
X980491D01*
Y-692000D01*
X1005483Y-677005D02*
X995486D01*
Y-684502D01*
X1000485D01*
X995486D01*
Y-692000D01*
X1020478Y-677005D02*
X1010481D01*
Y-692000D01*
X1020478D01*
X1010481Y-684502D02*
X1015480D01*
X1025477Y-692000D02*
Y-677005D01*
X1032974D01*
X1035473Y-679504D01*
Y-684502D01*
X1032974Y-687002D01*
X1025477D01*
X1030475D02*
X1035473Y-692000D01*
X1050468Y-677005D02*
X1040472D01*
Y-692000D01*
X1050468D01*
X1040472Y-684502D02*
X1045470D01*
X1055467Y-692000D02*
Y-677005D01*
X1065464Y-692000D01*
Y-677005D01*
X1070462D02*
X1080459D01*
X1075460D01*
Y-692000D01*
X1085457Y-677005D02*
X1090455D01*
X1087956D01*
Y-692000D01*
X1085457D01*
X1090455D01*
X1097953D02*
Y-682003D01*
X1102951Y-677005D01*
X1107950Y-682003D01*
Y-692000D01*
Y-684502D01*
X1097953D01*
X1112948Y-677005D02*
Y-692000D01*
X1122945D01*
X1142939Y-677005D02*
X1147937D01*
X1145438D01*
Y-692000D01*
X1142939D01*
X1147937D01*
X1155434D02*
Y-677005D01*
X1160433Y-682003D01*
X1165431Y-677005D01*
Y-692000D01*
X1170430D02*
Y-677005D01*
X1177927D01*
X1180426Y-679504D01*
Y-684502D01*
X1177927Y-687002D01*
X1170430D01*
X1195422Y-677005D02*
X1185425D01*
Y-692000D01*
X1195422D01*
X1185425Y-684502D02*
X1190423D01*
X1200420Y-677005D02*
Y-692000D01*
X1207917D01*
X1210417Y-689501D01*
Y-679504D01*
X1207917Y-677005D01*
X1200420D01*
X1215415Y-692000D02*
Y-682003D01*
X1220413Y-677005D01*
X1225412Y-682003D01*
Y-692000D01*
Y-684502D01*
X1215415D01*
X1230410Y-692000D02*
Y-677005D01*
X1240407Y-692000D01*
Y-677005D01*
X1255402Y-679504D02*
X1252903Y-677005D01*
X1247905D01*
X1245405Y-679504D01*
Y-689501D01*
X1247905Y-692000D01*
X1252903D01*
X1255402Y-689501D01*
X1270397Y-677005D02*
X1260400D01*
Y-692000D01*
X1270397D01*
X1260400Y-684502D02*
X1265399D01*
X1275396Y-682003D02*
X1277895D01*
Y-684502D01*
X1275396D01*
Y-682003D01*
Y-689501D02*
X1277895D01*
Y-692000D01*
X1275396D01*
Y-689501D01*
X1302887Y-692000D02*
X1307885D01*
X1305386D01*
Y-677005D01*
X1302887Y-679504D01*
X1315383D02*
X1317882Y-677005D01*
X1322880D01*
X1325379Y-679504D01*
Y-689501D01*
X1322880Y-692000D01*
X1317882D01*
X1315383Y-689501D01*
Y-679504D01*
X1330378D02*
X1332877Y-677005D01*
X1337875D01*
X1340375Y-679504D01*
Y-689501D01*
X1337875Y-692000D01*
X1332877D01*
X1330378Y-689501D01*
Y-679504D01*
X1345373Y-692000D02*
Y-689501D01*
X1347872D01*
Y-692000D01*
X1345373D01*
X1357869Y-677005D02*
X1367866D01*
Y-679504D01*
X1357869Y-689501D01*
Y-692000D01*
X1382861Y-677005D02*
X1372864D01*
Y-684502D01*
X1377862Y-682003D01*
X1380362D01*
X1382861Y-684502D01*
Y-689501D01*
X1380362Y-692000D01*
X1375363D01*
X1372864Y-689501D01*
X1397856Y-692000D02*
X1387859D01*
X1397856Y-682003D01*
Y-679504D01*
X1395357Y-677005D01*
X1390358D01*
X1387859Y-679504D01*
X1425347Y-677005D02*
X1420349D01*
X1417849Y-679504D01*
Y-689501D01*
X1420349Y-692000D01*
X1425347D01*
X1427846Y-689501D01*
Y-679504D01*
X1425347Y-677005D01*
X1432845D02*
Y-692000D01*
Y-684502D01*
X1435344Y-682003D01*
X1440342D01*
X1442841Y-684502D01*
Y-692000D01*
X1447840D02*
Y-682003D01*
X1450339D01*
X1452838Y-684502D01*
Y-692000D01*
Y-684502D01*
X1455337Y-682003D01*
X1457836Y-684502D01*
Y-692000D01*
X1462835D02*
X1470332D01*
X1472832Y-689501D01*
X1470332Y-687002D01*
X1465334D01*
X1462835Y-684502D01*
X1465334Y-682003D01*
X1472832D01*
X1562247Y-625754D02*
X1559748Y-623255D01*
X1554749D01*
X1552250Y-625754D01*
Y-628253D01*
X1554749Y-630752D01*
X1559748D01*
X1562247Y-633252D01*
Y-635751D01*
X1559748Y-638250D01*
X1554749D01*
X1552250Y-635751D01*
X1577242Y-623255D02*
X1567245D01*
Y-638250D01*
X1577242D01*
X1567245Y-630752D02*
X1572243D01*
X1597235Y-623255D02*
X1607232D01*
X1602234D01*
Y-638250D01*
X1612231D02*
Y-623255D01*
X1619728D01*
X1622227Y-625754D01*
Y-630752D01*
X1619728Y-633252D01*
X1612231D01*
X1617229D02*
X1622227Y-638250D01*
X1627226D02*
Y-628253D01*
X1632224Y-623255D01*
X1637222Y-628253D01*
Y-638250D01*
Y-630752D01*
X1627226D01*
X1652218Y-625754D02*
X1649718Y-623255D01*
X1644720D01*
X1642221Y-625754D01*
Y-635751D01*
X1644720Y-638250D01*
X1649718D01*
X1652218Y-635751D01*
X1657216Y-623255D02*
Y-638250D01*
Y-633252D01*
X1667213Y-623255D01*
X1659715Y-630752D01*
X1667213Y-638250D01*
X1687206Y-623255D02*
Y-638250D01*
X1692205Y-633252D01*
X1697203Y-638250D01*
Y-623255D01*
X1702201D02*
X1707200D01*
X1704701D01*
Y-638250D01*
X1702201D01*
X1707200D01*
X1714697Y-623255D02*
Y-638250D01*
X1722195D01*
X1724694Y-635751D01*
Y-625754D01*
X1722195Y-623255D01*
X1714697D01*
X1729693D02*
X1739689D01*
X1734691D01*
Y-638250D01*
X1744688Y-623255D02*
Y-638250D01*
Y-630752D01*
X1754684D01*
Y-623255D01*
Y-638250D01*
X1759683Y-628253D02*
X1762182D01*
Y-630752D01*
X1759683D01*
Y-628253D01*
Y-635751D02*
X1762182D01*
Y-638250D01*
X1759683D01*
Y-635751D01*
X1787174Y-625754D02*
X1789673Y-623255D01*
X1794671D01*
X1797171Y-625754D01*
Y-635751D01*
X1794671Y-638250D01*
X1789673D01*
X1787174Y-635751D01*
Y-625754D01*
X1802169Y-638250D02*
Y-635751D01*
X1804668D01*
Y-638250D01*
X1802169D01*
X1814665Y-625754D02*
X1817164Y-623255D01*
X1822163D01*
X1824662Y-625754D01*
Y-628253D01*
X1822163Y-630752D01*
X1819663D01*
X1822163D01*
X1824662Y-633252D01*
Y-635751D01*
X1822163Y-638250D01*
X1817164D01*
X1814665Y-635751D01*
X1829660Y-625754D02*
X1832159Y-623255D01*
X1837158D01*
X1839657Y-625754D01*
Y-635751D01*
X1837158Y-638250D01*
X1832159D01*
X1829660Y-635751D01*
Y-625754D01*
X1844655Y-635751D02*
X1847155Y-638250D01*
X1852153D01*
X1854652Y-635751D01*
Y-625754D01*
X1852153Y-623255D01*
X1847155D01*
X1844655Y-625754D01*
Y-628253D01*
X1847155Y-630752D01*
X1854652D01*
X1859651Y-638250D02*
Y-628253D01*
X1862150D01*
X1864649Y-630752D01*
Y-638250D01*
Y-630752D01*
X1867148Y-628253D01*
X1869647Y-630752D01*
Y-638250D01*
X1874646D02*
Y-628253D01*
X1877145D01*
X1879644Y-630752D01*
Y-638250D01*
Y-630752D01*
X1882143Y-628253D01*
X1884642Y-630752D01*
Y-638250D01*
X1562997Y-654504D02*
X1560497Y-652005D01*
X1555499D01*
X1553000Y-654504D01*
Y-657003D01*
X1555499Y-659502D01*
X1560497D01*
X1562997Y-662002D01*
Y-664501D01*
X1560497Y-667000D01*
X1555499D01*
X1553000Y-664501D01*
X1577992Y-652005D02*
X1567995D01*
Y-667000D01*
X1577992D01*
X1567995Y-659502D02*
X1572993D01*
X1597985Y-652005D02*
X1602984D01*
X1600485D01*
Y-667000D01*
X1597985D01*
X1602984D01*
X1610481D02*
Y-652005D01*
X1615480Y-657003D01*
X1620478Y-652005D01*
Y-667000D01*
X1625477D02*
Y-652005D01*
X1632974D01*
X1635473Y-654504D01*
Y-659502D01*
X1632974Y-662002D01*
X1625477D01*
X1650468Y-652005D02*
X1640472D01*
Y-667000D01*
X1650468D01*
X1640472Y-659502D02*
X1645470D01*
X1655467Y-652005D02*
Y-667000D01*
X1662964D01*
X1665464Y-664501D01*
Y-654504D01*
X1662964Y-652005D01*
X1655467D01*
X1670462Y-667000D02*
Y-657003D01*
X1675460Y-652005D01*
X1680459Y-657003D01*
Y-667000D01*
Y-659502D01*
X1670462D01*
X1685457Y-667000D02*
Y-652005D01*
X1695454Y-667000D01*
Y-652005D01*
X1710449Y-654504D02*
X1707950Y-652005D01*
X1702951D01*
X1700452Y-654504D01*
Y-664501D01*
X1702951Y-667000D01*
X1707950D01*
X1710449Y-664501D01*
X1725444Y-652005D02*
X1715447D01*
Y-667000D01*
X1725444D01*
X1715447Y-659502D02*
X1720446D01*
X1730443Y-657003D02*
X1732942D01*
Y-659502D01*
X1730443D01*
Y-657003D01*
Y-664501D02*
X1732942D01*
Y-667000D01*
X1730443D01*
Y-664501D01*
X1765431Y-667000D02*
Y-652005D01*
X1757934Y-659502D01*
X1767930D01*
X1772929Y-664501D02*
X1775428Y-667000D01*
X1780426D01*
X1782926Y-664501D01*
Y-654504D01*
X1780426Y-652005D01*
X1775428D01*
X1772929Y-654504D01*
Y-657003D01*
X1775428Y-659502D01*
X1782926D01*
X1787924Y-667000D02*
Y-664501D01*
X1790423D01*
Y-667000D01*
X1787924D01*
X1800420Y-664501D02*
X1802919Y-667000D01*
X1807917D01*
X1810417Y-664501D01*
Y-654504D01*
X1807917Y-652005D01*
X1802919D01*
X1800420Y-654504D01*
Y-657003D01*
X1802919Y-659502D01*
X1810417D01*
X1815415Y-664501D02*
X1817914Y-667000D01*
X1822913D01*
X1825412Y-664501D01*
Y-654504D01*
X1822913Y-652005D01*
X1817914D01*
X1815415Y-654504D01*
Y-657003D01*
X1817914Y-659502D01*
X1825412D01*
X1830410Y-664501D02*
X1832909Y-667000D01*
X1837908D01*
X1840407Y-664501D01*
Y-654504D01*
X1837908Y-652005D01*
X1832909D01*
X1830410Y-654504D01*
Y-657003D01*
X1832909Y-659502D01*
X1840407D01*
X1845405Y-654504D02*
X1847905Y-652005D01*
X1852903D01*
X1855402Y-654504D01*
Y-657003D01*
X1852903Y-659502D01*
X1855402Y-662002D01*
Y-664501D01*
X1852903Y-667000D01*
X1847905D01*
X1845405Y-664501D01*
Y-662002D01*
X1847905Y-659502D01*
X1845405Y-657003D01*
Y-654504D01*
X1847905Y-659502D02*
X1852903D01*
X1882893Y-652005D02*
X1877895D01*
X1875396Y-654504D01*
Y-664501D01*
X1877895Y-667000D01*
X1882893D01*
X1885392Y-664501D01*
Y-654504D01*
X1882893Y-652005D01*
X1890391D02*
Y-667000D01*
Y-659502D01*
X1892890Y-657003D01*
X1897888D01*
X1900388Y-659502D01*
Y-667000D01*
X1905386D02*
Y-657003D01*
X1907885D01*
X1910384Y-659502D01*
Y-667000D01*
Y-659502D01*
X1912883Y-657003D01*
X1915383Y-659502D01*
Y-667000D01*
X1920381D02*
X1927879D01*
X1930378Y-664501D01*
X1927879Y-662002D01*
X1922880D01*
X1920381Y-659502D01*
X1922880Y-657003D01*
X1930378D01*
X1553000Y-682005D02*
X1562997D01*
X1557998D01*
Y-697000D01*
X1575493Y-682005D02*
X1570494D01*
X1567995Y-684504D01*
Y-694501D01*
X1570494Y-697000D01*
X1575493D01*
X1577992Y-694501D01*
Y-684504D01*
X1575493Y-682005D01*
X1582990D02*
Y-697000D01*
X1592987D01*
X1607982Y-682005D02*
X1597985D01*
Y-697000D01*
X1607982D01*
X1597985Y-689502D02*
X1602984D01*
X1612980Y-697000D02*
Y-682005D01*
X1620478D01*
X1622977Y-684504D01*
Y-689502D01*
X1620478Y-692002D01*
X1612980D01*
X1617979D02*
X1622977Y-697000D01*
X1627976D02*
Y-687003D01*
X1632974Y-682005D01*
X1637972Y-687003D01*
Y-697000D01*
Y-689502D01*
X1627976D01*
X1642971Y-697000D02*
Y-682005D01*
X1652968Y-697000D01*
Y-682005D01*
X1667963Y-684504D02*
X1665464Y-682005D01*
X1660465D01*
X1657966Y-684504D01*
Y-694501D01*
X1660465Y-697000D01*
X1665464D01*
X1667963Y-694501D01*
X1682958Y-682005D02*
X1672961D01*
Y-697000D01*
X1682958D01*
X1672961Y-689502D02*
X1677959D01*
X1687956Y-687003D02*
X1690455D01*
Y-689502D01*
X1687956D01*
Y-687003D01*
Y-694501D02*
X1690455D01*
Y-697000D01*
X1687956D01*
Y-694501D01*
X1715447Y-689502D02*
X1725444D01*
X1720446Y-684504D02*
Y-694501D01*
X1730443Y-697000D02*
X1740439Y-687003D01*
X1745438Y-689502D02*
X1755434D01*
X1775428Y-697000D02*
X1780426D01*
X1777927D01*
Y-682005D01*
X1775428Y-684504D01*
X1787924D02*
X1790423Y-682005D01*
X1795421D01*
X1797921Y-684504D01*
Y-694501D01*
X1795421Y-697000D01*
X1790423D01*
X1787924Y-694501D01*
Y-684504D01*
X1802919Y-694501D02*
X1815415Y-682005D01*
X1802919D02*
Y-679506D01*
X1805418D01*
Y-682005D01*
X1802919D01*
X1812916Y-697000D02*
Y-694501D01*
X1815415D01*
Y-697000D01*
X1812916D01*
X950500Y-534505D02*
Y-549500D01*
X957998D01*
X960497Y-547001D01*
Y-544502D01*
X957998Y-542002D01*
X950500D01*
X957998D01*
X960497Y-539503D01*
Y-537004D01*
X957998Y-534505D01*
X950500D01*
X972993D02*
X967994D01*
X965495Y-537004D01*
Y-547001D01*
X967994Y-549500D01*
X972993D01*
X975492Y-547001D01*
Y-537004D01*
X972993Y-534505D01*
X980490D02*
X990487D01*
X985489D01*
Y-549500D01*
X995485Y-534505D02*
X1005482D01*
X1000484D01*
Y-549500D01*
X1017978Y-534505D02*
X1012980D01*
X1010481Y-537004D01*
Y-547001D01*
X1012980Y-549500D01*
X1017978D01*
X1020477Y-547001D01*
Y-537004D01*
X1017978Y-534505D01*
X1025476Y-549500D02*
Y-534505D01*
X1030474Y-539503D01*
X1035472Y-534505D01*
Y-549500D01*
X1055466Y-534505D02*
Y-549500D01*
X1065463D01*
X1070461D02*
Y-539503D01*
X1075460Y-534505D01*
X1080458Y-539503D01*
Y-549500D01*
Y-542002D01*
X1070461D01*
X1085456Y-534505D02*
Y-537004D01*
X1090455Y-542002D01*
X1095453Y-537004D01*
Y-534505D01*
X1090455Y-542002D02*
Y-549500D01*
X1110448Y-534505D02*
X1100451D01*
Y-549500D01*
X1110448D01*
X1100451Y-542002D02*
X1105450D01*
X1115447Y-549500D02*
Y-534505D01*
X1122944D01*
X1125443Y-537004D01*
Y-542002D01*
X1122944Y-544502D01*
X1115447D01*
X1120445D02*
X1125443Y-549500D01*
X1155434Y-537004D02*
X1152934Y-534505D01*
X1147936D01*
X1145437Y-537004D01*
Y-547001D01*
X1147936Y-549500D01*
X1152934D01*
X1155434Y-547001D01*
X1167930Y-534505D02*
X1162931D01*
X1160432Y-537004D01*
Y-547001D01*
X1162931Y-549500D01*
X1167930D01*
X1170429Y-547001D01*
Y-537004D01*
X1167930Y-534505D01*
X1175427Y-549500D02*
Y-534505D01*
X1182925D01*
X1185424Y-537004D01*
Y-542002D01*
X1182925Y-544502D01*
X1175427D01*
X1190422Y-549500D02*
Y-534505D01*
X1197920D01*
X1200419Y-537004D01*
Y-542002D01*
X1197920Y-544502D01*
X1190422D01*
X1215414Y-534505D02*
X1205417D01*
Y-549500D01*
X1215414D01*
X1205417Y-542002D02*
X1210416D01*
X1220413Y-549500D02*
Y-534505D01*
X1227910D01*
X1230409Y-537004D01*
Y-542002D01*
X1227910Y-544502D01*
X1220413D01*
X1225411D02*
X1230409Y-549500D01*
X1260400Y-534505D02*
X1250403D01*
Y-542002D01*
X1255401D01*
X1250403D01*
Y-549500D01*
X1272896Y-534505D02*
X1267897D01*
X1265398Y-537004D01*
Y-547001D01*
X1267897Y-549500D01*
X1272896D01*
X1275395Y-547001D01*
Y-537004D01*
X1272896Y-534505D01*
X1280393D02*
X1285392D01*
X1282892D01*
Y-549500D01*
X1280393D01*
X1285392D01*
X1292889Y-534505D02*
Y-549500D01*
X1302886D01*
X1322879Y-534505D02*
X1332876D01*
X1327878D01*
Y-549500D01*
X1337874Y-534505D02*
Y-549500D01*
Y-542002D01*
X1347871D01*
Y-534505D01*
Y-549500D01*
X1352870Y-534505D02*
X1357868D01*
X1355369D01*
Y-549500D01*
X1352870D01*
X1357868D01*
X1375362Y-537004D02*
X1372863Y-534505D01*
X1367865D01*
X1365366Y-537004D01*
Y-547001D01*
X1367865Y-549500D01*
X1372863D01*
X1375362Y-547001D01*
X1380361Y-534505D02*
Y-549500D01*
Y-544502D01*
X1390358Y-534505D01*
X1382860Y-542002D01*
X1390358Y-549500D01*
X1395356D02*
Y-534505D01*
X1405353Y-549500D01*
Y-534505D01*
X1420348D02*
X1410351D01*
Y-549500D01*
X1420348D01*
X1410351Y-542002D02*
X1415349D01*
X1435343Y-537004D02*
X1432844Y-534505D01*
X1427845D01*
X1425346Y-537004D01*
Y-539503D01*
X1427845Y-542002D01*
X1432844D01*
X1435343Y-544502D01*
Y-547001D01*
X1432844Y-549500D01*
X1427845D01*
X1425346Y-547001D01*
X1450338Y-537004D02*
X1447839Y-534505D01*
X1442841D01*
X1440341Y-537004D01*
Y-539503D01*
X1442841Y-542002D01*
X1447839D01*
X1450338Y-544502D01*
Y-547001D01*
X1447839Y-549500D01*
X1442841D01*
X1440341Y-547001D01*
X1455336Y-539503D02*
X1457836D01*
Y-542002D01*
X1455336D01*
Y-539503D01*
Y-547001D02*
X1457836D01*
Y-549500D01*
X1455336D01*
Y-547001D01*
X1482828Y-549500D02*
X1487826D01*
X1485327D01*
Y-534505D01*
X1482828Y-537004D01*
X1495324Y-534505D02*
X1505320D01*
Y-537004D01*
X1495324Y-547001D01*
Y-549500D01*
X1510319D02*
Y-547001D01*
X1512818D01*
Y-549500D01*
X1510319D01*
X1532811Y-534505D02*
X1522815D01*
Y-542002D01*
X1527813Y-539503D01*
X1530312D01*
X1532811Y-542002D01*
Y-547001D01*
X1530312Y-549500D01*
X1525314D01*
X1522815Y-547001D01*
X1552805Y-539503D02*
Y-547001D01*
X1555304Y-549500D01*
X1562802D01*
Y-539503D01*
X1567800Y-549500D02*
Y-539503D01*
X1570299D01*
X1572798Y-542002D01*
Y-549500D01*
Y-542002D01*
X1575298Y-539503D01*
X1577797Y-542002D01*
Y-549500D01*
X962997Y-562005D02*
X953000D01*
Y-577000D01*
X962997D01*
X953000Y-569502D02*
X957998D01*
X967995Y-567003D02*
Y-577000D01*
Y-572002D01*
X970494Y-569502D01*
X972993Y-567003D01*
X975493D01*
X987989Y-577000D02*
X982990Y-572002D01*
Y-567003D01*
X987989Y-562005D01*
X995486D02*
Y-577000D01*
X1005483D01*
X1010481D02*
X1015480D01*
X1012980D01*
Y-562005D01*
X1010481Y-564504D01*
X1022977Y-577000D02*
X1027976D01*
X1025477D01*
Y-562005D01*
X1022977Y-564504D01*
X1035473Y-569502D02*
X1045470D01*
X1050468Y-562005D02*
Y-577000D01*
X1057966D01*
X1060465Y-574501D01*
Y-572002D01*
X1057966Y-569502D01*
X1050468D01*
X1057966D01*
X1060465Y-567003D01*
Y-564504D01*
X1057966Y-562005D01*
X1050468D01*
X1067963Y-577000D02*
X1072961D01*
X1075460Y-574501D01*
Y-569502D01*
X1072961Y-567003D01*
X1067963D01*
X1065464Y-569502D01*
Y-574501D01*
X1067963Y-577000D01*
X1082958Y-564504D02*
Y-567003D01*
X1080459D01*
X1085457D01*
X1082958D01*
Y-574501D01*
X1085457Y-577000D01*
X1095454Y-564504D02*
Y-567003D01*
X1092955D01*
X1097953D01*
X1095454D01*
Y-574501D01*
X1097953Y-577000D01*
X1107950D02*
X1112948D01*
X1115447Y-574501D01*
Y-569502D01*
X1112948Y-567003D01*
X1107950D01*
X1105451Y-569502D01*
Y-574501D01*
X1107950Y-577000D01*
X1120446D02*
Y-567003D01*
X1122945D01*
X1125444Y-569502D01*
Y-577000D01*
Y-569502D01*
X1127943Y-567003D01*
X1130443Y-569502D01*
Y-577000D01*
X1135441D02*
X1140439Y-572002D01*
Y-567003D01*
X1135441Y-562005D01*
X1162932Y-572002D02*
X1172929D01*
X1162932Y-567003D02*
X1172929D01*
X1200420Y-577000D02*
Y-562005D01*
X1192922Y-569502D01*
X1202919D01*
X1207917Y-577000D02*
Y-574501D01*
X1210417D01*
Y-577000D01*
X1207917D01*
X1230410D02*
X1220413D01*
X1230410Y-567003D01*
Y-564504D01*
X1227911Y-562005D01*
X1222913D01*
X1220413Y-564504D01*
X948000Y-507005D02*
Y-522000D01*
X957997D01*
X962995D02*
X967993D01*
X965494D01*
Y-507005D01*
X962995Y-509504D01*
X975491Y-522000D02*
X980490D01*
X977990D01*
Y-507005D01*
X975491Y-509504D01*
X987987Y-514502D02*
X997984D01*
X1002982Y-507005D02*
Y-522000D01*
X1010480D01*
X1012979Y-519501D01*
Y-517002D01*
X1010480Y-514502D01*
X1002982D01*
X1010480D01*
X1012979Y-512003D01*
Y-509504D01*
X1010480Y-507005D01*
X1002982D01*
X1020477Y-522000D02*
X1025475D01*
X1027974Y-519501D01*
Y-514502D01*
X1025475Y-512003D01*
X1020477D01*
X1017977Y-514502D01*
Y-519501D01*
X1020477Y-522000D01*
X1035472Y-509504D02*
Y-512003D01*
X1032972D01*
X1037971D01*
X1035472D01*
Y-519501D01*
X1037971Y-522000D01*
X1047968Y-509504D02*
Y-512003D01*
X1045468D01*
X1050467D01*
X1047968D01*
Y-519501D01*
X1050467Y-522000D01*
X1060464D02*
X1065462D01*
X1067961Y-519501D01*
Y-514502D01*
X1065462Y-512003D01*
X1060464D01*
X1057964Y-514502D01*
Y-519501D01*
X1060464Y-522000D01*
X1072960D02*
Y-512003D01*
X1075459D01*
X1077958Y-514502D01*
Y-522000D01*
Y-514502D01*
X1080457Y-512003D01*
X1082956Y-514502D01*
Y-522000D01*
X1102950Y-514502D02*
X1112947D01*
X1117945Y-522000D02*
X1125443Y-514502D01*
X1117945Y-507005D01*
X1145436Y-522000D02*
X1150434D01*
X1147935D01*
Y-507005D01*
X1145436Y-509504D01*
X1157932Y-507005D02*
X1167929D01*
Y-509504D01*
X1157932Y-519501D01*
Y-522000D01*
X1172927Y-509504D02*
X1175426Y-507005D01*
X1180425D01*
X1182924Y-509504D01*
Y-512003D01*
X1180425Y-514502D01*
X1177926D01*
X1180425D01*
X1182924Y-517002D01*
Y-519501D01*
X1180425Y-522000D01*
X1175426D01*
X1172927Y-519501D01*
X1187922Y-512003D02*
Y-519501D01*
X1190422Y-522000D01*
X1197919D01*
Y-512003D01*
X1202917Y-522000D02*
Y-512003D01*
X1205417D01*
X1207916Y-514502D01*
Y-522000D01*
Y-514502D01*
X1210415Y-512003D01*
X1212914Y-514502D01*
Y-522000D01*
X1235407Y-509504D02*
Y-512003D01*
X1232908D01*
X1237906D01*
X1235407D01*
Y-519501D01*
X1237906Y-522000D01*
X1245404Y-507005D02*
Y-522000D01*
Y-514502D01*
X1247903Y-512003D01*
X1252901D01*
X1255400Y-514502D01*
Y-522000D01*
X1260399D02*
X1265397D01*
X1262898D01*
Y-512003D01*
X1260399D01*
X1282892D02*
X1275394D01*
X1272895Y-514502D01*
Y-519501D01*
X1275394Y-522000D01*
X1282892D01*
X1287890D02*
Y-507005D01*
Y-517002D02*
X1295388Y-512003D01*
X1287890Y-517002D02*
X1295388Y-522000D01*
D95*
X916506Y-859500D02*
X933168D01*
X936500Y-856168D01*
Y-849503D01*
X933168Y-846171D01*
X916506D01*
X919839Y-826177D02*
X916506Y-829510D01*
Y-836174D01*
X919839Y-839506D01*
X923171D01*
X926503Y-836174D01*
Y-829510D01*
X929836Y-826177D01*
X933168D01*
X936500Y-829510D01*
Y-836174D01*
X933168Y-839506D01*
X916506Y-819513D02*
X936500D01*
Y-809516D01*
X933168Y-806184D01*
X929836D01*
X926503Y-809516D01*
Y-819513D01*
Y-809516D01*
X923171Y-806184D01*
X919839D01*
X916506Y-809516D01*
Y-819513D01*
X919839Y-799519D02*
X916506Y-796187D01*
Y-789522D01*
X919839Y-786190D01*
X923171D01*
X926503Y-789522D01*
Y-792855D01*
Y-789522D01*
X929836Y-786190D01*
X933168D01*
X936500Y-789522D01*
Y-796187D01*
X933168Y-799519D01*
X936500Y-779526D02*
X933168D01*
Y-776193D01*
X936500D01*
Y-779526D01*
X919839Y-762865D02*
X916506Y-759532D01*
Y-752868D01*
X919839Y-749535D01*
X933168D01*
X936500Y-752868D01*
Y-759532D01*
X933168Y-762865D01*
X919839D01*
X935500Y-684500D02*
X915506D01*
Y-674503D01*
X918839Y-671171D01*
X925503D01*
X928836Y-674503D01*
Y-684500D01*
Y-677835D02*
X935500Y-671171D01*
X915506Y-651177D02*
Y-664506D01*
X925503D01*
Y-657842D01*
Y-664506D01*
X935500D01*
D97*
X938750Y-737250D02*
X1958750D01*
X943000Y-607000D02*
X1963000D01*
D101*
X-62375Y-64375D02*
G03*
X-62375Y-64375I-2000J0D01*
G01*
Y664375D02*
G03*
X-62375Y664375I-2000J0D01*
G01*
X1066375Y-64375D02*
G03*
X1066375Y-64375I-2000J0D01*
G01*
Y664375D02*
G03*
X1066375Y664375I-2000J0D01*
G01*
D167*
X87500Y-473265D02*
Y-488500D01*
X97657D01*
X102735Y-475804D02*
X105274Y-473265D01*
X110353D01*
X112892Y-475804D01*
Y-478343D01*
X110353Y-480882D01*
X107813D01*
X110353D01*
X112892Y-483422D01*
Y-485961D01*
X110353Y-488500D01*
X105274D01*
X102735Y-485961D01*
X117970Y-478343D02*
X120509D01*
Y-480882D01*
X117970D01*
Y-478343D01*
Y-485961D02*
X120509D01*
Y-488500D01*
X117970D01*
Y-485961D01*
X145901Y-488500D02*
Y-473265D01*
X153519D01*
X156058Y-475804D01*
Y-480882D01*
X153519Y-483422D01*
X145901D01*
X161136Y-473265D02*
Y-488500D01*
X166215Y-483422D01*
X171293Y-488500D01*
Y-473265D01*
X176371Y-488500D02*
Y-473265D01*
X183989D01*
X186528Y-475804D01*
Y-480882D01*
X183989Y-483422D01*
X176371D01*
X181450D02*
X186528Y-488500D01*
X191606D02*
X201763Y-478343D01*
X216998Y-475804D02*
X214459Y-473265D01*
X209381D01*
X206841Y-475804D01*
Y-478343D01*
X209381Y-480882D01*
X214459D01*
X216998Y-483422D01*
Y-485961D01*
X214459Y-488500D01*
X209381D01*
X206841Y-485961D01*
X222076Y-488500D02*
X227155D01*
X224616D01*
Y-478343D01*
X222076D01*
X239851Y-493578D02*
X242390D01*
X244929Y-491039D01*
Y-478343D01*
X237311D01*
X234772Y-480882D01*
Y-485961D01*
X237311Y-488500D01*
X244929D01*
X250007D02*
Y-478343D01*
X257625D01*
X260164Y-480882D01*
Y-488500D01*
X267782Y-478343D02*
X272860D01*
X275399Y-480882D01*
Y-488500D01*
X267782D01*
X265243Y-485961D01*
X267782Y-483422D01*
X275399D01*
X280478Y-488500D02*
X285556D01*
X283017D01*
Y-473265D01*
X280478D01*
X293173Y-488500D02*
X303330Y-478343D01*
X318565Y-475804D02*
X316026Y-473265D01*
X310948D01*
X308409Y-475804D01*
Y-485961D01*
X310948Y-488500D01*
X316026D01*
X318565Y-485961D01*
Y-480882D01*
X313487D01*
X323644Y-488500D02*
Y-473265D01*
X333800Y-488500D01*
Y-473265D01*
X338879D02*
Y-488500D01*
X346496D01*
X349035Y-485961D01*
Y-475804D01*
X346496Y-473265D01*
X338879D01*
X90500Y-728015D02*
Y-743250D01*
X98118D01*
X100657Y-740711D01*
Y-738172D01*
X98118Y-735632D01*
X90500D01*
X98118D01*
X100657Y-733093D01*
Y-730554D01*
X98118Y-728015D01*
X90500D01*
X108274Y-743250D02*
X113353D01*
X115892Y-740711D01*
Y-735632D01*
X113353Y-733093D01*
X108274D01*
X105735Y-735632D01*
Y-740711D01*
X108274Y-743250D01*
X123509Y-730554D02*
Y-733093D01*
X120970D01*
X126048D01*
X123509D01*
Y-740711D01*
X126048Y-743250D01*
X136205Y-730554D02*
Y-733093D01*
X133666D01*
X138744D01*
X136205D01*
Y-740711D01*
X138744Y-743250D01*
X148901D02*
X153979D01*
X156519Y-740711D01*
Y-735632D01*
X153979Y-733093D01*
X148901D01*
X146362Y-735632D01*
Y-740711D01*
X148901Y-743250D01*
X161597D02*
Y-733093D01*
X164136D01*
X166675Y-735632D01*
Y-743250D01*
Y-735632D01*
X169214Y-733093D01*
X171754Y-735632D01*
Y-743250D01*
X176832Y-733093D02*
X179371D01*
Y-735632D01*
X176832D01*
Y-733093D01*
Y-740711D02*
X179371D01*
Y-743250D01*
X176832D01*
Y-740711D01*
X214920Y-730554D02*
X212381Y-728015D01*
X207302D01*
X204763Y-730554D01*
Y-733093D01*
X207302Y-735632D01*
X212381D01*
X214920Y-738172D01*
Y-740711D01*
X212381Y-743250D01*
X207302D01*
X204763Y-740711D01*
X219998Y-743250D02*
X225076D01*
X222537D01*
Y-733093D01*
X219998D01*
X237772Y-748328D02*
X240312D01*
X242851Y-745789D01*
Y-733093D01*
X235233D01*
X232694Y-735632D01*
Y-740711D01*
X235233Y-743250D01*
X242851D01*
X247929D02*
Y-733093D01*
X255547D01*
X258086Y-735632D01*
Y-743250D01*
X265703Y-733093D02*
X270782D01*
X273321Y-735632D01*
Y-743250D01*
X265703D01*
X263164Y-740711D01*
X265703Y-738172D01*
X273321D01*
X278399Y-743250D02*
X283477D01*
X280938D01*
Y-728015D01*
X278399D01*
X291095Y-743250D02*
X301252Y-733093D01*
X306330Y-743250D02*
Y-728015D01*
X313948D01*
X316487Y-730554D01*
Y-735632D01*
X313948Y-738172D01*
X306330D01*
X321565Y-728015D02*
Y-743250D01*
X326644Y-738172D01*
X331722Y-743250D01*
Y-728015D01*
X336800Y-743250D02*
Y-728015D01*
X344418D01*
X346957Y-730554D01*
Y-735632D01*
X344418Y-738172D01*
X336800D01*
X341879D02*
X346957Y-743250D01*
X352035D02*
X362192Y-733093D01*
X377427Y-730554D02*
X374888Y-728015D01*
X369810D01*
X367270Y-730554D01*
Y-740711D01*
X369810Y-743250D01*
X374888D01*
X377427Y-740711D01*
Y-735632D01*
X372349D01*
X382505Y-743250D02*
Y-728015D01*
X392662Y-743250D01*
Y-728015D01*
X397741D02*
Y-743250D01*
X405358D01*
X407897Y-740711D01*
Y-730554D01*
X405358Y-728015D01*
X397741D01*
X87500Y-503265D02*
Y-518500D01*
X97657D01*
X110353D02*
Y-503265D01*
X102735Y-510882D01*
X112892D01*
X117970Y-508343D02*
X120509D01*
Y-510882D01*
X117970D01*
Y-508343D01*
Y-515961D02*
X120509D01*
Y-518500D01*
X117970D01*
Y-515961D01*
X156058Y-505804D02*
X153519Y-503265D01*
X148440D01*
X145901Y-505804D01*
Y-508343D01*
X148440Y-510882D01*
X153519D01*
X156058Y-513422D01*
Y-515961D01*
X153519Y-518500D01*
X148440D01*
X145901Y-515961D01*
X161136Y-518500D02*
X166215D01*
X163675D01*
Y-508343D01*
X161136D01*
X178910Y-523578D02*
X181450D01*
X183989Y-521039D01*
Y-508343D01*
X176371D01*
X173832Y-510882D01*
Y-515961D01*
X176371Y-518500D01*
X183989D01*
X189067D02*
Y-508343D01*
X196685D01*
X199224Y-510882D01*
Y-518500D01*
X206841Y-508343D02*
X211920D01*
X214459Y-510882D01*
Y-518500D01*
X206841D01*
X204302Y-515961D01*
X206841Y-513422D01*
X214459D01*
X219537Y-518500D02*
X224616D01*
X222076D01*
Y-503265D01*
X219537D01*
X232233Y-518500D02*
X242390Y-508343D01*
X247468Y-518500D02*
Y-503265D01*
X255086D01*
X257625Y-505804D01*
Y-510882D01*
X255086Y-513422D01*
X247468D01*
X262703Y-503265D02*
Y-518500D01*
X267782Y-513422D01*
X272860Y-518500D01*
Y-503265D01*
X277938Y-518500D02*
Y-503265D01*
X285556D01*
X288095Y-505804D01*
Y-510882D01*
X285556Y-513422D01*
X277938D01*
X283017D02*
X288095Y-518500D01*
X293173D02*
X303330Y-508343D01*
X318565Y-505804D02*
X316026Y-503265D01*
X310948D01*
X308409Y-505804D01*
Y-515961D01*
X310948Y-518500D01*
X316026D01*
X318565Y-515961D01*
Y-510882D01*
X313487D01*
X323644Y-518500D02*
Y-503265D01*
X333800Y-518500D01*
Y-503265D01*
X338879D02*
Y-518500D01*
X346496D01*
X349035Y-515961D01*
Y-505804D01*
X346496Y-503265D01*
X338879D01*
X87500Y-443265D02*
Y-458500D01*
X97657D01*
X112892D02*
X102735D01*
X112892Y-448343D01*
Y-445804D01*
X110353Y-443265D01*
X105274D01*
X102735Y-445804D01*
X117970Y-448343D02*
X120509D01*
Y-450882D01*
X117970D01*
Y-448343D01*
Y-455961D02*
X120509D01*
Y-458500D01*
X117970D01*
Y-455961D01*
X156058Y-445804D02*
X153519Y-443265D01*
X148440D01*
X145901Y-445804D01*
Y-455961D01*
X148440Y-458500D01*
X153519D01*
X156058Y-455961D01*
Y-450882D01*
X150979D01*
X161136Y-458500D02*
Y-443265D01*
X171293Y-458500D01*
Y-443265D01*
X176371D02*
Y-458500D01*
X183989D01*
X186528Y-455961D01*
Y-445804D01*
X183989Y-443265D01*
X176371D01*
X87250Y-413015D02*
X97407D01*
X92328D01*
Y-428250D01*
X105024D02*
X110103D01*
X112642Y-425711D01*
Y-420633D01*
X110103Y-418093D01*
X105024D01*
X102485Y-420633D01*
Y-425711D01*
X105024Y-428250D01*
X117720Y-433328D02*
Y-418093D01*
X125338D01*
X127877Y-420633D01*
Y-425711D01*
X125338Y-428250D01*
X117720D01*
X132955Y-418093D02*
X135494D01*
Y-420633D01*
X132955D01*
Y-418093D01*
Y-425711D02*
X135494D01*
Y-428250D01*
X132955D01*
Y-425711D01*
X160886Y-428250D02*
Y-413015D01*
X168504D01*
X171043Y-415554D01*
Y-420633D01*
X168504Y-423172D01*
X160886D01*
X165965D02*
X171043Y-428250D01*
X186278Y-413015D02*
X176121D01*
Y-420633D01*
X181200D01*
X176121D01*
Y-428250D01*
X191356D02*
X201513Y-418093D01*
X216748Y-415554D02*
X214209Y-413015D01*
X209130D01*
X206591Y-415554D01*
Y-425711D01*
X209130Y-428250D01*
X214209D01*
X216748Y-425711D01*
Y-420633D01*
X211670D01*
X221826Y-428250D02*
Y-413015D01*
X231983Y-428250D01*
Y-413015D01*
X237062D02*
Y-428250D01*
X244679D01*
X247218Y-425711D01*
Y-415554D01*
X244679Y-413015D01*
X237062D01*
X88500Y-533265D02*
Y-548500D01*
X98657D01*
X113892Y-533265D02*
X103735D01*
Y-540882D01*
X108813Y-538343D01*
X111353D01*
X113892Y-540882D01*
Y-545961D01*
X111353Y-548500D01*
X106274D01*
X103735Y-545961D01*
X118970Y-538343D02*
X121509D01*
Y-540882D01*
X118970D01*
Y-538343D01*
Y-545961D02*
X121509D01*
Y-548500D01*
X118970D01*
Y-545961D01*
X146901Y-548500D02*
Y-533265D01*
X154519D01*
X157058Y-535804D01*
Y-540882D01*
X154519Y-543422D01*
X146901D01*
X162136Y-533265D02*
Y-548500D01*
X167215Y-543422D01*
X172293Y-548500D01*
Y-533265D01*
X177371Y-548500D02*
Y-533265D01*
X184989D01*
X187528Y-535804D01*
Y-540882D01*
X184989Y-543422D01*
X177371D01*
X182450D02*
X187528Y-548500D01*
X192606D02*
X202763Y-538343D01*
X217998Y-535804D02*
X215459Y-533265D01*
X210381D01*
X207841Y-535804D01*
Y-545961D01*
X210381Y-548500D01*
X215459D01*
X217998Y-545961D01*
Y-540882D01*
X212920D01*
X223076Y-548500D02*
Y-533265D01*
X233233Y-548500D01*
Y-533265D01*
X238312D02*
Y-548500D01*
X245929D01*
X248468Y-545961D01*
Y-535804D01*
X245929Y-533265D01*
X238312D01*
X88500Y-591765D02*
Y-607000D01*
X98657D01*
X103735Y-591765D02*
X113892D01*
Y-594304D01*
X103735Y-604461D01*
Y-607000D01*
X118970Y-596843D02*
X121509D01*
Y-599383D01*
X118970D01*
Y-596843D01*
Y-604461D02*
X121509D01*
Y-607000D01*
X118970D01*
Y-604461D01*
X157058Y-594304D02*
X154519Y-591765D01*
X149440D01*
X146901Y-594304D01*
Y-604461D01*
X149440Y-607000D01*
X154519D01*
X157058Y-604461D01*
Y-599383D01*
X151980D01*
X162136Y-607000D02*
Y-591765D01*
X172293Y-607000D01*
Y-591765D01*
X177371D02*
Y-607000D01*
X184989D01*
X187528Y-604461D01*
Y-594304D01*
X184989Y-591765D01*
X177371D01*
X87500Y-561765D02*
Y-577000D01*
X97657D01*
X112892Y-561765D02*
X107813Y-564304D01*
X102735Y-569383D01*
Y-574461D01*
X105274Y-577000D01*
X110353D01*
X112892Y-574461D01*
Y-571922D01*
X110353Y-569383D01*
X102735D01*
X117970Y-566843D02*
X120509D01*
Y-569383D01*
X117970D01*
Y-566843D01*
Y-574461D02*
X120509D01*
Y-577000D01*
X117970D01*
Y-574461D01*
X156058Y-564304D02*
X153519Y-561765D01*
X148440D01*
X145901Y-564304D01*
Y-566843D01*
X148440Y-569383D01*
X153519D01*
X156058Y-571922D01*
Y-574461D01*
X153519Y-577000D01*
X148440D01*
X145901Y-574461D01*
X161136Y-577000D02*
X166215D01*
X163675D01*
Y-566843D01*
X161136D01*
X178910Y-582078D02*
X181450D01*
X183989Y-579539D01*
Y-566843D01*
X176371D01*
X173832Y-569383D01*
Y-574461D01*
X176371Y-577000D01*
X183989D01*
X189067D02*
Y-566843D01*
X196685D01*
X199224Y-569383D01*
Y-577000D01*
X206841Y-566843D02*
X211920D01*
X214459Y-569383D01*
Y-577000D01*
X206841D01*
X204302Y-574461D01*
X206841Y-571922D01*
X214459D01*
X219537Y-577000D02*
X224616D01*
X222076D01*
Y-561765D01*
X219537D01*
X232233Y-577000D02*
X242390Y-566843D01*
X257625Y-564304D02*
X255086Y-561765D01*
X250007D01*
X247468Y-564304D01*
Y-574461D01*
X250007Y-577000D01*
X255086D01*
X257625Y-574461D01*
Y-569383D01*
X252547D01*
X262703Y-577000D02*
Y-561765D01*
X272860Y-577000D01*
Y-561765D01*
X277938D02*
Y-577000D01*
X285556D01*
X288095Y-574461D01*
Y-564304D01*
X285556Y-561765D01*
X277938D01*
X88500Y-673765D02*
Y-689000D01*
X98657D01*
X103735D02*
X108813D01*
X106274D01*
Y-673765D01*
X103735Y-676304D01*
X116431D02*
X118970Y-673765D01*
X124049D01*
X126588Y-676304D01*
Y-686461D01*
X124049Y-689000D01*
X118970D01*
X116431Y-686461D01*
Y-676304D01*
X131666Y-678843D02*
X134205D01*
Y-681383D01*
X131666D01*
Y-678843D01*
Y-686461D02*
X134205D01*
Y-689000D01*
X131666D01*
Y-686461D01*
X169754Y-676304D02*
X167215Y-673765D01*
X162136D01*
X159597Y-676304D01*
Y-686461D01*
X162136Y-689000D01*
X167215D01*
X169754Y-686461D01*
X174832Y-673765D02*
Y-689000D01*
X184989D01*
X190067Y-673765D02*
Y-689000D01*
Y-683922D01*
X200224Y-673765D01*
X192606Y-681383D01*
X200224Y-689000D01*
X205302D02*
X215459Y-678843D01*
X230694Y-676304D02*
X228155Y-673765D01*
X223076D01*
X220537Y-676304D01*
Y-678843D01*
X223076Y-681383D01*
X228155D01*
X230694Y-683922D01*
Y-686461D01*
X228155Y-689000D01*
X223076D01*
X220537Y-686461D01*
X235772Y-689000D02*
X240851D01*
X238312D01*
Y-678843D01*
X235772D01*
X253547Y-694078D02*
X256086D01*
X258625Y-691539D01*
Y-678843D01*
X251007D01*
X248468Y-681383D01*
Y-686461D01*
X251007Y-689000D01*
X258625D01*
X263703D02*
Y-678843D01*
X271321D01*
X273860Y-681383D01*
Y-689000D01*
X281478Y-678843D02*
X286556D01*
X289095Y-681383D01*
Y-689000D01*
X281478D01*
X278938Y-686461D01*
X281478Y-683922D01*
X289095D01*
X294173Y-689000D02*
X299252D01*
X296713D01*
Y-673765D01*
X294173D01*
X89000Y-701765D02*
Y-717000D01*
X99157D01*
X104235D02*
X109313D01*
X106774D01*
Y-701765D01*
X104235Y-704304D01*
X116931Y-717000D02*
X122009D01*
X119470D01*
Y-701765D01*
X116931Y-704304D01*
X129627Y-706843D02*
X132166D01*
Y-709382D01*
X129627D01*
Y-706843D01*
Y-714461D02*
X132166D01*
Y-717000D01*
X129627D01*
Y-714461D01*
X167715Y-704304D02*
X165175Y-701765D01*
X160097D01*
X157558Y-704304D01*
Y-714461D01*
X160097Y-717000D01*
X165175D01*
X167715Y-714461D01*
Y-709382D01*
X162636D01*
X172793Y-717000D02*
Y-701765D01*
X182950Y-717000D01*
Y-701765D01*
X188028D02*
Y-717000D01*
X195646D01*
X198185Y-714461D01*
Y-704304D01*
X195646Y-701765D01*
X188028D01*
X86750Y-621515D02*
Y-636750D01*
X96907D01*
X101985Y-624054D02*
X104524Y-621515D01*
X109603D01*
X112142Y-624054D01*
Y-626593D01*
X109603Y-629132D01*
X112142Y-631672D01*
Y-634211D01*
X109603Y-636750D01*
X104524D01*
X101985Y-634211D01*
Y-631672D01*
X104524Y-629132D01*
X101985Y-626593D01*
Y-624054D01*
X104524Y-629132D02*
X109603D01*
X117220Y-626593D02*
X119759D01*
Y-629132D01*
X117220D01*
Y-626593D01*
Y-634211D02*
X119759D01*
Y-636750D01*
X117220D01*
Y-634211D01*
X155308Y-624054D02*
X152769Y-621515D01*
X147690D01*
X145151Y-624054D01*
Y-626593D01*
X147690Y-629132D01*
X152769D01*
X155308Y-631672D01*
Y-634211D01*
X152769Y-636750D01*
X147690D01*
X145151Y-634211D01*
X160386Y-636750D02*
X165465D01*
X162925D01*
Y-626593D01*
X160386D01*
X178160Y-641828D02*
X180700D01*
X183239Y-639289D01*
Y-626593D01*
X175621D01*
X173082Y-629132D01*
Y-634211D01*
X175621Y-636750D01*
X183239D01*
X188317D02*
Y-626593D01*
X195935D01*
X198474Y-629132D01*
Y-636750D01*
X206091Y-626593D02*
X211170D01*
X213709Y-629132D01*
Y-636750D01*
X206091D01*
X203552Y-634211D01*
X206091Y-631672D01*
X213709D01*
X218787Y-636750D02*
X223866D01*
X221327D01*
Y-621515D01*
X218787D01*
X87750Y-647265D02*
Y-662500D01*
X97907D01*
X102985Y-659961D02*
X105524Y-662500D01*
X110603D01*
X113142Y-659961D01*
Y-649804D01*
X110603Y-647265D01*
X105524D01*
X102985Y-649804D01*
Y-652343D01*
X105524Y-654883D01*
X113142D01*
X118220Y-652343D02*
X120759D01*
Y-654883D01*
X118220D01*
Y-652343D01*
Y-659961D02*
X120759D01*
Y-662500D01*
X118220D01*
Y-659961D01*
X156308Y-649804D02*
X153769Y-647265D01*
X148690D01*
X146151Y-649804D01*
Y-652343D01*
X148690Y-654883D01*
X153769D01*
X156308Y-657422D01*
Y-659961D01*
X153769Y-662500D01*
X148690D01*
X146151Y-659961D01*
X161386Y-662500D02*
X166465D01*
X163925D01*
Y-652343D01*
X161386D01*
X179160Y-667578D02*
X181700D01*
X184239Y-665039D01*
Y-652343D01*
X176621D01*
X174082Y-654883D01*
Y-659961D01*
X176621Y-662500D01*
X184239D01*
X189317D02*
Y-652343D01*
X196935D01*
X199474Y-654883D01*
Y-662500D01*
X207092Y-652343D02*
X212170D01*
X214709Y-654883D01*
Y-662500D01*
X207092D01*
X204552Y-659961D01*
X207092Y-657422D01*
X214709D01*
X219787Y-662500D02*
X224866D01*
X222327D01*
Y-647265D01*
X219787D01*
X2201331Y-537250D02*
X2194000D01*
X2201331Y-529919D01*
Y-528086D01*
X2199498Y-526254D01*
X2195833D01*
X2194000Y-528086D01*
X2204996D02*
X2206829Y-526254D01*
X2210495D01*
X2212327Y-528086D01*
Y-535417D01*
X2210495Y-537250D01*
X2206829D01*
X2204996Y-535417D01*
Y-528086D01*
X2215993Y-537250D02*
X2219658D01*
X2217826D01*
Y-526254D01*
X2215993Y-528086D01*
X2232488Y-526254D02*
X2225157D01*
Y-531752D01*
X2228822Y-529919D01*
X2230655D01*
X2232488Y-531752D01*
Y-535417D01*
X2230655Y-537250D01*
X2226989D01*
X2225157Y-535417D01*
X2236153Y-531752D02*
X2243484D01*
X2247150Y-537250D02*
X2250815D01*
X2248982D01*
Y-526254D01*
X2247150Y-528086D01*
X2256313D02*
X2258146Y-526254D01*
X2261812D01*
X2263644Y-528086D01*
Y-535417D01*
X2261812Y-537250D01*
X2258146D01*
X2256313Y-535417D01*
Y-528086D01*
X2267310Y-531752D02*
X2274641D01*
X2285637Y-537250D02*
X2278306D01*
X2285637Y-529919D01*
Y-528086D01*
X2283804Y-526254D01*
X2280139D01*
X2278306Y-528086D01*
X2296633Y-537250D02*
X2289303D01*
X2296633Y-529919D01*
Y-528086D01*
X2294801Y-526254D01*
X2291135D01*
X2289303Y-528086D01*
X2063750Y-598254D02*
X2067415D01*
X2065583D01*
Y-609250D01*
X2063750D01*
X2067415D01*
X2072914D02*
Y-598254D01*
X2080245Y-609250D01*
Y-598254D01*
X2083910D02*
X2087576D01*
X2085743D01*
Y-609250D01*
X2083910D01*
X2087576D01*
X2093074Y-598254D02*
X2100405D01*
X2096739D01*
Y-609250D01*
X2104070Y-598254D02*
X2107736D01*
X2105903D01*
Y-609250D01*
X2104070D01*
X2107736D01*
X2113234D02*
Y-601919D01*
X2116899Y-598254D01*
X2120565Y-601919D01*
Y-609250D01*
Y-603752D01*
X2113234D01*
X2124230Y-598254D02*
Y-609250D01*
X2131561D01*
X2135227Y-601919D02*
X2137060D01*
Y-603752D01*
X2135227D01*
Y-601919D01*
Y-607417D02*
X2137060D01*
Y-609250D01*
X2135227D01*
Y-607417D01*
X2072581Y-637836D02*
X2070748Y-636003D01*
X2067083D01*
X2065250Y-637836D01*
Y-645167D01*
X2067083Y-647000D01*
X2070748D01*
X2072581Y-645167D01*
X2076246Y-636003D02*
Y-647000D01*
Y-641502D01*
X2083577D01*
Y-636003D01*
Y-647000D01*
X2094574Y-636003D02*
X2087243D01*
Y-647000D01*
X2094574D01*
X2087243Y-641502D02*
X2090908D01*
X2105570Y-637836D02*
X2103737Y-636003D01*
X2100072D01*
X2098239Y-637836D01*
Y-645167D01*
X2100072Y-647000D01*
X2103737D01*
X2105570Y-645167D01*
X2109236Y-636003D02*
Y-647000D01*
Y-643335D01*
X2116567Y-636003D01*
X2111069Y-641502D01*
X2116567Y-647000D01*
X2127563Y-636003D02*
X2120232D01*
Y-647000D01*
X2127563D01*
X2120232Y-641502D02*
X2123898D01*
X2131229Y-636003D02*
Y-647000D01*
X2136727D01*
X2138560Y-645167D01*
Y-637836D01*
X2136727Y-636003D01*
X2131229D01*
X2142225Y-639669D02*
X2144058D01*
Y-641502D01*
X2142225D01*
Y-639669D01*
Y-645167D02*
X2144058D01*
Y-647000D01*
X2142225D01*
Y-645167D01*
X2065000Y-686000D02*
Y-675004D01*
X2070498D01*
X2072331Y-676836D01*
Y-680502D01*
X2070498Y-682335D01*
X2065000D01*
X2068665D02*
X2072331Y-686000D01*
X2083327Y-675004D02*
X2075996D01*
Y-686000D01*
X2083327D01*
X2075996Y-680502D02*
X2079662D01*
X2094324Y-676836D02*
X2092491Y-675004D01*
X2088826D01*
X2086993Y-676836D01*
Y-684167D01*
X2088826Y-686000D01*
X2092491D01*
X2094324Y-684167D01*
X2097989Y-675004D02*
Y-686000D01*
Y-680502D01*
X2105320D01*
Y-675004D01*
Y-686000D01*
X2116317Y-675004D02*
X2108986D01*
Y-686000D01*
X2116317D01*
X2108986Y-680502D02*
X2112651D01*
X2127313Y-676836D02*
X2125480Y-675004D01*
X2121815D01*
X2119982Y-676836D01*
Y-684167D01*
X2121815Y-686000D01*
X2125480D01*
X2127313Y-684167D01*
X2130979Y-675004D02*
Y-686000D01*
Y-682335D01*
X2138310Y-675004D01*
X2132811Y-680502D01*
X2138310Y-686000D01*
X2149306Y-675004D02*
X2141975D01*
Y-686000D01*
X2149306D01*
X2141975Y-680502D02*
X2145641D01*
X2152971Y-675004D02*
Y-686000D01*
X2158470D01*
X2160302Y-684167D01*
Y-676836D01*
X2158470Y-675004D01*
X2152971D01*
X2163968Y-678669D02*
X2165801D01*
Y-680502D01*
X2163968D01*
Y-678669D01*
Y-684167D02*
X2165801D01*
Y-686000D01*
X2163968D01*
Y-684167D01*
X2116500Y-560504D02*
Y-571500D01*
X2123831D01*
X2127496D02*
Y-564169D01*
X2131162Y-560504D01*
X2134827Y-564169D01*
Y-571500D01*
Y-566002D01*
X2127496D01*
X2138493Y-560504D02*
Y-562336D01*
X2142158Y-566002D01*
X2145824Y-562336D01*
Y-560504D01*
X2142158Y-566002D02*
Y-571500D01*
X2154988Y-560504D02*
X2151322D01*
X2149489Y-562336D01*
Y-569667D01*
X2151322Y-571500D01*
X2154988D01*
X2156820Y-569667D01*
Y-562336D01*
X2154988Y-560504D01*
X2160486D02*
Y-569667D01*
X2162319Y-571500D01*
X2165984D01*
X2167817Y-569667D01*
Y-560504D01*
X2171482D02*
X2178813D01*
X2175148D01*
Y-571500D01*
X2200806Y-562336D02*
X2198973Y-560504D01*
X2195308D01*
X2193475Y-562336D01*
Y-564169D01*
X2195308Y-566002D01*
X2198973D01*
X2200806Y-567835D01*
Y-569667D01*
X2198973Y-571500D01*
X2195308D01*
X2193475Y-569667D01*
X2204472Y-560504D02*
X2211803D01*
X2208137D01*
Y-571500D01*
X2215468D02*
Y-564169D01*
X2219133Y-560504D01*
X2222799Y-564169D01*
Y-571500D01*
Y-566002D01*
X2215468D01*
X2226465Y-560504D02*
X2233795D01*
X2230130D01*
Y-571500D01*
X2237461Y-560504D02*
Y-569667D01*
X2239294Y-571500D01*
X2242959D01*
X2244792Y-569667D01*
Y-560504D01*
X2255788Y-562336D02*
X2253956Y-560504D01*
X2250290D01*
X2248457Y-562336D01*
Y-564169D01*
X2250290Y-566002D01*
X2253956D01*
X2255788Y-567835D01*
Y-569667D01*
X2253956Y-571500D01*
X2250290D01*
X2248457Y-569667D01*
X2203831Y-459500D02*
X2196500D01*
X2203831Y-452169D01*
Y-450336D01*
X2201998Y-448504D01*
X2198333D01*
X2196500Y-450336D01*
X2207496D02*
X2209329Y-448504D01*
X2212995D01*
X2214827Y-450336D01*
Y-457667D01*
X2212995Y-459500D01*
X2209329D01*
X2207496Y-457667D01*
Y-450336D01*
X2218493Y-459500D02*
X2222158D01*
X2220326D01*
Y-448504D01*
X2218493Y-450336D01*
X2234988Y-448504D02*
X2227657D01*
Y-454002D01*
X2231322Y-452169D01*
X2233155D01*
X2234988Y-454002D01*
Y-457667D01*
X2233155Y-459500D01*
X2229489D01*
X2227657Y-457667D01*
X2238653Y-454002D02*
X2245984D01*
X2249650Y-459500D02*
X2253315D01*
X2251482D01*
Y-448504D01*
X2249650Y-450336D01*
X2266144Y-459500D02*
X2258813D01*
X2266144Y-452169D01*
Y-450336D01*
X2264311Y-448504D01*
X2260646D01*
X2258813Y-450336D01*
X2269810Y-454002D02*
X2277141D01*
X2288137Y-459500D02*
X2280806D01*
X2288137Y-452169D01*
Y-450336D01*
X2286304Y-448504D01*
X2282639D01*
X2280806Y-450336D01*
X2291803D02*
X2293635Y-448504D01*
X2297301D01*
X2299133Y-450336D01*
Y-457667D01*
X2297301Y-459500D01*
X2293635D01*
X2291803Y-457667D01*
Y-450336D01*
X2065000Y-537500D02*
Y-526503D01*
X2070498D01*
X2072331Y-528336D01*
Y-532002D01*
X2070498Y-533834D01*
X2065000D01*
X2068665D02*
X2072331Y-537500D01*
X2083327Y-526503D02*
X2075996D01*
Y-537500D01*
X2083327D01*
X2075996Y-532002D02*
X2079662D01*
X2094324Y-528336D02*
X2092491Y-526503D01*
X2088826D01*
X2086993Y-528336D01*
Y-535667D01*
X2088826Y-537500D01*
X2092491D01*
X2094324Y-535667D01*
X2097989Y-526503D02*
Y-537500D01*
Y-532002D01*
X2105320D01*
Y-526503D01*
Y-537500D01*
X2116317Y-526503D02*
X2108986D01*
Y-537500D01*
X2116317D01*
X2108986Y-532002D02*
X2112651D01*
X2127313Y-528336D02*
X2125480Y-526503D01*
X2121815D01*
X2119982Y-528336D01*
Y-535667D01*
X2121815Y-537500D01*
X2125480D01*
X2127313Y-535667D01*
X2130979Y-526503D02*
Y-537500D01*
Y-533834D01*
X2138310Y-526503D01*
X2132811Y-532002D01*
X2138310Y-537500D01*
X2149306Y-526503D02*
X2141975D01*
Y-537500D01*
X2149306D01*
X2141975Y-532002D02*
X2145641D01*
X2152971Y-526503D02*
Y-537500D01*
X2158470D01*
X2160302Y-535667D01*
Y-528336D01*
X2158470Y-526503D01*
X2152971D01*
X2163968Y-530169D02*
X2165801D01*
Y-532002D01*
X2163968D01*
Y-530169D01*
Y-535667D02*
X2165801D01*
Y-537500D01*
X2163968D01*
Y-535667D01*
X2072581Y-489336D02*
X2070748Y-487504D01*
X2067083D01*
X2065250Y-489336D01*
Y-496667D01*
X2067083Y-498500D01*
X2070748D01*
X2072581Y-496667D01*
X2076246Y-487504D02*
Y-498500D01*
Y-493002D01*
X2083577D01*
Y-487504D01*
Y-498500D01*
X2094574Y-487504D02*
X2087243D01*
Y-498500D01*
X2094574D01*
X2087243Y-493002D02*
X2090908D01*
X2105570Y-489336D02*
X2103737Y-487504D01*
X2100072D01*
X2098239Y-489336D01*
Y-496667D01*
X2100072Y-498500D01*
X2103737D01*
X2105570Y-496667D01*
X2109236Y-487504D02*
Y-498500D01*
Y-494835D01*
X2116567Y-487504D01*
X2111069Y-493002D01*
X2116567Y-498500D01*
X2127563Y-487504D02*
X2120232D01*
Y-498500D01*
X2127563D01*
X2120232Y-493002D02*
X2123898D01*
X2131229Y-487504D02*
Y-498500D01*
X2136727D01*
X2138560Y-496667D01*
Y-489336D01*
X2136727Y-487504D01*
X2131229D01*
X2142225Y-491169D02*
X2144058D01*
Y-493002D01*
X2142225D01*
Y-491169D01*
Y-496667D02*
X2144058D01*
Y-498500D01*
X2142225D01*
Y-496667D01*
X2063750Y-449754D02*
X2067415D01*
X2065583D01*
Y-460750D01*
X2063750D01*
X2067415D01*
X2072914D02*
Y-449754D01*
X2080245Y-460750D01*
Y-449754D01*
X2083910D02*
X2087576D01*
X2085743D01*
Y-460750D01*
X2083910D01*
X2087576D01*
X2093074Y-449754D02*
X2100405D01*
X2096739D01*
Y-460750D01*
X2104070Y-449754D02*
X2107736D01*
X2105903D01*
Y-460750D01*
X2104070D01*
X2107736D01*
X2113234D02*
Y-453419D01*
X2116899Y-449754D01*
X2120565Y-453419D01*
Y-460750D01*
Y-455252D01*
X2113234D01*
X2124230Y-449754D02*
Y-460750D01*
X2131561D01*
X2135227Y-453419D02*
X2137060D01*
Y-455252D01*
X2135227D01*
Y-453419D01*
Y-458917D02*
X2137060D01*
Y-460750D01*
X2135227D01*
Y-458917D01*
X2123831Y-415504D02*
X2116500D01*
Y-421002D01*
X2120166D01*
X2116500D01*
Y-426500D01*
X2132995Y-415504D02*
X2129329D01*
X2127496Y-417336D01*
Y-424667D01*
X2129329Y-426500D01*
X2132995D01*
X2134827Y-424667D01*
Y-417336D01*
X2132995Y-415504D01*
X2143991D02*
X2140326D01*
X2138493Y-417336D01*
Y-424667D01*
X2140326Y-426500D01*
X2143991D01*
X2145824Y-424667D01*
Y-417336D01*
X2143991Y-415504D01*
X2149489D02*
X2156820D01*
X2153155D01*
Y-426500D01*
X2160486D02*
Y-415504D01*
X2165984D01*
X2167817Y-417336D01*
Y-421002D01*
X2165984Y-422835D01*
X2160486D01*
X2171482Y-426500D02*
Y-415504D01*
X2176980D01*
X2178813Y-417336D01*
Y-421002D01*
X2176980Y-422835D01*
X2171482D01*
X2175148D02*
X2178813Y-426500D01*
X2182479Y-415504D02*
X2186144D01*
X2184311D01*
Y-426500D01*
X2182479D01*
X2186144D01*
X2191642D02*
Y-415504D01*
X2198973Y-426500D01*
Y-415504D01*
X2202639D02*
X2209970D01*
X2206304D01*
Y-426500D01*
X2231963Y-417336D02*
X2230130Y-415504D01*
X2226465D01*
X2224632Y-417336D01*
Y-419169D01*
X2226465Y-421002D01*
X2230130D01*
X2231963Y-422835D01*
Y-424667D01*
X2230130Y-426500D01*
X2226465D01*
X2224632Y-424667D01*
X2235628Y-415504D02*
X2242959D01*
X2239294D01*
Y-426500D01*
X2246625D02*
Y-419169D01*
X2250290Y-415504D01*
X2253956Y-419169D01*
Y-426500D01*
Y-421002D01*
X2246625D01*
X2257621Y-415504D02*
X2264952D01*
X2261286D01*
Y-426500D01*
X2268618Y-415504D02*
Y-424667D01*
X2270450Y-426500D01*
X2274116D01*
X2275948Y-424667D01*
Y-415504D01*
X2286945Y-417336D02*
X2285112Y-415504D01*
X2281447D01*
X2279614Y-417336D01*
Y-419169D01*
X2281447Y-421002D01*
X2285112D01*
X2286945Y-422835D01*
Y-424667D01*
X2285112Y-426500D01*
X2281447D01*
X2279614Y-424667D01*
X68157Y-371804D02*
X65617Y-369265D01*
X60539D01*
X58000Y-371804D01*
Y-374343D01*
X60539Y-376883D01*
X65617D01*
X68157Y-379422D01*
Y-381961D01*
X65617Y-384500D01*
X60539D01*
X58000Y-381961D01*
X73235Y-369265D02*
X83392D01*
X78313D01*
Y-384500D01*
X88470D02*
Y-374343D01*
X93548Y-369265D01*
X98627Y-374343D01*
Y-384500D01*
Y-376883D01*
X88470D01*
X113862Y-371804D02*
X111323Y-369265D01*
X106244D01*
X103705Y-371804D01*
Y-381961D01*
X106244Y-384500D01*
X111323D01*
X113862Y-381961D01*
X118940Y-369265D02*
Y-384500D01*
Y-379422D01*
X129097Y-369265D01*
X121480Y-376883D01*
X129097Y-384500D01*
X134175Y-369265D02*
Y-381961D01*
X136714Y-384500D01*
X141793D01*
X144332Y-381961D01*
Y-369265D01*
X149410Y-384500D02*
Y-369265D01*
X157028D01*
X159567Y-371804D01*
Y-376883D01*
X157028Y-379422D01*
X149410D01*
X164646Y-374343D02*
X167185D01*
Y-376883D01*
X164646D01*
Y-374343D01*
Y-381961D02*
X167185D01*
Y-384500D01*
X164646D01*
Y-381961D01*
X393000Y-424500D02*
Y-414343D01*
X398078Y-409265D01*
X403157Y-414343D01*
Y-424500D01*
Y-416883D01*
X393000D01*
X408235Y-409265D02*
Y-424500D01*
X415853D01*
X418392Y-421961D01*
Y-411804D01*
X415853Y-409265D01*
X408235D01*
X423470D02*
Y-424500D01*
X431088D01*
X433627Y-421961D01*
Y-411804D01*
X431088Y-409265D01*
X423470D01*
X438705D02*
X443784D01*
X441244D01*
Y-424500D01*
X438705D01*
X443784D01*
X451401Y-409265D02*
X461558D01*
X456479D01*
Y-424500D01*
X466636Y-409265D02*
X471715D01*
X469175D01*
Y-424500D01*
X466636D01*
X471715D01*
X486950Y-409265D02*
X481871D01*
X479332Y-411804D01*
Y-421961D01*
X481871Y-424500D01*
X486950D01*
X489489Y-421961D01*
Y-411804D01*
X486950Y-409265D01*
X494567Y-424500D02*
Y-409265D01*
X504724Y-424500D01*
Y-409265D01*
X509802Y-424500D02*
Y-414343D01*
X514881Y-409265D01*
X519959Y-414343D01*
Y-424500D01*
Y-416883D01*
X509802D01*
X525037Y-409265D02*
Y-424500D01*
X535194D01*
X555507Y-409265D02*
Y-424500D01*
X565664D01*
X570742D02*
Y-414343D01*
X575821Y-409265D01*
X580899Y-414343D01*
Y-424500D01*
Y-416883D01*
X570742D01*
X585978Y-409265D02*
Y-411804D01*
X591056Y-416883D01*
X596134Y-411804D01*
Y-409265D01*
X591056Y-416883D02*
Y-424500D01*
X611369Y-409265D02*
X601213D01*
Y-424500D01*
X611369D01*
X601213Y-416883D02*
X606291D01*
X616448Y-424500D02*
Y-409265D01*
X624065D01*
X626604Y-411804D01*
Y-416883D01*
X624065Y-419422D01*
X616448D01*
X621526D02*
X626604Y-424500D01*
X641840Y-411804D02*
X639300Y-409265D01*
X634222D01*
X631683Y-411804D01*
Y-414343D01*
X634222Y-416883D01*
X639300D01*
X641840Y-419422D01*
Y-421961D01*
X639300Y-424500D01*
X634222D01*
X631683Y-421961D01*
X646918Y-414343D02*
X649457D01*
Y-416883D01*
X646918D01*
Y-414343D01*
Y-421961D02*
X649457D01*
Y-424500D01*
X646918D01*
Y-421961D01*
X408000Y-459500D02*
Y-444265D01*
X413078Y-449343D01*
X418157Y-444265D01*
Y-459500D01*
X430853D02*
X425774D01*
X423235Y-456961D01*
Y-451883D01*
X425774Y-449343D01*
X430853D01*
X433392Y-451883D01*
Y-454422D01*
X423235D01*
X448627Y-449343D02*
X441009D01*
X438470Y-451883D01*
Y-456961D01*
X441009Y-459500D01*
X448627D01*
X453705Y-444265D02*
Y-459500D01*
Y-451883D01*
X456244Y-449343D01*
X461323D01*
X463862Y-451883D01*
Y-459500D01*
X471479Y-449343D02*
X476558D01*
X479097Y-451883D01*
Y-459500D01*
X471479D01*
X468940Y-456961D01*
X471479Y-454422D01*
X479097D01*
X484175Y-459500D02*
Y-449343D01*
X491793D01*
X494332Y-451883D01*
Y-459500D01*
X499410D02*
X504489D01*
X501950D01*
Y-449343D01*
X499410D01*
X522263D02*
X514646D01*
X512106Y-451883D01*
Y-456961D01*
X514646Y-459500D01*
X522263D01*
X529881Y-449343D02*
X534959D01*
X537498Y-451883D01*
Y-459500D01*
X529881D01*
X527341Y-456961D01*
X529881Y-454422D01*
X537498D01*
X542576Y-459500D02*
X547655D01*
X545116D01*
Y-444265D01*
X542576D01*
X570507Y-459500D02*
X575586D01*
X573047D01*
Y-444265D01*
X570507Y-446804D01*
X583203Y-449343D02*
X585742D01*
Y-451883D01*
X583203D01*
Y-449343D01*
Y-456961D02*
X585742D01*
Y-459500D01*
X583203D01*
Y-456961D01*
X611134Y-444265D02*
Y-459500D01*
X618752D01*
X621291Y-456961D01*
Y-454422D01*
X618752Y-451883D01*
X611134D01*
X618752D01*
X621291Y-449343D01*
Y-446804D01*
X618752Y-444265D01*
X611134D01*
X628909Y-459500D02*
X633987D01*
X636526Y-456961D01*
Y-451883D01*
X633987Y-449343D01*
X628909D01*
X626369Y-451883D01*
Y-456961D01*
X628909Y-459500D01*
X644144Y-449343D02*
X649222D01*
X651761Y-451883D01*
Y-459500D01*
X644144D01*
X641604Y-456961D01*
X644144Y-454422D01*
X651761D01*
X656840Y-449343D02*
Y-459500D01*
Y-454422D01*
X659379Y-451883D01*
X661918Y-449343D01*
X664457D01*
X682231Y-444265D02*
Y-459500D01*
X674614D01*
X672075Y-456961D01*
Y-451883D01*
X674614Y-449343D01*
X682231D01*
X712701D02*
X705084D01*
X702545Y-451883D01*
Y-456961D01*
X705084Y-459500D01*
X712701D01*
X717780Y-449343D02*
Y-456961D01*
X720319Y-459500D01*
X727936D01*
Y-449343D01*
X735554Y-446804D02*
Y-449343D01*
X733015D01*
X738093D01*
X735554D01*
Y-456961D01*
X738093Y-459500D01*
X748250D02*
X753328D01*
X755867Y-456961D01*
Y-451883D01*
X753328Y-449343D01*
X748250D01*
X745711Y-451883D01*
Y-456961D01*
X748250Y-459500D01*
X760946Y-449343D02*
Y-456961D01*
X763485Y-459500D01*
X771103D01*
Y-449343D01*
X778720Y-446804D02*
Y-449343D01*
X776181D01*
X781259D01*
X778720D01*
Y-456961D01*
X781259Y-459500D01*
X408000Y-489500D02*
Y-479343D01*
X413078Y-474265D01*
X418157Y-479343D01*
Y-489500D01*
Y-481883D01*
X408000D01*
X433392Y-476804D02*
X430853Y-474265D01*
X425774D01*
X423235Y-476804D01*
Y-479343D01*
X425774Y-481883D01*
X430853D01*
X433392Y-484422D01*
Y-486961D01*
X430853Y-489500D01*
X425774D01*
X423235Y-486961D01*
X438470Y-489500D02*
Y-474265D01*
X443549Y-479343D01*
X448627Y-474265D01*
Y-489500D01*
X468940Y-474265D02*
X479097D01*
X474019D01*
Y-489500D01*
X491793Y-474265D02*
X486715D01*
X484175Y-476804D01*
Y-486961D01*
X486715Y-489500D01*
X491793D01*
X494332Y-486961D01*
Y-476804D01*
X491793Y-474265D01*
X499410Y-489500D02*
Y-474265D01*
X507028D01*
X509567Y-476804D01*
Y-481883D01*
X507028Y-484422D01*
X499410D01*
X514646Y-479343D02*
X517185D01*
Y-481883D01*
X514646D01*
Y-479343D01*
Y-486961D02*
X517185D01*
Y-489500D01*
X514646D01*
Y-486961D01*
X542576Y-489500D02*
Y-479343D01*
X547655Y-474265D01*
X552733Y-479343D01*
Y-489500D01*
Y-481883D01*
X542576D01*
X557812Y-489500D02*
X565429D01*
X567968Y-486961D01*
X565429Y-484422D01*
X560351D01*
X557812Y-481883D01*
X560351Y-479343D01*
X567968D01*
X573047Y-489500D02*
X580664D01*
X583203Y-486961D01*
X580664Y-484422D01*
X575586D01*
X573047Y-481883D01*
X575586Y-479343D01*
X583203D01*
X595899Y-489500D02*
X590821D01*
X588282Y-486961D01*
Y-481883D01*
X590821Y-479343D01*
X595899D01*
X598438Y-481883D01*
Y-484422D01*
X588282D01*
X603517Y-489500D02*
Y-479343D01*
X606056D01*
X608595Y-481883D01*
Y-489500D01*
Y-481883D01*
X611134Y-479343D01*
X613674Y-481883D01*
Y-489500D01*
X618752Y-474265D02*
Y-489500D01*
X626369D01*
X628909Y-486961D01*
Y-484422D01*
Y-481883D01*
X626369Y-479343D01*
X618752D01*
X633987Y-489500D02*
X639065D01*
X636526D01*
Y-474265D01*
X633987D01*
X646683Y-479343D02*
Y-486961D01*
X649222Y-489500D01*
X656840D01*
Y-492039D01*
X654300Y-494578D01*
X651761D01*
X656840Y-489500D02*
Y-479343D01*
X679692Y-476804D02*
Y-479343D01*
X677153D01*
X682231D01*
X679692D01*
Y-486961D01*
X682231Y-489500D01*
X692388D02*
X697466D01*
X700005Y-486961D01*
Y-481883D01*
X697466Y-479343D01*
X692388D01*
X689849Y-481883D01*
Y-486961D01*
X692388Y-489500D01*
X705084Y-494578D02*
Y-479343D01*
X712701D01*
X715241Y-481883D01*
Y-486961D01*
X712701Y-489500D01*
X705084D01*
X408000Y-519500D02*
Y-509343D01*
X413078Y-504265D01*
X418157Y-509343D01*
Y-519500D01*
Y-511883D01*
X408000D01*
X433392Y-506804D02*
X430853Y-504265D01*
X425774D01*
X423235Y-506804D01*
Y-509343D01*
X425774Y-511883D01*
X430853D01*
X433392Y-514422D01*
Y-516961D01*
X430853Y-519500D01*
X425774D01*
X423235Y-516961D01*
X438470Y-519500D02*
Y-504265D01*
X443549Y-509343D01*
X448627Y-504265D01*
Y-519500D01*
X468940Y-504265D02*
Y-519500D01*
X476558D01*
X479097Y-516961D01*
Y-514422D01*
X476558Y-511883D01*
X468940D01*
X476558D01*
X479097Y-509343D01*
Y-506804D01*
X476558Y-504265D01*
X468940D01*
X491793D02*
X486715D01*
X484175Y-506804D01*
Y-516961D01*
X486715Y-519500D01*
X491793D01*
X494332Y-516961D01*
Y-506804D01*
X491793Y-504265D01*
X499410D02*
X509567D01*
X504489D01*
Y-519500D01*
X514646Y-509343D02*
X517185D01*
Y-511883D01*
X514646D01*
Y-509343D01*
Y-516961D02*
X517185D01*
Y-519500D01*
X514646D01*
Y-516961D01*
X542576Y-519500D02*
Y-509343D01*
X547655Y-504265D01*
X552733Y-509343D01*
Y-519500D01*
Y-511883D01*
X542576D01*
X557812Y-519500D02*
X565429D01*
X567968Y-516961D01*
X565429Y-514422D01*
X560351D01*
X557812Y-511883D01*
X560351Y-509343D01*
X567968D01*
X573047Y-519500D02*
X580664D01*
X583203Y-516961D01*
X580664Y-514422D01*
X575586D01*
X573047Y-511883D01*
X575586Y-509343D01*
X583203D01*
X595899Y-519500D02*
X590821D01*
X588282Y-516961D01*
Y-511883D01*
X590821Y-509343D01*
X595899D01*
X598438Y-511883D01*
Y-514422D01*
X588282D01*
X603517Y-519500D02*
Y-509343D01*
X606056D01*
X608595Y-511883D01*
Y-519500D01*
Y-511883D01*
X611134Y-509343D01*
X613674Y-511883D01*
Y-519500D01*
X618752Y-504265D02*
Y-519500D01*
X626369D01*
X628909Y-516961D01*
Y-514422D01*
Y-511883D01*
X626369Y-509343D01*
X618752D01*
X633987Y-519500D02*
X639065D01*
X636526D01*
Y-504265D01*
X633987D01*
X646683Y-509343D02*
Y-516961D01*
X649222Y-519500D01*
X656840D01*
Y-522039D01*
X654300Y-524578D01*
X651761D01*
X656840Y-519500D02*
Y-509343D01*
X677153Y-504265D02*
Y-519500D01*
X684771D01*
X687310Y-516961D01*
Y-514422D01*
Y-511883D01*
X684771Y-509343D01*
X677153D01*
X694927Y-519500D02*
X700005D01*
X702545Y-516961D01*
Y-511883D01*
X700005Y-509343D01*
X694927D01*
X692388Y-511883D01*
Y-516961D01*
X694927Y-519500D01*
X710162Y-506804D02*
Y-509343D01*
X707623D01*
X712701D01*
X710162D01*
Y-516961D01*
X712701Y-519500D01*
X722858Y-506804D02*
Y-509343D01*
X720319D01*
X725397D01*
X722858D01*
Y-516961D01*
X725397Y-519500D01*
X735554D02*
X740632D01*
X743172Y-516961D01*
Y-511883D01*
X740632Y-509343D01*
X735554D01*
X733015Y-511883D01*
Y-516961D01*
X735554Y-519500D01*
X748250D02*
Y-509343D01*
X750789D01*
X753328Y-511883D01*
Y-519500D01*
Y-511883D01*
X755867Y-509343D01*
X758407Y-511883D01*
Y-519500D01*
X408000Y-549500D02*
Y-534265D01*
X413078Y-539343D01*
X418157Y-534265D01*
Y-549500D01*
X430853D02*
X425774D01*
X423235Y-546961D01*
Y-541883D01*
X425774Y-539343D01*
X430853D01*
X433392Y-541883D01*
Y-544422D01*
X423235D01*
X448627Y-539343D02*
X441009D01*
X438470Y-541883D01*
Y-546961D01*
X441009Y-549500D01*
X448627D01*
X453705Y-534265D02*
Y-549500D01*
Y-541883D01*
X456244Y-539343D01*
X461323D01*
X463862Y-541883D01*
Y-549500D01*
X471479Y-539343D02*
X476558D01*
X479097Y-541883D01*
Y-549500D01*
X471479D01*
X468940Y-546961D01*
X471479Y-544422D01*
X479097D01*
X484175Y-549500D02*
Y-539343D01*
X491793D01*
X494332Y-541883D01*
Y-549500D01*
X499410D02*
X504489D01*
X501950D01*
Y-539343D01*
X499410D01*
X522263D02*
X514646D01*
X512106Y-541883D01*
Y-546961D01*
X514646Y-549500D01*
X522263D01*
X529881Y-539343D02*
X534959D01*
X537498Y-541883D01*
Y-549500D01*
X529881D01*
X527341Y-546961D01*
X529881Y-544422D01*
X537498D01*
X542576Y-549500D02*
X547655D01*
X545116D01*
Y-534265D01*
X542576D01*
X570507Y-549500D02*
X575586D01*
X573047D01*
Y-534265D01*
X570507Y-536804D01*
X583203D02*
X585742Y-534265D01*
X590821D01*
X593360Y-536804D01*
Y-539343D01*
X590821Y-541883D01*
X588282D01*
X590821D01*
X593360Y-544422D01*
Y-546961D01*
X590821Y-549500D01*
X585742D01*
X583203Y-546961D01*
X598438Y-539343D02*
X600978D01*
Y-541883D01*
X598438D01*
Y-539343D01*
Y-546961D02*
X600978D01*
Y-549500D01*
X598438D01*
Y-546961D01*
X636526Y-536804D02*
X633987Y-534265D01*
X628909D01*
X626369Y-536804D01*
Y-546961D01*
X628909Y-549500D01*
X633987D01*
X636526Y-546961D01*
X644144Y-549500D02*
X649222D01*
X651761Y-546961D01*
Y-541883D01*
X649222Y-539343D01*
X644144D01*
X641604Y-541883D01*
Y-546961D01*
X644144Y-549500D01*
X656840D02*
Y-539343D01*
X659379D01*
X661918Y-541883D01*
Y-549500D01*
Y-541883D01*
X664457Y-539343D01*
X666996Y-541883D01*
Y-549500D01*
X672075Y-554578D02*
Y-539343D01*
X679692D01*
X682231Y-541883D01*
Y-546961D01*
X679692Y-549500D01*
X672075D01*
X689849D02*
X694927D01*
X697466Y-546961D01*
Y-541883D01*
X694927Y-539343D01*
X689849D01*
X687310Y-541883D01*
Y-546961D01*
X689849Y-549500D01*
X702545D02*
Y-539343D01*
X710162D01*
X712701Y-541883D01*
Y-549500D01*
X725397D02*
X720319D01*
X717780Y-546961D01*
Y-541883D01*
X720319Y-539343D01*
X725397D01*
X727936Y-541883D01*
Y-544422D01*
X717780D01*
X733015Y-549500D02*
Y-539343D01*
X740632D01*
X743172Y-541883D01*
Y-549500D01*
X750789Y-536804D02*
Y-539343D01*
X748250D01*
X753328D01*
X750789D01*
Y-546961D01*
X753328Y-549500D01*
X776181Y-536804D02*
X778720Y-534265D01*
X783798D01*
X786338Y-536804D01*
Y-539343D01*
X783798Y-541883D01*
X781259D01*
X783798D01*
X786338Y-544422D01*
Y-546961D01*
X783798Y-549500D01*
X778720D01*
X776181Y-546961D01*
X791416Y-534265D02*
Y-549500D01*
X799034D01*
X801573Y-546961D01*
Y-536804D01*
X799034Y-534265D01*
X791416D01*
X821886D02*
Y-549500D01*
X829504D01*
X832043Y-546961D01*
Y-544422D01*
Y-541883D01*
X829504Y-539343D01*
X821886D01*
X839660Y-549500D02*
X844739D01*
X847278Y-546961D01*
Y-541883D01*
X844739Y-539343D01*
X839660D01*
X837121Y-541883D01*
Y-546961D01*
X839660Y-549500D01*
X862513Y-534265D02*
Y-549500D01*
X854895D01*
X852356Y-546961D01*
Y-541883D01*
X854895Y-539343D01*
X862513D01*
X867591D02*
Y-546961D01*
X870130Y-549500D01*
X877748D01*
Y-552039D01*
X875209Y-554578D01*
X872670D01*
X877748Y-549500D02*
Y-539343D01*
X2201581Y-498000D02*
X2194250D01*
X2201581Y-490669D01*
Y-488836D01*
X2199748Y-487004D01*
X2196083D01*
X2194250Y-488836D01*
X2205246D02*
X2207079Y-487004D01*
X2210745D01*
X2212577Y-488836D01*
Y-496167D01*
X2210745Y-498000D01*
X2207079D01*
X2205246Y-496167D01*
Y-488836D01*
X2216243Y-498000D02*
X2219908D01*
X2218076D01*
Y-487004D01*
X2216243Y-488836D01*
X2232738Y-487004D02*
X2225407D01*
Y-492502D01*
X2229072Y-490669D01*
X2230905D01*
X2232738Y-492502D01*
Y-496167D01*
X2230905Y-498000D01*
X2227239D01*
X2225407Y-496167D01*
X2236403Y-492502D02*
X2243734D01*
X2247399Y-498000D02*
X2251065D01*
X2249232D01*
Y-487004D01*
X2247399Y-488836D01*
X2256563D02*
X2258396Y-487004D01*
X2262061D01*
X2263894Y-488836D01*
Y-496167D01*
X2262061Y-498000D01*
X2258396D01*
X2256563Y-496167D01*
Y-488836D01*
X2267560Y-492502D02*
X2274891D01*
X2285887Y-498000D02*
X2278556D01*
X2285887Y-490669D01*
Y-488836D01*
X2284054Y-487004D01*
X2280389D01*
X2278556Y-488836D01*
X2289552Y-498000D02*
X2293218D01*
X2291385D01*
Y-487004D01*
X2289552Y-488836D01*
X2200831Y-611000D02*
X2193500D01*
X2200831Y-603669D01*
Y-601836D01*
X2198998Y-600004D01*
X2195333D01*
X2193500Y-601836D01*
X2204496D02*
X2206329Y-600004D01*
X2209995D01*
X2211827Y-601836D01*
Y-609167D01*
X2209995Y-611000D01*
X2206329D01*
X2204496Y-609167D01*
Y-601836D01*
X2215493Y-611000D02*
X2219158D01*
X2217326D01*
Y-600004D01*
X2215493Y-601836D01*
X2231988Y-600004D02*
X2228322Y-601836D01*
X2224657Y-605502D01*
Y-609167D01*
X2226489Y-611000D01*
X2230155D01*
X2231988Y-609167D01*
Y-607335D01*
X2230155Y-605502D01*
X2224657D01*
X2235653D02*
X2242984D01*
X2246649Y-601836D02*
X2248482Y-600004D01*
X2252148D01*
X2253981Y-601836D01*
Y-609167D01*
X2252148Y-611000D01*
X2248482D01*
X2246649Y-609167D01*
Y-601836D01*
X2264977Y-611000D02*
X2257646D01*
X2264977Y-603669D01*
Y-601836D01*
X2263144Y-600004D01*
X2259479D01*
X2257646Y-601836D01*
X2268642Y-605502D02*
X2275973D01*
X2286970Y-611000D02*
X2279639D01*
X2286970Y-603669D01*
Y-601836D01*
X2285137Y-600004D01*
X2281472D01*
X2279639Y-601836D01*
X2290635D02*
X2292468Y-600004D01*
X2296134D01*
X2297966Y-601836D01*
Y-609167D01*
X2296134Y-611000D01*
X2292468D01*
X2290635Y-609167D01*
Y-601836D01*
X2200831Y-648250D02*
X2193500D01*
X2200831Y-640919D01*
Y-639086D01*
X2198998Y-637254D01*
X2195333D01*
X2193500Y-639086D01*
X2204496D02*
X2206329Y-637254D01*
X2209995D01*
X2211827Y-639086D01*
Y-646417D01*
X2209995Y-648250D01*
X2206329D01*
X2204496Y-646417D01*
Y-639086D01*
X2215493Y-648250D02*
X2219158D01*
X2217326D01*
Y-637254D01*
X2215493Y-639086D01*
X2231988Y-637254D02*
X2228322Y-639086D01*
X2224657Y-642752D01*
Y-646417D01*
X2226489Y-648250D01*
X2230155D01*
X2231988Y-646417D01*
Y-644585D01*
X2230155Y-642752D01*
X2224657D01*
X2235653D02*
X2242984D01*
X2246649Y-639086D02*
X2248482Y-637254D01*
X2252148D01*
X2253981Y-639086D01*
Y-646417D01*
X2252148Y-648250D01*
X2248482D01*
X2246649Y-646417D01*
Y-639086D01*
X2264977Y-648250D02*
X2257646D01*
X2264977Y-640919D01*
Y-639086D01*
X2263144Y-637254D01*
X2259479D01*
X2257646Y-639086D01*
X2268642Y-642752D02*
X2275973D01*
X2286970Y-648250D02*
X2279639D01*
X2286970Y-640919D01*
Y-639086D01*
X2285137Y-637254D01*
X2281472D01*
X2279639Y-639086D01*
X2297966Y-648250D02*
X2290635D01*
X2297966Y-640919D01*
Y-639086D01*
X2296134Y-637254D01*
X2292468D01*
X2290635Y-639086D01*
X2202081Y-687250D02*
X2194750D01*
X2202081Y-679919D01*
Y-678086D01*
X2200248Y-676254D01*
X2196583D01*
X2194750Y-678086D01*
X2205746D02*
X2207579Y-676254D01*
X2211245D01*
X2213077Y-678086D01*
Y-685417D01*
X2211245Y-687250D01*
X2207579D01*
X2205746Y-685417D01*
Y-678086D01*
X2216743Y-687250D02*
X2220408D01*
X2218576D01*
Y-676254D01*
X2216743Y-678086D01*
X2233238Y-676254D02*
X2229572Y-678086D01*
X2225907Y-681752D01*
Y-685417D01*
X2227739Y-687250D01*
X2231405D01*
X2233238Y-685417D01*
Y-683585D01*
X2231405Y-681752D01*
X2225907D01*
X2236903D02*
X2244234D01*
X2247899Y-678086D02*
X2249732Y-676254D01*
X2253398D01*
X2255231Y-678086D01*
Y-685417D01*
X2253398Y-687250D01*
X2249732D01*
X2247899Y-685417D01*
Y-678086D01*
X2266227Y-687250D02*
X2258896D01*
X2266227Y-679919D01*
Y-678086D01*
X2264394Y-676254D01*
X2260729D01*
X2258896Y-678086D01*
X2269892Y-681752D02*
X2277223D01*
X2288220Y-687250D02*
X2280889D01*
X2288220Y-679919D01*
Y-678086D01*
X2286387Y-676254D01*
X2282722D01*
X2280889Y-678086D01*
X2299216Y-676254D02*
X2291885D01*
Y-681752D01*
X2295551Y-679919D01*
X2297384D01*
X2299216Y-681752D01*
Y-685417D01*
X2297384Y-687250D01*
X2293718D01*
X2291885Y-685417D01*
M02*
