G04 Layer_Color=8388736*
%FSLAX44Y44*%
%MOMM*%
G71*
G01*
G75*
%ADD81C,0.3500*%
%ADD108R,7.0000X7.0000*%
%ADD123C,0.5000*%
%ADD171R,1.8500X2.1500*%
G04:AMPARAMS|DCode=172|XSize=0.8mm|YSize=0.5mm|CornerRadius=0.1mm|HoleSize=0mm|Usage=FLASHONLY|Rotation=270.000|XOffset=0mm|YOffset=0mm|HoleType=Round|Shape=RoundedRectangle|*
%AMROUNDEDRECTD172*
21,1,0.8000,0.3000,0,0,270.0*
21,1,0.6000,0.5000,0,0,270.0*
1,1,0.2000,-0.1500,-0.3000*
1,1,0.2000,-0.1500,0.3000*
1,1,0.2000,0.1500,0.3000*
1,1,0.2000,0.1500,-0.3000*
%
%ADD172ROUNDEDRECTD172*%
%ADD173R,1.6500X1.1000*%
%ADD174R,1.3000X1.7000*%
%ADD175R,1.3000X1.3000*%
%ADD176R,1.3000X2.2500*%
G04:AMPARAMS|DCode=177|XSize=0.7mm|YSize=0.7mm|CornerRadius=0.11mm|HoleSize=0mm|Usage=FLASHONLY|Rotation=0.000|XOffset=0mm|YOffset=0mm|HoleType=Round|Shape=RoundedRectangle|*
%AMROUNDEDRECTD177*
21,1,0.7000,0.4800,0,0,0.0*
21,1,0.4800,0.7000,0,0,0.0*
1,1,0.2200,0.2400,-0.2400*
1,1,0.2200,-0.2400,-0.2400*
1,1,0.2200,-0.2400,0.2400*
1,1,0.2200,0.2400,0.2400*
%
%ADD177ROUNDEDRECTD177*%
G04:AMPARAMS|DCode=178|XSize=1.1mm|YSize=1mm|CornerRadius=0.1625mm|HoleSize=0mm|Usage=FLASHONLY|Rotation=0.000|XOffset=0mm|YOffset=0mm|HoleType=Round|Shape=RoundedRectangle|*
%AMROUNDEDRECTD178*
21,1,1.1000,0.6750,0,0,0.0*
21,1,0.7750,1.0000,0,0,0.0*
1,1,0.3250,0.3875,-0.3375*
1,1,0.3250,-0.3875,-0.3375*
1,1,0.3250,-0.3875,0.3375*
1,1,0.3250,0.3875,0.3375*
%
%ADD178ROUNDEDRECTD178*%
G04:AMPARAMS|DCode=179|XSize=1.1mm|YSize=1mm|CornerRadius=0.1625mm|HoleSize=0mm|Usage=FLASHONLY|Rotation=270.000|XOffset=0mm|YOffset=0mm|HoleType=Round|Shape=RoundedRectangle|*
%AMROUNDEDRECTD179*
21,1,1.1000,0.6750,0,0,270.0*
21,1,0.7750,1.0000,0,0,270.0*
1,1,0.3250,-0.3375,-0.3875*
1,1,0.3250,-0.3375,0.3875*
1,1,0.3250,0.3375,0.3875*
1,1,0.3250,0.3375,-0.3875*
%
%ADD179ROUNDEDRECTD179*%
%ADD180R,0.5000X0.9500*%
G04:AMPARAMS|DCode=181|XSize=0.7mm|YSize=0.7mm|CornerRadius=0.11mm|HoleSize=0mm|Usage=FLASHONLY|Rotation=90.000|XOffset=0mm|YOffset=0mm|HoleType=Round|Shape=RoundedRectangle|*
%AMROUNDEDRECTD181*
21,1,0.7000,0.4800,0,0,90.0*
21,1,0.4800,0.7000,0,0,90.0*
1,1,0.2200,0.2400,0.2400*
1,1,0.2200,0.2400,-0.2400*
1,1,0.2200,-0.2400,-0.2400*
1,1,0.2200,-0.2400,0.2400*
%
%ADD181ROUNDEDRECTD181*%
%ADD182R,2.3000X0.6500*%
%ADD183R,1.6000X0.4500*%
%ADD184R,0.6500X2.3000*%
%ADD185R,1.4000X2.7000*%
G04:AMPARAMS|DCode=186|XSize=0.6mm|YSize=0.7mm|CornerRadius=0.1mm|HoleSize=0mm|Usage=FLASHONLY|Rotation=270.000|XOffset=0mm|YOffset=0mm|HoleType=Round|Shape=RoundedRectangle|*
%AMROUNDEDRECTD186*
21,1,0.6000,0.5000,0,0,270.0*
21,1,0.4000,0.7000,0,0,270.0*
1,1,0.2000,-0.2500,-0.2000*
1,1,0.2000,-0.2500,0.2000*
1,1,0.2000,0.2500,0.2000*
1,1,0.2000,0.2500,-0.2000*
%
%ADD186ROUNDEDRECTD186*%
G04:AMPARAMS|DCode=187|XSize=0.6mm|YSize=0.7mm|CornerRadius=0.1mm|HoleSize=0mm|Usage=FLASHONLY|Rotation=0.000|XOffset=0mm|YOffset=0mm|HoleType=Round|Shape=RoundedRectangle|*
%AMROUNDEDRECTD187*
21,1,0.6000,0.5000,0,0,0.0*
21,1,0.4000,0.7000,0,0,0.0*
1,1,0.2000,0.2000,-0.2500*
1,1,0.2000,-0.2000,-0.2500*
1,1,0.2000,-0.2000,0.2500*
1,1,0.2000,0.2000,0.2500*
%
%ADD187ROUNDEDRECTD187*%
%ADD188R,2.5000X0.8500*%
%ADD189R,0.8500X2.5000*%
G04:AMPARAMS|DCode=190|XSize=2.6mm|YSize=2.1mm|CornerRadius=0.3mm|HoleSize=0mm|Usage=FLASHONLY|Rotation=90.000|XOffset=0mm|YOffset=0mm|HoleType=Round|Shape=RoundedRectangle|*
%AMROUNDEDRECTD190*
21,1,2.6000,1.5000,0,0,90.0*
21,1,2.0000,2.1000,0,0,90.0*
1,1,0.6000,0.7500,1.0000*
1,1,0.6000,0.7500,-1.0000*
1,1,0.6000,-0.7500,-1.0000*
1,1,0.6000,-0.7500,1.0000*
%
%ADD190ROUNDEDRECTD190*%
%ADD191R,0.4500X0.4000*%
%ADD192R,0.4000X0.4500*%
%ADD193R,0.3500X0.7250*%
%ADD194R,1.7000X1.7000*%
G04:AMPARAMS|DCode=195|XSize=2.6mm|YSize=1.2mm|CornerRadius=0.1875mm|HoleSize=0mm|Usage=FLASHONLY|Rotation=270.000|XOffset=0mm|YOffset=0mm|HoleType=Round|Shape=RoundedRectangle|*
%AMROUNDEDRECTD195*
21,1,2.6000,0.8250,0,0,270.0*
21,1,2.2250,1.2000,0,0,270.0*
1,1,0.3750,-0.4125,-1.1125*
1,1,0.3750,-0.4125,1.1125*
1,1,0.3750,0.4125,1.1125*
1,1,0.3750,0.4125,-1.1125*
%
%ADD195ROUNDEDRECTD195*%
G04:AMPARAMS|DCode=196|XSize=10.1mm|YSize=10.6mm|CornerRadius=1.3mm|HoleSize=0mm|Usage=FLASHONLY|Rotation=270.000|XOffset=0mm|YOffset=0mm|HoleType=Round|Shape=RoundedRectangle|*
%AMROUNDEDRECTD196*
21,1,10.1000,8.0000,0,0,270.0*
21,1,7.5000,10.6000,0,0,270.0*
1,1,2.6000,-4.0000,-3.7500*
1,1,2.6000,-4.0000,3.7500*
1,1,2.6000,4.0000,3.7500*
1,1,2.6000,4.0000,-3.7500*
%
%ADD196ROUNDEDRECTD196*%
G04:AMPARAMS|DCode=197|XSize=1.4mm|YSize=0.9mm|CornerRadius=0.15mm|HoleSize=0mm|Usage=FLASHONLY|Rotation=180.000|XOffset=0mm|YOffset=0mm|HoleType=Round|Shape=RoundedRectangle|*
%AMROUNDEDRECTD197*
21,1,1.4000,0.6000,0,0,180.0*
21,1,1.1000,0.9000,0,0,180.0*
1,1,0.3000,-0.5500,0.3000*
1,1,0.3000,0.5500,0.3000*
1,1,0.3000,0.5500,-0.3000*
1,1,0.3000,-0.5500,-0.3000*
%
%ADD197ROUNDEDRECTD197*%
%ADD198R,5.1000X4.1000*%
%ADD199R,2.6500X1.0000*%
%ADD200R,2.6500X1.5000*%
%ADD201R,0.3500X1.1000*%
%ADD202R,1.1000X0.3500*%
G04:AMPARAMS|DCode=203|XSize=1.9mm|YSize=1.25mm|CornerRadius=0.1938mm|HoleSize=0mm|Usage=FLASHONLY|Rotation=0.000|XOffset=0mm|YOffset=0mm|HoleType=Round|Shape=RoundedRectangle|*
%AMROUNDEDRECTD203*
21,1,1.9000,0.8625,0,0,0.0*
21,1,1.5125,1.2500,0,0,0.0*
1,1,0.3875,0.7562,-0.4313*
1,1,0.3875,-0.7562,-0.4313*
1,1,0.3875,-0.7562,0.4313*
1,1,0.3875,0.7562,0.4313*
%
%ADD203ROUNDEDRECTD203*%
G04:AMPARAMS|DCode=204|XSize=1.9mm|YSize=1.25mm|CornerRadius=0.1938mm|HoleSize=0mm|Usage=FLASHONLY|Rotation=90.000|XOffset=0mm|YOffset=0mm|HoleType=Round|Shape=RoundedRectangle|*
%AMROUNDEDRECTD204*
21,1,1.9000,0.8625,0,0,90.0*
21,1,1.5125,1.2500,0,0,90.0*
1,1,0.3875,0.4313,0.7562*
1,1,0.3875,0.4313,-0.7562*
1,1,0.3875,-0.4313,-0.7562*
1,1,0.3875,-0.4313,0.7562*
%
%ADD204ROUNDEDRECTD204*%
G04:AMPARAMS|DCode=205|XSize=1.4mm|YSize=0.9mm|CornerRadius=0.15mm|HoleSize=0mm|Usage=FLASHONLY|Rotation=90.000|XOffset=0mm|YOffset=0mm|HoleType=Round|Shape=RoundedRectangle|*
%AMROUNDEDRECTD205*
21,1,1.4000,0.6000,0,0,90.0*
21,1,1.1000,0.9000,0,0,90.0*
1,1,0.3000,0.3000,0.5500*
1,1,0.3000,0.3000,-0.5500*
1,1,0.3000,-0.3000,-0.5500*
1,1,0.3000,-0.3000,0.5500*
%
%ADD205ROUNDEDRECTD205*%
G04:AMPARAMS|DCode=206|XSize=1.4mm|YSize=0.9mm|CornerRadius=0.15mm|HoleSize=0mm|Usage=FLASHONLY|Rotation=45.000|XOffset=0mm|YOffset=0mm|HoleType=Round|Shape=RoundedRectangle|*
%AMROUNDEDRECTD206*
21,1,1.4000,0.6000,0,0,45.0*
21,1,1.1000,0.9000,0,0,45.0*
1,1,0.3000,0.6010,0.1768*
1,1,0.3000,-0.1768,-0.6010*
1,1,0.3000,-0.6010,-0.1768*
1,1,0.3000,0.1768,0.6010*
%
%ADD206ROUNDEDRECTD206*%
G04:AMPARAMS|DCode=207|XSize=1.4mm|YSize=0.9mm|CornerRadius=0.15mm|HoleSize=0mm|Usage=FLASHONLY|Rotation=315.000|XOffset=0mm|YOffset=0mm|HoleType=Round|Shape=RoundedRectangle|*
%AMROUNDEDRECTD207*
21,1,1.4000,0.6000,0,0,315.0*
21,1,1.1000,0.9000,0,0,315.0*
1,1,0.3000,0.1768,-0.6010*
1,1,0.3000,-0.6010,0.1768*
1,1,0.3000,-0.1768,0.6010*
1,1,0.3000,0.6010,-0.1768*
%
%ADD207ROUNDEDRECTD207*%
G04:AMPARAMS|DCode=208|XSize=0.6mm|YSize=0.7mm|CornerRadius=0.1mm|HoleSize=0mm|Usage=FLASHONLY|Rotation=67.500|XOffset=0mm|YOffset=0mm|HoleType=Round|Shape=RoundedRectangle|*
%AMROUNDEDRECTD208*
21,1,0.6000,0.5000,0,0,67.5*
21,1,0.4000,0.7000,0,0,67.5*
1,1,0.2000,0.3075,0.0891*
1,1,0.2000,0.1544,-0.2804*
1,1,0.2000,-0.3075,-0.0891*
1,1,0.2000,-0.1544,0.2804*
%
%ADD208ROUNDEDRECTD208*%
%ADD209R,1.0500X0.5000*%
%ADD210R,0.5000X1.0500*%
%ADD211R,1.0500X0.4500*%
%ADD212R,0.4500X1.0500*%
%ADD213R,1.0000X2.6500*%
%ADD214R,1.5000X2.6500*%
%ADD215R,4.1000X5.1000*%
%ADD216R,0.7000X0.5500*%
%ADD217R,0.7000X0.4000*%
%ADD218R,0.9000X1.8000*%
G04:AMPARAMS|DCode=219|XSize=0.6mm|YSize=0.7mm|CornerRadius=0.1mm|HoleSize=0mm|Usage=FLASHONLY|Rotation=135.000|XOffset=0mm|YOffset=0mm|HoleType=Round|Shape=RoundedRectangle|*
%AMROUNDEDRECTD219*
21,1,0.6000,0.5000,0,0,135.0*
21,1,0.4000,0.7000,0,0,135.0*
1,1,0.2000,0.0354,0.3182*
1,1,0.2000,0.3182,0.0354*
1,1,0.2000,-0.0354,-0.3182*
1,1,0.2000,-0.3182,-0.0354*
%
%ADD219ROUNDEDRECTD219*%
G04:AMPARAMS|DCode=220|XSize=0.6mm|YSize=0.7mm|CornerRadius=0.1mm|HoleSize=0mm|Usage=FLASHONLY|Rotation=337.500|XOffset=0mm|YOffset=0mm|HoleType=Round|Shape=RoundedRectangle|*
%AMROUNDEDRECTD220*
21,1,0.6000,0.5000,0,0,337.5*
21,1,0.4000,0.7000,0,0,337.5*
1,1,0.2000,0.0891,-0.3075*
1,1,0.2000,-0.2804,-0.1544*
1,1,0.2000,-0.0891,0.3075*
1,1,0.2000,0.2804,0.1544*
%
%ADD220ROUNDEDRECTD220*%
G04:AMPARAMS|DCode=221|XSize=0.86mm|YSize=1.75mm|CornerRadius=0mm|HoleSize=0mm|Usage=FLASHONLY|Rotation=315.000|XOffset=0mm|YOffset=0mm|HoleType=Round|Shape=Rectangle|*
%AMROTATEDRECTD221*
4,1,4,-0.9228,-0.3147,0.3147,0.9228,0.9228,0.3147,-0.3147,-0.9228,-0.9228,-0.3147,0.0*
%
%ADD221ROTATEDRECTD221*%

G04:AMPARAMS|DCode=222|XSize=0.7mm|YSize=0.7mm|CornerRadius=0.11mm|HoleSize=0mm|Usage=FLASHONLY|Rotation=225.000|XOffset=0mm|YOffset=0mm|HoleType=Round|Shape=RoundedRectangle|*
%AMROUNDEDRECTD222*
21,1,0.7000,0.4800,0,0,225.0*
21,1,0.4800,0.7000,0,0,225.0*
1,1,0.2200,-0.3394,0.0000*
1,1,0.2200,0.0000,0.3394*
1,1,0.2200,0.3394,0.0000*
1,1,0.2200,0.0000,-0.3394*
%
%ADD222ROUNDEDRECTD222*%
G04:AMPARAMS|DCode=223|XSize=0.6mm|YSize=0.7mm|CornerRadius=0.1mm|HoleSize=0mm|Usage=FLASHONLY|Rotation=225.000|XOffset=0mm|YOffset=0mm|HoleType=Round|Shape=RoundedRectangle|*
%AMROUNDEDRECTD223*
21,1,0.6000,0.5000,0,0,225.0*
21,1,0.4000,0.7000,0,0,225.0*
1,1,0.2000,-0.3182,0.0354*
1,1,0.2000,-0.0354,0.3182*
1,1,0.2000,0.3182,-0.0354*
1,1,0.2000,0.0354,-0.3182*
%
%ADD223ROUNDEDRECTD223*%
G04:AMPARAMS|DCode=224|XSize=0.6mm|YSize=0.7mm|CornerRadius=0.1mm|HoleSize=0mm|Usage=FLASHONLY|Rotation=25.000|XOffset=0mm|YOffset=0mm|HoleType=Round|Shape=RoundedRectangle|*
%AMROUNDEDRECTD224*
21,1,0.6000,0.5000,0,0,25.0*
21,1,0.4000,0.7000,0,0,25.0*
1,1,0.2000,0.2869,-0.1421*
1,1,0.2000,-0.0756,-0.3111*
1,1,0.2000,-0.2869,0.1421*
1,1,0.2000,0.0756,0.3111*
%
%ADD224ROUNDEDRECTD224*%
G04:AMPARAMS|DCode=225|XSize=0.6mm|YSize=0.7mm|CornerRadius=0.1mm|HoleSize=0mm|Usage=FLASHONLY|Rotation=115.000|XOffset=0mm|YOffset=0mm|HoleType=Round|Shape=RoundedRectangle|*
%AMROUNDEDRECTD225*
21,1,0.6000,0.5000,0,0,115.0*
21,1,0.4000,0.7000,0,0,115.0*
1,1,0.2000,0.1421,0.2869*
1,1,0.2000,0.3111,-0.0756*
1,1,0.2000,-0.1421,-0.2869*
1,1,0.2000,-0.3111,0.0756*
%
%ADD225ROUNDEDRECTD225*%
G04:AMPARAMS|DCode=226|XSize=0.7mm|YSize=0.7mm|CornerRadius=0.11mm|HoleSize=0mm|Usage=FLASHONLY|Rotation=315.000|XOffset=0mm|YOffset=0mm|HoleType=Round|Shape=RoundedRectangle|*
%AMROUNDEDRECTD226*
21,1,0.7000,0.4800,0,0,315.0*
21,1,0.4800,0.7000,0,0,315.0*
1,1,0.2200,0.0000,-0.3394*
1,1,0.2200,-0.3394,0.0000*
1,1,0.2200,0.0000,0.3394*
1,1,0.2200,0.3394,0.0000*
%
%ADD226ROUNDEDRECTD226*%
G04:AMPARAMS|DCode=227|XSize=0.7mm|YSize=0.7mm|CornerRadius=0.11mm|HoleSize=0mm|Usage=FLASHONLY|Rotation=115.000|XOffset=0mm|YOffset=0mm|HoleType=Round|Shape=RoundedRectangle|*
%AMROUNDEDRECTD227*
21,1,0.7000,0.4800,0,0,115.0*
21,1,0.4800,0.7000,0,0,115.0*
1,1,0.2200,0.1161,0.3189*
1,1,0.2200,0.3189,-0.1161*
1,1,0.2200,-0.1161,-0.3189*
1,1,0.2200,-0.3189,0.1161*
%
%ADD227ROUNDEDRECTD227*%
G04:AMPARAMS|DCode=228|XSize=0.86mm|YSize=1.75mm|CornerRadius=0mm|HoleSize=0mm|Usage=FLASHONLY|Rotation=45.000|XOffset=0mm|YOffset=0mm|HoleType=Round|Shape=Rectangle|*
%AMROTATEDRECTD228*
4,1,4,0.3147,-0.9228,-0.9228,0.3147,-0.3147,0.9228,0.9228,-0.3147,0.3147,-0.9228,0.0*
%
%ADD228ROTATEDRECTD228*%

%ADD229R,0.8600X1.7500*%
G04:AMPARAMS|DCode=230|XSize=0.86mm|YSize=1.75mm|CornerRadius=0mm|HoleSize=0mm|Usage=FLASHONLY|Rotation=157.500|XOffset=0mm|YOffset=0mm|HoleType=Round|Shape=Rectangle|*
%AMROTATEDRECTD230*
4,1,4,0.7321,0.6438,0.0624,-0.9729,-0.7321,-0.6438,-0.0624,0.9729,0.7321,0.6438,0.0*
%
%ADD230ROTATEDRECTD230*%

G04:AMPARAMS|DCode=231|XSize=0.86mm|YSize=1.75mm|CornerRadius=0mm|HoleSize=0mm|Usage=FLASHONLY|Rotation=25.000|XOffset=0mm|YOffset=0mm|HoleType=Round|Shape=Rectangle|*
%AMROTATEDRECTD231*
4,1,4,-0.0199,-0.9748,-0.7595,0.6113,0.0199,0.9748,0.7595,-0.6113,-0.0199,-0.9748,0.0*
%
%ADD231ROTATEDRECTD231*%

%ADD232R,1.7500X0.8600*%
%ADD233R,0.7750X0.5000*%
%ADD234R,0.7750X0.3000*%
G04:AMPARAMS|DCode=235|XSize=1.7mm|YSize=2mm|CornerRadius=0.25mm|HoleSize=0mm|Usage=FLASHONLY|Rotation=180.000|XOffset=0mm|YOffset=0mm|HoleType=Round|Shape=RoundedRectangle|*
%AMROUNDEDRECTD235*
21,1,1.7000,1.5000,0,0,180.0*
21,1,1.2000,2.0000,0,0,180.0*
1,1,0.5000,-0.6000,0.7500*
1,1,0.5000,0.6000,0.7500*
1,1,0.5000,0.6000,-0.7500*
1,1,0.5000,-0.6000,-0.7500*
%
%ADD235ROUNDEDRECTD235*%
%ADD236O,1.7000X0.4000*%
G04:AMPARAMS|DCode=237|XSize=1.7mm|YSize=0.4mm|CornerRadius=0.0875mm|HoleSize=0mm|Usage=FLASHONLY|Rotation=0.000|XOffset=0mm|YOffset=0mm|HoleType=Round|Shape=RoundedRectangle|*
%AMROUNDEDRECTD237*
21,1,1.7000,0.2250,0,0,0.0*
21,1,1.5250,0.4000,0,0,0.0*
1,1,0.1750,0.7625,-0.1125*
1,1,0.1750,-0.7625,-0.1125*
1,1,0.1750,-0.7625,0.1125*
1,1,0.1750,0.7625,0.1125*
%
%ADD237ROUNDEDRECTD237*%
%ADD238C,0.4800*%
%ADD239R,1.6500X15.9750*%
%ADD240R,1.6500X26.7000*%
%ADD241R,1.6500X15.7000*%
%ADD242R,1.6500X4.4000*%
%ADD243C,3.0000*%
%ADD244R,1.9000X0.8000*%
G04:AMPARAMS|DCode=245|XSize=1.624mm|YSize=1.624mm|CornerRadius=0.2405mm|HoleSize=0mm|Usage=FLASHONLY|Rotation=90.000|XOffset=0mm|YOffset=0mm|HoleType=Round|Shape=RoundedRectangle|*
%AMROUNDEDRECTD245*
21,1,1.6240,1.1430,0,0,90.0*
21,1,1.1430,1.6240,0,0,90.0*
1,1,0.4810,0.5715,0.5715*
1,1,0.4810,0.5715,-0.5715*
1,1,0.4810,-0.5715,-0.5715*
1,1,0.4810,-0.5715,0.5715*
%
%ADD245ROUNDEDRECTD245*%
%ADD246C,1.7000*%
%ADD247C,5.1000*%
%ADD248C,0.7604*%
G04:AMPARAMS|DCode=249|XSize=1.5mm|YSize=1.5mm|CornerRadius=0.4mm|HoleSize=0mm|Usage=FLASHONLY|Rotation=90.000|XOffset=0mm|YOffset=0mm|HoleType=Round|Shape=RoundedRectangle|*
%AMROUNDEDRECTD249*
21,1,1.5000,0.7000,0,0,90.0*
21,1,0.7000,1.5000,0,0,90.0*
1,1,0.8000,0.3500,0.3500*
1,1,0.8000,0.3500,-0.3500*
1,1,0.8000,-0.3500,-0.3500*
1,1,0.8000,-0.3500,0.3500*
%
%ADD249ROUNDEDRECTD249*%
%ADD250C,1.5000*%
%ADD251O,2.1000X3.9000*%
%ADD252O,2.3000X4.1000*%
%ADD253O,4.1000X2.1000*%
G04:AMPARAMS|DCode=254|XSize=1.3mm|YSize=1.2mm|CornerRadius=0.1875mm|HoleSize=0mm|Usage=FLASHONLY|Rotation=270.000|XOffset=0mm|YOffset=0mm|HoleType=Round|Shape=RoundedRectangle|*
%AMROUNDEDRECTD254*
21,1,1.3000,0.8250,0,0,270.0*
21,1,0.9250,1.2000,0,0,270.0*
1,1,0.3750,-0.4125,-0.4625*
1,1,0.3750,-0.4125,0.4625*
1,1,0.3750,0.4125,0.4625*
1,1,0.3750,0.4125,-0.4625*
%
%ADD254ROUNDEDRECTD254*%
%ADD255O,1.2000X1.3000*%
%ADD256O,4.1000X1.7000*%
G36*
X16000Y598752D02*
X988000Y598752D01*
X988673D01*
X988706Y598750D01*
X988739D01*
X988772Y598746D01*
X988804Y598744D01*
X988836Y598737D01*
X988869Y598733D01*
X990849Y598339D01*
X990881Y598330D01*
X990913Y598324D01*
X990944Y598314D01*
X990976Y598305D01*
X991006Y598293D01*
X991037Y598282D01*
X992903Y597509D01*
X992932Y597495D01*
X992962Y597482D01*
X992991Y597466D01*
X993020Y597451D01*
X993047Y597433D01*
X993076Y597417D01*
X994755Y596295D01*
X994781Y596275D01*
X994808Y596257D01*
X994833Y596235D01*
X994859Y596215D01*
X994882Y596192D01*
X994906Y596170D01*
X996334Y594743D01*
X996356Y594718D01*
X996379Y594695D01*
X996399Y594669D01*
X996421Y594644D01*
X996439Y594617D01*
X996459Y594591D01*
X997581Y592912D01*
X997597Y592883D01*
X997615Y592856D01*
X997630Y592827D01*
X997646Y592798D01*
X997659Y592768D01*
X997673Y592739D01*
X998446Y590873D01*
X998456Y590842D01*
X998469Y590812D01*
X998477Y590780D01*
X998488Y590749D01*
X998494Y590717D01*
X998503Y590685D01*
X998897Y588705D01*
X998901Y588672D01*
X998907Y588640D01*
X998910Y588608D01*
X998914Y588575D01*
Y588542D01*
X998916Y588509D01*
Y587500D01*
Y584750D01*
X998907Y584619D01*
X998882Y584491D01*
X998840Y584366D01*
X998782Y584249D01*
X998709Y584140D01*
X998623Y584041D01*
X998524Y583955D01*
X998415Y583882D01*
X998297Y583824D01*
X998173Y583782D01*
X998045Y583756D01*
X997914Y583748D01*
X990002D01*
Y559500D01*
X989994Y559369D01*
X989968Y559241D01*
X989926Y559117D01*
X989868Y558999D01*
X989795Y558890D01*
X989709Y558791D01*
X989610Y558705D01*
X989501Y558632D01*
X989383Y558574D01*
X989259Y558532D01*
X989131Y558507D01*
X989000Y558498D01*
X988869Y558507D01*
X988741Y558532D01*
X988616Y558574D01*
X988499Y558632D01*
X988390Y558705D01*
X988291Y558791D01*
X963335Y583748D01*
X36665Y583748D01*
X11709Y558791D01*
X11610Y558705D01*
X11501Y558632D01*
X11384Y558574D01*
X11259Y558532D01*
X11131Y558507D01*
X11000Y558498D01*
X10869Y558507D01*
X10741Y558532D01*
X10617Y558574D01*
X10499Y558632D01*
X10390Y558705D01*
X10291Y558791D01*
X10205Y558890D01*
X10132Y558999D01*
X10074Y559117D01*
X10032Y559241D01*
X10007Y559369D01*
X9998Y559500D01*
Y583748D01*
X3750D01*
X3619Y583756D01*
X3491Y583782D01*
X3366Y583824D01*
X3249Y583882D01*
X3140Y583955D01*
X3041Y584041D01*
X2955Y584140D01*
X2882Y584249D01*
X2824Y584366D01*
X2782Y584491D01*
X2756Y584619D01*
X2748Y584750D01*
Y587500D01*
Y588510D01*
X2750Y588542D01*
Y588575D01*
X2754Y588608D01*
X2756Y588640D01*
X2763Y588672D01*
X2767Y588705D01*
X3161Y590685D01*
X3169Y590717D01*
X3176Y590749D01*
X3186Y590780D01*
X3195Y590812D01*
X3207Y590842D01*
X3218Y590873D01*
X3991Y592739D01*
X4005Y592768D01*
X4018Y592799D01*
X4034Y592827D01*
X4049Y592856D01*
X4067Y592884D01*
X4083Y592912D01*
X5205Y594591D01*
X5225Y594617D01*
X5243Y594644D01*
X5265Y594669D01*
X5285Y594695D01*
X5308Y594718D01*
X5330Y594743D01*
X6757Y596170D01*
X6782Y596192D01*
X6805Y596215D01*
X6831Y596235D01*
X6856Y596257D01*
X6883Y596275D01*
X6909Y596295D01*
X8588Y597417D01*
X8616Y597433D01*
X8644Y597451D01*
X8673Y597466D01*
X8702Y597482D01*
X8732Y597495D01*
X8761Y597509D01*
X10627Y598282D01*
X10658Y598293D01*
X10688Y598305D01*
X10720Y598314D01*
X10751Y598324D01*
X10783Y598330D01*
X10815Y598339D01*
X11907Y598556D01*
X11999Y598618D01*
X12117Y598676D01*
X12241Y598718D01*
X12369Y598744D01*
X12500Y598752D01*
X12990D01*
D01*
X16000D01*
D01*
D02*
G37*
G36*
X989131Y41494D02*
X989259Y41468D01*
X989383Y41426D01*
X989501Y41368D01*
X989610Y41295D01*
X989709Y41209D01*
X989795Y41110D01*
X989868Y41001D01*
X989926Y40883D01*
X989968Y40759D01*
X989994Y40631D01*
X990002Y40500D01*
Y16252D01*
X996664D01*
X996795Y16244D01*
X996923Y16218D01*
X997048Y16176D01*
X997165Y16118D01*
X997274Y16045D01*
X997373Y15959D01*
X997459Y15860D01*
X997532Y15751D01*
X997590Y15633D01*
X997632Y15509D01*
X997657Y15381D01*
X997666Y15250D01*
Y12500D01*
Y11490D01*
X997664Y11458D01*
Y11425D01*
X997660Y11392D01*
X997657Y11360D01*
X997651Y11328D01*
X997647Y11295D01*
X997253Y9315D01*
X997244Y9283D01*
X997238Y9251D01*
X997228Y9220D01*
X997219Y9188D01*
X997206Y9158D01*
X997196Y9127D01*
X996423Y7261D01*
X996409Y7232D01*
X996396Y7202D01*
X996380Y7173D01*
X996365Y7144D01*
X996347Y7116D01*
X996331Y7088D01*
X995209Y5409D01*
X995189Y5383D01*
X995171Y5356D01*
X995149Y5331D01*
X995129Y5305D01*
X995106Y5282D01*
X995084Y5257D01*
X993657Y3830D01*
X993632Y3808D01*
X993609Y3785D01*
X993583Y3765D01*
X993558Y3743D01*
X993531Y3725D01*
X993505Y3705D01*
X991826Y2583D01*
X991797Y2567D01*
X991770Y2549D01*
X991741Y2534D01*
X991712Y2518D01*
X991682Y2505D01*
X991653Y2491D01*
X989787Y1718D01*
X989756Y1708D01*
X989726Y1695D01*
X989694Y1686D01*
X989663Y1676D01*
X989631Y1670D01*
X989599Y1661D01*
X988624Y1467D01*
X988610Y1455D01*
X988501Y1382D01*
X988383Y1324D01*
X988259Y1282D01*
X988131Y1257D01*
X988000Y1248D01*
X14500Y1248D01*
D01*
X11490D01*
X11458Y1250D01*
X11425D01*
X11392Y1254D01*
X11360Y1256D01*
X11328Y1263D01*
X11295Y1267D01*
X9315Y1661D01*
X9283Y1669D01*
X9251Y1676D01*
X9220Y1686D01*
X9188Y1695D01*
X9158Y1707D01*
X9127Y1718D01*
X7261Y2491D01*
X7232Y2505D01*
X7201Y2518D01*
X7173Y2534D01*
X7144Y2549D01*
X7117Y2567D01*
X7088Y2583D01*
X5409Y3705D01*
X5383Y3725D01*
X5356Y3743D01*
X5331Y3765D01*
X5305Y3785D01*
X5282Y3808D01*
X5257Y3830D01*
X3830Y5257D01*
X3808Y5282D01*
X3785Y5305D01*
X3765Y5331D01*
X3743Y5356D01*
X3725Y5383D01*
X3705Y5409D01*
X2583Y7088D01*
X2567Y7116D01*
X2549Y7144D01*
X2534Y7173D01*
X2518Y7201D01*
X2505Y7232D01*
X2491Y7261D01*
X1718Y9127D01*
X1708Y9158D01*
X1695Y9188D01*
X1686Y9220D01*
X1676Y9251D01*
X1670Y9283D01*
X1661Y9315D01*
X1267Y11295D01*
X1263Y11328D01*
X1256Y11360D01*
X1254Y11392D01*
X1250Y11425D01*
Y11458D01*
X1248Y11490D01*
Y12500D01*
Y15250D01*
X1256Y15381D01*
X1282Y15509D01*
X1324Y15633D01*
X1382Y15751D01*
X1455Y15860D01*
X1541Y15959D01*
X1640Y16045D01*
X1749Y16118D01*
X1866Y16176D01*
X1991Y16218D01*
X2119Y16243D01*
X2250Y16252D01*
X9998D01*
Y40500D01*
X10007Y40631D01*
X10032Y40759D01*
X10074Y40883D01*
X10132Y41001D01*
X10205Y41110D01*
X10291Y41209D01*
X10390Y41295D01*
X10499Y41368D01*
X10617Y41426D01*
X10741Y41468D01*
X10869Y41494D01*
X11000Y41502D01*
X11131Y41494D01*
X11259Y41468D01*
X11384Y41426D01*
X11501Y41368D01*
X11610Y41295D01*
X11709Y41209D01*
X36665Y16252D01*
X963335Y16252D01*
X988291Y41209D01*
X988390Y41295D01*
X988499Y41368D01*
X988616Y41426D01*
X988741Y41468D01*
X988869Y41494D01*
X989000Y41502D01*
X989131Y41494D01*
D02*
G37*
D81*
X750110Y246483D02*
D03*
X763430D02*
D03*
X776750D02*
D03*
X790070D02*
D03*
X796730D02*
D03*
X786740Y249813D02*
D03*
X780080D02*
D03*
X773420D02*
D03*
X766760D02*
D03*
X760100D02*
D03*
X753440D02*
D03*
X746780D02*
D03*
X793400D02*
D03*
X803390Y246483D02*
D03*
X796730Y253143D02*
D03*
X736790D02*
D03*
X743450D02*
D03*
X750110D02*
D03*
X756770D02*
D03*
X763430D02*
D03*
X770090D02*
D03*
X776750D02*
D03*
X783410D02*
D03*
X790070D02*
D03*
X740120Y256473D02*
D03*
X746780D02*
D03*
X753440D02*
D03*
X760100D02*
D03*
X766760D02*
D03*
X773420D02*
D03*
X780080D02*
D03*
X786740D02*
D03*
X793400D02*
D03*
X783410Y259803D02*
D03*
X790070D02*
D03*
X776750D02*
D03*
X770090D02*
D03*
X763430D02*
D03*
X756770D02*
D03*
X750110D02*
D03*
X743450D02*
D03*
X736790D02*
D03*
X813380Y263133D02*
D03*
X806720D02*
D03*
X800060D02*
D03*
X793400D02*
D03*
X786740D02*
D03*
X780080D02*
D03*
X773420D02*
D03*
X766760D02*
D03*
X760100D02*
D03*
X753440D02*
D03*
X746780D02*
D03*
X740120D02*
D03*
X733460D02*
D03*
X713480Y256473D02*
D03*
X716810Y253143D02*
D03*
X713480Y263133D02*
D03*
X716810Y259803D02*
D03*
X720140Y256473D02*
D03*
X723470Y253143D02*
D03*
X730130Y259803D02*
D03*
X733460Y256473D02*
D03*
X726800D02*
D03*
X730130Y253143D02*
D03*
X723470Y259803D02*
D03*
X720140Y263133D02*
D03*
X716810Y266463D02*
D03*
X710150Y273123D02*
D03*
X713480Y269793D02*
D03*
X706820Y276453D02*
D03*
X726800Y263133D02*
D03*
X723470Y266463D02*
D03*
X720140Y269793D02*
D03*
X713480Y276453D02*
D03*
X716810Y273123D02*
D03*
X710150Y279783D02*
D03*
X720140Y276453D02*
D03*
X716810Y279783D02*
D03*
X710150Y286443D02*
D03*
X713480Y283113D02*
D03*
X706820Y289773D02*
D03*
X720140Y283113D02*
D03*
X716810Y286443D02*
D03*
X710150Y293103D02*
D03*
X713480Y289773D02*
D03*
X720140Y289773D02*
D03*
X716810Y293103D02*
D03*
X710150Y299763D02*
D03*
X713480Y296433D02*
D03*
X706820Y303093D02*
D03*
X723470Y293103D02*
D03*
X720140Y296433D02*
D03*
X716810Y299763D02*
D03*
X710150Y306423D02*
D03*
X713480Y303093D02*
D03*
X723470Y299763D02*
D03*
X720140Y303093D02*
D03*
X716810Y306423D02*
D03*
X710150Y313083D02*
D03*
X713480Y309753D02*
D03*
X706820Y316413D02*
D03*
X723470Y306423D02*
D03*
X720140Y309753D02*
D03*
X716810Y313083D02*
D03*
X710150Y319743D02*
D03*
X713480Y316413D02*
D03*
X723470Y313083D02*
D03*
X720140Y316413D02*
D03*
X716810Y319743D02*
D03*
X710150Y326403D02*
D03*
X713480Y323073D02*
D03*
X706820Y329733D02*
D03*
X723470Y319743D02*
D03*
X720140Y323073D02*
D03*
X716810Y326403D02*
D03*
X710150Y333063D02*
D03*
X713480Y329733D02*
D03*
X723470Y326403D02*
D03*
X720140Y329733D02*
D03*
X716810Y333063D02*
D03*
X710150Y339723D02*
D03*
X713480Y336393D02*
D03*
X706820Y343053D02*
D03*
X723470Y333063D02*
D03*
X720140Y336393D02*
D03*
X716810Y339723D02*
D03*
X710150Y346383D02*
D03*
X713480Y343053D02*
D03*
X706820Y349713D02*
D03*
X723470Y339723D02*
D03*
X720140Y343053D02*
D03*
X716810Y346383D02*
D03*
X730130Y339723D02*
D03*
X726800Y343053D02*
D03*
X723470Y346383D02*
D03*
X716810Y353044D02*
D03*
X720140Y349714D02*
D03*
X713480Y356373D02*
D03*
X720140D02*
D03*
X726800Y349714D02*
D03*
X723470Y353044D02*
D03*
X730130Y346383D02*
D03*
X733460Y343053D02*
D03*
X736790Y339723D02*
D03*
X733460Y349714D02*
D03*
X730130Y353044D02*
D03*
X733460Y356373D02*
D03*
X736790Y353044D02*
D03*
X753440Y349714D02*
D03*
X740120D02*
D03*
X743450Y353044D02*
D03*
Y346384D02*
D03*
X746780Y349714D02*
D03*
X750110Y346384D02*
D03*
X746780Y343053D02*
D03*
X763430Y353044D02*
D03*
X760100Y349714D02*
D03*
X756770Y346384D02*
D03*
X753440Y343053D02*
D03*
X750110Y339723D02*
D03*
X756770D02*
D03*
X810050Y353044D02*
D03*
X803390Y253143D02*
D03*
X800060Y256473D02*
D03*
X806720Y249813D02*
D03*
X813380D02*
D03*
X803390Y259803D02*
D03*
X810050Y253143D02*
D03*
X806720Y256473D02*
D03*
X813380D02*
D03*
X816710Y253143D02*
D03*
X803390Y266463D02*
D03*
X800060Y269793D02*
D03*
X810050Y259803D02*
D03*
X803390Y273123D02*
D03*
X800060Y276453D02*
D03*
X810050Y266463D02*
D03*
X813380Y269793D02*
D03*
X816710Y266463D02*
D03*
X803390Y279783D02*
D03*
X800060Y283113D02*
D03*
X810050Y273123D02*
D03*
X806720Y276453D02*
D03*
X813380D02*
D03*
X816710Y273123D02*
D03*
X810050Y279783D02*
D03*
X806720Y283113D02*
D03*
X813380D02*
D03*
X803390Y293103D02*
D03*
X800060Y296433D02*
D03*
X810050Y286443D02*
D03*
X806720Y289773D02*
D03*
X813380D02*
D03*
X816710Y286443D02*
D03*
X803390Y299763D02*
D03*
X800060Y303093D02*
D03*
X810050Y293103D02*
D03*
X806720Y296433D02*
D03*
Y303093D02*
D03*
X810050Y299763D02*
D03*
X800060Y309753D02*
D03*
X806720D02*
D03*
X810050Y306423D02*
D03*
X800060Y316413D02*
D03*
X803390Y313083D02*
D03*
X816710Y299763D02*
D03*
X813380Y303093D02*
D03*
X803390Y319743D02*
D03*
X806720Y316413D02*
D03*
X800060Y323073D02*
D03*
X813380Y309753D02*
D03*
X810050Y313083D02*
D03*
X813380Y316413D02*
D03*
X816710Y313083D02*
D03*
X770090Y339723D02*
D03*
X773420Y343053D02*
D03*
X776750Y339723D02*
D03*
X783410D02*
D03*
X776750Y346384D02*
D03*
X780080Y343053D02*
D03*
X783410Y346384D02*
D03*
X780080Y349714D02*
D03*
X790070Y339723D02*
D03*
X786740Y343053D02*
D03*
X803390Y326403D02*
D03*
X800060Y329733D02*
D03*
X810050Y319743D02*
D03*
X806720Y323073D02*
D03*
X813380Y329733D02*
D03*
X816710Y326403D02*
D03*
X810050D02*
D03*
X813380Y323073D02*
D03*
X790070Y353044D02*
D03*
X786740Y356373D02*
D03*
Y349714D02*
D03*
X783410Y353044D02*
D03*
X803390Y333063D02*
D03*
X806720Y329733D02*
D03*
X796730Y339723D02*
D03*
X790070Y346384D02*
D03*
X793400Y343053D02*
D03*
X810050Y333063D02*
D03*
X806720Y336393D02*
D03*
X800060Y343053D02*
D03*
X803390Y339723D02*
D03*
X793400Y349714D02*
D03*
X796730Y346384D02*
D03*
X800060Y349714D02*
D03*
X796730Y353044D02*
D03*
X806720Y343053D02*
D03*
X803390Y346384D02*
D03*
X810050Y339723D02*
D03*
X813380Y336393D02*
D03*
X816710Y339723D02*
D03*
X813380Y343053D02*
D03*
X810050Y346384D02*
D03*
X806720Y349714D02*
D03*
X803390Y353044D02*
D03*
X800060Y356373D02*
D03*
X167500Y260250D02*
D03*
Y268250D02*
D03*
Y276250D02*
D03*
Y284250D02*
D03*
Y292250D02*
D03*
Y300250D02*
D03*
Y308250D02*
D03*
Y316250D02*
D03*
Y324250D02*
D03*
Y332250D02*
D03*
Y340250D02*
D03*
X175500Y260250D02*
D03*
Y268250D02*
D03*
Y276250D02*
D03*
Y284250D02*
D03*
Y292250D02*
D03*
Y300250D02*
D03*
Y308250D02*
D03*
Y316250D02*
D03*
Y324250D02*
D03*
Y332250D02*
D03*
Y340250D02*
D03*
X183500Y260250D02*
D03*
Y268250D02*
D03*
Y276250D02*
D03*
Y284250D02*
D03*
Y292250D02*
D03*
Y300250D02*
D03*
Y308250D02*
D03*
Y316250D02*
D03*
Y324250D02*
D03*
Y332250D02*
D03*
Y340250D02*
D03*
X191500Y260250D02*
D03*
Y268250D02*
D03*
Y276250D02*
D03*
Y284250D02*
D03*
Y292250D02*
D03*
Y300250D02*
D03*
Y308250D02*
D03*
Y316250D02*
D03*
Y324250D02*
D03*
Y332250D02*
D03*
Y340250D02*
D03*
X199500Y260250D02*
D03*
Y268250D02*
D03*
Y276250D02*
D03*
Y284250D02*
D03*
Y292250D02*
D03*
Y300250D02*
D03*
Y308250D02*
D03*
Y316250D02*
D03*
Y324250D02*
D03*
Y332250D02*
D03*
Y340250D02*
D03*
X207500Y260250D02*
D03*
Y268250D02*
D03*
Y276250D02*
D03*
Y284250D02*
D03*
Y292250D02*
D03*
Y300250D02*
D03*
Y308250D02*
D03*
Y316250D02*
D03*
Y324250D02*
D03*
Y332250D02*
D03*
Y340250D02*
D03*
X215500Y260250D02*
D03*
Y268250D02*
D03*
Y276250D02*
D03*
Y284250D02*
D03*
Y292250D02*
D03*
Y300250D02*
D03*
Y308250D02*
D03*
Y316250D02*
D03*
Y324250D02*
D03*
Y332250D02*
D03*
Y340250D02*
D03*
X223500Y260250D02*
D03*
Y268250D02*
D03*
Y276250D02*
D03*
Y284250D02*
D03*
Y292250D02*
D03*
Y300250D02*
D03*
Y308250D02*
D03*
Y316250D02*
D03*
Y324250D02*
D03*
Y332250D02*
D03*
Y340250D02*
D03*
X231500Y260250D02*
D03*
Y268250D02*
D03*
Y276250D02*
D03*
Y284250D02*
D03*
Y292250D02*
D03*
Y300250D02*
D03*
Y308250D02*
D03*
Y316250D02*
D03*
Y324250D02*
D03*
Y332250D02*
D03*
Y340250D02*
D03*
X239500Y260250D02*
D03*
Y268250D02*
D03*
Y276250D02*
D03*
Y284250D02*
D03*
Y292250D02*
D03*
Y300250D02*
D03*
Y308250D02*
D03*
Y316250D02*
D03*
Y324250D02*
D03*
Y332250D02*
D03*
Y340250D02*
D03*
X247500Y260250D02*
D03*
Y268250D02*
D03*
Y276250D02*
D03*
Y284250D02*
D03*
Y292250D02*
D03*
Y300250D02*
D03*
Y308250D02*
D03*
Y316250D02*
D03*
Y324250D02*
D03*
Y332250D02*
D03*
Y340250D02*
D03*
D108*
X761660Y301383D02*
D03*
D123*
X7250Y12250D02*
D03*
X14000Y5500D02*
D03*
X27500D02*
D03*
X34250Y10750D02*
D03*
X41000Y5500D02*
D03*
X47750Y12250D02*
D03*
X54500Y5500D02*
D03*
X61250Y12250D02*
D03*
X101750D02*
D03*
X95000Y5500D02*
D03*
X88250Y12250D02*
D03*
X81500Y5500D02*
D03*
X74750Y12250D02*
D03*
X68000Y5500D02*
D03*
X142250Y12250D02*
D03*
X135500Y5500D02*
D03*
X128750Y12250D02*
D03*
X122000Y5500D02*
D03*
X115250Y12250D02*
D03*
X108500Y5500D02*
D03*
X182750Y12250D02*
D03*
X176000Y5500D02*
D03*
X169250Y12250D02*
D03*
X162500Y5500D02*
D03*
X155750Y12250D02*
D03*
X149000Y5500D02*
D03*
X223250Y12250D02*
D03*
X209750D02*
D03*
X196250D02*
D03*
X263750D02*
D03*
X257000Y5500D02*
D03*
X250250Y12250D02*
D03*
X243500Y5500D02*
D03*
X236750Y12250D02*
D03*
X230000Y5500D02*
D03*
X304250Y12250D02*
D03*
X297500Y5500D02*
D03*
X290750Y12250D02*
D03*
X284000Y5500D02*
D03*
X277250Y12250D02*
D03*
X270500Y5500D02*
D03*
X344750Y12250D02*
D03*
X338000Y5500D02*
D03*
X331250Y12250D02*
D03*
X324500Y5500D02*
D03*
X317750Y12250D02*
D03*
X311000Y5500D02*
D03*
X385250Y12250D02*
D03*
X378500Y5500D02*
D03*
X371750Y12250D02*
D03*
X365000Y5500D02*
D03*
X358250Y12250D02*
D03*
X351500Y5500D02*
D03*
X425750Y12250D02*
D03*
X419000Y5500D02*
D03*
X412250Y12250D02*
D03*
X405500Y5500D02*
D03*
X398750Y12250D02*
D03*
X392000Y5500D02*
D03*
X466250Y12250D02*
D03*
X459500Y5500D02*
D03*
X452750Y12250D02*
D03*
X446000Y5500D02*
D03*
X439250Y12250D02*
D03*
X432500Y5500D02*
D03*
X506750Y12250D02*
D03*
X500000Y5500D02*
D03*
X493250Y12250D02*
D03*
X486500Y5500D02*
D03*
X479750Y12250D02*
D03*
X473000Y5500D02*
D03*
X547250Y12250D02*
D03*
X540500Y5500D02*
D03*
X533750Y12250D02*
D03*
X527000Y5500D02*
D03*
X520250Y12250D02*
D03*
X513500Y5500D02*
D03*
X587750Y12250D02*
D03*
X581000Y5500D02*
D03*
X574250Y12250D02*
D03*
X567500Y5500D02*
D03*
X560750Y12250D02*
D03*
X554000Y5500D02*
D03*
X628250Y12250D02*
D03*
X621500Y5500D02*
D03*
X614750Y12250D02*
D03*
X608000Y5500D02*
D03*
X601250Y12250D02*
D03*
X594500Y5500D02*
D03*
X668750Y12250D02*
D03*
X662000Y5500D02*
D03*
X655250Y12250D02*
D03*
X648500Y5500D02*
D03*
X641750Y12250D02*
D03*
X635000Y5500D02*
D03*
X709250Y12250D02*
D03*
X702500Y5500D02*
D03*
X695750Y12250D02*
D03*
X689000Y5500D02*
D03*
X682250Y12250D02*
D03*
X675500Y5500D02*
D03*
X749750Y12250D02*
D03*
X743000Y5500D02*
D03*
X736250Y12250D02*
D03*
X729500Y5500D02*
D03*
X722750Y12250D02*
D03*
X716000Y5500D02*
D03*
X790250Y12250D02*
D03*
X776750D02*
D03*
X770000Y5500D02*
D03*
X763250Y12250D02*
D03*
X756500Y5500D02*
D03*
X830750Y12250D02*
D03*
X824000Y5500D02*
D03*
X817250Y12250D02*
D03*
X803750D02*
D03*
X871250D02*
D03*
X864500Y5500D02*
D03*
X857750Y12250D02*
D03*
X851000Y5500D02*
D03*
X844250Y12250D02*
D03*
X837500Y5500D02*
D03*
X911750Y12250D02*
D03*
X905000Y5500D02*
D03*
X898250Y12250D02*
D03*
X891500Y5500D02*
D03*
X884750Y12250D02*
D03*
X878000Y5500D02*
D03*
X952250Y12250D02*
D03*
X945500Y5500D02*
D03*
X938750Y12250D02*
D03*
X932000Y5500D02*
D03*
X925250Y12250D02*
D03*
X918500Y5500D02*
D03*
X992750Y12250D02*
D03*
X986000Y5500D02*
D03*
X979250Y12250D02*
D03*
X972500Y5500D02*
D03*
X965750Y11000D02*
D03*
X959000Y5500D02*
D03*
X20750Y12250D02*
D03*
Y587750D02*
D03*
X959000Y594500D02*
D03*
X965750Y588750D02*
D03*
X972500Y594500D02*
D03*
X979250Y587750D02*
D03*
X986000Y594500D02*
D03*
X992750Y587750D02*
D03*
X918500Y594500D02*
D03*
X925250Y587750D02*
D03*
X932000Y594500D02*
D03*
X938750Y587750D02*
D03*
X945500Y594500D02*
D03*
X952250Y587750D02*
D03*
X878000Y594500D02*
D03*
X884750Y587750D02*
D03*
X891500Y594500D02*
D03*
X898250Y587750D02*
D03*
X905000Y594500D02*
D03*
X911750Y587750D02*
D03*
X837500Y594500D02*
D03*
X844250Y587750D02*
D03*
X851000Y594500D02*
D03*
X857750Y587750D02*
D03*
X864500Y594500D02*
D03*
X871250Y587750D02*
D03*
X803750D02*
D03*
X817250D02*
D03*
X824000Y594500D02*
D03*
X830750Y587750D02*
D03*
X756500Y594500D02*
D03*
X763250Y587750D02*
D03*
X770000Y594500D02*
D03*
X776750Y587750D02*
D03*
X790250D02*
D03*
X716000Y594500D02*
D03*
X722750Y587750D02*
D03*
X729500Y594500D02*
D03*
X736250Y587750D02*
D03*
X743000Y594500D02*
D03*
X749750Y587750D02*
D03*
X675500Y594500D02*
D03*
X682250Y587750D02*
D03*
X689000Y594500D02*
D03*
X695750Y587750D02*
D03*
X702500Y594500D02*
D03*
X709250Y587750D02*
D03*
X635000Y594500D02*
D03*
X641750Y587750D02*
D03*
X648500Y594500D02*
D03*
X655250Y587750D02*
D03*
X662000Y594500D02*
D03*
X668750Y587750D02*
D03*
X594500Y594500D02*
D03*
X601250Y587750D02*
D03*
X608000Y594500D02*
D03*
X614750Y587750D02*
D03*
X621500Y594500D02*
D03*
X628250Y587750D02*
D03*
X554000Y594500D02*
D03*
X560750Y587750D02*
D03*
X567500Y594500D02*
D03*
X574250Y587750D02*
D03*
X581000Y594500D02*
D03*
X587750Y587750D02*
D03*
X513500Y594500D02*
D03*
X520250Y587750D02*
D03*
X527000Y594500D02*
D03*
X533750Y587750D02*
D03*
X540500Y594500D02*
D03*
X547250Y587750D02*
D03*
X473000Y594500D02*
D03*
X479750Y587750D02*
D03*
X486500Y594500D02*
D03*
X493250Y587750D02*
D03*
X500000Y594500D02*
D03*
X506750Y587750D02*
D03*
X432500Y594500D02*
D03*
X439250Y587750D02*
D03*
X446000Y594500D02*
D03*
X452750Y587750D02*
D03*
X459500Y594500D02*
D03*
X466250Y587750D02*
D03*
X392000Y594500D02*
D03*
X398750Y587750D02*
D03*
X405500Y594500D02*
D03*
X412250Y587750D02*
D03*
X419000Y594500D02*
D03*
X425750Y587750D02*
D03*
X351500Y594500D02*
D03*
X358250Y587750D02*
D03*
X365000Y594500D02*
D03*
X371750Y587750D02*
D03*
X378500Y594500D02*
D03*
X385250Y587750D02*
D03*
X311000Y594500D02*
D03*
X317750Y587750D02*
D03*
X324500Y594500D02*
D03*
X331250Y587750D02*
D03*
X338000Y594500D02*
D03*
X344750Y587750D02*
D03*
X270500Y594500D02*
D03*
X284000D02*
D03*
X290750Y587750D02*
D03*
X297500Y594500D02*
D03*
X304250Y587750D02*
D03*
X230000Y594500D02*
D03*
X236750Y587750D02*
D03*
X243500Y594500D02*
D03*
X250250Y587750D02*
D03*
X257000Y594500D02*
D03*
X263750Y587750D02*
D03*
X196250D02*
D03*
X209750D02*
D03*
X223250D02*
D03*
X149000Y594500D02*
D03*
X155750Y587750D02*
D03*
X162500Y594500D02*
D03*
X169250Y587750D02*
D03*
X176000Y594500D02*
D03*
X108500D02*
D03*
X115250Y587750D02*
D03*
X122000Y594500D02*
D03*
X128750Y587750D02*
D03*
X135500Y594500D02*
D03*
X142250Y587750D02*
D03*
X68000Y594500D02*
D03*
X74750Y587750D02*
D03*
X81500Y594500D02*
D03*
X88250Y587750D02*
D03*
X95000Y594500D02*
D03*
X101750Y587750D02*
D03*
X61250D02*
D03*
X54500Y594500D02*
D03*
X47750Y587750D02*
D03*
X41000Y594500D02*
D03*
X34250Y589000D02*
D03*
X27500Y594500D02*
D03*
X14000D02*
D03*
X7250Y587750D02*
D03*
X277250D02*
D03*
D171*
X376750Y562500D02*
D03*
D172*
X24250Y434750D02*
D03*
Y420750D02*
D03*
X31250Y420750D02*
D03*
Y434750D02*
D03*
X14500D02*
D03*
Y420750D02*
D03*
X7500Y420750D02*
D03*
Y434750D02*
D03*
X24000Y480500D02*
D03*
Y466500D02*
D03*
X31000Y466500D02*
D03*
Y480500D02*
D03*
X14500Y480500D02*
D03*
Y466500D02*
D03*
X7500Y466500D02*
D03*
Y480500D02*
D03*
D173*
X953750Y386000D02*
D03*
Y420000D02*
D03*
X951250Y195500D02*
D03*
Y161500D02*
D03*
X790400Y71500D02*
D03*
Y37500D02*
D03*
X912750Y88250D02*
D03*
Y54250D02*
D03*
X662250Y89250D02*
D03*
Y55250D02*
D03*
X732750Y532000D02*
D03*
Y566000D02*
D03*
X920750Y491000D02*
D03*
Y525000D02*
D03*
X669336Y532000D02*
D03*
Y566000D02*
D03*
X863500Y532000D02*
D03*
Y566000D02*
D03*
X798000Y532000D02*
D03*
Y566000D02*
D03*
X151500Y473750D02*
D03*
Y507750D02*
D03*
D174*
X970750Y403000D02*
D03*
X936750D02*
D03*
X934250Y178500D02*
D03*
X968250D02*
D03*
X773400Y54500D02*
D03*
X807400D02*
D03*
X895750Y71250D02*
D03*
X929750D02*
D03*
X645250Y72250D02*
D03*
X679250D02*
D03*
X749750Y549000D02*
D03*
X715750D02*
D03*
X937750Y508000D02*
D03*
X903750D02*
D03*
X686336Y549000D02*
D03*
X652336D02*
D03*
X880500Y549000D02*
D03*
X846500D02*
D03*
X815000D02*
D03*
X781000D02*
D03*
X168500Y490750D02*
D03*
X134500D02*
D03*
D175*
X953750Y419000D02*
D03*
Y387000D02*
D03*
X951250Y162500D02*
D03*
Y194500D02*
D03*
X790400Y38500D02*
D03*
Y70500D02*
D03*
X912750Y55250D02*
D03*
Y87250D02*
D03*
X662250Y56250D02*
D03*
Y88250D02*
D03*
X732750Y565000D02*
D03*
Y533000D02*
D03*
X920750Y524000D02*
D03*
Y492000D02*
D03*
X669336Y565000D02*
D03*
Y533000D02*
D03*
X863500Y565000D02*
D03*
Y533000D02*
D03*
X798000Y565000D02*
D03*
Y533000D02*
D03*
X151500Y506750D02*
D03*
Y474750D02*
D03*
D176*
X939750Y403000D02*
D03*
X967750D02*
D03*
X965250Y178500D02*
D03*
X937250D02*
D03*
X804400Y54500D02*
D03*
X776400D02*
D03*
X926750Y71250D02*
D03*
X898750D02*
D03*
X676250Y72250D02*
D03*
X648250D02*
D03*
X718750Y549000D02*
D03*
X746750D02*
D03*
X906750Y508000D02*
D03*
X934750D02*
D03*
X655336Y549000D02*
D03*
X683336D02*
D03*
X849500Y549000D02*
D03*
X877500D02*
D03*
X784000D02*
D03*
X812000D02*
D03*
X137500Y490750D02*
D03*
X165500D02*
D03*
D177*
X252750Y114000D02*
D03*
Y104000D02*
D03*
X142000Y383750D02*
D03*
Y373750D02*
D03*
X174500Y434250D02*
D03*
Y444250D02*
D03*
X335250Y529250D02*
D03*
Y539250D02*
D03*
X446000Y127750D02*
D03*
Y117750D02*
D03*
Y148750D02*
D03*
Y138750D02*
D03*
X457000Y127750D02*
D03*
Y117750D02*
D03*
Y148750D02*
D03*
Y138750D02*
D03*
X468000Y148750D02*
D03*
Y138750D02*
D03*
Y127750D02*
D03*
Y117750D02*
D03*
X479250Y148750D02*
D03*
Y138750D02*
D03*
Y127750D02*
D03*
Y117750D02*
D03*
X161000Y363250D02*
D03*
Y373250D02*
D03*
X194000Y85750D02*
D03*
Y75750D02*
D03*
X173000Y75750D02*
D03*
Y85750D02*
D03*
X450250Y98500D02*
D03*
X450250Y88500D02*
D03*
X181750Y375500D02*
D03*
Y365500D02*
D03*
X407000Y492000D02*
D03*
Y502000D02*
D03*
X432000Y492000D02*
D03*
Y502000D02*
D03*
X481500Y445000D02*
D03*
Y455000D02*
D03*
X239250Y32500D02*
D03*
Y22500D02*
D03*
X149500Y41000D02*
D03*
Y31000D02*
D03*
X149500Y63750D02*
D03*
Y53750D02*
D03*
X836954Y255227D02*
D03*
Y245227D02*
D03*
X836954Y225227D02*
D03*
Y235227D02*
D03*
X872540Y356537D02*
D03*
Y346537D02*
D03*
X461000Y546500D02*
D03*
Y556500D02*
D03*
X439750Y556500D02*
D03*
Y546500D02*
D03*
X414250Y566500D02*
D03*
Y576500D02*
D03*
D178*
X115000Y160250D02*
D03*
Y143250D02*
D03*
X492000Y102000D02*
D03*
Y85000D02*
D03*
X139500Y74750D02*
D03*
Y91750D02*
D03*
X131750Y124250D02*
D03*
Y107250D02*
D03*
X336250Y567500D02*
D03*
Y550500D02*
D03*
X151250Y91500D02*
D03*
Y74500D02*
D03*
X109250Y379500D02*
D03*
Y362500D02*
D03*
X192250Y443250D02*
D03*
Y460250D02*
D03*
D179*
X162750Y397750D02*
D03*
X145750D02*
D03*
X99000Y355750D02*
D03*
X82000Y355750D02*
D03*
X90750Y24000D02*
D03*
X73750D02*
D03*
X487000Y40250D02*
D03*
X470000D02*
D03*
X356000Y538250D02*
D03*
X373000D02*
D03*
D180*
X200000Y433250D02*
D03*
X206500D02*
D03*
X213000D02*
D03*
Y414250D02*
D03*
X206500D02*
D03*
X200000D02*
D03*
D181*
X160750Y458250D02*
D03*
X170750D02*
D03*
X80500Y342750D02*
D03*
X70500D02*
D03*
X158000Y225000D02*
D03*
X168000D02*
D03*
X179250Y241750D02*
D03*
X169250D02*
D03*
X414250Y555500D02*
D03*
X424250D02*
D03*
X293500Y44000D02*
D03*
X303500D02*
D03*
X310000Y29250D02*
D03*
X300000D02*
D03*
X208000Y105250D02*
D03*
X218000D02*
D03*
X141750Y311750D02*
D03*
X151750Y311750D02*
D03*
X520000Y456000D02*
D03*
X530000D02*
D03*
X378750Y500750D02*
D03*
X368750D02*
D03*
X469750Y53500D02*
D03*
X479750D02*
D03*
Y74500D02*
D03*
X469750D02*
D03*
X264500Y346250D02*
D03*
X274500D02*
D03*
X460250Y535500D02*
D03*
X450250Y535500D02*
D03*
X440000Y456000D02*
D03*
X450000D02*
D03*
X219500Y450500D02*
D03*
X229500D02*
D03*
X796805Y209839D02*
D03*
X786805D02*
D03*
X794260Y430924D02*
D03*
X784260D02*
D03*
X766805Y209839D02*
D03*
X776805D02*
D03*
D182*
X157250Y410950D02*
D03*
Y423650D02*
D03*
Y436350D02*
D03*
Y449050D02*
D03*
X109250Y410950D02*
D03*
Y423650D02*
D03*
Y436350D02*
D03*
Y449050D02*
D03*
X528750Y538450D02*
D03*
Y551150D02*
D03*
Y563850D02*
D03*
Y576550D02*
D03*
X480750Y538450D02*
D03*
Y551150D02*
D03*
Y563850D02*
D03*
Y576550D02*
D03*
D183*
X165750Y65250D02*
D03*
Y58750D02*
D03*
Y52250D02*
D03*
Y45750D02*
D03*
Y39250D02*
D03*
Y32750D02*
D03*
Y26250D02*
D03*
Y19750D02*
D03*
X224750Y65250D02*
D03*
Y58750D02*
D03*
Y52250D02*
D03*
Y45750D02*
D03*
Y39250D02*
D03*
Y32750D02*
D03*
Y26250D02*
D03*
Y19750D02*
D03*
X319500Y533500D02*
D03*
Y540000D02*
D03*
Y546500D02*
D03*
Y553000D02*
D03*
Y559500D02*
D03*
Y566000D02*
D03*
Y572500D02*
D03*
Y579000D02*
D03*
X260500Y533500D02*
D03*
Y540000D02*
D03*
Y546500D02*
D03*
Y553000D02*
D03*
Y559500D02*
D03*
Y566000D02*
D03*
Y572500D02*
D03*
Y579000D02*
D03*
D184*
X261950Y61250D02*
D03*
X274650D02*
D03*
X287350D02*
D03*
X300050D02*
D03*
X261950Y109250D02*
D03*
X274650D02*
D03*
X287350D02*
D03*
X300050D02*
D03*
D185*
X9250Y572500D02*
D03*
Y27500D02*
D03*
D186*
X867954Y235227D02*
D03*
X857954D02*
D03*
X857954Y245227D02*
D03*
X867954D02*
D03*
X249000Y384250D02*
D03*
X259000D02*
D03*
X271750Y374250D02*
D03*
X261750D02*
D03*
X388750Y539750D02*
D03*
X398750D02*
D03*
X281500Y29250D02*
D03*
X271500Y29250D02*
D03*
X117750Y345250D02*
D03*
X107750D02*
D03*
X208000Y84750D02*
D03*
X218000D02*
D03*
X208000Y94750D02*
D03*
X218000D02*
D03*
X208000Y115750D02*
D03*
X218000D02*
D03*
X141750Y301250D02*
D03*
X151750D02*
D03*
X151750Y291250D02*
D03*
X141750D02*
D03*
X556250Y531000D02*
D03*
X546250D02*
D03*
X469750Y64000D02*
D03*
X479750D02*
D03*
X196500Y400250D02*
D03*
X206500D02*
D03*
X464000Y500000D02*
D03*
X454000D02*
D03*
X419750Y478500D02*
D03*
X409750D02*
D03*
X444000Y478000D02*
D03*
X454000D02*
D03*
X224500Y430750D02*
D03*
X234500D02*
D03*
X239250Y42500D02*
D03*
X249250D02*
D03*
X883674Y272160D02*
D03*
X873674D02*
D03*
X794260Y399924D02*
D03*
X784260D02*
D03*
X786805Y199339D02*
D03*
X776805D02*
D03*
X861441Y356378D02*
D03*
X851441D02*
D03*
X861437Y346487D02*
D03*
X851437D02*
D03*
X786805Y168339D02*
D03*
X776805D02*
D03*
X883656Y208367D02*
D03*
X873656D02*
D03*
X235000Y461250D02*
D03*
X225000D02*
D03*
X196500Y498250D02*
D03*
X206500D02*
D03*
D187*
X878454Y245227D02*
D03*
Y235227D02*
D03*
X150000Y553000D02*
D03*
Y543000D02*
D03*
X183500Y85750D02*
D03*
Y75750D02*
D03*
X439750Y88500D02*
D03*
Y98500D02*
D03*
X460750Y88500D02*
D03*
Y98500D02*
D03*
X470750Y88500D02*
D03*
Y98500D02*
D03*
X912750Y103250D02*
D03*
Y113250D02*
D03*
X662250Y109750D02*
D03*
Y119750D02*
D03*
X790400Y86500D02*
D03*
Y96500D02*
D03*
X441250Y443750D02*
D03*
Y433750D02*
D03*
X456000Y443750D02*
D03*
Y433750D02*
D03*
X464500Y478750D02*
D03*
Y488750D02*
D03*
X417500Y502000D02*
D03*
Y492000D02*
D03*
X392500Y477750D02*
D03*
Y487750D02*
D03*
X381750Y477750D02*
D03*
Y487750D02*
D03*
X451750Y515250D02*
D03*
Y525250D02*
D03*
X181750Y475500D02*
D03*
Y465500D02*
D03*
X749656Y163117D02*
D03*
Y173117D02*
D03*
X863500Y509000D02*
D03*
X863500Y499000D02*
D03*
X776805Y178839D02*
D03*
Y188839D02*
D03*
X794260Y420424D02*
D03*
Y410424D02*
D03*
X784260Y420424D02*
D03*
Y410424D02*
D03*
X847346Y245223D02*
D03*
Y235223D02*
D03*
X786805Y188839D02*
D03*
Y178839D02*
D03*
X920757Y472550D02*
D03*
Y462550D02*
D03*
X669336Y498836D02*
D03*
Y488836D02*
D03*
X953803Y366934D02*
D03*
Y356934D02*
D03*
X813796Y163102D02*
D03*
Y173102D02*
D03*
X798000Y517000D02*
D03*
Y507000D02*
D03*
X732750Y517000D02*
D03*
X732750Y507000D02*
D03*
X242500Y542000D02*
D03*
Y552000D02*
D03*
X171250Y373250D02*
D03*
Y363250D02*
D03*
X450250Y546500D02*
D03*
Y556500D02*
D03*
X424750Y566500D02*
D03*
Y576500D02*
D03*
X840941Y356379D02*
D03*
Y346379D02*
D03*
X951250Y209500D02*
D03*
Y219500D02*
D03*
D188*
X82000Y574750D02*
D03*
X121000Y574750D02*
D03*
X82000Y562000D02*
D03*
X121000D02*
D03*
X82000Y549250D02*
D03*
X121000Y549250D02*
D03*
X82000Y536500D02*
D03*
X121000Y536500D02*
D03*
X82000Y523750D02*
D03*
X121000Y523750D02*
D03*
X221750Y523500D02*
D03*
X182750Y523500D02*
D03*
X221750Y536250D02*
D03*
X182750Y536250D02*
D03*
X221750Y549000D02*
D03*
X182750Y549000D02*
D03*
X221750Y561750D02*
D03*
X182750D02*
D03*
X221750Y574500D02*
D03*
X182750Y574500D02*
D03*
D189*
X94750Y191000D02*
D03*
X94750Y230000D02*
D03*
X107500Y191000D02*
D03*
Y230000D02*
D03*
X120250Y191000D02*
D03*
X120250Y230000D02*
D03*
X133000Y191000D02*
D03*
X133000Y230000D02*
D03*
X145750Y191000D02*
D03*
X145750Y230000D02*
D03*
D190*
X125500Y50750D02*
D03*
X84500D02*
D03*
D191*
X224250Y424550D02*
D03*
Y418950D02*
D03*
D192*
X207300Y452750D02*
D03*
X201700D02*
D03*
D193*
X596750Y285500D02*
D03*
X591750D02*
D03*
X586750D02*
D03*
X581750D02*
D03*
Y313500D02*
D03*
X586750D02*
D03*
X591750D02*
D03*
X596750D02*
D03*
D194*
X589250Y299500D02*
D03*
D195*
X569300Y39750D02*
D03*
X552250D02*
D03*
X535200D02*
D03*
X518150D02*
D03*
X586350D02*
D03*
D196*
X552250Y130750D02*
D03*
D197*
X123000Y357000D02*
D03*
Y377000D02*
D03*
X762600Y178736D02*
D03*
Y198736D02*
D03*
X801050Y178743D02*
D03*
Y198743D02*
D03*
X187000Y434750D02*
D03*
Y414750D02*
D03*
D198*
X250000Y143750D02*
D03*
Y224250D02*
D03*
D199*
X171000Y126750D02*
D03*
D200*
Y112250D02*
D03*
D201*
X183500Y98250D02*
D03*
X178500D02*
D03*
X173500D02*
D03*
X168500Y98250D02*
D03*
X163500Y98250D02*
D03*
X158500Y98250D02*
D03*
Y138250D02*
D03*
X163500D02*
D03*
X168500Y138250D02*
D03*
X173500Y138250D02*
D03*
X178500D02*
D03*
X183500D02*
D03*
X449750Y31500D02*
D03*
X444750D02*
D03*
X439750D02*
D03*
X434750Y31500D02*
D03*
X429750D02*
D03*
X424750Y31500D02*
D03*
Y71500D02*
D03*
X429750D02*
D03*
X434750D02*
D03*
X439750D02*
D03*
X444750D02*
D03*
X449750D02*
D03*
D202*
X151000Y105750D02*
D03*
Y110750D02*
D03*
Y115750D02*
D03*
X151000Y120750D02*
D03*
Y125750D02*
D03*
Y130750D02*
D03*
X191000Y130750D02*
D03*
X191000Y125750D02*
D03*
Y120750D02*
D03*
X191000Y115750D02*
D03*
Y110750D02*
D03*
Y105750D02*
D03*
X457250Y64000D02*
D03*
Y59000D02*
D03*
Y54000D02*
D03*
X457250Y49000D02*
D03*
Y44000D02*
D03*
X457250Y39000D02*
D03*
X417250Y39000D02*
D03*
Y44000D02*
D03*
Y49000D02*
D03*
Y54000D02*
D03*
Y59000D02*
D03*
Y64000D02*
D03*
D203*
X184250Y199000D02*
D03*
Y229000D02*
D03*
X368000Y59500D02*
D03*
X368000Y29500D02*
D03*
D204*
X179000Y164500D02*
D03*
X149000D02*
D03*
X352250Y63250D02*
D03*
X322250D02*
D03*
D205*
X868053Y221130D02*
D03*
X848053D02*
D03*
X868046Y259581D02*
D03*
X848046D02*
D03*
X212750Y486000D02*
D03*
X192750Y486000D02*
D03*
D206*
X868623Y186991D02*
D03*
X854481Y201133D02*
D03*
X841440Y159797D02*
D03*
X827298Y173939D02*
D03*
D207*
X729938Y175784D02*
D03*
X744080Y189926D02*
D03*
X702744Y202967D02*
D03*
X716886Y217109D02*
D03*
D208*
X805891Y397155D02*
D03*
X815129Y393329D02*
D03*
X817945Y426258D02*
D03*
X827184Y422431D02*
D03*
D209*
X594000Y518500D02*
D03*
Y526500D02*
D03*
Y534500D02*
D03*
X594000Y542500D02*
D03*
X578000Y518500D02*
D03*
Y526500D02*
D03*
Y534500D02*
D03*
X578000Y542500D02*
D03*
X275500Y491250D02*
D03*
Y499250D02*
D03*
Y507250D02*
D03*
X275500Y515250D02*
D03*
X259500Y491250D02*
D03*
Y499250D02*
D03*
Y507250D02*
D03*
X259500Y515250D02*
D03*
X294000Y435000D02*
D03*
Y427000D02*
D03*
Y419000D02*
D03*
X294000Y411000D02*
D03*
X310000Y435000D02*
D03*
Y427000D02*
D03*
Y419000D02*
D03*
X310000Y411000D02*
D03*
D210*
X500750Y426250D02*
D03*
X508750D02*
D03*
X516750D02*
D03*
X524750Y426250D02*
D03*
X500750Y442250D02*
D03*
X508750D02*
D03*
X516750D02*
D03*
X524750Y442250D02*
D03*
X476750Y480750D02*
D03*
X484750D02*
D03*
X492750D02*
D03*
X500750Y480750D02*
D03*
X476750Y496750D02*
D03*
X484750D02*
D03*
X492750D02*
D03*
X500750Y496750D02*
D03*
X391000Y426750D02*
D03*
X399000D02*
D03*
X407000D02*
D03*
X415000D02*
D03*
X391000Y442750D02*
D03*
X399000D02*
D03*
X407000D02*
D03*
X415000D02*
D03*
D211*
X586000Y472000D02*
D03*
Y477000D02*
D03*
Y482000D02*
D03*
Y487000D02*
D03*
Y492000D02*
D03*
Y497000D02*
D03*
Y502000D02*
D03*
Y507000D02*
D03*
X569000Y472000D02*
D03*
Y477000D02*
D03*
Y482000D02*
D03*
Y487000D02*
D03*
X569000Y492000D02*
D03*
X569000Y497000D02*
D03*
Y502000D02*
D03*
Y507000D02*
D03*
X294000Y524750D02*
D03*
Y519750D02*
D03*
Y514750D02*
D03*
Y509750D02*
D03*
Y504750D02*
D03*
Y499750D02*
D03*
Y494750D02*
D03*
Y489750D02*
D03*
X311000Y524750D02*
D03*
Y519750D02*
D03*
Y514750D02*
D03*
Y509750D02*
D03*
X311000Y504750D02*
D03*
X311000Y499750D02*
D03*
Y494750D02*
D03*
Y489750D02*
D03*
X294000Y480750D02*
D03*
Y475750D02*
D03*
Y470750D02*
D03*
Y465750D02*
D03*
Y460750D02*
D03*
Y455750D02*
D03*
Y450750D02*
D03*
Y445750D02*
D03*
X311000Y480750D02*
D03*
Y475750D02*
D03*
Y470750D02*
D03*
Y465750D02*
D03*
X311000Y460750D02*
D03*
X311000Y455750D02*
D03*
Y450750D02*
D03*
Y445750D02*
D03*
D212*
X537500Y424750D02*
D03*
X542500D02*
D03*
X547500D02*
D03*
X552500D02*
D03*
X557500D02*
D03*
X562500D02*
D03*
X567500D02*
D03*
X572500D02*
D03*
X537500Y441750D02*
D03*
X542500D02*
D03*
X547500D02*
D03*
X552500D02*
D03*
X557500Y441750D02*
D03*
X562500Y441750D02*
D03*
X567500D02*
D03*
X572500D02*
D03*
X513000Y480250D02*
D03*
X518000D02*
D03*
X523000D02*
D03*
X528000D02*
D03*
X533000D02*
D03*
X538000D02*
D03*
X543000D02*
D03*
X548000D02*
D03*
X513000Y497250D02*
D03*
X518000D02*
D03*
X523000D02*
D03*
X528000D02*
D03*
X533000Y497250D02*
D03*
X538000Y497250D02*
D03*
X543000D02*
D03*
X548000D02*
D03*
X343500Y425250D02*
D03*
X348500D02*
D03*
X353500D02*
D03*
X358500D02*
D03*
X363500D02*
D03*
X368500D02*
D03*
X373500D02*
D03*
X378500D02*
D03*
X343500Y442250D02*
D03*
X348500D02*
D03*
X353500D02*
D03*
X358500D02*
D03*
X363500Y442250D02*
D03*
X368500Y442250D02*
D03*
X373500D02*
D03*
X378500D02*
D03*
D213*
X428750Y51500D02*
D03*
D214*
X443250D02*
D03*
D215*
X411000Y129250D02*
D03*
X330500D02*
D03*
D216*
X291250Y366250D02*
D03*
Y351250D02*
D03*
X303250Y366250D02*
D03*
Y351250D02*
D03*
X268500Y417000D02*
D03*
Y402000D02*
D03*
X280500Y417000D02*
D03*
Y402000D02*
D03*
X291250Y391000D02*
D03*
Y376000D02*
D03*
X303250Y391000D02*
D03*
Y376000D02*
D03*
X291250Y341250D02*
D03*
Y326250D02*
D03*
X303250Y341250D02*
D03*
Y326250D02*
D03*
X303250Y266000D02*
D03*
Y281000D02*
D03*
X291250Y266000D02*
D03*
Y281000D02*
D03*
X303250Y301000D02*
D03*
Y316000D02*
D03*
X291250Y301000D02*
D03*
Y316000D02*
D03*
D217*
X291250Y361250D02*
D03*
Y356250D02*
D03*
X303250Y361250D02*
D03*
Y356250D02*
D03*
X268500Y412000D02*
D03*
X268500Y407000D02*
D03*
X280500Y412000D02*
D03*
Y407000D02*
D03*
X291250Y386000D02*
D03*
Y381000D02*
D03*
X303250Y386000D02*
D03*
Y381000D02*
D03*
X291250Y336250D02*
D03*
Y331250D02*
D03*
X303250Y336250D02*
D03*
Y331250D02*
D03*
X303250Y271000D02*
D03*
X303250Y276000D02*
D03*
X291250Y271000D02*
D03*
Y276000D02*
D03*
X303250Y306000D02*
D03*
X303250Y311000D02*
D03*
X291250Y306000D02*
D03*
Y311000D02*
D03*
D218*
X196000Y369750D02*
D03*
X230000D02*
D03*
D219*
X727870Y155831D02*
D03*
X734941Y162902D02*
D03*
X843991Y191373D02*
D03*
X836920Y184302D02*
D03*
X712862Y192996D02*
D03*
X719933Y200067D02*
D03*
X847851Y393764D02*
D03*
X840780Y386693D02*
D03*
Y400835D02*
D03*
X833709Y393764D02*
D03*
X744454Y378478D02*
D03*
X751525Y385549D02*
D03*
X719933Y185925D02*
D03*
X727004Y192996D02*
D03*
X682585Y200796D02*
D03*
X689656Y207867D02*
D03*
X722534Y400398D02*
D03*
X729605Y407469D02*
D03*
X858840Y162382D02*
D03*
X865912Y169453D02*
D03*
D220*
X823166Y412730D02*
D03*
X819339Y403491D02*
D03*
X813927Y416557D02*
D03*
X810100Y407318D02*
D03*
D221*
X700912Y156014D02*
D03*
X691931Y164994D02*
D03*
X682951Y173975D02*
D03*
X660465Y151489D02*
D03*
X669445Y142508D02*
D03*
X678426Y133528D02*
D03*
X877762Y412785D02*
D03*
X868782Y421765D02*
D03*
X859801Y430745D02*
D03*
X882287Y453231D02*
D03*
X900248Y435271D02*
D03*
D222*
X727711Y221987D02*
D03*
X734782Y214916D02*
D03*
X748924Y200774D02*
D03*
X741853Y207845D02*
D03*
X855276Y401188D02*
D03*
X848205Y408259D02*
D03*
D223*
X888727Y184796D02*
D03*
X881656Y191867D02*
D03*
X843477Y139546D02*
D03*
X836406Y146617D02*
D03*
X851416Y169806D02*
D03*
X844345Y176877D02*
D03*
X858487Y176877D02*
D03*
X851416Y183948D02*
D03*
X729959Y392973D02*
D03*
X737030Y385902D02*
D03*
X826280Y386447D02*
D03*
X833351Y379376D02*
D03*
X737030Y400044D02*
D03*
X744101Y392973D02*
D03*
X705437Y185571D02*
D03*
X712508Y178500D02*
D03*
X734428Y200420D02*
D03*
X727357Y207491D02*
D03*
D224*
X762390Y415741D02*
D03*
X766617Y406678D02*
D03*
X753327Y411515D02*
D03*
X757553Y402452D02*
D03*
D225*
X761987Y393044D02*
D03*
X771050Y397270D02*
D03*
D226*
X822420Y184764D02*
D03*
X829491Y191835D02*
D03*
X843633Y205977D02*
D03*
X836562Y198906D02*
D03*
D227*
X757953Y425257D02*
D03*
X748890Y421031D02*
D03*
D228*
X892398Y161856D02*
D03*
X883417Y152876D02*
D03*
X874437Y143896D02*
D03*
X896923Y121410D02*
D03*
X905903Y130390D02*
D03*
X914883Y139370D02*
D03*
X699798Y412244D02*
D03*
X708778Y421225D02*
D03*
X717759Y430205D02*
D03*
X695273Y452691D02*
D03*
X686292Y443711D02*
D03*
X677312Y434730D02*
D03*
D229*
X765105Y144239D02*
D03*
X777805D02*
D03*
X790505D02*
D03*
X790505Y112439D02*
D03*
X765105Y112439D02*
D03*
X797960Y455024D02*
D03*
X785260D02*
D03*
X772560D02*
D03*
Y486824D02*
D03*
X797960D02*
D03*
D230*
X824054Y451470D02*
D03*
X835787Y446610D02*
D03*
X847520Y441750D02*
D03*
X859690Y471129D02*
D03*
X847956Y475989D02*
D03*
X836223Y480849D02*
D03*
D231*
X754746Y450354D02*
D03*
X743236Y444986D02*
D03*
X731726Y439619D02*
D03*
X718287Y468440D02*
D03*
X741307Y479174D02*
D03*
D232*
X902554Y235527D02*
D03*
Y248227D02*
D03*
Y260927D02*
D03*
X934354D02*
D03*
Y235527D02*
D03*
X896041Y341679D02*
D03*
Y354379D02*
D03*
Y367079D02*
D03*
X927841D02*
D03*
Y341679D02*
D03*
D233*
X104370Y288750D02*
D03*
X95630D02*
D03*
D234*
X104370Y298750D02*
D03*
Y293750D02*
D03*
Y283750D02*
D03*
Y278750D02*
D03*
X95630Y278750D02*
D03*
Y283750D02*
D03*
Y298750D02*
D03*
Y293750D02*
D03*
D235*
X376750Y562500D02*
D03*
D236*
X397750Y552500D02*
D03*
Y557500D02*
D03*
Y562500D02*
D03*
Y567500D02*
D03*
Y572500D02*
D03*
X355750Y552500D02*
D03*
Y557500D02*
D03*
Y562500D02*
D03*
Y567500D02*
D03*
D237*
Y572500D02*
D03*
D238*
X544500Y195500D02*
D03*
X534500D02*
D03*
X524500D02*
D03*
X514500D02*
D03*
X504500D02*
D03*
X494500D02*
D03*
X484500D02*
D03*
X474500D02*
D03*
X464500D02*
D03*
X454500D02*
D03*
X444500D02*
D03*
X434500D02*
D03*
X424500D02*
D03*
X414500D02*
D03*
X404500D02*
D03*
X394500D02*
D03*
X384500D02*
D03*
X374500D02*
D03*
X364500D02*
D03*
X354500D02*
D03*
X344500D02*
D03*
X334500D02*
D03*
X544500Y205500D02*
D03*
X534500D02*
D03*
X524500D02*
D03*
X514500D02*
D03*
X504500D02*
D03*
X494500D02*
D03*
X484500D02*
D03*
X474500D02*
D03*
X464500D02*
D03*
X454500D02*
D03*
X444500D02*
D03*
X434500D02*
D03*
X424500D02*
D03*
X414500D02*
D03*
X404500D02*
D03*
X394500D02*
D03*
X384500D02*
D03*
X374500D02*
D03*
X364500D02*
D03*
X354500D02*
D03*
X344500D02*
D03*
X334500D02*
D03*
X544500Y215500D02*
D03*
X534500D02*
D03*
X524500D02*
D03*
X514500D02*
D03*
X504500D02*
D03*
X494500D02*
D03*
X484500D02*
D03*
X474500D02*
D03*
X464500D02*
D03*
X454500D02*
D03*
X444500D02*
D03*
X434500D02*
D03*
X424500D02*
D03*
X414500D02*
D03*
X404500D02*
D03*
X394500D02*
D03*
X384500D02*
D03*
X374500D02*
D03*
X364500D02*
D03*
X354500D02*
D03*
X344500D02*
D03*
X334500D02*
D03*
X544500Y225500D02*
D03*
X534500D02*
D03*
X524500D02*
D03*
X514500D02*
D03*
X504500D02*
D03*
X494500D02*
D03*
X484500D02*
D03*
X474500D02*
D03*
X464500D02*
D03*
X454500D02*
D03*
X444500D02*
D03*
X434500D02*
D03*
X424500D02*
D03*
X414500D02*
D03*
X404500D02*
D03*
X394500D02*
D03*
X384500D02*
D03*
X374500D02*
D03*
X364500D02*
D03*
X354500D02*
D03*
X344500D02*
D03*
X334500D02*
D03*
X544500Y235500D02*
D03*
X534500D02*
D03*
X524500D02*
D03*
X514500D02*
D03*
X504500D02*
D03*
X494500D02*
D03*
X484500D02*
D03*
X474500D02*
D03*
X464500D02*
D03*
X454500D02*
D03*
X444500D02*
D03*
X434500D02*
D03*
X424500D02*
D03*
X414500D02*
D03*
X404500D02*
D03*
X394500D02*
D03*
X384500D02*
D03*
X374500D02*
D03*
X364500D02*
D03*
X354500D02*
D03*
X344500D02*
D03*
X334500D02*
D03*
X544500Y245500D02*
D03*
X534500D02*
D03*
X524500D02*
D03*
X514500D02*
D03*
X504500D02*
D03*
X494500D02*
D03*
X484500D02*
D03*
X474500D02*
D03*
X464500D02*
D03*
X454500D02*
D03*
X444500D02*
D03*
X434500D02*
D03*
X424500D02*
D03*
X414500D02*
D03*
X404500D02*
D03*
X394500D02*
D03*
X384500D02*
D03*
X374500D02*
D03*
X364500D02*
D03*
X354500D02*
D03*
X344500D02*
D03*
X334500D02*
D03*
X544500Y255500D02*
D03*
X534500D02*
D03*
X524500D02*
D03*
X514500D02*
D03*
X504500D02*
D03*
X494500D02*
D03*
X484500D02*
D03*
X474500D02*
D03*
X464500D02*
D03*
X454500D02*
D03*
X444500D02*
D03*
X434500D02*
D03*
X424500D02*
D03*
X414500D02*
D03*
X404500D02*
D03*
X394500D02*
D03*
X384500D02*
D03*
X374500D02*
D03*
X364500D02*
D03*
X354500D02*
D03*
X344500D02*
D03*
X334500D02*
D03*
X544500Y265500D02*
D03*
X534500D02*
D03*
X524500D02*
D03*
X514500D02*
D03*
X504500D02*
D03*
X494500D02*
D03*
X484500D02*
D03*
X474500D02*
D03*
X464500D02*
D03*
X454500D02*
D03*
X444500D02*
D03*
X434500D02*
D03*
X424500D02*
D03*
X414500D02*
D03*
X404500D02*
D03*
X394500D02*
D03*
X384500D02*
D03*
X374500D02*
D03*
X364500D02*
D03*
X354500D02*
D03*
X344500D02*
D03*
X334500D02*
D03*
X544500Y275500D02*
D03*
X534500D02*
D03*
X524500D02*
D03*
X514500D02*
D03*
X504500D02*
D03*
X494500D02*
D03*
X484500D02*
D03*
X474500D02*
D03*
X464500D02*
D03*
X454500D02*
D03*
X444500D02*
D03*
X434500D02*
D03*
X424500D02*
D03*
X414500D02*
D03*
X404500D02*
D03*
X394500D02*
D03*
X384500D02*
D03*
X374500D02*
D03*
X364500D02*
D03*
X354500D02*
D03*
X344500D02*
D03*
X334500D02*
D03*
X544500Y285500D02*
D03*
X534500D02*
D03*
X524500D02*
D03*
X514500D02*
D03*
X504500D02*
D03*
X494500D02*
D03*
X484500D02*
D03*
X474500D02*
D03*
X464500D02*
D03*
X454500D02*
D03*
X444500D02*
D03*
X434500D02*
D03*
X424500D02*
D03*
X414500D02*
D03*
X404500D02*
D03*
X394500D02*
D03*
X384500D02*
D03*
X374500D02*
D03*
X364500D02*
D03*
X354500D02*
D03*
X344500D02*
D03*
X334500D02*
D03*
X544500Y295500D02*
D03*
X534500D02*
D03*
X524500D02*
D03*
X514500D02*
D03*
X504500D02*
D03*
X494500D02*
D03*
X484500D02*
D03*
X474500D02*
D03*
X464500D02*
D03*
X454500D02*
D03*
X444500D02*
D03*
X434500D02*
D03*
X424500D02*
D03*
X414500D02*
D03*
X404500D02*
D03*
X394500D02*
D03*
X384500D02*
D03*
X374500D02*
D03*
X364500D02*
D03*
X354500D02*
D03*
X344500D02*
D03*
X334500D02*
D03*
X544500Y305500D02*
D03*
X534500D02*
D03*
X524500D02*
D03*
X514500D02*
D03*
X504500D02*
D03*
X494500D02*
D03*
X484500D02*
D03*
X474500D02*
D03*
X464500D02*
D03*
X454500D02*
D03*
X444500D02*
D03*
X434500D02*
D03*
X424500D02*
D03*
X414500D02*
D03*
X404500D02*
D03*
X394500D02*
D03*
X384500D02*
D03*
X374500D02*
D03*
X364500D02*
D03*
X354500D02*
D03*
X344500D02*
D03*
X334500D02*
D03*
X544500Y315500D02*
D03*
X534500D02*
D03*
X524500D02*
D03*
X514500D02*
D03*
X504500D02*
D03*
X494500D02*
D03*
X484500D02*
D03*
X474500D02*
D03*
X464500D02*
D03*
X454500D02*
D03*
X444500D02*
D03*
X434500D02*
D03*
X424500D02*
D03*
X414500D02*
D03*
X404500D02*
D03*
X394500D02*
D03*
X384500D02*
D03*
X374500D02*
D03*
X364500D02*
D03*
X354500D02*
D03*
X344500D02*
D03*
X334500D02*
D03*
X544500Y325500D02*
D03*
X534500D02*
D03*
X524500D02*
D03*
X514500D02*
D03*
X504500D02*
D03*
X494500D02*
D03*
X484500D02*
D03*
X474500D02*
D03*
X464500D02*
D03*
X454500D02*
D03*
X444500D02*
D03*
X434500D02*
D03*
X424500D02*
D03*
X414500D02*
D03*
X404500D02*
D03*
X394500D02*
D03*
X384500D02*
D03*
X374500D02*
D03*
X364500D02*
D03*
X354500D02*
D03*
X344500D02*
D03*
X334500D02*
D03*
X544500Y335500D02*
D03*
X534500D02*
D03*
X524500D02*
D03*
X514500D02*
D03*
X504500D02*
D03*
X494500D02*
D03*
X484500D02*
D03*
X474500D02*
D03*
X464500D02*
D03*
X454500D02*
D03*
X444500D02*
D03*
X434500D02*
D03*
X424500D02*
D03*
X414500D02*
D03*
X404500D02*
D03*
X394500D02*
D03*
X384500D02*
D03*
X374500D02*
D03*
X364500D02*
D03*
X354500D02*
D03*
X344500D02*
D03*
X334500D02*
D03*
X544500Y345500D02*
D03*
X534500D02*
D03*
X524500D02*
D03*
X514500D02*
D03*
X504500D02*
D03*
X494500D02*
D03*
X484500D02*
D03*
X474500D02*
D03*
X464500D02*
D03*
X454500D02*
D03*
X444500D02*
D03*
X434500D02*
D03*
X424500D02*
D03*
X414500D02*
D03*
X404500D02*
D03*
X394500D02*
D03*
X384500D02*
D03*
X374500D02*
D03*
X364500D02*
D03*
X354500D02*
D03*
X344500D02*
D03*
X334500D02*
D03*
X544500Y355500D02*
D03*
X534500D02*
D03*
X524500D02*
D03*
X514500D02*
D03*
X504500D02*
D03*
X494500D02*
D03*
X484500D02*
D03*
X474500D02*
D03*
X464500D02*
D03*
X454500D02*
D03*
X444500D02*
D03*
X434500D02*
D03*
X424500D02*
D03*
X414500D02*
D03*
X404500D02*
D03*
X394500D02*
D03*
X384500D02*
D03*
X374500D02*
D03*
X364500D02*
D03*
X354500D02*
D03*
X344500D02*
D03*
X334500D02*
D03*
X544500Y365500D02*
D03*
X534500D02*
D03*
X524500D02*
D03*
X514500D02*
D03*
X504500D02*
D03*
X494500D02*
D03*
X484500D02*
D03*
X474500D02*
D03*
X464500D02*
D03*
X454500D02*
D03*
X444500D02*
D03*
X434500D02*
D03*
X424500D02*
D03*
X414500D02*
D03*
X404500D02*
D03*
X394500D02*
D03*
X384500D02*
D03*
X374500D02*
D03*
X364500D02*
D03*
X354500D02*
D03*
X344500D02*
D03*
X334500D02*
D03*
X544500Y375500D02*
D03*
X534500D02*
D03*
X524500D02*
D03*
X514500D02*
D03*
X504500D02*
D03*
X494500D02*
D03*
X484500D02*
D03*
X474500D02*
D03*
X464500D02*
D03*
X454500D02*
D03*
X444500D02*
D03*
X434500D02*
D03*
X424500D02*
D03*
X414500D02*
D03*
X404500D02*
D03*
X394500D02*
D03*
X384500D02*
D03*
X374500D02*
D03*
X364500D02*
D03*
X354500D02*
D03*
X344500D02*
D03*
X334500D02*
D03*
X544500Y385500D02*
D03*
X534500D02*
D03*
X524500D02*
D03*
X514500D02*
D03*
X504500D02*
D03*
X494500D02*
D03*
X484500D02*
D03*
X474500D02*
D03*
X464500D02*
D03*
X454500D02*
D03*
X444500D02*
D03*
X434500D02*
D03*
X424500D02*
D03*
X414500D02*
D03*
X404500D02*
D03*
X394500D02*
D03*
X384500D02*
D03*
X374500D02*
D03*
X364500D02*
D03*
X354500D02*
D03*
X344500D02*
D03*
X334500D02*
D03*
X544500Y395500D02*
D03*
X534500D02*
D03*
X524500D02*
D03*
X514500D02*
D03*
X504500D02*
D03*
X494500D02*
D03*
X484500D02*
D03*
X474500D02*
D03*
X464500D02*
D03*
X454500D02*
D03*
X444500D02*
D03*
X434500D02*
D03*
X424500D02*
D03*
X414500D02*
D03*
X404500D02*
D03*
X394500D02*
D03*
X384500D02*
D03*
X374500D02*
D03*
X364500D02*
D03*
X354500D02*
D03*
X344500D02*
D03*
X334500D02*
D03*
X544500Y405500D02*
D03*
X534500D02*
D03*
X524500D02*
D03*
X514500D02*
D03*
X504500D02*
D03*
X494500D02*
D03*
X484500D02*
D03*
X474500D02*
D03*
X464500D02*
D03*
X454500D02*
D03*
X444500D02*
D03*
X434500D02*
D03*
X424500D02*
D03*
X414500D02*
D03*
X404500D02*
D03*
X394500D02*
D03*
X384500D02*
D03*
X374500D02*
D03*
X364500D02*
D03*
X354500D02*
D03*
X344500D02*
D03*
X334500D02*
D03*
D239*
X631000Y506750D02*
D03*
D240*
X990000Y452000D02*
D03*
Y147500D02*
D03*
D241*
X631000Y92750D02*
D03*
D242*
Y297250D02*
D03*
D243*
X-64375Y-64375D02*
D03*
Y664375D02*
D03*
X1064375Y-64375D02*
D03*
Y664375D02*
D03*
D244*
X48000Y260000D02*
D03*
Y280000D02*
D03*
Y300000D02*
D03*
X48000Y320000D02*
D03*
X48000Y340000D02*
D03*
Y330000D02*
D03*
Y310000D02*
D03*
Y290000D02*
D03*
Y270000D02*
D03*
D245*
X554550Y571000D02*
D03*
X13350Y193500D02*
D03*
D246*
X579950Y571000D02*
D03*
X38750Y193500D02*
D03*
X64150D02*
D03*
D247*
X961500Y561500D02*
D03*
X38500Y38500D02*
D03*
Y561500D02*
D03*
X961500Y38500D02*
D03*
D248*
X376750Y562500D02*
D03*
X372000Y568750D02*
D03*
X381500D02*
D03*
Y556250D02*
D03*
X372000D02*
D03*
D249*
X49500Y461500D02*
D03*
X74500D02*
D03*
Y415250D02*
D03*
X49500D02*
D03*
D250*
X49500Y486500D02*
D03*
X74500D02*
D03*
Y440250D02*
D03*
X49500D02*
D03*
D251*
X42000Y117000D02*
D03*
D252*
X92000D02*
D03*
D253*
X66750Y90000D02*
D03*
D254*
X59000Y391000D02*
D03*
X600000Y571250D02*
D03*
D255*
X46300Y391000D02*
D03*
X612700Y571250D02*
D03*
D256*
X24000Y359000D02*
D03*
Y242000D02*
D03*
M02*
