G04 Layer_Color=16711935*
%FSLAX44Y44*%
%MOMM*%
G71*
G01*
G75*
%ADD81C,0.3500*%
%ADD123C,0.5000*%
%ADD153R,2.7000X2.7000*%
G04:AMPARAMS|DCode=177|XSize=0.7mm|YSize=0.7mm|CornerRadius=0.11mm|HoleSize=0mm|Usage=FLASHONLY|Rotation=0.000|XOffset=0mm|YOffset=0mm|HoleType=Round|Shape=RoundedRectangle|*
%AMROUNDEDRECTD177*
21,1,0.7000,0.4800,0,0,0.0*
21,1,0.4800,0.7000,0,0,0.0*
1,1,0.2200,0.2400,-0.2400*
1,1,0.2200,-0.2400,-0.2400*
1,1,0.2200,-0.2400,0.2400*
1,1,0.2200,0.2400,0.2400*
%
%ADD177ROUNDEDRECTD177*%
G04:AMPARAMS|DCode=178|XSize=1.1mm|YSize=1mm|CornerRadius=0.1625mm|HoleSize=0mm|Usage=FLASHONLY|Rotation=0.000|XOffset=0mm|YOffset=0mm|HoleType=Round|Shape=RoundedRectangle|*
%AMROUNDEDRECTD178*
21,1,1.1000,0.6750,0,0,0.0*
21,1,0.7750,1.0000,0,0,0.0*
1,1,0.3250,0.3875,-0.3375*
1,1,0.3250,-0.3875,-0.3375*
1,1,0.3250,-0.3875,0.3375*
1,1,0.3250,0.3875,0.3375*
%
%ADD178ROUNDEDRECTD178*%
G04:AMPARAMS|DCode=179|XSize=1.1mm|YSize=1mm|CornerRadius=0.1625mm|HoleSize=0mm|Usage=FLASHONLY|Rotation=270.000|XOffset=0mm|YOffset=0mm|HoleType=Round|Shape=RoundedRectangle|*
%AMROUNDEDRECTD179*
21,1,1.1000,0.6750,0,0,270.0*
21,1,0.7750,1.0000,0,0,270.0*
1,1,0.3250,-0.3375,-0.3875*
1,1,0.3250,-0.3375,0.3875*
1,1,0.3250,0.3375,0.3875*
1,1,0.3250,0.3375,-0.3875*
%
%ADD179ROUNDEDRECTD179*%
G04:AMPARAMS|DCode=181|XSize=0.7mm|YSize=0.7mm|CornerRadius=0.11mm|HoleSize=0mm|Usage=FLASHONLY|Rotation=90.000|XOffset=0mm|YOffset=0mm|HoleType=Round|Shape=RoundedRectangle|*
%AMROUNDEDRECTD181*
21,1,0.7000,0.4800,0,0,90.0*
21,1,0.4800,0.7000,0,0,90.0*
1,1,0.2200,0.2400,0.2400*
1,1,0.2200,0.2400,-0.2400*
1,1,0.2200,-0.2400,-0.2400*
1,1,0.2200,-0.2400,0.2400*
%
%ADD181ROUNDEDRECTD181*%
%ADD182R,2.3000X0.6500*%
%ADD184R,0.6500X2.3000*%
G04:AMPARAMS|DCode=186|XSize=0.6mm|YSize=0.7mm|CornerRadius=0.1mm|HoleSize=0mm|Usage=FLASHONLY|Rotation=270.000|XOffset=0mm|YOffset=0mm|HoleType=Round|Shape=RoundedRectangle|*
%AMROUNDEDRECTD186*
21,1,0.6000,0.5000,0,0,270.0*
21,1,0.4000,0.7000,0,0,270.0*
1,1,0.2000,-0.2500,-0.2000*
1,1,0.2000,-0.2500,0.2000*
1,1,0.2000,0.2500,0.2000*
1,1,0.2000,0.2500,-0.2000*
%
%ADD186ROUNDEDRECTD186*%
G04:AMPARAMS|DCode=187|XSize=0.6mm|YSize=0.7mm|CornerRadius=0.1mm|HoleSize=0mm|Usage=FLASHONLY|Rotation=0.000|XOffset=0mm|YOffset=0mm|HoleType=Round|Shape=RoundedRectangle|*
%AMROUNDEDRECTD187*
21,1,0.6000,0.5000,0,0,0.0*
21,1,0.4000,0.7000,0,0,0.0*
1,1,0.2000,0.2000,-0.2500*
1,1,0.2000,-0.2000,-0.2500*
1,1,0.2000,-0.2000,0.2500*
1,1,0.2000,0.2000,0.2500*
%
%ADD187ROUNDEDRECTD187*%
%ADD191R,0.4500X0.4000*%
%ADD192R,0.4000X0.4500*%
G04:AMPARAMS|DCode=197|XSize=1.4mm|YSize=0.9mm|CornerRadius=0.15mm|HoleSize=0mm|Usage=FLASHONLY|Rotation=180.000|XOffset=0mm|YOffset=0mm|HoleType=Round|Shape=RoundedRectangle|*
%AMROUNDEDRECTD197*
21,1,1.4000,0.6000,0,0,180.0*
21,1,1.1000,0.9000,0,0,180.0*
1,1,0.3000,-0.5500,0.3000*
1,1,0.3000,0.5500,0.3000*
1,1,0.3000,0.5500,-0.3000*
1,1,0.3000,-0.5500,-0.3000*
%
%ADD197ROUNDEDRECTD197*%
G04:AMPARAMS|DCode=203|XSize=1.9mm|YSize=1.25mm|CornerRadius=0.1938mm|HoleSize=0mm|Usage=FLASHONLY|Rotation=0.000|XOffset=0mm|YOffset=0mm|HoleType=Round|Shape=RoundedRectangle|*
%AMROUNDEDRECTD203*
21,1,1.9000,0.8625,0,0,0.0*
21,1,1.5125,1.2500,0,0,0.0*
1,1,0.3875,0.7562,-0.4313*
1,1,0.3875,-0.7562,-0.4313*
1,1,0.3875,-0.7562,0.4313*
1,1,0.3875,0.7562,0.4313*
%
%ADD203ROUNDEDRECTD203*%
G04:AMPARAMS|DCode=204|XSize=1.9mm|YSize=1.25mm|CornerRadius=0.1938mm|HoleSize=0mm|Usage=FLASHONLY|Rotation=90.000|XOffset=0mm|YOffset=0mm|HoleType=Round|Shape=RoundedRectangle|*
%AMROUNDEDRECTD204*
21,1,1.9000,0.8625,0,0,90.0*
21,1,1.5125,1.2500,0,0,90.0*
1,1,0.3875,0.4313,0.7562*
1,1,0.3875,0.4313,-0.7562*
1,1,0.3875,-0.4313,-0.7562*
1,1,0.3875,-0.4313,0.7562*
%
%ADD204ROUNDEDRECTD204*%
G04:AMPARAMS|DCode=205|XSize=1.4mm|YSize=0.9mm|CornerRadius=0.15mm|HoleSize=0mm|Usage=FLASHONLY|Rotation=90.000|XOffset=0mm|YOffset=0mm|HoleType=Round|Shape=RoundedRectangle|*
%AMROUNDEDRECTD205*
21,1,1.4000,0.6000,0,0,90.0*
21,1,1.1000,0.9000,0,0,90.0*
1,1,0.3000,0.3000,0.5500*
1,1,0.3000,0.3000,-0.5500*
1,1,0.3000,-0.3000,-0.5500*
1,1,0.3000,-0.3000,0.5500*
%
%ADD205ROUNDEDRECTD205*%
%ADD216R,0.7000X0.5500*%
%ADD217R,0.7000X0.4000*%
G04:AMPARAMS|DCode=222|XSize=0.7mm|YSize=0.7mm|CornerRadius=0.11mm|HoleSize=0mm|Usage=FLASHONLY|Rotation=225.000|XOffset=0mm|YOffset=0mm|HoleType=Round|Shape=RoundedRectangle|*
%AMROUNDEDRECTD222*
21,1,0.7000,0.4800,0,0,225.0*
21,1,0.4800,0.7000,0,0,225.0*
1,1,0.2200,-0.3394,0.0000*
1,1,0.2200,0.0000,0.3394*
1,1,0.2200,0.3394,0.0000*
1,1,0.2200,0.0000,-0.3394*
%
%ADD222ROUNDEDRECTD222*%
%ADD243C,3.0000*%
G04:AMPARAMS|DCode=245|XSize=1.624mm|YSize=1.624mm|CornerRadius=0.2405mm|HoleSize=0mm|Usage=FLASHONLY|Rotation=90.000|XOffset=0mm|YOffset=0mm|HoleType=Round|Shape=RoundedRectangle|*
%AMROUNDEDRECTD245*
21,1,1.6240,1.1430,0,0,90.0*
21,1,1.1430,1.6240,0,0,90.0*
1,1,0.4810,0.5715,0.5715*
1,1,0.4810,0.5715,-0.5715*
1,1,0.4810,-0.5715,-0.5715*
1,1,0.4810,-0.5715,0.5715*
%
%ADD245ROUNDEDRECTD245*%
%ADD246C,1.7000*%
%ADD247C,5.1000*%
G04:AMPARAMS|DCode=249|XSize=1.5mm|YSize=1.5mm|CornerRadius=0.4mm|HoleSize=0mm|Usage=FLASHONLY|Rotation=90.000|XOffset=0mm|YOffset=0mm|HoleType=Round|Shape=RoundedRectangle|*
%AMROUNDEDRECTD249*
21,1,1.5000,0.7000,0,0,90.0*
21,1,0.7000,1.5000,0,0,90.0*
1,1,0.8000,0.3500,0.3500*
1,1,0.8000,0.3500,-0.3500*
1,1,0.8000,-0.3500,-0.3500*
1,1,0.8000,-0.3500,0.3500*
%
%ADD249ROUNDEDRECTD249*%
%ADD250C,1.5000*%
%ADD251O,2.1000X3.9000*%
%ADD252O,2.3000X4.1000*%
%ADD253O,4.1000X2.1000*%
G04:AMPARAMS|DCode=254|XSize=1.3mm|YSize=1.2mm|CornerRadius=0.1875mm|HoleSize=0mm|Usage=FLASHONLY|Rotation=270.000|XOffset=0mm|YOffset=0mm|HoleType=Round|Shape=RoundedRectangle|*
%AMROUNDEDRECTD254*
21,1,1.3000,0.8250,0,0,270.0*
21,1,0.9250,1.2000,0,0,270.0*
1,1,0.3750,-0.4125,-0.4625*
1,1,0.3750,-0.4125,0.4625*
1,1,0.3750,0.4125,0.4625*
1,1,0.3750,0.4125,-0.4625*
%
%ADD254ROUNDEDRECTD254*%
%ADD255O,1.2000X1.3000*%
%ADD256O,4.1000X1.7000*%
G04:AMPARAMS|DCode=257|XSize=1.9mm|YSize=1.25mm|CornerRadius=0.1938mm|HoleSize=0mm|Usage=FLASHONLY|Rotation=315.000|XOffset=0mm|YOffset=0mm|HoleType=Round|Shape=RoundedRectangle|*
%AMROUNDEDRECTD257*
21,1,1.9000,0.8625,0,0,315.0*
21,1,1.5125,1.2500,0,0,315.0*
1,1,0.3875,0.2298,-0.8397*
1,1,0.3875,-0.8397,0.2298*
1,1,0.3875,-0.2298,0.8397*
1,1,0.3875,0.8397,-0.2298*
%
%ADD257ROUNDEDRECTD257*%
%ADD258R,0.7500X0.3000*%
%ADD259R,0.3000X0.8500*%
%ADD260R,0.3000X0.7500*%
%ADD261R,2.2000X2.2000*%
%ADD262R,0.4000X0.8000*%
%ADD263R,0.8000X0.4000*%
%ADD264R,2.6400X1.3700*%
%ADD265R,1.3000X1.6000*%
%ADD266R,1.0000X1.5000*%
G04:AMPARAMS|DCode=267|XSize=0.4mm|YSize=0.45mm|CornerRadius=0mm|HoleSize=0mm|Usage=FLASHONLY|Rotation=135.000|XOffset=0mm|YOffset=0mm|HoleType=Round|Shape=Rectangle|*
%AMROTATEDRECTD267*
4,1,4,0.3005,0.0177,-0.0177,-0.3005,-0.3005,-0.0177,0.0177,0.3005,0.3005,0.0177,0.0*
%
%ADD267ROTATEDRECTD267*%

G04:AMPARAMS|DCode=268|XSize=0.4mm|YSize=0.45mm|CornerRadius=0mm|HoleSize=0mm|Usage=FLASHONLY|Rotation=225.000|XOffset=0mm|YOffset=0mm|HoleType=Round|Shape=Rectangle|*
%AMROTATEDRECTD268*
4,1,4,-0.0177,0.3005,0.3005,-0.0177,0.0177,-0.3005,-0.3005,0.0177,-0.0177,0.3005,0.0*
%
%ADD268ROTATEDRECTD268*%

%ADD269C,0.3000*%
%ADD270R,1.5000X0.5500*%
G04:AMPARAMS|DCode=271|XSize=1.5mm|YSize=1.3mm|CornerRadius=0.2mm|HoleSize=0mm|Usage=FLASHONLY|Rotation=0.000|XOffset=0mm|YOffset=0mm|HoleType=Round|Shape=RoundedRectangle|*
%AMROUNDEDRECTD271*
21,1,1.5000,0.9000,0,0,0.0*
21,1,1.1000,1.3000,0,0,0.0*
1,1,0.4000,0.5500,-0.4500*
1,1,0.4000,-0.5500,-0.4500*
1,1,0.4000,-0.5500,0.4500*
1,1,0.4000,0.5500,0.4500*
%
%ADD271ROUNDEDRECTD271*%
%ADD272O,1.0000X0.3500*%
%ADD273O,0.3500X1.0000*%
G04:AMPARAMS|DCode=274|XSize=1.9mm|YSize=1.3mm|CornerRadius=0.2mm|HoleSize=0mm|Usage=FLASHONLY|Rotation=180.000|XOffset=0mm|YOffset=0mm|HoleType=Round|Shape=RoundedRectangle|*
%AMROUNDEDRECTD274*
21,1,1.9000,0.9000,0,0,180.0*
21,1,1.5000,1.3000,0,0,180.0*
1,1,0.4000,-0.7500,0.4500*
1,1,0.4000,0.7500,0.4500*
1,1,0.4000,0.7500,-0.4500*
1,1,0.4000,-0.7500,-0.4500*
%
%ADD274ROUNDEDRECTD274*%
%ADD275C,0.5500*%
%ADD276R,1.3500X1.3500*%
%ADD277R,0.4000X0.9000*%
%ADD278R,0.9000X0.4000*%
%ADD279R,2.8000X2.8000*%
%ADD280R,0.9000X0.3500*%
%ADD281R,0.3500X0.9000*%
G04:AMPARAMS|DCode=282|XSize=0.7mm|YSize=1.1mm|CornerRadius=0.125mm|HoleSize=0mm|Usage=FLASHONLY|Rotation=90.000|XOffset=0mm|YOffset=0mm|HoleType=Round|Shape=RoundedRectangle|*
%AMROUNDEDRECTD282*
21,1,0.7000,0.8500,0,0,90.0*
21,1,0.4500,1.1000,0,0,90.0*
1,1,0.2500,0.4250,0.2250*
1,1,0.2500,0.4250,-0.2250*
1,1,0.2500,-0.4250,-0.2250*
1,1,0.2500,-0.4250,0.2250*
%
%ADD282ROUNDEDRECTD282*%
G36*
X785604Y279288D02*
X785698Y279260D01*
X785785Y279213D01*
X785861Y279151D01*
X785924Y279074D01*
X785970Y278988D01*
X785999Y278893D01*
X786008Y278795D01*
Y273545D01*
X785999Y273447D01*
X785970Y273353D01*
X785924Y273266D01*
X785861Y273190D01*
X785785Y273128D01*
X785698Y273081D01*
X785604Y273053D01*
X785506Y273043D01*
X769256D01*
X769158Y273053D01*
X769064Y273081D01*
X768977Y273128D01*
X768901Y273190D01*
X768838Y273266D01*
X768792Y273353D01*
X768763Y273447D01*
X768754Y273545D01*
Y278795D01*
X768763Y278893D01*
X768792Y278988D01*
X768838Y279074D01*
X768901Y279151D01*
X768977Y279213D01*
X769064Y279260D01*
X769158Y279288D01*
X769256Y279298D01*
X785506D01*
X785604Y279288D01*
D02*
G37*
G36*
X14500Y598752D02*
X988000Y598752D01*
X988673D01*
X988706Y598750D01*
X988739D01*
X988772Y598746D01*
X988804Y598744D01*
X988836Y598737D01*
X988869Y598733D01*
X990849Y598339D01*
X990881Y598330D01*
X990913Y598324D01*
X990944Y598314D01*
X990976Y598305D01*
X991006Y598293D01*
X991037Y598282D01*
X992903Y597509D01*
X992932Y597495D01*
X992962Y597482D01*
X992991Y597466D01*
X993020Y597451D01*
X993047Y597433D01*
X993076Y597417D01*
X994755Y596295D01*
X994781Y596275D01*
X994808Y596257D01*
X994833Y596235D01*
X994859Y596215D01*
X994882Y596192D01*
X994906Y596170D01*
X996334Y594743D01*
X996356Y594718D01*
X996379Y594695D01*
X996399Y594669D01*
X996421Y594644D01*
X996439Y594617D01*
X996459Y594591D01*
X997581Y592912D01*
X997597Y592883D01*
X997615Y592856D01*
X997630Y592827D01*
X997646Y592798D01*
X997659Y592768D01*
X997673Y592739D01*
X998446Y590873D01*
X998456Y590842D01*
X998469Y590812D01*
X998477Y590780D01*
X998488Y590749D01*
X998494Y590717D01*
X998503Y590685D01*
X998897Y588705D01*
X998901Y588672D01*
X998907Y588640D01*
X998910Y588608D01*
X998914Y588575D01*
Y588542D01*
X998916Y588509D01*
Y587500D01*
Y584750D01*
X998907Y584619D01*
X998882Y584491D01*
X998840Y584366D01*
X998782Y584249D01*
X998709Y584140D01*
X998623Y584041D01*
X998524Y583955D01*
X998415Y583882D01*
X998297Y583824D01*
X998173Y583782D01*
X998045Y583756D01*
X997914Y583748D01*
X997722D01*
X997721Y452080D01*
X997774Y452045D01*
X997872Y451959D01*
X997959Y451860D01*
X998032Y451751D01*
X998090Y451633D01*
X998132Y451509D01*
X998157Y451381D01*
X998166Y451250D01*
X998166Y16220D01*
X998173Y16218D01*
X998297Y16176D01*
X998415Y16118D01*
X998524Y16045D01*
X998623Y15959D01*
X998709Y15860D01*
X998782Y15751D01*
X998840Y15633D01*
X998882Y15509D01*
X998907Y15381D01*
X998916Y15250D01*
Y12500D01*
Y11490D01*
X998914Y11458D01*
Y11425D01*
X998910Y11392D01*
X998907Y11360D01*
X998901Y11328D01*
X998897Y11295D01*
X998503Y9315D01*
X998494Y9283D01*
X998488Y9251D01*
X998477Y9220D01*
X998469Y9188D01*
X998456Y9158D01*
X998446Y9127D01*
X997673Y7261D01*
X997659Y7232D01*
X997646Y7202D01*
X997630Y7173D01*
X997615Y7144D01*
X997597Y7116D01*
X997581Y7088D01*
X996459Y5409D01*
X996439Y5383D01*
X996421Y5356D01*
X996399Y5331D01*
X996379Y5305D01*
X996356Y5282D01*
X996334Y5257D01*
X994906Y3830D01*
X994882Y3808D01*
X994859Y3785D01*
X994833Y3765D01*
X994808Y3743D01*
X994781Y3725D01*
X994755Y3705D01*
X993076Y2583D01*
X993047Y2567D01*
X993020Y2549D01*
X992991Y2534D01*
X992962Y2518D01*
X992932Y2505D01*
X992903Y2491D01*
X991037Y1718D01*
X991006Y1708D01*
X990976Y1695D01*
X990944Y1686D01*
X990913Y1676D01*
X990881Y1670D01*
X990849Y1661D01*
X988869Y1267D01*
X988836Y1263D01*
X988804Y1257D01*
X988772Y1254D01*
X988739Y1250D01*
X988706D01*
X988673Y1248D01*
X988000D01*
X14500Y1248D01*
D01*
X11490D01*
X11458Y1250D01*
X11425D01*
X11392Y1254D01*
X11360Y1256D01*
X11328Y1263D01*
X11295Y1267D01*
X9315Y1661D01*
X9283Y1669D01*
X9251Y1676D01*
X9220Y1686D01*
X9188Y1695D01*
X9158Y1707D01*
X9127Y1718D01*
X7261Y2491D01*
X7232Y2505D01*
X7201Y2518D01*
X7173Y2534D01*
X7144Y2549D01*
X7117Y2567D01*
X7088Y2583D01*
X5409Y3705D01*
X5383Y3725D01*
X5356Y3743D01*
X5331Y3765D01*
X5305Y3785D01*
X5282Y3808D01*
X5257Y3830D01*
X3830Y5257D01*
X3808Y5282D01*
X3785Y5305D01*
X3765Y5331D01*
X3743Y5356D01*
X3725Y5383D01*
X3705Y5409D01*
X2583Y7088D01*
X2567Y7116D01*
X2549Y7144D01*
X2534Y7173D01*
X2518Y7201D01*
X2505Y7232D01*
X2491Y7261D01*
X1718Y9127D01*
X1708Y9158D01*
X1695Y9188D01*
X1686Y9220D01*
X1676Y9251D01*
X1670Y9283D01*
X1661Y9315D01*
X1267Y11295D01*
X1263Y11328D01*
X1256Y11360D01*
X1254Y11392D01*
X1250Y11425D01*
Y11458D01*
X1248Y11490D01*
Y12500D01*
Y15250D01*
X1256Y15381D01*
X1282Y15509D01*
X1324Y15633D01*
X1382Y15751D01*
X1455Y15860D01*
X1541Y15959D01*
X1640Y16045D01*
X1748Y16117D01*
X1748Y45000D01*
X1757Y45098D01*
X1786Y45192D01*
X1832Y45279D01*
X1895Y45355D01*
X1971Y45418D01*
X2058Y45464D01*
X2152Y45493D01*
X2250Y45502D01*
X15449D01*
X15453Y45502D01*
X15458Y45502D01*
X15503Y45497D01*
X15547Y45493D01*
X15551Y45491D01*
X15556Y45491D01*
X15599Y45477D01*
X15641Y45464D01*
X15645Y45462D01*
X15650Y45460D01*
X15689Y45439D01*
X15728Y45418D01*
X15732Y45415D01*
X15736Y45412D01*
X15769Y45384D01*
X15804Y45355D01*
X15807Y45352D01*
X15811Y45348D01*
X15838Y45314D01*
X15866Y45279D01*
X15869Y45275D01*
X15872Y45271D01*
X34474Y16252D01*
X968997Y16252D01*
Y25750D01*
X969007Y25848D01*
X969036Y25942D01*
X969082Y26029D01*
X969145Y26105D01*
X969221Y26168D01*
X969308Y26214D01*
X969402Y26243D01*
X969500Y26252D01*
X980498D01*
X980498Y450747D01*
X929208Y450748D01*
X881502Y403042D01*
Y385500D01*
X881493Y385402D01*
X881464Y385308D01*
X881418Y385221D01*
X881355Y385145D01*
X881355Y385145D01*
X873105Y376895D01*
X873029Y376832D01*
X872942Y376786D01*
X872920Y376779D01*
X872848Y376757D01*
X872799Y376752D01*
X872750Y376748D01*
X872750Y376748D01*
X812208D01*
X797533Y362073D01*
Y361727D01*
X797533Y332617D01*
X797533Y332617D01*
X797528Y332568D01*
X797523Y332519D01*
X797502Y332446D01*
X797495Y332424D01*
X797449Y332337D01*
X797417Y332299D01*
X797386Y332261D01*
X797386Y332261D01*
X793386Y328261D01*
X793310Y328199D01*
X793223Y328153D01*
X793201Y328146D01*
X793129Y328124D01*
X793080Y328119D01*
X793031Y328114D01*
X793031Y328114D01*
X788739Y328114D01*
X787783Y327159D01*
Y323575D01*
X788739Y322619D01*
X797031D01*
X797129Y322609D01*
X797223Y322581D01*
X797310Y322534D01*
X797386Y322472D01*
X797449Y322396D01*
X797495Y322309D01*
X797524Y322215D01*
X797533Y322117D01*
X797533Y310367D01*
X797533Y310367D01*
X797524Y310278D01*
X797524Y310269D01*
X797495Y310175D01*
X797449Y310088D01*
X797414Y310046D01*
X797386Y310012D01*
X797386Y310011D01*
X792783Y305409D01*
X792783Y281867D01*
X792774Y281769D01*
X792745Y281674D01*
X792699Y281588D01*
X792636Y281511D01*
X792560Y281449D01*
X792473Y281403D01*
X792379Y281374D01*
X792281Y281364D01*
X786239D01*
X784636Y279762D01*
X784560Y279699D01*
X784473Y279653D01*
X784451Y279646D01*
X784379Y279624D01*
X784330Y279619D01*
X784281Y279614D01*
X784281Y279614D01*
X774281D01*
X774183Y279624D01*
X774110Y279646D01*
X774089Y279653D01*
X774002Y279699D01*
X773926Y279762D01*
X773925Y279762D01*
X767426Y286262D01*
X767426Y286262D01*
X759823Y293864D01*
X758489Y293864D01*
X754533Y289909D01*
Y287825D01*
X757636Y284722D01*
X757636Y284722D01*
X757664Y284688D01*
X757699Y284646D01*
X757745Y284559D01*
X757774Y284465D01*
X757775Y284456D01*
X757783Y284367D01*
X757778Y284318D01*
X757774Y284269D01*
X757752Y284196D01*
X757745Y284174D01*
X757699Y284088D01*
X757636Y284011D01*
X757602Y283983D01*
X757560Y283949D01*
X757473Y283902D01*
X757379Y283874D01*
X757370Y283873D01*
X757281Y283864D01*
X757281Y283864D01*
X735489D01*
X729886Y278261D01*
X729886D01*
Y278261D01*
X729810Y278199D01*
X729734Y278158D01*
X729723Y278153D01*
D01*
X729723Y278153D01*
X729629Y278124D01*
X729540Y278115D01*
X729531Y278114D01*
D01*
X729531D01*
X729433Y278124D01*
X729404Y278133D01*
X729339Y278153D01*
X729252Y278199D01*
X729175Y278261D01*
X729175Y278262D01*
X727426Y280012D01*
X727363Y280088D01*
X727342Y280128D01*
X727317Y280175D01*
X727308Y280203D01*
X727288Y280269D01*
X727279Y280367D01*
X727288Y280465D01*
X727297Y280493D01*
X727317Y280559D01*
X727338Y280599D01*
X727363Y280646D01*
X727426Y280722D01*
X727426Y280722D01*
X734028Y287325D01*
X734028Y297617D01*
X734038Y297715D01*
X734067Y297809D01*
X734113Y297896D01*
X734176Y297972D01*
X734252Y298034D01*
X734339Y298081D01*
X734433Y298109D01*
X734531Y298119D01*
X743073Y298119D01*
X744278Y299325D01*
X744278Y302909D01*
X738676Y308512D01*
X738613Y308588D01*
X738567Y308675D01*
X738560Y308696D01*
X738538Y308769D01*
X738533Y308818D01*
X738528Y308867D01*
X738529Y308867D01*
X738528Y333867D01*
X738538Y333965D01*
X738567Y334059D01*
X738613Y334146D01*
X738676Y334222D01*
X738752Y334284D01*
X738839Y334331D01*
X738933Y334360D01*
X739031Y334369D01*
X753781D01*
X753781Y334369D01*
X753830Y334364D01*
X753879Y334360D01*
X753951Y334338D01*
X753973Y334331D01*
X754060Y334284D01*
X754136Y334222D01*
X754136Y334222D01*
X755989Y332369D01*
X767823Y332369D01*
X768778Y333325D01*
X768778Y336116D01*
X768778Y336117D01*
X768787Y336206D01*
X768788Y336215D01*
X768817Y336309D01*
X768863Y336396D01*
X768897Y336438D01*
X768925Y336472D01*
X768926Y336472D01*
X775028Y342575D01*
Y406393D01*
X719034Y462388D01*
X617692Y462388D01*
X617692Y462388D01*
X617691Y462388D01*
X617645Y462393D01*
X617594Y462398D01*
X617594Y462398D01*
X617593Y462398D01*
X617553Y462410D01*
X617500Y462426D01*
X617500Y462426D01*
X617499Y462427D01*
X617467Y462444D01*
X617413Y462473D01*
X617413Y462473D01*
X617412Y462473D01*
X617381Y462499D01*
X617337Y462535D01*
X617337Y462535D01*
X617336Y462536D01*
X617308Y462570D01*
X617274Y462611D01*
X617274Y462612D01*
X617274Y462612D01*
X617254Y462650D01*
X617228Y462698D01*
X617228Y462699D01*
X617228Y462699D01*
X617214Y462746D01*
X617199Y462792D01*
X617199Y462793D01*
X617199Y462793D01*
X617194Y462844D01*
X617190Y462890D01*
X617190Y462891D01*
X617190Y462891D01*
X617339Y563591D01*
X617338Y563591D01*
X617339Y563591D01*
Y563592D01*
X617342Y563629D01*
X617348Y563689D01*
X617348Y563689D01*
X617348Y563690D01*
X617364Y563739D01*
X617377Y563783D01*
X617377Y563784D01*
X617377Y563784D01*
X617398Y563823D01*
X617423Y563870D01*
X617424Y563871D01*
X617424Y563871D01*
X617454Y563907D01*
X617486Y563946D01*
X617486Y563947D01*
X617486Y563947D01*
X617486Y563947D01*
X619498Y565958D01*
X619498Y583748D01*
X33352Y583748D01*
X15872Y556479D01*
X15869Y556475D01*
X15866Y556471D01*
X15838Y556437D01*
X15811Y556402D01*
X15807Y556399D01*
X15804Y556395D01*
X15769Y556366D01*
X15736Y556338D01*
X15732Y556335D01*
X15728Y556332D01*
X15689Y556311D01*
X15650Y556290D01*
X15645Y556288D01*
X15641Y556286D01*
X15599Y556273D01*
X15556Y556259D01*
X15551Y556259D01*
X15547Y556257D01*
X15503Y556253D01*
X15458Y556248D01*
X15453Y556248D01*
X15449Y556248D01*
X2250D01*
X2152Y556257D01*
X2058Y556286D01*
X1971Y556332D01*
X1895Y556395D01*
X1832Y556471D01*
X1786Y556558D01*
X1757Y556652D01*
X1748Y556750D01*
X1748Y583883D01*
X1640Y583955D01*
X1541Y584041D01*
X1455Y584140D01*
X1382Y584249D01*
X1324Y584366D01*
X1282Y584491D01*
X1256Y584619D01*
X1248Y584750D01*
Y587500D01*
Y588510D01*
X1250Y588542D01*
Y588575D01*
X1254Y588608D01*
X1256Y588640D01*
X1263Y588672D01*
X1267Y588705D01*
X1661Y590685D01*
X1670Y590717D01*
X1676Y590749D01*
X1686Y590780D01*
X1695Y590812D01*
X1708Y590842D01*
X1718Y590873D01*
X2491Y592739D01*
X2505Y592768D01*
X2518Y592799D01*
X2534Y592827D01*
X2549Y592856D01*
X2567Y592884D01*
X2583Y592912D01*
X3705Y594591D01*
X3725Y594617D01*
X3743Y594644D01*
X3765Y594669D01*
X3785Y594695D01*
X3808Y594718D01*
X3830Y594743D01*
X5257Y596170D01*
X5282Y596192D01*
X5305Y596215D01*
X5331Y596235D01*
X5356Y596257D01*
X5383Y596275D01*
X5409Y596295D01*
X7088Y597417D01*
X7117Y597433D01*
X7144Y597451D01*
X7173Y597466D01*
X7201Y597482D01*
X7232Y597495D01*
X7261Y597509D01*
X9127Y598282D01*
X9158Y598293D01*
X9188Y598305D01*
X9220Y598314D01*
X9251Y598324D01*
X9283Y598330D01*
X9315Y598339D01*
X11295Y598733D01*
X11328Y598737D01*
X11360Y598744D01*
X11392Y598746D01*
X11425Y598750D01*
X11458D01*
X11490Y598752D01*
X14500D01*
D01*
D02*
G37*
D81*
X716810Y319743D02*
D03*
X713480Y316413D02*
D03*
X766750Y256500D02*
D03*
X763430Y259803D02*
D03*
X800060Y276453D02*
D03*
X803390Y259803D02*
D03*
X779760Y343373D02*
D03*
X806720Y283113D02*
D03*
X803390Y266463D02*
D03*
Y273123D02*
D03*
X813380Y276453D02*
D03*
X800060Y289773D02*
D03*
X806720Y289773D02*
D03*
X810050Y273123D02*
D03*
X810050Y266463D02*
D03*
X816710Y286443D02*
D03*
X803390Y279783D02*
D03*
X800060Y269793D02*
D03*
X793400Y263133D02*
D03*
X803390Y333063D02*
D03*
X800060Y329733D02*
D03*
Y323073D02*
D03*
X713480Y276453D02*
D03*
X713480Y269793D02*
D03*
X723470Y299763D02*
D03*
X716810Y299763D02*
D03*
Y293103D02*
D03*
X726800Y263133D02*
D03*
X726800Y256473D02*
D03*
X720140Y263133D02*
D03*
X720140Y283113D02*
D03*
X716810Y279783D02*
D03*
X723510Y286437D02*
D03*
X730130Y253143D02*
D03*
X736790Y253143D02*
D03*
X723470Y253143D02*
D03*
X720140Y323073D02*
D03*
X716810Y273123D02*
D03*
X713480Y289773D02*
D03*
X716810Y286443D02*
D03*
X720140Y329733D02*
D03*
X723470Y326403D02*
D03*
X716810Y326403D02*
D03*
X723470Y319743D02*
D03*
X720140Y316413D02*
D03*
Y336393D02*
D03*
X743450Y353044D02*
D03*
X750110Y346383D02*
D03*
X800060Y256473D02*
D03*
X750110Y259803D02*
D03*
X760100Y263133D02*
D03*
X730130Y259803D02*
D03*
X736790D02*
D03*
X733460Y256473D02*
D03*
X720140Y289773D02*
D03*
X723470Y293103D02*
D03*
X720140Y303093D02*
D03*
X713480Y303093D02*
D03*
X716810Y306423D02*
D03*
X723470Y313083D02*
D03*
X740120Y263133D02*
D03*
X736790Y339723D02*
D03*
X733460Y356373D02*
D03*
X806720Y323073D02*
D03*
X756770Y346383D02*
D03*
X750110Y253143D02*
D03*
X753440Y263133D02*
D03*
X756770Y259803D02*
D03*
X720140Y269793D02*
D03*
X816510Y331937D02*
D03*
X810050Y326403D02*
D03*
X753440Y349713D02*
D03*
X760100Y349714D02*
D03*
X763430Y353043D02*
D03*
X743450Y346383D02*
D03*
X713480Y329733D02*
D03*
X720140Y276453D02*
D03*
X740120Y256473D02*
D03*
X716810Y333063D02*
D03*
X746780Y343053D02*
D03*
X733460Y349713D02*
D03*
X740120D02*
D03*
X710150Y306423D02*
D03*
X713480Y309753D02*
D03*
X763430Y246483D02*
D03*
X766760Y249813D02*
D03*
D123*
X459500Y230500D02*
D03*
X285500Y481750D02*
D03*
X244500Y92750D02*
D03*
X203500Y336250D02*
D03*
X195500Y336250D02*
D03*
X369500Y310500D02*
D03*
X463500Y250500D02*
D03*
X472250D02*
D03*
X489500Y270500D02*
D03*
X479500Y260500D02*
D03*
X509500Y270500D02*
D03*
X519500D02*
D03*
X469500Y280500D02*
D03*
X469500Y300500D02*
D03*
X211500Y272250D02*
D03*
X227500Y304250D02*
D03*
X243500Y296250D02*
D03*
X553000Y266750D02*
D03*
X479500Y230500D02*
D03*
X509500Y220500D02*
D03*
X519500Y220500D02*
D03*
X529500D02*
D03*
X509500Y190500D02*
D03*
X539500Y290500D02*
D03*
X549500D02*
D03*
X529500Y290500D02*
D03*
X519500D02*
D03*
X509500D02*
D03*
X359500Y380500D02*
D03*
X389500Y350500D02*
D03*
X179500Y312250D02*
D03*
X986000Y468250D02*
D03*
X992750Y461500D02*
D03*
X986000Y495250D02*
D03*
X992750Y488500D02*
D03*
X986000Y481750D02*
D03*
X992750Y475000D02*
D03*
X986000Y522250D02*
D03*
X992750Y515500D02*
D03*
X986000Y508750D02*
D03*
X992750Y502000D02*
D03*
X986250Y549250D02*
D03*
X992750Y542500D02*
D03*
X986000Y535750D02*
D03*
X992750Y529000D02*
D03*
Y556000D02*
D03*
Y569500D02*
D03*
X986000Y576250D02*
D03*
X379500Y320500D02*
D03*
X329500Y340500D02*
D03*
X254907Y349000D02*
D03*
X349500Y330500D02*
D03*
X349500Y340500D02*
D03*
X339500Y380500D02*
D03*
X349500Y380500D02*
D03*
Y370500D02*
D03*
X359500Y350500D02*
D03*
X359500Y340500D02*
D03*
X171500Y280250D02*
D03*
Y288250D02*
D03*
X479500Y340500D02*
D03*
X389500D02*
D03*
X539500Y400500D02*
D03*
X519500D02*
D03*
X509500D02*
D03*
X499500D02*
D03*
X449500Y400500D02*
D03*
X459500D02*
D03*
X469500D02*
D03*
X479500D02*
D03*
X489500D02*
D03*
X399500Y400500D02*
D03*
X409500D02*
D03*
X419500D02*
D03*
X349500D02*
D03*
X369500D02*
D03*
X379500D02*
D03*
X389500D02*
D03*
X339500D02*
D03*
Y410500D02*
D03*
X389500D02*
D03*
X379500D02*
D03*
X369500D02*
D03*
X349500D02*
D03*
X419500D02*
D03*
X409500D02*
D03*
X399500D02*
D03*
X479500Y410500D02*
D03*
X469500D02*
D03*
X459500D02*
D03*
X499500Y410500D02*
D03*
X509500D02*
D03*
X519500D02*
D03*
X529500D02*
D03*
X539500Y390500D02*
D03*
X529500D02*
D03*
X519500D02*
D03*
X509500D02*
D03*
X449500Y390500D02*
D03*
X469500D02*
D03*
X479500D02*
D03*
X489500D02*
D03*
X409500Y390500D02*
D03*
X419500D02*
D03*
X379500D02*
D03*
X329500D02*
D03*
X539500Y380500D02*
D03*
X529500D02*
D03*
X509500D02*
D03*
X499500D02*
D03*
X449500Y380500D02*
D03*
X459500D02*
D03*
X469500D02*
D03*
X479500D02*
D03*
X489500D02*
D03*
X399500Y380500D02*
D03*
X409500D02*
D03*
X419500D02*
D03*
X429500D02*
D03*
X439500D02*
D03*
X369500D02*
D03*
X379500D02*
D03*
X389500D02*
D03*
X329500D02*
D03*
X539500Y370500D02*
D03*
X529500D02*
D03*
X519500D02*
D03*
X509500D02*
D03*
X499500D02*
D03*
X449500Y370500D02*
D03*
X459500D02*
D03*
X469500D02*
D03*
X489500D02*
D03*
X399500Y370500D02*
D03*
X409500D02*
D03*
X419500D02*
D03*
X429500D02*
D03*
X439500D02*
D03*
X359500D02*
D03*
X369500D02*
D03*
X379500D02*
D03*
X389500D02*
D03*
X339500D02*
D03*
X509500Y360500D02*
D03*
X499500D02*
D03*
X449500Y360500D02*
D03*
X459500D02*
D03*
X399500Y360500D02*
D03*
X409500D02*
D03*
X419500D02*
D03*
X429500D02*
D03*
X439500D02*
D03*
X349500D02*
D03*
X369500D02*
D03*
X339500D02*
D03*
X329500D02*
D03*
X439500Y350500D02*
D03*
X429500D02*
D03*
X419500D02*
D03*
X409500D02*
D03*
X399500D02*
D03*
X469500Y350500D02*
D03*
X459500D02*
D03*
X449500D02*
D03*
X499500Y350500D02*
D03*
X509500D02*
D03*
X519500D02*
D03*
X759260Y341687D02*
D03*
X539500Y310500D02*
D03*
X509500D02*
D03*
X459500Y310500D02*
D03*
X409500Y310500D02*
D03*
X349500D02*
D03*
X359500D02*
D03*
X379500D02*
D03*
X389500D02*
D03*
X339500D02*
D03*
X329500D02*
D03*
X499500Y320500D02*
D03*
X449500Y320500D02*
D03*
X459500D02*
D03*
X479500D02*
D03*
X399500Y320500D02*
D03*
X409500D02*
D03*
X419500D02*
D03*
X429500D02*
D03*
X439500D02*
D03*
X369500D02*
D03*
X389500D02*
D03*
X339500D02*
D03*
X329500D02*
D03*
X499500Y330500D02*
D03*
X449500Y330500D02*
D03*
X479500D02*
D03*
X429500Y330500D02*
D03*
X359500D02*
D03*
X369500D02*
D03*
X539500Y260500D02*
D03*
X529500D02*
D03*
X509500D02*
D03*
X459500Y260500D02*
D03*
X469500D02*
D03*
X489500D02*
D03*
X529500Y270500D02*
D03*
X449500Y270500D02*
D03*
X409500Y270500D02*
D03*
X419500D02*
D03*
X429500D02*
D03*
X439500D02*
D03*
X389500D02*
D03*
X539500Y280500D02*
D03*
X529500D02*
D03*
X509500D02*
D03*
X499500D02*
D03*
X459500Y280500D02*
D03*
X489500D02*
D03*
X399500Y280500D02*
D03*
X409500D02*
D03*
X349500D02*
D03*
X459500Y290500D02*
D03*
X479500D02*
D03*
X489500D02*
D03*
X409500Y290500D02*
D03*
X359500D02*
D03*
X369500D02*
D03*
X379500D02*
D03*
X389500D02*
D03*
X329500Y300500D02*
D03*
X339500D02*
D03*
X379500D02*
D03*
X359500D02*
D03*
X349500D02*
D03*
X409500D02*
D03*
X399500D02*
D03*
X479500Y300500D02*
D03*
X459500D02*
D03*
X499500Y300500D02*
D03*
X519500D02*
D03*
X529500D02*
D03*
X539500D02*
D03*
X519500Y210500D02*
D03*
X469500Y210500D02*
D03*
X479500D02*
D03*
X489500D02*
D03*
X499500Y220500D02*
D03*
X449500Y220500D02*
D03*
X459500D02*
D03*
X429500Y220500D02*
D03*
X439500D02*
D03*
X369500D02*
D03*
X389500D02*
D03*
X529500Y230500D02*
D03*
X519500D02*
D03*
X499500D02*
D03*
X469500Y230500D02*
D03*
X489500D02*
D03*
X359500Y230500D02*
D03*
X369500D02*
D03*
X379500D02*
D03*
X509500Y240500D02*
D03*
X499500D02*
D03*
X489500Y240500D02*
D03*
X369500Y240500D02*
D03*
X339500Y250500D02*
D03*
X429500D02*
D03*
X489500Y250500D02*
D03*
X509500Y250500D02*
D03*
X519500D02*
D03*
X369500Y200500D02*
D03*
X439500D02*
D03*
X489500Y200500D02*
D03*
X479500D02*
D03*
X469500D02*
D03*
X459500D02*
D03*
X449500D02*
D03*
X339500Y190500D02*
D03*
X389500D02*
D03*
X379500D02*
D03*
X369500D02*
D03*
X399500D02*
D03*
X489500Y190500D02*
D03*
X479500D02*
D03*
X469500D02*
D03*
X459500D02*
D03*
X449500D02*
D03*
X499500Y190500D02*
D03*
X529500D02*
D03*
X379500Y360500D02*
D03*
X399500Y340500D02*
D03*
X489500Y340500D02*
D03*
Y350500D02*
D03*
X489500Y360500D02*
D03*
X399500Y330500D02*
D03*
X409500D02*
D03*
X253157Y284250D02*
D03*
Y292250D02*
D03*
Y308250D02*
D03*
Y316250D02*
D03*
Y324250D02*
D03*
Y332250D02*
D03*
X243500Y336250D02*
D03*
Y328250D02*
D03*
Y320250D02*
D03*
X243500Y312250D02*
D03*
Y304250D02*
D03*
Y272250D02*
D03*
X235500D02*
D03*
Y280250D02*
D03*
Y288250D02*
D03*
Y296250D02*
D03*
Y304250D02*
D03*
Y312250D02*
D03*
Y320250D02*
D03*
Y328250D02*
D03*
Y336250D02*
D03*
X227500Y272250D02*
D03*
Y280250D02*
D03*
Y288250D02*
D03*
Y296250D02*
D03*
Y312250D02*
D03*
Y320250D02*
D03*
Y328250D02*
D03*
Y336250D02*
D03*
X219500Y272250D02*
D03*
Y280250D02*
D03*
Y288250D02*
D03*
Y296250D02*
D03*
X219500Y304250D02*
D03*
X219500Y320250D02*
D03*
Y328250D02*
D03*
Y336250D02*
D03*
X211500Y280250D02*
D03*
Y288250D02*
D03*
Y296250D02*
D03*
Y312250D02*
D03*
X203500Y288250D02*
D03*
Y296250D02*
D03*
Y304250D02*
D03*
Y312250D02*
D03*
X195500Y288250D02*
D03*
Y296250D02*
D03*
X187500Y272250D02*
D03*
Y296250D02*
D03*
X179500Y280250D02*
D03*
X161843Y308250D02*
D03*
X161500Y264000D02*
D03*
X231500Y254593D02*
D03*
X223500D02*
D03*
X199500D02*
D03*
X183500D02*
D03*
X175500D02*
D03*
Y345907D02*
D03*
X183500D02*
D03*
X231500D02*
D03*
X203500Y272250D02*
D03*
X171500Y336250D02*
D03*
X187500Y328250D02*
D03*
X179500Y272250D02*
D03*
X207500Y254593D02*
D03*
X529500Y200500D02*
D03*
X509500D02*
D03*
X519500D02*
D03*
X429500Y210500D02*
D03*
X419500Y210500D02*
D03*
X419500Y190500D02*
D03*
X429500Y200500D02*
D03*
X409500Y210500D02*
D03*
Y200500D02*
D03*
X399500Y200500D02*
D03*
X389500Y200500D02*
D03*
X539500Y320500D02*
D03*
X519500Y310500D02*
D03*
X509500Y340500D02*
D03*
X509500Y320500D02*
D03*
X499500Y310500D02*
D03*
Y340500D02*
D03*
X489500Y330500D02*
D03*
Y320500D02*
D03*
X479500Y310500D02*
D03*
X187500Y336250D02*
D03*
X239500Y254593D02*
D03*
X7250Y12250D02*
D03*
X14000Y5500D02*
D03*
X27500D02*
D03*
X34250Y10750D02*
D03*
X41000Y5500D02*
D03*
X47750Y12250D02*
D03*
X54500Y5500D02*
D03*
X61250Y12250D02*
D03*
X101750D02*
D03*
X95000Y5500D02*
D03*
X88250Y12250D02*
D03*
X81500Y5500D02*
D03*
X74750Y12250D02*
D03*
X68000Y5500D02*
D03*
X142250Y12250D02*
D03*
X135500Y5500D02*
D03*
X128750Y12250D02*
D03*
X122000Y5500D02*
D03*
X115250Y12250D02*
D03*
X108500Y5500D02*
D03*
X182750Y12250D02*
D03*
X176000Y5500D02*
D03*
X169250Y12250D02*
D03*
X162500Y5500D02*
D03*
X155750Y12250D02*
D03*
X149000Y5500D02*
D03*
X223250Y12250D02*
D03*
X209750D02*
D03*
X196250D02*
D03*
X263750D02*
D03*
X257000Y5500D02*
D03*
X250250Y12250D02*
D03*
X243500Y5500D02*
D03*
X236750Y12250D02*
D03*
X230000Y5500D02*
D03*
X304250Y12250D02*
D03*
X297500Y5500D02*
D03*
X290750Y12250D02*
D03*
X284000Y5500D02*
D03*
X277250Y12250D02*
D03*
X270500Y5500D02*
D03*
X344750Y12250D02*
D03*
X338000Y5500D02*
D03*
X331250Y12250D02*
D03*
X324500Y5500D02*
D03*
X317750Y12250D02*
D03*
X311000Y5500D02*
D03*
X385250Y12250D02*
D03*
X378500Y5500D02*
D03*
X371750Y12250D02*
D03*
X365000Y5500D02*
D03*
X358250Y12250D02*
D03*
X351500Y5500D02*
D03*
X425750Y12250D02*
D03*
X419000Y5500D02*
D03*
X412250Y12250D02*
D03*
X405500Y5500D02*
D03*
X398750Y12250D02*
D03*
X392000Y5500D02*
D03*
X466250Y12250D02*
D03*
X459500Y5500D02*
D03*
X452750Y12250D02*
D03*
X446000Y5500D02*
D03*
X439250Y12250D02*
D03*
X432500Y5500D02*
D03*
X506750Y12250D02*
D03*
X500000Y5500D02*
D03*
X493250Y12250D02*
D03*
X486500Y5500D02*
D03*
X479750Y12250D02*
D03*
X473000Y5500D02*
D03*
X547250Y12250D02*
D03*
X540500Y5500D02*
D03*
X533750Y12250D02*
D03*
X527000Y5500D02*
D03*
X520250Y12250D02*
D03*
X513500Y5500D02*
D03*
X587750Y12250D02*
D03*
X581000Y5500D02*
D03*
X574250Y12250D02*
D03*
X567500Y5500D02*
D03*
X560750Y12250D02*
D03*
X554000Y5500D02*
D03*
X628250Y12250D02*
D03*
X621500Y5500D02*
D03*
X614750Y12250D02*
D03*
X608000Y5500D02*
D03*
X601250Y12250D02*
D03*
X594500Y5500D02*
D03*
X668750Y12250D02*
D03*
X662000Y5500D02*
D03*
X655250Y12250D02*
D03*
X648500Y5500D02*
D03*
X641750Y12250D02*
D03*
X635000Y5500D02*
D03*
X709250Y12250D02*
D03*
X702500Y5500D02*
D03*
X695750Y12250D02*
D03*
X689000Y5500D02*
D03*
X682250Y12250D02*
D03*
X675500Y5500D02*
D03*
X749750Y12250D02*
D03*
X743000Y5500D02*
D03*
X736250Y12250D02*
D03*
X729500Y5500D02*
D03*
X722750Y12250D02*
D03*
X716000Y5500D02*
D03*
X790250Y12250D02*
D03*
X776750D02*
D03*
X770000Y5500D02*
D03*
X763250Y12250D02*
D03*
X756500Y5500D02*
D03*
X830750Y12250D02*
D03*
X824000Y5500D02*
D03*
X817250Y12250D02*
D03*
X803750D02*
D03*
X871250D02*
D03*
X864500Y5500D02*
D03*
X857750Y12250D02*
D03*
X851000Y5500D02*
D03*
X844250Y12250D02*
D03*
X837500Y5500D02*
D03*
X911750Y12250D02*
D03*
X905000Y5500D02*
D03*
X898250Y12250D02*
D03*
X891500Y5500D02*
D03*
X884750Y12250D02*
D03*
X878000Y5500D02*
D03*
X952250Y12250D02*
D03*
X945500Y5500D02*
D03*
X938750Y12250D02*
D03*
X932000Y5500D02*
D03*
X925250Y12250D02*
D03*
X918500Y5500D02*
D03*
X992750Y12250D02*
D03*
X986000Y5500D02*
D03*
X979250Y12250D02*
D03*
X972500Y5500D02*
D03*
X965750Y11000D02*
D03*
X959000Y5500D02*
D03*
X20750Y12250D02*
D03*
Y587750D02*
D03*
X959000Y594500D02*
D03*
X965750Y588750D02*
D03*
X972500Y594500D02*
D03*
X979250Y587750D02*
D03*
X986000Y594500D02*
D03*
X992750Y587750D02*
D03*
X918500Y594500D02*
D03*
X925250Y587750D02*
D03*
X932000Y594500D02*
D03*
X938750Y587750D02*
D03*
X945500Y594500D02*
D03*
X952250Y587750D02*
D03*
X878000Y594500D02*
D03*
X884750Y587750D02*
D03*
X891500Y594500D02*
D03*
X898250Y587750D02*
D03*
X905000Y594500D02*
D03*
X911750Y587750D02*
D03*
X837500Y594500D02*
D03*
X844250Y587750D02*
D03*
X851000Y594500D02*
D03*
X857750Y587750D02*
D03*
X864500Y594500D02*
D03*
X871250Y587750D02*
D03*
X803750D02*
D03*
X817250D02*
D03*
X824000Y594500D02*
D03*
X830750Y587750D02*
D03*
X756500Y594500D02*
D03*
X763250Y587750D02*
D03*
X770000Y594500D02*
D03*
X776750Y587750D02*
D03*
X790250D02*
D03*
X716000Y594500D02*
D03*
X722750Y587750D02*
D03*
X729500Y594500D02*
D03*
X736250Y587750D02*
D03*
X743000Y594500D02*
D03*
X749750Y587750D02*
D03*
X675500Y594500D02*
D03*
X682250Y587750D02*
D03*
X689000Y594500D02*
D03*
X695750Y587750D02*
D03*
X702500Y594500D02*
D03*
X709250Y587750D02*
D03*
X635000Y594500D02*
D03*
X641750Y587750D02*
D03*
X648500Y594500D02*
D03*
X655250Y587750D02*
D03*
X662000Y594500D02*
D03*
X668750Y587750D02*
D03*
X594500Y594500D02*
D03*
X601250Y587750D02*
D03*
X608000Y594500D02*
D03*
X614750Y587750D02*
D03*
X621500Y594500D02*
D03*
X628250Y587750D02*
D03*
X554000Y594500D02*
D03*
X560750Y587750D02*
D03*
X567500Y594500D02*
D03*
X574250Y587750D02*
D03*
X581000Y594500D02*
D03*
X587750Y587750D02*
D03*
X513500Y594500D02*
D03*
X520250Y587750D02*
D03*
X527000Y594500D02*
D03*
X533750Y587750D02*
D03*
X540500Y594500D02*
D03*
X547250Y587750D02*
D03*
X473000Y594500D02*
D03*
X479750Y587750D02*
D03*
X486500Y594500D02*
D03*
X493250Y587750D02*
D03*
X500000Y594500D02*
D03*
X506750Y587750D02*
D03*
X432500Y594500D02*
D03*
X439250Y587750D02*
D03*
X446000Y594500D02*
D03*
X452750Y587750D02*
D03*
X459500Y594500D02*
D03*
X466250Y587750D02*
D03*
X392000Y594500D02*
D03*
X398750Y587750D02*
D03*
X405500Y594500D02*
D03*
X412250Y587750D02*
D03*
X419000Y594500D02*
D03*
X425750Y587750D02*
D03*
X351500Y594500D02*
D03*
X358250Y587750D02*
D03*
X365000Y594500D02*
D03*
X371750Y587750D02*
D03*
X378500Y594500D02*
D03*
X385250Y587750D02*
D03*
X311000Y594500D02*
D03*
X317750Y587750D02*
D03*
X324500Y594500D02*
D03*
X331250Y587750D02*
D03*
X338000Y594500D02*
D03*
X344750Y587750D02*
D03*
X270500Y594500D02*
D03*
X284000D02*
D03*
X290750Y587750D02*
D03*
X297500Y594500D02*
D03*
X304250Y587750D02*
D03*
X230000Y594500D02*
D03*
X236750Y587750D02*
D03*
X243500Y594500D02*
D03*
X250250Y587750D02*
D03*
X257000Y594500D02*
D03*
X263750Y587750D02*
D03*
X196250D02*
D03*
X209750D02*
D03*
X223250D02*
D03*
X149000Y594500D02*
D03*
X155750Y587750D02*
D03*
X162500Y594500D02*
D03*
X169250Y587750D02*
D03*
X176000Y594500D02*
D03*
X108500D02*
D03*
X115250Y587750D02*
D03*
X122000Y594500D02*
D03*
X128750Y587750D02*
D03*
X135500Y594500D02*
D03*
X142250Y587750D02*
D03*
X68000Y594500D02*
D03*
X74750Y587750D02*
D03*
X81500Y594500D02*
D03*
X88250Y587750D02*
D03*
X95000Y594500D02*
D03*
X101750Y587750D02*
D03*
X61250D02*
D03*
X54500Y594500D02*
D03*
X47750Y587750D02*
D03*
X41000Y594500D02*
D03*
X34250Y589000D02*
D03*
X27500Y594500D02*
D03*
X14000D02*
D03*
X7250Y587750D02*
D03*
X369500Y260500D02*
D03*
X529500Y340500D02*
D03*
X369500D02*
D03*
X549500Y240500D02*
D03*
X549500Y230500D02*
D03*
X539500D02*
D03*
X539500Y220500D02*
D03*
X187500Y304250D02*
D03*
Y312250D02*
D03*
X479500Y280500D02*
D03*
X479500Y350500D02*
D03*
Y360500D02*
D03*
X171500Y272250D02*
D03*
Y304250D02*
D03*
X529500Y240500D02*
D03*
X549500Y250500D02*
D03*
X162500Y272250D02*
D03*
X260250Y254000D02*
D03*
X329500Y370500D02*
D03*
X195500Y320250D02*
D03*
X207500Y345907D02*
D03*
X223500D02*
D03*
X199500D02*
D03*
X211500Y328250D02*
D03*
X203500Y320250D02*
D03*
X211500Y320250D02*
D03*
Y304250D02*
D03*
X219500Y312250D02*
D03*
X549500Y220500D02*
D03*
X549500Y200500D02*
D03*
X529500Y210500D02*
D03*
X549500Y260500D02*
D03*
X539500Y350500D02*
D03*
X529500Y350500D02*
D03*
X379500Y240500D02*
D03*
X277250Y587750D02*
D03*
X284250Y491500D02*
D03*
X179500Y336250D02*
D03*
X349500Y210500D02*
D03*
Y270500D02*
D03*
D153*
X243000Y530625D02*
D03*
D177*
X184750Y27500D02*
D03*
Y37500D02*
D03*
X169000Y21250D02*
D03*
Y31250D02*
D03*
X604250Y288000D02*
D03*
Y278000D02*
D03*
X164000Y73750D02*
D03*
Y63750D02*
D03*
X337250Y38000D02*
D03*
Y48000D02*
D03*
X80750Y515250D02*
D03*
Y525250D02*
D03*
X93250Y471000D02*
D03*
Y481000D02*
D03*
X107750Y484750D02*
D03*
Y494750D02*
D03*
X104250Y391750D02*
D03*
Y401750D02*
D03*
X235000Y498125D02*
D03*
Y488125D02*
D03*
X246000Y498125D02*
D03*
Y488125D02*
D03*
X285500Y522625D02*
D03*
Y512625D02*
D03*
X31000Y509250D02*
D03*
Y499250D02*
D03*
X729510Y300187D02*
D03*
Y290187D02*
D03*
X692250Y313000D02*
D03*
Y323000D02*
D03*
X132625Y87125D02*
D03*
Y77125D02*
D03*
X300750Y448500D02*
D03*
Y438500D02*
D03*
X29750Y163000D02*
D03*
Y173000D02*
D03*
X8250Y163000D02*
D03*
Y173000D02*
D03*
X19000Y163000D02*
D03*
Y173000D02*
D03*
X19000Y152500D02*
D03*
Y142500D02*
D03*
X8250Y152500D02*
D03*
X8250Y142500D02*
D03*
X29750Y152500D02*
D03*
Y142500D02*
D03*
X485000Y39750D02*
D03*
X485000Y29750D02*
D03*
X513500Y39750D02*
D03*
Y29750D02*
D03*
X344500Y395500D02*
D03*
Y405500D02*
D03*
X359750Y416750D02*
D03*
Y406750D02*
D03*
X588500Y48250D02*
D03*
Y38250D02*
D03*
X594500Y96000D02*
D03*
Y86000D02*
D03*
X615500D02*
D03*
X615500Y96000D02*
D03*
X560750Y373750D02*
D03*
Y363750D02*
D03*
X556000Y38750D02*
D03*
Y48750D02*
D03*
X617750Y226250D02*
D03*
Y216250D02*
D03*
X440750Y80250D02*
D03*
Y70250D02*
D03*
X492750Y182250D02*
D03*
Y172250D02*
D03*
X448000Y239000D02*
D03*
Y229000D02*
D03*
X159500Y243500D02*
D03*
Y233500D02*
D03*
X247750Y245000D02*
D03*
Y235000D02*
D03*
X258500Y245000D02*
D03*
Y235000D02*
D03*
X252250Y276750D02*
D03*
Y266750D02*
D03*
X184750Y354250D02*
D03*
Y364250D02*
D03*
X209750Y184000D02*
D03*
Y174000D02*
D03*
X270750Y179750D02*
D03*
Y169750D02*
D03*
X189250Y545000D02*
D03*
Y535000D02*
D03*
X202605Y469429D02*
D03*
Y479429D02*
D03*
X89750Y378250D02*
D03*
Y368250D02*
D03*
X295250Y577000D02*
D03*
Y567000D02*
D03*
X117750Y543500D02*
D03*
Y553500D02*
D03*
X35250Y399750D02*
D03*
Y409750D02*
D03*
X213000Y58250D02*
D03*
Y68250D02*
D03*
X270250Y217250D02*
D03*
Y207250D02*
D03*
D178*
X539500Y268000D02*
D03*
Y251000D02*
D03*
X549500Y209000D02*
D03*
Y192000D02*
D03*
X609250Y298500D02*
D03*
Y315500D02*
D03*
X346250Y435250D02*
D03*
Y418250D02*
D03*
X123750Y47750D02*
D03*
Y64750D02*
D03*
X131750Y124250D02*
D03*
X131750Y107250D02*
D03*
X146250Y75500D02*
D03*
Y92500D02*
D03*
X152250Y312250D02*
D03*
X152250Y329250D02*
D03*
X142000Y258750D02*
D03*
Y241750D02*
D03*
X101000Y306000D02*
D03*
X101000Y289000D02*
D03*
X362750Y536750D02*
D03*
Y553750D02*
D03*
X318250Y377250D02*
D03*
Y394250D02*
D03*
X381500Y328250D02*
D03*
Y345250D02*
D03*
X379250Y219250D02*
D03*
Y202250D02*
D03*
D179*
X317500Y536750D02*
D03*
X334500D02*
D03*
X320750Y342250D02*
D03*
X337750D02*
D03*
X321000Y328500D02*
D03*
X338000D02*
D03*
X324500Y229250D02*
D03*
X341500D02*
D03*
X179500Y98500D02*
D03*
X162500D02*
D03*
X541250Y60750D02*
D03*
X558250D02*
D03*
X588500Y526500D02*
D03*
X605500D02*
D03*
X24250Y212125D02*
D03*
X7250Y212125D02*
D03*
X128000Y261000D02*
D03*
X111000D02*
D03*
X114500Y160750D02*
D03*
X97500D02*
D03*
X172250Y203250D02*
D03*
X189250D02*
D03*
X425000Y342250D02*
D03*
X408000D02*
D03*
D181*
X593250Y293250D02*
D03*
X583250D02*
D03*
X226000Y465750D02*
D03*
X236000D02*
D03*
X504000Y575500D02*
D03*
X494000D02*
D03*
X117750Y511750D02*
D03*
X107750D02*
D03*
X117750Y522750D02*
D03*
X107750D02*
D03*
X117750Y533750D02*
D03*
X107750D02*
D03*
X201750Y498500D02*
D03*
X191750D02*
D03*
X52000Y499250D02*
D03*
X42000D02*
D03*
X31000Y519750D02*
D03*
X21000D02*
D03*
X139750Y577250D02*
D03*
X149750D02*
D03*
X171000Y575500D02*
D03*
X161000D02*
D03*
X181500Y566000D02*
D03*
X191500D02*
D03*
X139000Y554250D02*
D03*
X149000D02*
D03*
X129250Y494250D02*
D03*
X119250D02*
D03*
X114250Y471000D02*
D03*
X104250D02*
D03*
X141500Y469000D02*
D03*
X151500D02*
D03*
X276750Y496750D02*
D03*
X286750D02*
D03*
X687510Y291687D02*
D03*
X677510D02*
D03*
X693510Y338687D02*
D03*
X683510D02*
D03*
X80000Y364000D02*
D03*
X70000D02*
D03*
X80000Y375000D02*
D03*
X70000D02*
D03*
X284500Y62000D02*
D03*
X274500D02*
D03*
X295500Y62000D02*
D03*
X305500D02*
D03*
X300000Y86750D02*
D03*
X310000Y86750D02*
D03*
X567000Y48250D02*
D03*
X577000D02*
D03*
X569750Y75000D02*
D03*
X579750D02*
D03*
X293250Y35750D02*
D03*
X303250D02*
D03*
X582000Y345750D02*
D03*
X572000D02*
D03*
X559250Y334750D02*
D03*
X569250Y334750D02*
D03*
X595750Y241750D02*
D03*
X605750D02*
D03*
Y262750D02*
D03*
X595750D02*
D03*
X199750Y114750D02*
D03*
X189750D02*
D03*
X11250Y306750D02*
D03*
X21250D02*
D03*
X648500Y335750D02*
D03*
X658500D02*
D03*
X490500Y220000D02*
D03*
X480500D02*
D03*
X664750Y306250D02*
D03*
X674750D02*
D03*
X440750Y191750D02*
D03*
X430750D02*
D03*
X444500Y205500D02*
D03*
X434500D02*
D03*
X350750Y191500D02*
D03*
X360750D02*
D03*
X670750Y233500D02*
D03*
X680750D02*
D03*
X701000Y223000D02*
D03*
X711000D02*
D03*
X693000Y245000D02*
D03*
X703000D02*
D03*
X701000Y234000D02*
D03*
X711000D02*
D03*
X449000Y145250D02*
D03*
X459000D02*
D03*
X470000D02*
D03*
X480000D02*
D03*
X692500Y257750D02*
D03*
X682500D02*
D03*
X306250Y160500D02*
D03*
X296250D02*
D03*
X166464Y278750D02*
D03*
X156465D02*
D03*
X232500Y264250D02*
D03*
X242500D02*
D03*
X283750Y257750D02*
D03*
X273750D02*
D03*
X178500Y288750D02*
D03*
X188500D02*
D03*
X249000Y132750D02*
D03*
X239000D02*
D03*
X228000D02*
D03*
X218000D02*
D03*
X337500Y76500D02*
D03*
X347500D02*
D03*
X368500D02*
D03*
X358500D02*
D03*
X345750Y141000D02*
D03*
X355750D02*
D03*
X67000Y450000D02*
D03*
X57000D02*
D03*
X198000Y555500D02*
D03*
X208000D02*
D03*
X217500Y574500D02*
D03*
X207500D02*
D03*
X14500Y425000D02*
D03*
X24500D02*
D03*
X80250Y564750D02*
D03*
X90250D02*
D03*
X80250Y553750D02*
D03*
X90250D02*
D03*
X283500D02*
D03*
X293500D02*
D03*
X78750Y403250D02*
D03*
X88750D02*
D03*
X21250Y477000D02*
D03*
X31250D02*
D03*
X687500Y280750D02*
D03*
X677500D02*
D03*
X666500Y273250D02*
D03*
X656500D02*
D03*
X672250Y346750D02*
D03*
X662250D02*
D03*
X646750Y324750D02*
D03*
X636750D02*
D03*
D182*
X528000Y85950D02*
D03*
Y98650D02*
D03*
Y111350D02*
D03*
Y124050D02*
D03*
X576000Y85950D02*
D03*
Y98650D02*
D03*
Y111350D02*
D03*
Y124050D02*
D03*
X282750Y111800D02*
D03*
Y99100D02*
D03*
Y86400D02*
D03*
Y73700D02*
D03*
X234750Y111800D02*
D03*
Y99100D02*
D03*
Y86400D02*
D03*
Y73700D02*
D03*
X326750Y89450D02*
D03*
Y102150D02*
D03*
Y114850D02*
D03*
Y127550D02*
D03*
X374750Y89450D02*
D03*
Y102150D02*
D03*
Y114850D02*
D03*
Y127550D02*
D03*
D184*
X567950Y221250D02*
D03*
X580650D02*
D03*
X593350D02*
D03*
X606050D02*
D03*
X567950Y173250D02*
D03*
X580650D02*
D03*
X593350D02*
D03*
X606050D02*
D03*
X571950Y411250D02*
D03*
X584650D02*
D03*
X597350D02*
D03*
X610050D02*
D03*
X571950Y363250D02*
D03*
X584650D02*
D03*
X597350D02*
D03*
X610050D02*
D03*
X220950Y198500D02*
D03*
X233650D02*
D03*
X246350D02*
D03*
X259050D02*
D03*
X220950Y150500D02*
D03*
X233650D02*
D03*
X246350D02*
D03*
X259050D02*
D03*
D186*
X106750Y70500D02*
D03*
X96750D02*
D03*
X494250Y335250D02*
D03*
X504250D02*
D03*
X354250Y355250D02*
D03*
X364250D02*
D03*
X404750Y285500D02*
D03*
X394750D02*
D03*
X411750Y225500D02*
D03*
X421750D02*
D03*
X514500Y275250D02*
D03*
X524500D02*
D03*
X541750Y28500D02*
D03*
X531750D02*
D03*
X185000Y519500D02*
D03*
X195000D02*
D03*
X191750Y488500D02*
D03*
X181750D02*
D03*
X191750Y478500D02*
D03*
X181750D02*
D03*
X191750Y509000D02*
D03*
X201750D02*
D03*
X31000Y529000D02*
D03*
X21000D02*
D03*
X80250Y575000D02*
D03*
X90250D02*
D03*
X181750Y575750D02*
D03*
X191750D02*
D03*
X161000Y565750D02*
D03*
X171000D02*
D03*
X138250Y566750D02*
D03*
X148250D02*
D03*
X161000Y555750D02*
D03*
X171000D02*
D03*
X149750Y494250D02*
D03*
X139750D02*
D03*
X141500Y479500D02*
D03*
X151500D02*
D03*
X235000Y477750D02*
D03*
X225000D02*
D03*
X246000D02*
D03*
X256000D02*
D03*
X275500Y543125D02*
D03*
X285500D02*
D03*
X306500Y533125D02*
D03*
X296500D02*
D03*
X285500D02*
D03*
X275500D02*
D03*
X266500Y476250D02*
D03*
X276500D02*
D03*
X187750Y55500D02*
D03*
X197750D02*
D03*
X368500Y66000D02*
D03*
X358500D02*
D03*
X583250Y282750D02*
D03*
X593250D02*
D03*
X310000Y72750D02*
D03*
X300000D02*
D03*
X612500Y122750D02*
D03*
X622500D02*
D03*
X472500Y575250D02*
D03*
X482500D02*
D03*
X595750Y252250D02*
D03*
X605750D02*
D03*
X569250Y239250D02*
D03*
X559250D02*
D03*
X147000Y126750D02*
D03*
X157000D02*
D03*
X11225Y295000D02*
D03*
X21225D02*
D03*
X712002Y212507D02*
D03*
X702002Y212507D02*
D03*
X408750Y149750D02*
D03*
X398750D02*
D03*
X180500Y299000D02*
D03*
X170500D02*
D03*
X148750Y288500D02*
D03*
X138750D02*
D03*
X213250Y264250D02*
D03*
X223250D02*
D03*
X262000Y331250D02*
D03*
X272000D02*
D03*
X194000Y264250D02*
D03*
X204000D02*
D03*
X272000Y322500D02*
D03*
X262000D02*
D03*
X190000Y232750D02*
D03*
X200000D02*
D03*
X262000Y313250D02*
D03*
X272000D02*
D03*
X262000Y283250D02*
D03*
X272000D02*
D03*
X158500Y339500D02*
D03*
X148500D02*
D03*
X272000Y303250D02*
D03*
X262000D02*
D03*
X272000Y293250D02*
D03*
X262000D02*
D03*
X205000Y327000D02*
D03*
X195000D02*
D03*
X205000Y278750D02*
D03*
X195000D02*
D03*
X275500Y486000D02*
D03*
X285500D02*
D03*
X482500Y565500D02*
D03*
X472500D02*
D03*
X588750Y511500D02*
D03*
X598750D02*
D03*
X231750Y455750D02*
D03*
X221750D02*
D03*
X444250Y325500D02*
D03*
X434250D02*
D03*
X504500Y315250D02*
D03*
X494500D02*
D03*
X528750Y359750D02*
D03*
X538750D02*
D03*
X515250Y328750D02*
D03*
X525250D02*
D03*
X334500Y405500D02*
D03*
X324500D02*
D03*
X365000Y315500D02*
D03*
X355000D02*
D03*
X524250Y225750D02*
D03*
X534250D02*
D03*
X524250Y235750D02*
D03*
X534250D02*
D03*
X514500Y265250D02*
D03*
X524500D02*
D03*
X514500Y285250D02*
D03*
X524500D02*
D03*
X453500Y342000D02*
D03*
X443500D02*
D03*
X404250Y315500D02*
D03*
X394250D02*
D03*
X404250Y325500D02*
D03*
X394250D02*
D03*
X455000Y315500D02*
D03*
X445000D02*
D03*
X454750Y305000D02*
D03*
X444750D02*
D03*
X414500Y295750D02*
D03*
X424500D02*
D03*
X454750Y295500D02*
D03*
X444750D02*
D03*
X454500Y285500D02*
D03*
X464500D02*
D03*
X380500Y282250D02*
D03*
X370500D02*
D03*
X380500Y270500D02*
D03*
X370500D02*
D03*
X445000Y265250D02*
D03*
X435000D02*
D03*
X445000Y255000D02*
D03*
X435000D02*
D03*
X394750Y305250D02*
D03*
X384750D02*
D03*
X342000Y281750D02*
D03*
X332000D02*
D03*
X531250Y181750D02*
D03*
X541250D02*
D03*
X414250Y215500D02*
D03*
X424250D02*
D03*
X342500Y270500D02*
D03*
X332500D02*
D03*
X342750Y292250D02*
D03*
X332750D02*
D03*
X504500Y225750D02*
D03*
X514500D02*
D03*
X336750Y196500D02*
D03*
X326750D02*
D03*
X354750Y365250D02*
D03*
X344750D02*
D03*
X354750Y375250D02*
D03*
X344750D02*
D03*
X424250D02*
D03*
X434250D02*
D03*
X494500Y305250D02*
D03*
X484500D02*
D03*
X504250Y305250D02*
D03*
X514250D02*
D03*
X494250Y325500D02*
D03*
X504250D02*
D03*
X434250Y355250D02*
D03*
X424250D02*
D03*
X317500Y577500D02*
D03*
X327500D02*
D03*
D187*
X385750Y442500D02*
D03*
Y432500D02*
D03*
X271250Y155750D02*
D03*
Y145750D02*
D03*
X152250Y106250D02*
D03*
Y116250D02*
D03*
X112250Y41250D02*
D03*
Y51250D02*
D03*
X484500Y395750D02*
D03*
Y405750D02*
D03*
X354500Y335750D02*
D03*
Y325750D02*
D03*
X404500Y195750D02*
D03*
Y205750D02*
D03*
X534750Y295250D02*
D03*
Y285250D02*
D03*
X569500Y296250D02*
D03*
Y306250D02*
D03*
X271250Y124500D02*
D03*
Y134500D02*
D03*
X181250Y509000D02*
D03*
Y499000D02*
D03*
X96250Y511750D02*
D03*
Y521750D02*
D03*
X128000Y569750D02*
D03*
Y559750D02*
D03*
X129250Y484500D02*
D03*
Y474500D02*
D03*
X252500Y562000D02*
D03*
Y572000D02*
D03*
X242500Y567000D02*
D03*
Y577000D02*
D03*
X232500Y562000D02*
D03*
Y572000D02*
D03*
X224750Y498125D02*
D03*
Y488125D02*
D03*
X255500Y498250D02*
D03*
Y488250D02*
D03*
X106750Y569750D02*
D03*
Y559750D02*
D03*
X251750Y401000D02*
D03*
Y411000D02*
D03*
X270250Y399750D02*
D03*
Y409750D02*
D03*
X280250Y406500D02*
D03*
Y416500D02*
D03*
X512750Y61000D02*
D03*
Y51000D02*
D03*
X485250D02*
D03*
Y61000D02*
D03*
X300000Y121500D02*
D03*
X300000Y111500D02*
D03*
X605000Y96000D02*
D03*
Y86000D02*
D03*
X578500Y152250D02*
D03*
Y142250D02*
D03*
X579750Y334750D02*
D03*
Y324750D02*
D03*
X617750Y344750D02*
D03*
Y334750D02*
D03*
X589750Y323750D02*
D03*
Y313750D02*
D03*
X584500Y272250D02*
D03*
Y262250D02*
D03*
X473000Y432250D02*
D03*
Y442250D02*
D03*
X489000Y432250D02*
D03*
Y442250D02*
D03*
X505000Y432250D02*
D03*
Y442250D02*
D03*
X539500Y432250D02*
D03*
Y442250D02*
D03*
X521000Y536750D02*
D03*
Y546750D02*
D03*
X428750Y27500D02*
D03*
Y37500D02*
D03*
X491250Y148250D02*
D03*
Y158250D02*
D03*
X142000Y207000D02*
D03*
Y197000D02*
D03*
X67000Y211000D02*
D03*
Y221000D02*
D03*
X209750Y163000D02*
D03*
Y153000D02*
D03*
X170500Y311500D02*
D03*
Y321500D02*
D03*
X153250Y264500D02*
D03*
Y254500D02*
D03*
X128104Y298354D02*
D03*
Y288354D02*
D03*
X216750Y354250D02*
D03*
Y364250D02*
D03*
X212500Y234750D02*
D03*
Y244750D02*
D03*
X180000Y235000D02*
D03*
Y245000D02*
D03*
X170000D02*
D03*
Y235000D02*
D03*
X174250Y364250D02*
D03*
Y354250D02*
D03*
X195250Y354250D02*
D03*
Y364250D02*
D03*
X226250Y354250D02*
D03*
Y364250D02*
D03*
X222750Y244750D02*
D03*
Y234750D02*
D03*
X195500Y314000D02*
D03*
Y304000D02*
D03*
X191250Y253250D02*
D03*
Y243250D02*
D03*
X205250Y364250D02*
D03*
Y354250D02*
D03*
X236250Y364250D02*
D03*
Y354250D02*
D03*
X232750Y234750D02*
D03*
Y244750D02*
D03*
X164500Y362250D02*
D03*
Y352250D02*
D03*
X374250Y536750D02*
D03*
Y546750D02*
D03*
X349500Y536500D02*
D03*
Y546500D02*
D03*
X421750Y442750D02*
D03*
Y432750D02*
D03*
X456750Y442250D02*
D03*
Y432250D02*
D03*
X455000Y540500D02*
D03*
Y550500D02*
D03*
X333500Y442750D02*
D03*
Y432750D02*
D03*
X358250Y442750D02*
D03*
Y432750D02*
D03*
X569000Y536750D02*
D03*
Y546750D02*
D03*
X480750Y536500D02*
D03*
Y546500D02*
D03*
X311500Y450500D02*
D03*
Y440500D02*
D03*
X522000Y442250D02*
D03*
Y432250D02*
D03*
X550500Y442250D02*
D03*
Y432250D02*
D03*
X396250Y536750D02*
D03*
Y546750D02*
D03*
X443000Y537000D02*
D03*
Y547000D02*
D03*
X425500Y536750D02*
D03*
Y546750D02*
D03*
X409750Y536750D02*
D03*
Y546750D02*
D03*
X505000Y536750D02*
D03*
Y546750D02*
D03*
X491000Y536500D02*
D03*
Y546500D02*
D03*
X470000Y536500D02*
D03*
Y546500D02*
D03*
X440750Y438250D02*
D03*
Y428250D02*
D03*
X409750Y432750D02*
D03*
Y442750D02*
D03*
X369500Y432750D02*
D03*
Y442750D02*
D03*
X235000Y427000D02*
D03*
Y417000D02*
D03*
X213500Y476250D02*
D03*
Y486250D02*
D03*
X104750Y426500D02*
D03*
Y436500D02*
D03*
X18000Y404500D02*
D03*
Y394500D02*
D03*
X504500Y355250D02*
D03*
Y365250D02*
D03*
X394250Y365500D02*
D03*
Y355500D02*
D03*
X524500Y405750D02*
D03*
Y415750D02*
D03*
X464500Y365250D02*
D03*
Y355250D02*
D03*
X435000Y395500D02*
D03*
Y405500D02*
D03*
X464500Y385500D02*
D03*
Y395500D02*
D03*
X484250Y335250D02*
D03*
Y325250D02*
D03*
X374250Y365250D02*
D03*
Y375250D02*
D03*
X474250Y335500D02*
D03*
Y345500D02*
D03*
X498750Y257250D02*
D03*
Y247250D02*
D03*
X384250Y375750D02*
D03*
Y385750D02*
D03*
X374750Y234750D02*
D03*
Y244750D02*
D03*
X494500Y355250D02*
D03*
Y365250D02*
D03*
X514500Y245500D02*
D03*
Y255500D02*
D03*
X464000Y326750D02*
D03*
Y336750D02*
D03*
X424500Y315750D02*
D03*
Y305750D02*
D03*
X414750Y315500D02*
D03*
Y305500D02*
D03*
X434500Y335500D02*
D03*
Y345500D02*
D03*
X458000Y253500D02*
D03*
Y243500D02*
D03*
X434500Y315500D02*
D03*
Y305500D02*
D03*
X465000Y305500D02*
D03*
Y295500D02*
D03*
X444500Y275750D02*
D03*
Y285750D02*
D03*
X454500Y275500D02*
D03*
Y265500D02*
D03*
X394250Y275000D02*
D03*
Y265000D02*
D03*
X404750Y275000D02*
D03*
Y265000D02*
D03*
X413750Y265250D02*
D03*
Y255250D02*
D03*
X424500Y275750D02*
D03*
Y285750D02*
D03*
X434500Y275750D02*
D03*
Y285750D02*
D03*
X424000Y255250D02*
D03*
Y265250D02*
D03*
X484500Y345750D02*
D03*
Y355750D02*
D03*
X324500Y181750D02*
D03*
Y171750D02*
D03*
X519750Y192250D02*
D03*
Y182250D02*
D03*
X354750Y264500D02*
D03*
Y274500D02*
D03*
X464500Y225250D02*
D03*
Y215250D02*
D03*
X432250Y233250D02*
D03*
Y243250D02*
D03*
X395250Y219000D02*
D03*
Y209000D02*
D03*
X537500Y198500D02*
D03*
Y208500D02*
D03*
X494500Y405750D02*
D03*
Y415750D02*
D03*
X494750Y385750D02*
D03*
Y395750D02*
D03*
X404500Y385500D02*
D03*
Y375500D02*
D03*
X374500Y385500D02*
D03*
Y395500D02*
D03*
X514250Y385250D02*
D03*
Y395250D02*
D03*
X424500Y385250D02*
D03*
Y395250D02*
D03*
X364250Y395750D02*
D03*
Y385750D02*
D03*
X384500Y366000D02*
D03*
Y356000D02*
D03*
X414500Y375500D02*
D03*
Y365500D02*
D03*
X514250Y355750D02*
D03*
Y365750D02*
D03*
X504500Y385250D02*
D03*
Y395250D02*
D03*
X514500Y405750D02*
D03*
Y415750D02*
D03*
X454750Y365750D02*
D03*
Y355750D02*
D03*
D191*
X736260Y318387D02*
D03*
Y323987D02*
D03*
X728750Y318387D02*
D03*
Y323987D02*
D03*
X700960Y318787D02*
D03*
Y313187D02*
D03*
X708760Y315987D02*
D03*
Y310387D02*
D03*
X728750Y307483D02*
D03*
Y313083D02*
D03*
X736260Y307387D02*
D03*
Y312987D02*
D03*
X700750Y280400D02*
D03*
Y286000D02*
D03*
X708010Y280313D02*
D03*
Y285913D02*
D03*
X698760Y265887D02*
D03*
Y271487D02*
D03*
X705750Y262850D02*
D03*
Y257250D02*
D03*
X724010Y248237D02*
D03*
Y242637D02*
D03*
X732010Y242887D02*
D03*
Y248487D02*
D03*
X735560Y225937D02*
D03*
Y231537D02*
D03*
X745313Y224960D02*
D03*
Y230560D02*
D03*
X754430Y219720D02*
D03*
Y225320D02*
D03*
X767000Y216400D02*
D03*
Y222000D02*
D03*
X688250Y265900D02*
D03*
Y271500D02*
D03*
X701500Y333087D02*
D03*
Y338687D02*
D03*
X710000Y333087D02*
D03*
Y338687D02*
D03*
X764260Y343087D02*
D03*
Y348687D02*
D03*
X760750Y331150D02*
D03*
Y336750D02*
D03*
X753310Y365787D02*
D03*
Y360187D02*
D03*
X741260Y367987D02*
D03*
Y362387D02*
D03*
X730510Y369987D02*
D03*
Y364387D02*
D03*
X728260Y358987D02*
D03*
Y353387D02*
D03*
X722760Y369987D02*
D03*
Y364387D02*
D03*
X715250Y365350D02*
D03*
Y359750D02*
D03*
X707510Y367137D02*
D03*
Y372737D02*
D03*
X697500Y372600D02*
D03*
Y367000D02*
D03*
X727010Y376437D02*
D03*
Y382037D02*
D03*
X736010Y381787D02*
D03*
Y376187D02*
D03*
X767760Y370737D02*
D03*
Y365137D02*
D03*
X775437Y199440D02*
D03*
Y205040D02*
D03*
X799010Y240637D02*
D03*
Y246237D02*
D03*
X791250Y240637D02*
D03*
Y246237D02*
D03*
X808490Y251863D02*
D03*
Y246263D02*
D03*
X763510Y236137D02*
D03*
Y241737D02*
D03*
X771260Y236137D02*
D03*
Y241737D02*
D03*
X795260Y252637D02*
D03*
Y258237D02*
D03*
X817710Y233087D02*
D03*
Y238687D02*
D03*
X746510Y274687D02*
D03*
Y280287D02*
D03*
X756770Y273537D02*
D03*
Y267937D02*
D03*
X767937Y268790D02*
D03*
Y263190D02*
D03*
X774437Y264960D02*
D03*
Y270560D02*
D03*
X781260Y263416D02*
D03*
Y257816D02*
D03*
X821960Y252887D02*
D03*
Y258487D02*
D03*
X852714Y257046D02*
D03*
Y262646D02*
D03*
X860937Y257190D02*
D03*
Y262790D02*
D03*
X830000Y281850D02*
D03*
Y276250D02*
D03*
X831560Y303687D02*
D03*
Y309287D02*
D03*
X817500Y317473D02*
D03*
Y323073D02*
D03*
X839260Y344737D02*
D03*
Y339137D02*
D03*
X831750Y350550D02*
D03*
Y344950D02*
D03*
X804860Y357137D02*
D03*
Y351537D02*
D03*
X800510Y346537D02*
D03*
Y340937D02*
D03*
X811910Y351537D02*
D03*
Y357137D02*
D03*
X819460Y355500D02*
D03*
Y361100D02*
D03*
X750010Y233137D02*
D03*
Y238737D02*
D03*
X104750Y450800D02*
D03*
Y445200D02*
D03*
X781617Y205254D02*
D03*
Y199654D02*
D03*
X760500Y217550D02*
D03*
Y211950D02*
D03*
X768390Y210846D02*
D03*
Y205246D02*
D03*
D192*
X742060Y300937D02*
D03*
X736460D02*
D03*
X695710Y292187D02*
D03*
X701310D02*
D03*
X734060Y275437D02*
D03*
X728460D02*
D03*
Y267687D02*
D03*
X734060D02*
D03*
X703400Y269387D02*
D03*
X709000D02*
D03*
X730210Y236437D02*
D03*
X735810D02*
D03*
X682110Y299737D02*
D03*
X687710D02*
D03*
X747426Y337437D02*
D03*
X741826D02*
D03*
X747900Y354000D02*
D03*
X753500D02*
D03*
X714910Y353387D02*
D03*
X720510D02*
D03*
X715160Y376437D02*
D03*
X720760D02*
D03*
X758500Y376250D02*
D03*
X752900D02*
D03*
X753210Y384187D02*
D03*
X758810D02*
D03*
X757410Y392000D02*
D03*
X763010D02*
D03*
X757330Y399817D02*
D03*
X762930D02*
D03*
X741500Y427250D02*
D03*
X735900D02*
D03*
X823348Y246289D02*
D03*
X817748D02*
D03*
X777560Y249937D02*
D03*
X771960D02*
D03*
X788150Y270187D02*
D03*
X793750D02*
D03*
X788210Y278937D02*
D03*
X793810D02*
D03*
X833610Y258487D02*
D03*
X828010D02*
D03*
X842500Y264250D02*
D03*
X848100D02*
D03*
X822810Y271937D02*
D03*
X817210D02*
D03*
X796463Y285260D02*
D03*
X802063D02*
D03*
X848060Y271437D02*
D03*
X842460D02*
D03*
X822810Y280687D02*
D03*
X817210D02*
D03*
X820940Y288063D02*
D03*
X826540D02*
D03*
X834560Y296187D02*
D03*
X828960D02*
D03*
X813690Y297813D02*
D03*
X819290D02*
D03*
X799500Y305250D02*
D03*
X805100D02*
D03*
X789710Y325437D02*
D03*
X795310D02*
D03*
X829774Y323073D02*
D03*
X824174D02*
D03*
X829060Y330687D02*
D03*
X823460D02*
D03*
X829310Y337187D02*
D03*
X823710D02*
D03*
X825060Y348687D02*
D03*
X819460D02*
D03*
X774404Y210886D02*
D03*
X780004D02*
D03*
X799450Y297750D02*
D03*
X805050D02*
D03*
X734200Y416000D02*
D03*
X739800D02*
D03*
D197*
X529250Y45250D02*
D03*
Y65250D02*
D03*
X164750Y475750D02*
D03*
Y495750D02*
D03*
X499000Y40750D02*
D03*
Y60750D02*
D03*
X605500Y152750D02*
D03*
Y132750D02*
D03*
X603750Y324750D02*
D03*
Y344750D02*
D03*
X569500Y271750D02*
D03*
Y251750D02*
D03*
X119500Y330750D02*
D03*
X119500Y310750D02*
D03*
X136750Y330750D02*
D03*
Y310750D02*
D03*
X86750Y268000D02*
D03*
Y288000D02*
D03*
X104250Y336000D02*
D03*
Y316000D02*
D03*
X128500Y171000D02*
D03*
Y151000D02*
D03*
X157750Y203500D02*
D03*
Y183500D02*
D03*
X435000Y128750D02*
D03*
Y108750D02*
D03*
X499500Y267750D02*
D03*
Y287750D02*
D03*
X52500Y213500D02*
D03*
Y233500D02*
D03*
D203*
X551750Y418750D02*
D03*
Y388750D02*
D03*
X553500Y308750D02*
D03*
Y278750D02*
D03*
X473750Y271750D02*
D03*
Y241750D02*
D03*
D204*
X391500Y568250D02*
D03*
X361500D02*
D03*
X419000Y240000D02*
D03*
X389000D02*
D03*
X329500Y211750D02*
D03*
X359500D02*
D03*
X360000Y245500D02*
D03*
X330000D02*
D03*
D205*
X263750Y570625D02*
D03*
X283750D02*
D03*
X99500Y246500D02*
D03*
X119500D02*
D03*
X99750Y275250D02*
D03*
X119750Y275250D02*
D03*
D216*
X295250Y170500D02*
D03*
Y185500D02*
D03*
X307250Y170500D02*
D03*
Y185500D02*
D03*
X295250Y219000D02*
D03*
Y234000D02*
D03*
X307250Y219000D02*
D03*
Y234000D02*
D03*
X295250Y194500D02*
D03*
X295250Y209500D02*
D03*
X307250Y194500D02*
D03*
Y209500D02*
D03*
X315000Y298000D02*
D03*
Y283000D02*
D03*
X303000Y298000D02*
D03*
Y283000D02*
D03*
X315000Y264000D02*
D03*
X315000Y249000D02*
D03*
X303000Y264000D02*
D03*
X303000Y249000D02*
D03*
D217*
X295250Y175500D02*
D03*
Y180500D02*
D03*
X307250Y175500D02*
D03*
Y180500D02*
D03*
X295250Y224000D02*
D03*
X295250Y229000D02*
D03*
X307250Y224000D02*
D03*
Y229000D02*
D03*
X295250Y199500D02*
D03*
X295250Y204500D02*
D03*
X307250Y199500D02*
D03*
Y204500D02*
D03*
X315000Y293000D02*
D03*
X315000Y288000D02*
D03*
X303000Y293000D02*
D03*
Y288000D02*
D03*
X315000Y259000D02*
D03*
X315000Y254000D02*
D03*
X303000Y259000D02*
D03*
X303000Y254000D02*
D03*
D222*
X766285Y282215D02*
D03*
X759214Y289286D02*
D03*
D243*
X-64375Y-64375D02*
D03*
Y664375D02*
D03*
X1064375Y-64375D02*
D03*
Y664375D02*
D03*
D245*
X554550Y571000D02*
D03*
X13350Y193500D02*
D03*
D246*
X579950Y571000D02*
D03*
X38750Y193500D02*
D03*
X64150D02*
D03*
D247*
X961500Y561500D02*
D03*
X38500Y38500D02*
D03*
Y561500D02*
D03*
X961500Y38500D02*
D03*
D249*
X49500Y461500D02*
D03*
X74500D02*
D03*
Y415250D02*
D03*
X49500D02*
D03*
D250*
X49500Y486500D02*
D03*
X74500D02*
D03*
Y440250D02*
D03*
X49500D02*
D03*
D251*
X42000Y117000D02*
D03*
D252*
X92000D02*
D03*
D253*
X66750Y90000D02*
D03*
D254*
X59000Y391000D02*
D03*
X600000Y571250D02*
D03*
D255*
X46300Y391000D02*
D03*
X612700Y571250D02*
D03*
D256*
X24000Y359000D02*
D03*
Y242000D02*
D03*
D257*
X299643Y404643D02*
D03*
X320857Y425857D02*
D03*
D258*
X282000Y135250D02*
D03*
Y139250D02*
D03*
Y143250D02*
D03*
Y147250D02*
D03*
X305500D02*
D03*
X305500Y143250D02*
D03*
Y139250D02*
D03*
Y135250D02*
D03*
D259*
X287750Y148500D02*
D03*
D260*
X291750Y149000D02*
D03*
X295750D02*
D03*
X299750D02*
D03*
Y133500D02*
D03*
X295750D02*
D03*
X291750D02*
D03*
X287750D02*
D03*
D261*
X150000Y526000D02*
D03*
D262*
X160000Y545000D02*
D03*
X155000D02*
D03*
X150000D02*
D03*
X145000D02*
D03*
X140000D02*
D03*
Y507000D02*
D03*
X145000D02*
D03*
X150000D02*
D03*
X155000D02*
D03*
X160000D02*
D03*
D263*
X129500Y536000D02*
D03*
Y531000D02*
D03*
Y526000D02*
D03*
Y521000D02*
D03*
Y516000D02*
D03*
X170500D02*
D03*
Y521000D02*
D03*
Y526000D02*
D03*
Y531000D02*
D03*
Y536000D02*
D03*
X42000Y510250D02*
D03*
Y515250D02*
D03*
Y520250D02*
D03*
Y525250D02*
D03*
X69000Y510250D02*
D03*
Y515250D02*
D03*
Y520250D02*
D03*
Y525250D02*
D03*
D264*
X126250Y442000D02*
D03*
X212250D02*
D03*
Y391000D02*
D03*
X126250D02*
D03*
D265*
X192000Y442250D02*
D03*
Y390250D02*
D03*
X148000D02*
D03*
Y442250D02*
D03*
X192000D02*
D03*
Y390250D02*
D03*
X148000D02*
D03*
Y442250D02*
D03*
D266*
X170000Y385750D02*
D03*
Y449750D02*
D03*
D267*
X716530Y313417D02*
D03*
X720490Y309457D02*
D03*
X730030Y346417D02*
D03*
X733990Y342457D02*
D03*
X703210Y357040D02*
D03*
X699250Y361000D02*
D03*
X811490Y258363D02*
D03*
X807530Y262323D02*
D03*
D268*
X746350Y266927D02*
D03*
X750310Y270887D02*
D03*
X806490Y276207D02*
D03*
X810450Y280167D02*
D03*
D269*
X123375Y81125D02*
D03*
X123375Y85125D02*
D03*
X123375Y89125D02*
D03*
X123375Y93125D02*
D03*
X119375Y81125D02*
D03*
Y85125D02*
D03*
X119375Y89125D02*
D03*
X119375Y93125D02*
D03*
X115375Y81125D02*
D03*
X115375Y85125D02*
D03*
Y89125D02*
D03*
Y93125D02*
D03*
X111375Y81125D02*
D03*
Y85125D02*
D03*
Y89125D02*
D03*
X111375Y93125D02*
D03*
D270*
X257500Y46250D02*
D03*
Y39750D02*
D03*
Y33250D02*
D03*
Y26750D02*
D03*
X198500Y46250D02*
D03*
Y39750D02*
D03*
Y33250D02*
D03*
Y26750D02*
D03*
X418750Y159000D02*
D03*
Y165500D02*
D03*
Y172000D02*
D03*
Y178500D02*
D03*
X477750Y159000D02*
D03*
Y165500D02*
D03*
Y172000D02*
D03*
Y178500D02*
D03*
X339750Y159000D02*
D03*
Y165500D02*
D03*
Y172000D02*
D03*
Y178500D02*
D03*
X398750Y159000D02*
D03*
Y165500D02*
D03*
Y172000D02*
D03*
Y178500D02*
D03*
D271*
X249750Y370000D02*
D03*
X271750D02*
D03*
Y387000D02*
D03*
X249750D02*
D03*
D272*
X262250Y518125D02*
D03*
Y523125D02*
D03*
Y528125D02*
D03*
Y533125D02*
D03*
Y538125D02*
D03*
Y543125D02*
D03*
X223750D02*
D03*
Y538125D02*
D03*
Y533125D02*
D03*
Y528125D02*
D03*
Y523125D02*
D03*
Y518125D02*
D03*
D273*
X255500Y549875D02*
D03*
X250500D02*
D03*
X245500D02*
D03*
X240500D02*
D03*
X235500D02*
D03*
X230500D02*
D03*
Y511375D02*
D03*
X235500D02*
D03*
X240500D02*
D03*
X245500D02*
D03*
X250500D02*
D03*
X255500D02*
D03*
D274*
X124500Y221000D02*
D03*
X84500D02*
D03*
Y197000D02*
D03*
X124500D02*
D03*
D275*
X325750Y513750D02*
D03*
Y505750D02*
D03*
Y473750D02*
D03*
Y465750D02*
D03*
Y457750D02*
D03*
X333750Y521750D02*
D03*
Y513750D02*
D03*
Y505750D02*
D03*
Y473750D02*
D03*
Y465750D02*
D03*
X341750Y513750D02*
D03*
X341750Y505750D02*
D03*
X341750Y473750D02*
D03*
X341750Y465750D02*
D03*
Y457750D02*
D03*
X349750Y521750D02*
D03*
Y513750D02*
D03*
Y505750D02*
D03*
Y473750D02*
D03*
Y465750D02*
D03*
X357750Y513750D02*
D03*
Y505750D02*
D03*
Y473750D02*
D03*
Y465750D02*
D03*
Y457750D02*
D03*
X365750Y521750D02*
D03*
Y513750D02*
D03*
Y505750D02*
D03*
Y473750D02*
D03*
Y465750D02*
D03*
X373750Y521750D02*
D03*
Y513750D02*
D03*
Y505750D02*
D03*
Y473750D02*
D03*
Y465750D02*
D03*
Y457750D02*
D03*
X381750Y521750D02*
D03*
Y513750D02*
D03*
Y505750D02*
D03*
Y473750D02*
D03*
Y465750D02*
D03*
Y457750D02*
D03*
X389750Y521750D02*
D03*
Y513750D02*
D03*
X389750Y505750D02*
D03*
Y473750D02*
D03*
Y465750D02*
D03*
Y457750D02*
D03*
X397750Y521750D02*
D03*
Y513750D02*
D03*
X397750Y505750D02*
D03*
X397750Y473750D02*
D03*
X397750Y465750D02*
D03*
Y457750D02*
D03*
X405750Y521750D02*
D03*
Y513750D02*
D03*
Y505750D02*
D03*
Y473750D02*
D03*
Y465750D02*
D03*
Y457750D02*
D03*
X413750Y521750D02*
D03*
Y513750D02*
D03*
Y505750D02*
D03*
Y473750D02*
D03*
Y465750D02*
D03*
Y457750D02*
D03*
X421750Y521750D02*
D03*
Y513750D02*
D03*
Y505750D02*
D03*
Y473750D02*
D03*
Y465750D02*
D03*
Y457750D02*
D03*
X429750Y521750D02*
D03*
Y513750D02*
D03*
X429750Y505750D02*
D03*
Y473750D02*
D03*
Y465750D02*
D03*
Y457750D02*
D03*
X437750Y521750D02*
D03*
Y513750D02*
D03*
Y505750D02*
D03*
Y473750D02*
D03*
Y465750D02*
D03*
Y457750D02*
D03*
X573000Y465750D02*
D03*
Y473750D02*
D03*
Y505750D02*
D03*
Y513750D02*
D03*
Y521750D02*
D03*
X565000Y457750D02*
D03*
Y465750D02*
D03*
Y473750D02*
D03*
Y505750D02*
D03*
Y513750D02*
D03*
X557000Y465750D02*
D03*
X557000Y473750D02*
D03*
X557000Y505750D02*
D03*
X557000Y513750D02*
D03*
Y521750D02*
D03*
X549000Y457750D02*
D03*
Y465750D02*
D03*
Y473750D02*
D03*
Y505750D02*
D03*
Y513750D02*
D03*
X541000Y465750D02*
D03*
Y473750D02*
D03*
Y505750D02*
D03*
Y513750D02*
D03*
Y521750D02*
D03*
X533000Y457750D02*
D03*
Y465750D02*
D03*
Y473750D02*
D03*
Y505750D02*
D03*
Y513750D02*
D03*
X525000Y457750D02*
D03*
Y465750D02*
D03*
Y473750D02*
D03*
Y505750D02*
D03*
Y513750D02*
D03*
Y521750D02*
D03*
X517000Y457750D02*
D03*
Y465750D02*
D03*
Y473750D02*
D03*
Y505750D02*
D03*
Y513750D02*
D03*
Y521750D02*
D03*
X509000Y457750D02*
D03*
Y465750D02*
D03*
X509000Y473750D02*
D03*
Y505750D02*
D03*
Y513750D02*
D03*
Y521750D02*
D03*
X501000Y457750D02*
D03*
Y465750D02*
D03*
X501000Y473750D02*
D03*
X501000Y505750D02*
D03*
X501000Y513750D02*
D03*
Y521750D02*
D03*
X493000Y457750D02*
D03*
Y465750D02*
D03*
Y473750D02*
D03*
Y505750D02*
D03*
Y513750D02*
D03*
Y521750D02*
D03*
X485000Y457750D02*
D03*
Y465750D02*
D03*
Y473750D02*
D03*
Y505750D02*
D03*
Y513750D02*
D03*
Y521750D02*
D03*
X477000Y457750D02*
D03*
Y465750D02*
D03*
Y473750D02*
D03*
Y505750D02*
D03*
Y513750D02*
D03*
Y521750D02*
D03*
X469000Y457750D02*
D03*
Y465750D02*
D03*
X469000Y473750D02*
D03*
Y505750D02*
D03*
Y513750D02*
D03*
Y521750D02*
D03*
X461000Y457750D02*
D03*
Y465750D02*
D03*
Y473750D02*
D03*
Y505750D02*
D03*
Y513750D02*
D03*
Y521750D02*
D03*
D276*
X23250Y451000D02*
D03*
D277*
X15750Y436750D02*
D03*
X20750D02*
D03*
X25750D02*
D03*
X30750D02*
D03*
Y465250D02*
D03*
X25750D02*
D03*
X20750D02*
D03*
X15750D02*
D03*
D278*
X37500Y443500D02*
D03*
Y448500D02*
D03*
Y453500D02*
D03*
Y458500D02*
D03*
X9000D02*
D03*
Y453500D02*
D03*
Y448500D02*
D03*
Y443500D02*
D03*
D279*
X261750Y444500D02*
D03*
D280*
X242500Y454500D02*
D03*
Y449500D02*
D03*
Y444500D02*
D03*
Y439500D02*
D03*
Y434500D02*
D03*
X281000D02*
D03*
Y439500D02*
D03*
Y444500D02*
D03*
Y449500D02*
D03*
Y454500D02*
D03*
D281*
X251750Y425250D02*
D03*
X256750D02*
D03*
X261750D02*
D03*
X266750D02*
D03*
X271750D02*
D03*
Y463750D02*
D03*
X266750D02*
D03*
X261750D02*
D03*
X256750D02*
D03*
X251750D02*
D03*
D282*
X517500Y560000D02*
D03*
Y579000D02*
D03*
X540500Y569500D02*
D03*
M02*
