M48
;Layer_Color=9474304
;FILE_FORMAT=4:4
METRIC,LZ
;TYPE=PLATED
T1F00S00C0.2000
T2F00S00C0.3810
T3F00S00C0.7500
T5F00S00C0.9000
T6F00S00C0.9652
T8F00S00C3.0000
;TYPE=NON_PLATED
T9F00S00C1.0000
T10F00S00C1.1000
%
T01
X0000725Y0001225
X00014Y000055
X000275
X0003425Y0001075
X00041Y000055
X0004775Y0001225
X000545Y000055
X0006125Y0001225
X0007475
X0008825
X0010175
X00095Y000055
X000815
X00068
X001085
X00122
X001355
X0014225Y0001225
X0012875
X0011525
X0011825Y0003525
X0012375
X0012925
X0013475
X0013775Y000425
Y00048
Y000535
Y0005875
X0015425Y0005975
X001495Y0004925
Y00025
X0015575Y0001225
X0016925
X0018275
X001775Y0001975
Y0002625
Y0003275
Y0003925
X001775Y0004475
X001805Y0004975
X001765Y00054
X0017625Y0006525
X0015875Y0009
X00155Y000985
X0015025Y0010125
X0014175Y00113
X0014375Y001205
X001625Y0011475
X00171
X001795Y0011475
X001795Y0012675
X00171Y0012675
X001625Y0012675
X0015325Y00136
X0015925Y0014625
X0016825Y0014625
X0017675
X00188Y00164
Y0017075
X0018025Y0018425
X0017575Y001815
Y00187
X0015725Y0016975
X0013975Y0015875
X0012375Y0016375
X00119Y00168
X00114
X001255Y0014425
X00131
X0012825Y0014
X001245Y0010825
X0011825Y0009775
X00113Y0009775
X0010775
X00127375Y00089625
Y00084625
X00126875Y00076625
X00121625
X00116375
X00132625Y00092625
X0009675Y0005875
Y000535
Y00048
Y000425
X0007225
Y00048
Y000535
Y00059
X00014Y00063251
Y00076751
X0000725Y00070001
Y00056501
X0001275Y00049751
X0000725Y00043001
Y00029501
X00014Y00022751
X0002075Y0001225
X00014Y00090251
Y0010375
X0000725Y00097001
Y00083501
Y00110501
Y00124001
X00008Y00133
X00013625Y0014225
X0000825Y0015775
X00019
X0002975
X00028251Y00178259
X00019Y001785
X0000825
X00014Y0011725
X00149Y000055
X001625
X00176
X0019625Y0001225
X0020975
X00213Y0001975
Y0003275
Y0003925
X002085Y00035
X00213Y0004975
X002175Y0007625
X00223Y0010525
X001995Y00108
X0024025Y001185
X00248743Y00118507
X0025325Y0009425
X0025875
X002645
X002445Y0009275
X0026825Y0006675
Y000605
Y00054
X0026375Y0001225
X00257Y000055
X0025025Y0001225
X002435Y000055
X0023675Y0001225
X0022325
X0023Y000055
X002705
X00284
X002975
X0030425Y0001225
X0029075
X0027725
X0031775
X0031575Y0002125
Y000265
Y00032
X0031025Y0002125
X00311Y000055
X003245
X00338
X0034475Y0001225
X0033125
X0035825
X0037175
X00368Y0002
X00365Y000055
X003785
X0038525Y0001225
X0039875
X0041225
X0042575
X00419Y000055
X004055
X00392
X003515
X0034225Y00038
X00309Y0004375
X0031275Y000585
X0033125Y00067
X0032725Y0008375
X0031625Y0008225
X00315Y0009525
X003095
X00304
X003105Y00101
X0029175Y00128
X00283
X0028075Y0012175
X0029575Y0015425
X002905Y001605
X002895Y001705
Y001755
Y001805
Y001855
X0027875Y001895
X0027725Y00181
X002775Y0017125
X0025075Y0016975
X0023365Y0017785
X00313Y001755
Y001705
Y001805
Y001855
X003295Y001905
X003395
X003695
X003795
X003895
X003995
X004195Y001905
X0043025Y00172
X00449Y0015825
X0046525Y00167429
X004695Y001905
X004795
X004895
X004995Y001905
X005095
X005295
X005395
X004595Y001905
X004495
X00446Y0013325
X00457
X00468Y0013325
X004795
X0048525Y0012775
X0049
X0049475
X004885Y0011125
X004815
X00468Y00111
X004615
X004455Y0010975
X0045025Y00104
X0043425Y00103
X004345Y001165
X004475Y0008
X0044075Y0006
X0044075Y000515
X0044075Y00043
X0042875
Y000515
Y0006
X004075Y0005475
Y0004625
X004075Y0003725
X004195Y0003375
X00435Y0002425
X004485Y0002375
X0045425
X0046
X0046575
X0046625Y0001225
X004595Y000055
X0045275Y0001225
X00446Y000055
X0043925Y0001225
X004325Y000055
X00473
X004865
X005
X0050675Y0001225
X0049325
X0047975
X004795Y0002475
X00485Y0002325
X0049075Y0002475
Y0003
X00501Y0003425
X0050625
X005085Y0003975
X00511Y000235
X0052425Y0002125
X0052925
X0053425
X0053375Y0001225
X0054725
X005405Y000055
X00527
X0052025Y0001225
X005135Y000055
X00554
X005675
X00581
X0057425Y0001225
X0056075
X0056675Y000555
Y0006025
X0057175
Y000555
X0058375
Y0006025
X00555Y000715
Y0007625
X0055
Y000715
X0054225Y0007375
Y000785
X0053725
Y0007375
X0053225
Y000785
X00527Y0007875
Y00074
X00522
Y0007875
X00517
Y00074
X00512
Y0007875
X00507Y000635
X00507Y00058
X0049025Y00058
X0049025Y000635
X005255Y00059
X005305
X00533Y0005525
X00528
X0047125Y000325
X004555Y0003325
X003915Y000685
X0038475
X0038025Y00084
Y0009475
X0037725Y0010925
X0038125Y00121
X00379Y001495
X0038875Y00159
X003895Y00172
X0038925Y001785
X00362Y00152
X0032575Y0015825
Y0016375
X003195
Y0015825
X00312Y001605
X0048Y0015475
X00628Y00175
X00633
X0062925Y0018325
X0062475
X006345Y0018875
X00639
X00656394Y00155559
X00667592Y00158559
X00653342Y00144309
X00721453Y00154217
X00726403Y00149268
X00726847Y00169829
X00736656Y00169067
X007463Y00157493
X007533
X0075806Y00171993
X0075306Y00178743
X00777805Y00154936
X0077775Y00130303
X00770895Y00111763
X00759395
X00765105Y00101742
X0076415Y000615
X007639Y00053
X0076615Y000445
X007724Y0003825
X0077965Y0004075
X0077865Y000325
X0078465Y0003
X007904
X0079615
X0080215Y000325
X0080115Y0004075
X008084Y0003825
X0081465Y000445
X008169Y00053
X0081665Y000615
X0081725Y0001225
X0083075
X00824Y000055
X008375
X00851
X008645
X0087125Y0001225
X0085775
X0084425
X0080375
X0079025
X0077675
X0077Y000055
X0076325Y0001225
X0074975
X00743Y000055
X0073625Y0001225
X007295Y000055
X0072275Y0001225
X0070925
X007025Y000055
X0069575Y0001225
X00689Y000055
X0068225Y0001225
X0066875
X00662Y000055
X0065525Y0001225
X006485Y000055
X0064175Y0001225
X0062825
X006215Y000055
X0061475Y0001225
X00608Y000055
X0060125Y0001225
X00601Y0002025
Y0002525
Y000305
X0058775Y0001225
X005945Y000055
X00635
X006755
X00716
X007565
X00878
X008915
X00905
X0091175Y0001225
X0089825
X0088475
X0092525
X0093875
X0095225
X009455Y000055
X00932
X009185
X00959
X0096575Y00011
X009725Y000055
X0097925Y0001225
X00937Y0006125
X0093925Y0006975
X00939Y0007825
X0093075Y00055
X009235Y000575
X009245Y0004925
X009185Y0004675
X0091275
X00907
X00901Y0004925
X00902Y000575
X0089475Y00055
X008885Y0006125
X0088625Y0006975
X008865Y0007825
X00892744Y00117334
X00889744Y00128532
X00849889Y00138092
X00844939Y00133142
X00843002Y00151711
X00834693Y00152948
X008173Y00157493
X008103
X0080555Y00171993
X0081055Y00178743
X00876582Y00185292
X00895144Y00183347
X00890194Y00178397
X0092475Y00177
X00925Y001855
X00927Y001685
X0093325Y0016225
X009405Y0016475
X009395Y001565
X009455Y00154
X0095125
X00957
X00963Y001565
X00962Y0016475
X0096925Y0016225
X009755Y001685
X0097775Y00177
X009775Y001855
X006885Y0007925
X0068875Y0007075
X006865Y0006225
X0068025Y00056
X00673Y000585
X00674Y0005025
X00668Y0004775
X0066225
X006565
X006505Y0005025
X006515Y000585
X0064425Y00056
X00638Y0006225
X0063575Y0007075
X00636Y0007925
X0061775
X0061225
Y0007375
X006175
X0058875Y0006025
Y000555
X0098675Y00050251
X0099275Y00056501
X00986Y00063251
Y00076751
X0099275Y00070001
Y00083501
X00986Y00090251
Y0010375
X0099275Y00097001
Y00110501
X00986Y0011725
Y00130751
X0099275Y00124001
Y001375
X00986Y0014425
Y00157751
X0099275Y00151
Y00164501
X00986Y0017125
Y0018475
X0099275Y00178001
Y00043001
Y00029501
X00986Y00022751
X0099275Y0001225
X00986Y000055
Y00198251
X0099275Y001915
Y00205
X00986Y0021175
Y0022525
X0099275Y002185
Y00232
X00986Y0023875
Y0025225
X0099275Y002455
Y00259
X00986Y0026575
Y0027925
X0099275Y002725
Y00286
X00986Y0029275
Y0030625
X0099275Y002995
Y00313
X00986Y0031975
Y0033325
X0099275Y003265
Y0034
X00986Y0034675
Y0036025
Y0037375
X0099275Y00367
Y003535
Y003805
X00986Y0038725
Y0040075
X0099275Y00394
Y004075
X00986Y0041425
Y0042775
X0099275Y00421
Y004345
X00986Y0044125
Y0045475
Y0046825
X0099275Y004615
Y00448
Y00475
Y004885
X00986Y0049525
Y0048175
Y0050875
Y0052225
X0099275Y005155
Y00502
Y00529
Y005425
X0098625Y0054925
X0099275Y00556
Y005695
X00986Y0057625
Y0053575
X0093875Y0052425
X009315Y0052175
X009325Y0053
X009265Y005325
X0092075Y005325
X00915Y005325
X00909Y0053
X0091Y0052175
X0090275Y0052425
X008965Y00518
X0089425Y005095
X008945Y00501
X0088975Y00542
X0089Y005505
X0088775Y00559
X008815Y0056525
X0087425Y0056275
X0087525Y00571
X0086925Y005735
X008635Y005735
X0085775Y005735
X0085175Y00571
X0085275Y0056275
X008455Y0056525
X0083925Y00559
X00837Y005505
X0083725Y00542
X0082425
X008245Y005505
X0082225Y00559
X00816Y0056525
X0080875Y0056275
X0080975Y00571
X0080375Y005735
X00798Y005735
X0079225Y005735
X0078625Y00571
X0078725Y0056275
X0078Y0056525
X0077375Y00559
X007715Y005505
X0077175Y00542
X00759Y00542
X0075925Y005505
X00757Y00559
X0075075Y0056525
X007435Y0056275
X007445Y00571
X007385Y005735
X0073275Y005735
X00727Y005735
X00721Y00571
X00722Y0056275
X0071475Y0056525
X007085Y00559
X0070625Y005505
X007065Y00542
X00695586Y00542
X00695836Y005505
X00693586Y00559
X00687336Y0056525
X00680086Y0056275
X00681086Y00571
X00675086Y005735
X00669336Y005735
X00663586Y005735
X00657586Y00571
X00658586Y0056275
X00651336Y0056525
X00645086Y00559
X00642836Y005505
X00643086Y00542
X006175Y00539
X006105
Y0054725
X006175
X0061775Y0055625
X0061075
X005885Y0056
X006105Y00506
X006175
Y00497
X006105
Y0048875
X006175
X0061825Y00452
X0061075
X00624Y00421
X0062725Y0042425
X0062775Y004175
X00624Y0041425
X00620715Y003935
Y003885
X00614965Y003885
Y0039325
X00642Y0038925
X00632215Y0037325
Y00367785
X0062975Y0035875
X00635722Y00355028
X006395Y003585
X006405Y00351321
X00636929Y0034775
X006425Y0033575
X006525Y0032475
X00654Y00312553
X0065925Y003125
X006645
X0067Y003125
X00675413Y00312413
X0068375Y003085
X00697Y003075
X0069901Y00297687
X0071015Y00306423
X0071348Y00303093
X0071681Y00299763
X0072347Y00299763
X0072014Y00303093
X0071681Y00306423
X0071348Y00309753
Y00316413
X0071681Y00319743
X0072014Y00316413
Y00323073
X0071681Y00326403
X0071348Y00329733
X0071681Y00333063
X0072014Y00329733
X0072347Y00326403
Y00319743
X0072347Y00313083
X0074141Y00311483
Y00306483
X0075141
Y00311483
Y00316483
Y00321483
X0074641
Y00326483
X0075141Y00326483
X0074141
Y00316483
Y00296483
Y00291483
Y00286483
X0075141
Y00291483
Y00296483
X0076141Y00296383
Y00286383
Y00276383
X0075141Y00276483
X0074141
X0074012Y00263133
X0073679Y00259803
X0073346Y00256473
X0073013Y00259803
X007268Y00263133
X0072014Y00263133
Y00269793
X0071348
X0071348Y00276453
X0071681Y00273123
Y00279783
X0072014Y00276453
Y00283113
X0071681Y00286443
X0071681Y00293103
X0072014Y00289773
X0072347Y00293103
X0072351Y00286437
X0071348Y00289773
X007005Y002755
X006675Y0028
X006615Y0028
X0065625
X00660197Y00267
X0066525Y00267
X006705Y00267
X006705Y00243
X0068075Y0024075
X0068575Y00245
X00696124Y00238876
X00695873Y00228127
X00696004Y00209718
X00694766Y0020141
X00676198Y00199472
X00681148Y00194522
X00629Y00194
X006245
X00619Y00199
X006145
X0060875
X00609Y001915
X00616
X006245Y0020475
X00629
X006355Y0020975
X006635Y002335
X00627Y00254
X0062775Y00267
X00624Y0027
X0063175
X00639Y00272
Y0026725
X006175Y0024525
X0061225Y00248
X00598Y00271
X006005Y003005
X00601Y00313
X0059475Y0032475
X0059775Y0033075
X006025
X0062775Y0032675
X006285Y003215
X0064875Y00312607
X0064525Y003085
X0066475Y002945
X006745Y0030025
X0066425Y0033575
X0068725Y00334
X0072014Y00336393
X0073679Y00339723
X0073346Y00349713
Y00356373
X0074345Y00353044
X0074012Y00349713
X0074345Y00346383
X0075011
X0075677
X0075344Y00349713
X007601Y00349714
X0076343Y00353043
X0075926Y00341687
X0074678Y00343053
X0076141Y00326384
Y00321384
Y00316383
Y00311383
Y00306383
X0077141Y00306483
Y00311483
Y00316483
Y00321483
Y00326483
X0078141
Y00321483
Y00316483
Y00311483
Y00306483
Y00296483
Y00291483
Y00286483
Y00281483
Y00276483
X0077141
Y00286483
Y00291483
Y00296483
X0080006Y00289773
X0080672Y00289773
Y00283113
X0080339Y00279783
Y00273123
X0080006Y00269793
X0080339Y00266463
X0081005
X0081005Y00273123
X0081338Y00276453
X0080006
X0080006Y00256473
X0080339Y00259803
X007934Y00263133
X0076675Y002565
X0076343Y00259803
X007601Y00263133
X0075677Y00259803
X0075344Y00263133
X0075011Y00259803
X0075011Y00253143
X0074012Y00256473
X0073679Y00253143
X0073013Y00253143
X007268Y00256473
X0072347Y00253143
X00716Y0024525
X0074525Y00241
X0076343Y00246483
X0076676Y00249813
X0081671Y00286443
X0083525Y002815
X008395Y00296
X00835Y00328
X0081651Y00331937
X0081005Y00326403
X0080672Y00323073
X0080006
Y00329733
X0080339Y00333063
X0078776Y00335187
Y00330187
X0077976Y00343373
X00708Y003545
X00658Y0036
X00682326Y00439532
X0067923Y0045071
X00693855Y00436212
X00713258Y00465992
X00713757Y00477742
X00723387Y00470715
X00722507Y00458992
X00739007Y00454242
X00747757Y00435742
X00785305Y00444728
X00785215Y00465321
X007726Y00476711
X00778084Y00487002
X00766803Y00486824
X007726Y00496864
X0084298Y00478334
X0084398Y00466834
X00851981Y00485334
X00878507Y00457434
X00889257Y00460434
X00886507Y00449684
X00874757Y00446184
X00876201Y00429184
X00861757Y00414684
X009295Y00413
X0092725Y004045
X009275Y00396
X00927941Y00372687
X00927941Y00361437
X00937941Y00366937
X00917691
X00906191Y00354378
X00885941
X0091775Y00314813
X0092275Y00315
X00935Y003055
X0093975
X00945Y003105
X00946Y003005
X00950937Y00300563
X0094025Y00288
X0093525Y00288063
X0093Y00281375
X00925Y0028125
X0092475Y00294313
X009295
X00934407Y00241277
Y00229777
X00923657Y00235527
X00913252Y00248227
X00891857Y00248227
X008893Y00268722
X008893Y00275722
X008748Y00263972
X0086805Y00268972
X0086805Y00211482
X008748Y00216482
X008893Y00211722
Y00204722
X00875345Y001936
X0093575Y0041925
X00943Y0041675
X00942Y00425
X00948Y004275
X0095375Y004275
X009595Y004275
X009655Y00425
X009645Y0041675
X0097175Y0041925
X00978Y00413
X0098025Y004045
X0098Y00396
X00947Y00501
X0094725Y005095
X00945Y00518
X00569Y0051775
Y0052575
X00561Y0051775
Y0050975
X00553
X00545
Y0051775
X00553
X00553Y0052575
X00537
Y0051775
Y0050975
X00529Y0050975
X00521Y0050975
X00513
X00505
X00497
X00497Y0051775
Y0052575
X00505
X00513
X00521
Y0051775
X00513
X00505
X00529
X0052975Y0048925
X0053625
X00537Y0046975
Y0046175
X00545Y0046175
X00553
X00553Y0046975
X00545
X00545Y0045375
X00537Y0045375
X00529Y0046175
X00521
X00513
X00505
X00497
X00489
X00489Y0045375
X00497
X00505
X00513
X0051675Y0045
X00513Y0046975
X00521
X00529Y0046975
X00505Y0046975
X00489Y0046975
X00481
Y0046175
X00473Y0046175
X00465
X00457Y0046175
X00457Y0045375
X00465
X00473
Y0046975
X00457Y0046975
X00455Y0049075
X0044175Y0048575
X0043375Y0047775
X0043375Y0046975
X0043375Y0046175
Y0045375
X0042575
Y0046975
Y0047775
X0041775Y0046975
X0040975
X0040975Y0046175
X0041775Y0046175
X0040975Y0045375
X0039375Y0045375
X0038575
X0037775
X0036975Y0045375
X0036975Y0046175
X0037775
Y0046975
X0038575
X0039375
Y0046175
X0038575
X0036175
Y0045375
Y0046975
X0036975
X0035375Y0046975
X0035375Y0046175
X0034575
X0033775
Y0046975
X0034575
X00346Y0045325
X0032975Y0045375
X0032175Y0046175
X002865Y0046225
Y004685
X002855Y0048175
X0028425Y004915
X002675Y004905
X0026275Y0048475
X0026675Y0047
X0027175
X0025675
X0025175
X00246Y0047075
X002475Y004655
X0024225
X00243Y004585
X0023625Y0044875
Y0044375
Y004385
X002295Y00444
X0021825Y0042625
X00213Y0042575
Y004205
X0021825Y0041895
X002Y0042575
X002Y00406
X00196Y0040925
X0023225Y00407
X002275Y0040175
X002395Y003935
X002405Y0037925
X0022275Y0038025
X0020725Y003785
X002075Y00345907
X001995
X002035Y0033625
X001955Y0033625
Y0032025
X002035Y0032025
Y0031225
X002115
Y0032025
X002195
X002275
Y0031225
Y0030425
Y0029625
X002195
Y0028825
X002275
X002355
X002435
Y0028025
X002355
Y0027225
X002435
X002275
Y0028025
X002195
Y0027225
X002115
Y0028025
Y0028825
Y0029625
X002035
Y0028825
X001955
Y0029625
X002035Y0030425
X002115
X002195
Y0031225
X002355
Y0032025
X002435
Y0032825
X002355
Y0033625
X002435
X00253157Y0033225
Y0032425
Y0031625
Y0030825
Y0030025
Y0029225
Y0028425
X002435Y0029625
Y0030425
Y0031225
X002355Y0030425
Y0029625
X002275Y0032825
X002195
Y0033625
X002275
X002235Y00345907
X002155
X002315
X002515Y0034425
X00254907Y00349
X0025925Y0034625
X0027975
X002855Y0035125
Y0035625
Y0036125
Y0036625
Y00376
Y00381
Y00386
Y00391
X0028625Y00402
Y00407
Y00412
Y00417
X002855Y0042525
X002775
X002745Y0041675
X0026275Y00417
Y00412
Y00407
Y00402
X002575Y004175
X0025175
X002465Y004205
X0024475Y004255
X0025625Y00439
X0026725
Y0045
X0025625
X00281Y00459
X0028975Y0044075
X0030175Y004335
X00309Y00391
Y00386
Y00381
Y00376
Y0036625
Y0036125
Y0035625
Y0035125
Y0034125
Y0033625
Y0033125
Y0032625
X00309Y00316
Y00311
Y00306
Y00301
X0032075Y00298
Y00293
Y00288
Y00283
X00309Y00281
Y00276
Y00271
Y00266
X0032075Y00264
Y00259
Y00254
Y00249
X003395Y002505
X003495Y002605
Y002705
X003595
Y002905
X003695
X003795
X003895
Y002805
Y002705
X003995
X004095
X004195
X004295
Y002805
X004195
X004095
Y002905
X004195
X004295
X004395
Y002805
Y002705
X004495Y002705
X004595
Y002805
X004695
X004795Y002805
X004895Y002805
Y002905
X004795
Y003005
Y003105
X004795Y003205
Y003305
X004795Y003405
X004895Y003405
Y003505
X004895Y003605
X004895Y003705
Y003805
Y003905
X004895Y004005
X004995Y004005
X004995Y003905
X005095
X005095Y004005
X005195
X005295
X005295Y003905
X005195
Y003805
X005295
Y003705
X005195
X005095
Y003605
X004995
Y003705
Y003805
X005095
X005395
Y003705
Y003905
X005395Y004005
Y004105
X005295
X005195
X005095
X004995
X004895Y004105
X004795
X004695
X004595
Y004005
X004695
X004795
X004795Y003905
X004695
X004595
X004495
X004495Y004005
X004395Y004005
Y003905
X004295
X004195
X004195Y004005
X004095
X004095Y003905
X003995
X003995Y004005
X003895
X003895Y003905
X003795
X003795Y004005
X003695
X003695Y003905
X003595Y003905
Y004005
X003495Y004005
X003495Y003905
X003495Y003805
Y003705
X003595
X003695
X003795
Y003605
X003695
X003595Y003605
X003595Y003505
X003495
X003395Y003505
Y003605
Y003705
Y003805
X003295
X00326Y00376
X003295Y003705
Y003605
Y003505
Y003405
X003495
X003495Y003305
X003595
Y003405
X003695
X003695Y003305
Y003205
X003595
Y003105
X003595Y003005
X003495
X003495Y003105
X003395
X003395Y003005
X003295
X003295Y003105
Y003205
X003395
X003695Y003105
X003795Y003105
X003795Y003005
X003895Y003105
X003995
X003995Y003005
X004095
X004095Y003105
X004195
X004295
X004295Y003005
X004195
X004195Y003205
X004095
X003995
Y003305
X003995Y003405
X003895
Y003505
X003995Y003505
X004095
X004195
X004295
Y003605
Y003705
X004195
X004095
Y003605
X004195
Y003805
X004095
X003995
Y003705
Y003605
X003895Y003705
Y003805
X003795
X003695
X003595
X003495Y003605
X003395Y004005
X003295
X003295Y003905
X003395Y004105
X003495
X003695
X003795
X003895
X003995
X004095
X004195
X004295Y004105
X004395
X004295Y004005
X004295Y003805
X004395
Y003705
Y003605
X004495Y003605
Y003705
Y003805
X004595
X004695
X004795
X004695Y003705
X004595
Y003605
Y003505
Y003405
X004695
Y003505
X004795Y003505
Y003605
X004995Y003505
X005095
X005195
X005295Y003505
Y003405
X005095
X004995
X004995Y003305
Y003205
X005095
X005095Y003105
X005195Y003105
Y003005
X005295
Y003105
X005395Y003105
X005395Y003005
X005395Y002905
X005495
X005395Y002805
X005295
Y002905
X005195
Y002805
Y002705
X005295
Y002605
Y002505
X005195
Y002605
X005095
Y002505
Y002405
X005195
Y002305
X005295
Y002405
X005395Y002305
X005495
X005495Y002405
Y002505
Y002605
X00553Y0026675
X005395Y002605
X005095Y002705
X005095Y002805
X004995
X005095Y002905
X004995Y003005
X004995Y003105
X004895Y003205
Y003305
X004695
X004695Y003205
X004595Y003205
X004495
Y003305
X004395Y003305
Y003205
Y003105
X004395Y003005
X004495Y003005
X004495Y003105
X004595
X004595Y003005
X004695Y003005
X004595Y002905
X004495
Y002805
X004595Y002605
X004695
X004795Y002605
X004895Y002605
Y002505
Y002405
Y002305
X004795
X004695
X004595
Y002205
X004695Y002205
X004695Y002105
X004595
X004595Y002005
X004695
X004795
X004795Y002105
X004895
X004895Y002005
X004995Y002105
Y002205
Y002305
Y002405
X005095Y002305
X005095Y002205
X005195Y002205
X005295
X005395Y002205
X005495Y002205
X005495Y002005
X005295Y002005
X005195
Y002105
X005295Y002105
X005095Y002005
X004495Y002005
X004395Y002005
X004295
X004295Y002105
X004395Y002105
X004395Y002205
X004495Y002205
X004395Y002305
X004395Y002405
X004295Y002505
Y002605
X004195
Y002205
X004295Y002205
X004195Y002105
X004095Y002105
Y002005
X003995Y002005
X003895Y002005
X003895Y002105
Y002205
X003695
Y002305
X003595
X003495
Y002105
X003695Y002105
X003695Y002005
X003795Y002305
X003795Y002405
X003695Y002405
X003695Y002605
X003495Y002805
Y002905
X003995
Y002805
X003895Y003205
X003795
X004095Y003305
X004195
X004295
Y003205
X004395Y003505
X004495Y003505
X005395Y003505
X005535Y0034925
Y00354
Y00359
X005395Y003205
X0057625Y003115
X0057125Y0029025
X005735Y0028025
X005685
X004895Y002705
X0047225Y002505
X004635
X004095Y002305
X00313Y00229
Y00234
Y00224
Y00219
Y002095
Y002045
Y001995
Y001945
X0028375Y0019425
X002895Y002045
Y002095
Y00219
Y00224
Y00229
Y00234
X0028175Y002255
X0028025Y0024725
X0029725Y00249
Y00254
Y00259
Y00264
X002855Y00266
Y00271
Y00276
Y00281
X0029725Y00283
Y00288
Y00293
Y00298
X002855Y00301
Y00306
Y00311
Y00316
X002855Y0032625
Y0033125
Y0033625
Y0034125
X002805Y0037925
X002115Y0032825
X002035Y0027225
X001955
X001995Y00254593
X0019925Y00247
Y0024175
X002075Y00254593
X002155
X002235
X002315
X002395
X0025025Y0025575
X0026025Y00254
X00271Y0019875
X00215Y00201
X002115Y002045
X0020775Y0020825
X002175Y002175
X002175Y00222
X0022225Y0021875
Y0021375
X00235Y0047175
X0019675Y00473
X00191Y004725
X0020025Y0048525
X002115Y0049475
X00217
Y005005
X0021825Y005125
X002065Y0052425
X002375Y00525125
Y00536125
X002485
Y00525125
X00248375Y0056275
X00243Y00559
X0023775Y00557
X00238Y0056275
X0023725Y00579
X00249Y0058075
X0027225Y00579
Y005725
X00278Y0057225
Y0057675
X0027225Y00566
X00276Y005595
X0027825Y00553
X00271Y00553
X002805Y0054775
X002945Y0053875
X003015Y005405
X00309Y0054
Y005465
Y00553
Y005595
Y00566
Y00579
X00334Y005745
X00339
X0035025Y0057925
X003555
X0036075
X0040075Y0057625
X004075
X00404Y005805
X00403Y0054875
X004175
X0041775Y0052575
X0040975
X0040175
X0039375
X0038575
X0037775
X0037775Y0051775
X0038575
X0039375
X0040175
X0040975
X0041775
X0042575
Y0052575
X0043375
Y0051775
X0044175Y0051775
X0044175Y0052575
X00457Y0052575
X00465
X00473
X00481
X00489
X00481Y0051775
X00481Y0050975
X00473
X00465
X00457
X0044175Y0050975
X0043375
X0042575
X0041775
X0040975
X0040175
X0039375
X0038575
X0036975Y0051775
Y0052575
X0035375
X0035375Y0051775
X0034575
X0033775
Y0050975
X0033775Y0050175
X00353093Y0050025
X0035375Y0050975
X0036175
Y0051775
X00388Y0055075
X0040202Y00477773
X0043325Y004425
X00465Y0051775
X00473
X00489Y0050975
X00504Y0056475
X0046375Y005705
Y0057575
Y00581
X00583Y0056
X00561Y0046975
Y0046175
X002995Y0055375
X0020725Y0056175
X0019725
Y00549
X0019975Y005745
X001815Y0058125
X0015Y0056175
X001355Y00543
X001295Y005425
X001445Y005315
Y005205
X001555
Y005315
X0018925Y0052925
X0018675Y00493
X0018175Y00484
X0017475Y0047575
X0017675Y00461
X0016675Y00464
X00156Y00455
X0016Y0044325
X0018125Y004445
Y0045025
X0017925Y0042575
X0018625
X001735Y004075
X0018125Y003815
X00149Y003795
X00135Y00379
X0013525Y004005
X001365Y0043075
X0013275Y0045575
Y0046325
X001175
X00117Y0045575
X0011Y0045575
X0010475Y004555
X0010725Y0046325
X0010775Y00479
X0009875Y00471
X00121904Y00471
X001015Y0049675
X0010275Y0051175
Y0051675
X0009775Y0052975
X00101Y0053375
X0009975Y0054075
X001045Y005435
X001065Y00551
X0010275Y00556
X000975Y00562
X0009775Y0057475
X0008125Y00581
X000655Y0058175
X00067Y0056825
X0007325Y00556
X000675Y005365
X000525Y0053725
Y005195
X000365Y00501
X00021Y00502
X0002125Y0048975
X0000725Y004885
Y00502
X00014Y0050875
X00021Y005145
X00014Y0052225
X0000725Y005155
Y00529
X00014Y0053575
Y0054925
X0000725Y005425
Y00556
Y005695
X00014Y0057625
X0001475Y004735
X0000725Y0047375
X0002Y004545
X000265Y0045425
Y004475
X0001975Y0044725
X0003675Y00435
X00034Y0042825
X0000775Y00428
X000105Y004135
X0001325Y004075
X0000725Y004075
Y00394
Y003805
X00014Y0038725
X00043Y0040525
X00048Y0040325
X0005575Y004015
X0006475Y004025
X000725Y0040525
X0009375Y0041
X0009625Y0039175
X000965Y00385
X0008975Y0038625
X0008925Y00392
X0008Y003695
X0007225Y0035475
X0006725
Y00348
X0006225
X0006425Y0034375
X00061Y00362
X000865Y0034625
X000865Y00341
X00095Y0034175
X00092Y0033425
X00081
X00064Y0030475
Y0029525
X0007212Y0028875
X00077
X0003525Y003
X0003Y003
X00021225Y00300865
X0003Y0033
X0003525Y0033
Y0027
X0003Y0027
X0002775Y0026575
X0002775Y0021925
X0002175
X0001675Y002185
X0000725Y002185
X000765Y00231
X0007375Y002355
X000795
X000885Y00234
X001145Y002325
X001135Y002375
X00127Y002325
X00107Y00209
X00102Y00209
X00153Y0019275
X0017025Y001945
X001675Y00254593
X001755
X001835
X001875Y0027225
X001795
Y0028025
X001715Y0028025
Y0028825
Y0030425
X001795Y0030425
X001875Y0030425
Y0029625
Y0031225
X001795
X001875Y0032025
Y0032825
Y0033625
X001795
X001715Y0033625
Y0032825
X001755Y00345907
X001835
X0016025Y003465
X0015775Y0035075
X00158Y0035575
X0014675Y00364
X0013775Y0034975
X0012775Y0034675
X001235Y0034975
X0013275Y0034
X0014075Y00337
X00161843Y0030825
X001625Y0027225
X001715
X001615Y00264
X0011775Y0041675
X0011075
X0007525Y0045125
X00048Y00451
X0003675Y0046375
X000395Y0047375
X0003675Y004785
X0008075Y00509
X000885Y005295
X000965Y0054925
X001255Y0058175
X0015525Y00489
X0015575Y0058775
X00149Y005945
X001625
X0016925Y0058775
X00176Y005945
X001355
X00122
X001085
X0011525Y0058775
X0012875
X0014225
X0010175
X0008825
X0007475
X00068Y005945
X000815
X00095
X0006125Y0058775
X000545Y005945
X0004775Y0058775
X00041Y005945
X0003425Y00589
X000275Y005945
X0002075Y0058775
X00014Y005945
X0000725Y0058775
X0019625
X0020975
X0022325
X0023Y005945
X0023675Y0058775
X002435Y005945
X0025025Y0058775
X00257Y005945
X002705
X00284
X0029075Y0058775
X002975Y005945
X00311
X0031775Y0058775
X003245Y005945
X0033125Y0058775
X00338Y005945
X003515
X0035825Y0058775
X00365Y005945
X0037175Y0058775
X003785Y005945
X00392
X0039875Y0058775
X004055Y005945
X0041225Y0058775
X00419Y005945
X004325
X0043925Y0058775
X00446Y005945
X0045275Y0058775
X004595Y005945
X00473
X0047975Y0058775
X004865Y005945
X0049325Y0058775
X005Y005945
X005135
X0052025Y0058775
X00527Y005945
X0053375Y0058775
X005405Y005945
X00554
X0056075Y0058775
X005675Y005945
X0057425Y0058775
X00581Y005945
X0054725Y0058775
X0050675
X0046625
X0042575
X0038525
X0034475
X0030425
X0027725
X0026375
X0058775
X005945Y005945
X0060125Y0058775
X00608Y005945
X0061475Y0058775
X006215Y005945
X00635
X0064175Y0058775
X006485Y005945
X0065525Y0058775
X00662Y005945
X006755
X0068225Y0058775
X00689Y005945
X0069575Y0058775
X007025Y005945
X00716
X0072275Y0058775
X007295Y005945
X0073625Y0058775
X00743Y005945
X007565
X0076325Y0058775
X0077Y005945
X0077675Y0058775
X0079025
X0080375
X0081725
X00824Y005945
X008375
X0084425Y0058775
X00851Y005945
X0085775Y0058775
X008645Y005945
X00878
X0088475Y0058775
X008915Y005945
X0089825Y0058775
X00905Y005945
X009185
X0092525Y0058775
X00932Y005945
X0093875Y0058775
X009455Y005945
X00959
X0096575Y0058875
X009725Y005945
X0097925Y0058775
X0095225
X0091175
X0087125
X0083075
X0074975
X0070925
X0066875
X0062825
X00986Y005945
X0099275Y0058775
T02
X00372Y0055625
X003815
X0037675Y005625
X00372Y0056875
X003815
T03
X006Y0057125
X006127
X00059Y00391
X000463
T05
X000495Y0041525
X000495Y0044025
X000495Y004615
X000495Y004865
X000745
Y004615
Y0044025
Y0041525
T06
X0055455Y00571
X0057995
X0006415Y001935
X0003875
X0001335
T08
X000385Y000385
X009615
Y005615
X000385
T09
X0019125Y-00001
X00203
X00215
X00785
X00797
X0080875
X00215Y00601
X00203
X0019125
X00785
X00797
X0080875
T10
X00024Y00278
Y00323
M30
