G04 Layer_Color=255*
%FSLAX44Y44*%
%MOMM*%
G71*
G01*
G75*
%ADD19R,1.5500X1.0000*%
%ADD20R,1.2000X1.6000*%
%ADD21R,1.2000X1.2000*%
%ADD22R,1.2000X2.1500*%
%ADD23R,0.1500X0.3500*%
G04:AMPARAMS|DCode=24|XSize=0.6mm|YSize=0.6mm|CornerRadius=0.06mm|HoleSize=0mm|Usage=FLASHONLY|Rotation=180.000|XOffset=0mm|YOffset=0mm|HoleType=Round|Shape=RoundedRectangle|*
%AMROUNDEDRECTD24*
21,1,0.6000,0.4800,0,0,180.0*
21,1,0.4800,0.6000,0,0,180.0*
1,1,0.1200,-0.2400,0.2400*
1,1,0.1200,0.2400,0.2400*
1,1,0.1200,0.2400,-0.2400*
1,1,0.1200,-0.2400,-0.2400*
%
%ADD24ROUNDEDRECTD24*%
G04:AMPARAMS|DCode=25|XSize=0.6mm|YSize=0.6mm|CornerRadius=0.06mm|HoleSize=0mm|Usage=FLASHONLY|Rotation=90.000|XOffset=0mm|YOffset=0mm|HoleType=Round|Shape=RoundedRectangle|*
%AMROUNDEDRECTD25*
21,1,0.6000,0.4800,0,0,90.0*
21,1,0.4800,0.6000,0,0,90.0*
1,1,0.1200,0.2400,0.2400*
1,1,0.1200,0.2400,-0.2400*
1,1,0.1200,-0.2400,-0.2400*
1,1,0.1200,-0.2400,0.2400*
%
%ADD25ROUNDEDRECTD25*%
G04:AMPARAMS|DCode=26|XSize=0.5mm|YSize=0.6mm|CornerRadius=0.05mm|HoleSize=0mm|Usage=FLASHONLY|Rotation=0.000|XOffset=0mm|YOffset=0mm|HoleType=Round|Shape=RoundedRectangle|*
%AMROUNDEDRECTD26*
21,1,0.5000,0.5000,0,0,0.0*
21,1,0.4000,0.6000,0,0,0.0*
1,1,0.1000,0.2000,-0.2500*
1,1,0.1000,-0.2000,-0.2500*
1,1,0.1000,-0.2000,0.2500*
1,1,0.1000,0.2000,0.2500*
%
%ADD26ROUNDEDRECTD26*%
%ADD27R,2.3500X1.6000*%
%ADD28R,0.3000X0.7000*%
G04:AMPARAMS|DCode=29|XSize=0.5mm|YSize=0.6mm|CornerRadius=0.05mm|HoleSize=0mm|Usage=FLASHONLY|Rotation=90.000|XOffset=0mm|YOffset=0mm|HoleType=Round|Shape=RoundedRectangle|*
%AMROUNDEDRECTD29*
21,1,0.5000,0.5000,0,0,90.0*
21,1,0.4000,0.6000,0,0,90.0*
1,1,0.1000,0.2500,0.2000*
1,1,0.1000,0.2500,-0.2000*
1,1,0.1000,-0.2500,-0.2000*
1,1,0.1000,-0.2500,0.2000*
%
%ADD29ROUNDEDRECTD29*%
G04:AMPARAMS|DCode=30|XSize=1mm|YSize=0.9mm|CornerRadius=0.1125mm|HoleSize=0mm|Usage=FLASHONLY|Rotation=0.000|XOffset=0mm|YOffset=0mm|HoleType=Round|Shape=RoundedRectangle|*
%AMROUNDEDRECTD30*
21,1,1.0000,0.6750,0,0,0.0*
21,1,0.7750,0.9000,0,0,0.0*
1,1,0.2250,0.3875,-0.3375*
1,1,0.2250,-0.3875,-0.3375*
1,1,0.2250,-0.3875,0.3375*
1,1,0.2250,0.3875,0.3375*
%
%ADD30ROUNDEDRECTD30*%
G04:AMPARAMS|DCode=31|XSize=1.3mm|YSize=0.8mm|CornerRadius=0.1mm|HoleSize=0mm|Usage=FLASHONLY|Rotation=0.000|XOffset=0mm|YOffset=0mm|HoleType=Round|Shape=RoundedRectangle|*
%AMROUNDEDRECTD31*
21,1,1.3000,0.6000,0,0,0.0*
21,1,1.1000,0.8000,0,0,0.0*
1,1,0.2000,0.5500,-0.3000*
1,1,0.2000,-0.5500,-0.3000*
1,1,0.2000,-0.5500,0.3000*
1,1,0.2000,0.5500,0.3000*
%
%ADD31ROUNDEDRECTD31*%
G04:AMPARAMS|DCode=32|XSize=0.7mm|YSize=0.4mm|CornerRadius=0.05mm|HoleSize=0mm|Usage=FLASHONLY|Rotation=270.000|XOffset=0mm|YOffset=0mm|HoleType=Round|Shape=RoundedRectangle|*
%AMROUNDEDRECTD32*
21,1,0.7000,0.3000,0,0,270.0*
21,1,0.6000,0.4000,0,0,270.0*
1,1,0.1000,-0.1500,-0.3000*
1,1,0.1000,-0.1500,0.3000*
1,1,0.1000,0.1500,0.3000*
1,1,0.1000,0.1500,-0.3000*
%
%ADD32ROUNDEDRECTD32*%
G04:AMPARAMS|DCode=33|XSize=1mm|YSize=0.9mm|CornerRadius=0.1125mm|HoleSize=0mm|Usage=FLASHONLY|Rotation=90.000|XOffset=0mm|YOffset=0mm|HoleType=Round|Shape=RoundedRectangle|*
%AMROUNDEDRECTD33*
21,1,1.0000,0.6750,0,0,90.0*
21,1,0.7750,0.9000,0,0,90.0*
1,1,0.2250,0.3375,0.3875*
1,1,0.2250,0.3375,-0.3875*
1,1,0.2250,-0.3375,-0.3875*
1,1,0.2250,-0.3375,0.3875*
%
%ADD33ROUNDEDRECTD33*%
%ADD34R,0.4000X0.8500*%
%ADD35R,1.5000X0.3500*%
%ADD36R,1.3000X2.6000*%
%ADD37R,2.4000X0.7500*%
%ADD38R,0.7500X2.4000*%
G04:AMPARAMS|DCode=39|XSize=2.5mm|YSize=2mm|CornerRadius=0.25mm|HoleSize=0mm|Usage=FLASHONLY|Rotation=90.000|XOffset=0mm|YOffset=0mm|HoleType=Round|Shape=RoundedRectangle|*
%AMROUNDEDRECTD39*
21,1,2.5000,1.5000,0,0,90.0*
21,1,2.0000,2.0000,0,0,90.0*
1,1,0.5000,0.7500,1.0000*
1,1,0.5000,0.7500,-1.0000*
1,1,0.5000,-0.7500,-1.0000*
1,1,0.5000,-0.7500,1.0000*
%
%ADD39ROUNDEDRECTD39*%
%ADD40R,0.2500X0.6250*%
%ADD41R,1.6000X1.6000*%
G04:AMPARAMS|DCode=42|XSize=2.5mm|YSize=1.1mm|CornerRadius=0.1375mm|HoleSize=0mm|Usage=FLASHONLY|Rotation=270.000|XOffset=0mm|YOffset=0mm|HoleType=Round|Shape=RoundedRectangle|*
%AMROUNDEDRECTD42*
21,1,2.5000,0.8250,0,0,270.0*
21,1,2.2250,1.1000,0,0,270.0*
1,1,0.2750,-0.4125,-1.1125*
1,1,0.2750,-0.4125,1.1125*
1,1,0.2750,0.4125,1.1125*
1,1,0.2750,0.4125,-1.1125*
%
%ADD42ROUNDEDRECTD42*%
G04:AMPARAMS|DCode=43|XSize=10mm|YSize=10.5mm|CornerRadius=1.25mm|HoleSize=0mm|Usage=FLASHONLY|Rotation=270.000|XOffset=0mm|YOffset=0mm|HoleType=Round|Shape=RoundedRectangle|*
%AMROUNDEDRECTD43*
21,1,10.0000,8.0000,0,0,270.0*
21,1,7.5000,10.5000,0,0,270.0*
1,1,2.5000,-4.0000,-3.7500*
1,1,2.5000,-4.0000,3.7500*
1,1,2.5000,4.0000,3.7500*
1,1,2.5000,4.0000,-3.7500*
%
%ADD43ROUNDEDRECTD43*%
%ADD44R,5.0000X4.0000*%
%ADD45R,2.5500X0.9000*%
%ADD46R,2.5500X1.4000*%
%ADD47R,0.2500X1.0000*%
%ADD48R,1.0000X0.2500*%
G04:AMPARAMS|DCode=49|XSize=1.8mm|YSize=1.15mm|CornerRadius=0.1437mm|HoleSize=0mm|Usage=FLASHONLY|Rotation=0.000|XOffset=0mm|YOffset=0mm|HoleType=Round|Shape=RoundedRectangle|*
%AMROUNDEDRECTD49*
21,1,1.8000,0.8625,0,0,0.0*
21,1,1.5125,1.1500,0,0,0.0*
1,1,0.2875,0.7562,-0.4313*
1,1,0.2875,-0.7562,-0.4313*
1,1,0.2875,-0.7562,0.4313*
1,1,0.2875,0.7562,0.4313*
%
%ADD49ROUNDEDRECTD49*%
G04:AMPARAMS|DCode=50|XSize=1.8mm|YSize=1.15mm|CornerRadius=0.1437mm|HoleSize=0mm|Usage=FLASHONLY|Rotation=90.000|XOffset=0mm|YOffset=0mm|HoleType=Round|Shape=RoundedRectangle|*
%AMROUNDEDRECTD50*
21,1,1.8000,0.8625,0,0,90.0*
21,1,1.5125,1.1500,0,0,90.0*
1,1,0.2875,0.4313,0.7562*
1,1,0.2875,0.4313,-0.7562*
1,1,0.2875,-0.4313,-0.7562*
1,1,0.2875,-0.4313,0.7562*
%
%ADD50ROUNDEDRECTD50*%
G04:AMPARAMS|DCode=51|XSize=1.3mm|YSize=0.8mm|CornerRadius=0.1mm|HoleSize=0mm|Usage=FLASHONLY|Rotation=90.000|XOffset=0mm|YOffset=0mm|HoleType=Round|Shape=RoundedRectangle|*
%AMROUNDEDRECTD51*
21,1,1.3000,0.6000,0,0,90.0*
21,1,1.1000,0.8000,0,0,90.0*
1,1,0.2000,0.3000,0.5500*
1,1,0.2000,0.3000,-0.5500*
1,1,0.2000,-0.3000,-0.5500*
1,1,0.2000,-0.3000,0.5500*
%
%ADD51ROUNDEDRECTD51*%
G04:AMPARAMS|DCode=52|XSize=1.3mm|YSize=0.8mm|CornerRadius=0.1mm|HoleSize=0mm|Usage=FLASHONLY|Rotation=45.000|XOffset=0mm|YOffset=0mm|HoleType=Round|Shape=RoundedRectangle|*
%AMROUNDEDRECTD52*
21,1,1.3000,0.6000,0,0,45.0*
21,1,1.1000,0.8000,0,0,45.0*
1,1,0.2000,0.6010,0.1768*
1,1,0.2000,-0.1768,-0.6010*
1,1,0.2000,-0.6010,-0.1768*
1,1,0.2000,0.1768,0.6010*
%
%ADD52ROUNDEDRECTD52*%
G04:AMPARAMS|DCode=53|XSize=1.3mm|YSize=0.8mm|CornerRadius=0.1mm|HoleSize=0mm|Usage=FLASHONLY|Rotation=315.000|XOffset=0mm|YOffset=0mm|HoleType=Round|Shape=RoundedRectangle|*
%AMROUNDEDRECTD53*
21,1,1.3000,0.6000,0,0,315.0*
21,1,1.1000,0.8000,0,0,315.0*
1,1,0.2000,0.1768,-0.6010*
1,1,0.2000,-0.6010,0.1768*
1,1,0.2000,-0.1768,0.6010*
1,1,0.2000,0.6010,-0.1768*
%
%ADD53ROUNDEDRECTD53*%
G04:AMPARAMS|DCode=54|XSize=0.5mm|YSize=0.6mm|CornerRadius=0.05mm|HoleSize=0mm|Usage=FLASHONLY|Rotation=67.500|XOffset=0mm|YOffset=0mm|HoleType=Round|Shape=RoundedRectangle|*
%AMROUNDEDRECTD54*
21,1,0.5000,0.5000,0,0,67.5*
21,1,0.4000,0.6000,0,0,67.5*
1,1,0.1000,0.3075,0.0891*
1,1,0.1000,0.1544,-0.2804*
1,1,0.1000,-0.3075,-0.0891*
1,1,0.1000,-0.1544,0.2804*
%
%ADD54ROUNDEDRECTD54*%
%ADD55R,0.9500X0.4000*%
%ADD56R,0.4000X0.9500*%
%ADD57R,0.9500X0.3500*%
%ADD58R,0.3500X0.9500*%
%ADD59R,0.9000X2.5500*%
%ADD60R,1.4000X2.5500*%
%ADD61R,4.0000X5.0000*%
%ADD62R,0.6000X0.3500*%
%ADD63R,0.6000X0.3000*%
%ADD64R,0.8000X1.7000*%
G04:AMPARAMS|DCode=65|XSize=0.5mm|YSize=0.6mm|CornerRadius=0.05mm|HoleSize=0mm|Usage=FLASHONLY|Rotation=135.000|XOffset=0mm|YOffset=0mm|HoleType=Round|Shape=RoundedRectangle|*
%AMROUNDEDRECTD65*
21,1,0.5000,0.5000,0,0,135.0*
21,1,0.4000,0.6000,0,0,135.0*
1,1,0.1000,0.0354,0.3182*
1,1,0.1000,0.3182,0.0354*
1,1,0.1000,-0.0354,-0.3182*
1,1,0.1000,-0.3182,-0.0354*
%
%ADD65ROUNDEDRECTD65*%
G04:AMPARAMS|DCode=66|XSize=0.5mm|YSize=0.6mm|CornerRadius=0.05mm|HoleSize=0mm|Usage=FLASHONLY|Rotation=337.500|XOffset=0mm|YOffset=0mm|HoleType=Round|Shape=RoundedRectangle|*
%AMROUNDEDRECTD66*
21,1,0.5000,0.5000,0,0,337.5*
21,1,0.4000,0.6000,0,0,337.5*
1,1,0.1000,0.0891,-0.3075*
1,1,0.1000,-0.2804,-0.1544*
1,1,0.1000,-0.0891,0.3075*
1,1,0.1000,0.2804,0.1544*
%
%ADD66ROUNDEDRECTD66*%
G04:AMPARAMS|DCode=67|XSize=0.76mm|YSize=1.65mm|CornerRadius=0mm|HoleSize=0mm|Usage=FLASHONLY|Rotation=315.000|XOffset=0mm|YOffset=0mm|HoleType=Round|Shape=Rectangle|*
%AMROTATEDRECTD67*
4,1,4,-0.8521,-0.3147,0.3147,0.8521,0.8521,0.3147,-0.3147,-0.8521,-0.8521,-0.3147,0.0*
%
%ADD67ROTATEDRECTD67*%

G04:AMPARAMS|DCode=68|XSize=0.6mm|YSize=0.6mm|CornerRadius=0.06mm|HoleSize=0mm|Usage=FLASHONLY|Rotation=225.000|XOffset=0mm|YOffset=0mm|HoleType=Round|Shape=RoundedRectangle|*
%AMROUNDEDRECTD68*
21,1,0.6000,0.4800,0,0,225.0*
21,1,0.4800,0.6000,0,0,225.0*
1,1,0.1200,-0.3394,0.0000*
1,1,0.1200,0.0000,0.3394*
1,1,0.1200,0.3394,0.0000*
1,1,0.1200,0.0000,-0.3394*
%
%ADD68ROUNDEDRECTD68*%
G04:AMPARAMS|DCode=69|XSize=0.5mm|YSize=0.6mm|CornerRadius=0.05mm|HoleSize=0mm|Usage=FLASHONLY|Rotation=225.000|XOffset=0mm|YOffset=0mm|HoleType=Round|Shape=RoundedRectangle|*
%AMROUNDEDRECTD69*
21,1,0.5000,0.5000,0,0,225.0*
21,1,0.4000,0.6000,0,0,225.0*
1,1,0.1000,-0.3182,0.0354*
1,1,0.1000,-0.0354,0.3182*
1,1,0.1000,0.3182,-0.0354*
1,1,0.1000,0.0354,-0.3182*
%
%ADD69ROUNDEDRECTD69*%
G04:AMPARAMS|DCode=70|XSize=0.5mm|YSize=0.6mm|CornerRadius=0.05mm|HoleSize=0mm|Usage=FLASHONLY|Rotation=25.000|XOffset=0mm|YOffset=0mm|HoleType=Round|Shape=RoundedRectangle|*
%AMROUNDEDRECTD70*
21,1,0.5000,0.5000,0,0,25.0*
21,1,0.4000,0.6000,0,0,25.0*
1,1,0.1000,0.2869,-0.1421*
1,1,0.1000,-0.0756,-0.3111*
1,1,0.1000,-0.2869,0.1421*
1,1,0.1000,0.0756,0.3111*
%
%ADD70ROUNDEDRECTD70*%
G04:AMPARAMS|DCode=71|XSize=0.5mm|YSize=0.6mm|CornerRadius=0.05mm|HoleSize=0mm|Usage=FLASHONLY|Rotation=115.000|XOffset=0mm|YOffset=0mm|HoleType=Round|Shape=RoundedRectangle|*
%AMROUNDEDRECTD71*
21,1,0.5000,0.5000,0,0,115.0*
21,1,0.4000,0.6000,0,0,115.0*
1,1,0.1000,0.1421,0.2869*
1,1,0.1000,0.3111,-0.0756*
1,1,0.1000,-0.1421,-0.2869*
1,1,0.1000,-0.3111,0.0756*
%
%ADD71ROUNDEDRECTD71*%
G04:AMPARAMS|DCode=72|XSize=0.6mm|YSize=0.6mm|CornerRadius=0.06mm|HoleSize=0mm|Usage=FLASHONLY|Rotation=315.000|XOffset=0mm|YOffset=0mm|HoleType=Round|Shape=RoundedRectangle|*
%AMROUNDEDRECTD72*
21,1,0.6000,0.4800,0,0,315.0*
21,1,0.4800,0.6000,0,0,315.0*
1,1,0.1200,0.0000,-0.3394*
1,1,0.1200,-0.3394,0.0000*
1,1,0.1200,0.0000,0.3394*
1,1,0.1200,0.3394,0.0000*
%
%ADD72ROUNDEDRECTD72*%
G04:AMPARAMS|DCode=73|XSize=0.6mm|YSize=0.6mm|CornerRadius=0.06mm|HoleSize=0mm|Usage=FLASHONLY|Rotation=115.000|XOffset=0mm|YOffset=0mm|HoleType=Round|Shape=RoundedRectangle|*
%AMROUNDEDRECTD73*
21,1,0.6000,0.4800,0,0,115.0*
21,1,0.4800,0.6000,0,0,115.0*
1,1,0.1200,0.1161,0.3189*
1,1,0.1200,0.3189,-0.1161*
1,1,0.1200,-0.1161,-0.3189*
1,1,0.1200,-0.3189,0.1161*
%
%ADD73ROUNDEDRECTD73*%
G04:AMPARAMS|DCode=74|XSize=0.76mm|YSize=1.65mm|CornerRadius=0mm|HoleSize=0mm|Usage=FLASHONLY|Rotation=45.000|XOffset=0mm|YOffset=0mm|HoleType=Round|Shape=Rectangle|*
%AMROTATEDRECTD74*
4,1,4,0.3147,-0.8521,-0.8521,0.3147,-0.3147,0.8521,0.8521,-0.3147,0.3147,-0.8521,0.0*
%
%ADD74ROTATEDRECTD74*%

%ADD75R,0.7600X1.6500*%
G04:AMPARAMS|DCode=76|XSize=0.76mm|YSize=1.65mm|CornerRadius=0mm|HoleSize=0mm|Usage=FLASHONLY|Rotation=157.500|XOffset=0mm|YOffset=0mm|HoleType=Round|Shape=Rectangle|*
%AMROTATEDRECTD76*
4,1,4,0.6668,0.6168,0.0354,-0.9076,-0.6668,-0.6168,-0.0354,0.9076,0.6668,0.6168,0.0*
%
%ADD76ROTATEDRECTD76*%

G04:AMPARAMS|DCode=77|XSize=0.76mm|YSize=1.65mm|CornerRadius=0mm|HoleSize=0mm|Usage=FLASHONLY|Rotation=25.000|XOffset=0mm|YOffset=0mm|HoleType=Round|Shape=Rectangle|*
%AMROTATEDRECTD77*
4,1,4,0.0043,-0.9083,-0.6931,0.5871,-0.0043,0.9083,0.6931,-0.5871,0.0043,-0.9083,0.0*
%
%ADD77ROTATEDRECTD77*%

%ADD78R,1.6500X0.7600*%
%ADD79R,0.6750X0.4000*%
%ADD80R,0.6750X0.2000*%
%ADD81C,0.3800*%
%ADD82C,0.2500*%
%ADD83R,1.4500X15.7750*%
%ADD84R,1.4500X58.0000*%
%ADD85R,1.4500X15.5000*%
%ADD86R,1.4500X4.2000*%
%ADD87C,1.0000*%
%ADD88R,1.6000X2.3500*%
%ADD89R,0.7000X0.3000*%
G04:AMPARAMS|DCode=90|XSize=1.6mm|YSize=0.3mm|CornerRadius=0.0375mm|HoleSize=0mm|Usage=FLASHONLY|Rotation=0.000|XOffset=0mm|YOffset=0mm|HoleType=Round|Shape=RoundedRectangle|*
%AMROUNDEDRECTD90*
21,1,1.6000,0.2250,0,0,0.0*
21,1,1.5250,0.3000,0,0,0.0*
1,1,0.0750,0.7625,-0.1125*
1,1,0.0750,-0.7625,-0.1125*
1,1,0.0750,-0.7625,0.1125*
1,1,0.0750,0.7625,0.1125*
%
%ADD90ROUNDEDRECTD90*%
%ADD91O,1.6000X0.3000*%
G04:AMPARAMS|DCode=92|XSize=1.6mm|YSize=1.9mm|CornerRadius=0.2mm|HoleSize=0mm|Usage=FLASHONLY|Rotation=180.000|XOffset=0mm|YOffset=0mm|HoleType=Round|Shape=RoundedRectangle|*
%AMROUNDEDRECTD92*
21,1,1.6000,1.5000,0,0,180.0*
21,1,1.2000,1.9000,0,0,180.0*
1,1,0.4000,-0.6000,0.7500*
1,1,0.4000,0.6000,0.7500*
1,1,0.4000,0.6000,-0.7500*
1,1,0.4000,-0.6000,-0.7500*
%
%ADD92ROUNDEDRECTD92*%
%ADD93R,1.5000X1.6000*%
%ADD94R,0.2500X0.6000*%
%ADD95R,0.3000X0.3500*%
%ADD96R,1.8000X0.7000*%
%ADD97R,0.2000X0.2000*%
%ADD98C,0.3100*%
G04:AMPARAMS|DCode=115|XSize=1.524mm|YSize=1.524mm|CornerRadius=0.1905mm|HoleSize=0mm|Usage=FLASHONLY|Rotation=90.000|XOffset=0mm|YOffset=0mm|HoleType=Round|Shape=RoundedRectangle|*
%AMROUNDEDRECTD115*
21,1,1.5240,1.1430,0,0,90.0*
21,1,1.1430,1.5240,0,0,90.0*
1,1,0.3810,0.5715,0.5715*
1,1,0.3810,0.5715,-0.5715*
1,1,0.3810,-0.5715,-0.5715*
1,1,0.3810,-0.5715,0.5715*
%
%ADD115ROUNDEDRECTD115*%
%ADD116C,1.6000*%
%ADD117C,5.0000*%
G04:AMPARAMS|DCode=118|XSize=1.4mm|YSize=1.4mm|CornerRadius=0.35mm|HoleSize=0mm|Usage=FLASHONLY|Rotation=90.000|XOffset=0mm|YOffset=0mm|HoleType=Round|Shape=RoundedRectangle|*
%AMROUNDEDRECTD118*
21,1,1.4000,0.7000,0,0,90.0*
21,1,0.7000,1.4000,0,0,90.0*
1,1,0.7000,0.3500,0.3500*
1,1,0.7000,0.3500,-0.3500*
1,1,0.7000,-0.3500,-0.3500*
1,1,0.7000,-0.3500,0.3500*
%
%ADD118ROUNDEDRECTD118*%
%ADD119C,1.4000*%
G04:AMPARAMS|DCode=120|XSize=1.2mm|YSize=1.1mm|CornerRadius=0.1375mm|HoleSize=0mm|Usage=FLASHONLY|Rotation=270.000|XOffset=0mm|YOffset=0mm|HoleType=Round|Shape=RoundedRectangle|*
%AMROUNDEDRECTD120*
21,1,1.2000,0.8250,0,0,270.0*
21,1,0.9250,1.1000,0,0,270.0*
1,1,0.2750,-0.4125,-0.4625*
1,1,0.2750,-0.4125,0.4625*
1,1,0.2750,0.4125,0.4625*
1,1,0.2750,0.4125,-0.4625*
%
%ADD120ROUNDEDRECTD120*%
%ADD121O,1.1000X1.2000*%
%ADD122O,2.0000X4.0000*%
%ADD123O,2.2000X4.0000*%
%ADD124O,4.0000X2.0000*%
%ADD125C,0.6604*%
%ADD126O,4.0000X1.6000*%
%ADD127C,1.1000*%
D19*
X155750Y473000D02*
D03*
Y507000D02*
D03*
X953750Y386000D02*
D03*
Y420000D02*
D03*
X951250Y195500D02*
D03*
Y161500D02*
D03*
X790400Y71500D02*
D03*
Y37500D02*
D03*
X912000Y58250D02*
D03*
Y24250D02*
D03*
X662250Y66750D02*
D03*
Y32750D02*
D03*
X920750Y491000D02*
D03*
Y525000D02*
D03*
X109750Y473000D02*
D03*
Y507000D02*
D03*
X863500Y541250D02*
D03*
Y575250D02*
D03*
X798000Y541250D02*
D03*
Y575250D02*
D03*
X732750Y541250D02*
D03*
Y575250D02*
D03*
X669336Y541250D02*
D03*
Y575250D02*
D03*
D20*
X172750Y490000D02*
D03*
X138750D02*
D03*
X970750Y403000D02*
D03*
X936750D02*
D03*
X934250Y178500D02*
D03*
X968250D02*
D03*
X773400Y54500D02*
D03*
X807400D02*
D03*
X895000Y41250D02*
D03*
X929000D02*
D03*
X645250Y49750D02*
D03*
X679250D02*
D03*
X937750Y508000D02*
D03*
X903750D02*
D03*
X126750Y490000D02*
D03*
X92750D02*
D03*
X880500Y558250D02*
D03*
X846500D02*
D03*
X815000D02*
D03*
X781000D02*
D03*
X749750Y558250D02*
D03*
X715750D02*
D03*
X686336Y558250D02*
D03*
X652336D02*
D03*
D21*
X155750Y506000D02*
D03*
Y474000D02*
D03*
X953750Y419000D02*
D03*
Y387000D02*
D03*
X951250Y162500D02*
D03*
Y194500D02*
D03*
X790400Y38500D02*
D03*
Y70500D02*
D03*
X912000Y25250D02*
D03*
Y57250D02*
D03*
X662250Y33750D02*
D03*
Y65750D02*
D03*
X920750Y524000D02*
D03*
Y492000D02*
D03*
X109750Y506000D02*
D03*
Y474000D02*
D03*
X863500Y574250D02*
D03*
Y542250D02*
D03*
X798000Y574250D02*
D03*
Y542250D02*
D03*
X732750Y574250D02*
D03*
Y542250D02*
D03*
X669336Y574250D02*
D03*
Y542250D02*
D03*
D22*
X141750Y490000D02*
D03*
X169750D02*
D03*
X939750Y403000D02*
D03*
X967750D02*
D03*
X965250Y178500D02*
D03*
X937250D02*
D03*
X804400Y54500D02*
D03*
X776400D02*
D03*
X926000Y41250D02*
D03*
X898000D02*
D03*
X676250Y49750D02*
D03*
X648250D02*
D03*
X906750Y508000D02*
D03*
X934750D02*
D03*
X95750Y490000D02*
D03*
X123750D02*
D03*
X849500Y558250D02*
D03*
X877500D02*
D03*
X784000D02*
D03*
X812000D02*
D03*
X718750Y558250D02*
D03*
X746750D02*
D03*
X655336Y558250D02*
D03*
X683336D02*
D03*
D23*
X870500Y511750D02*
D03*
X867000D02*
D03*
X863500D02*
D03*
Y503250D02*
D03*
X867000D02*
D03*
X870500D02*
D03*
X656500Y109750D02*
D03*
X660000D02*
D03*
X663500D02*
D03*
Y101250D02*
D03*
X660000D02*
D03*
X656500D02*
D03*
X676336Y500086D02*
D03*
X672836D02*
D03*
X669336D02*
D03*
Y491586D02*
D03*
X672836D02*
D03*
X676336D02*
D03*
X912000Y97500D02*
D03*
X915500D02*
D03*
X919000D02*
D03*
Y89000D02*
D03*
X915500D02*
D03*
X912000D02*
D03*
D24*
X596000Y382750D02*
D03*
Y392750D02*
D03*
X82500Y388000D02*
D03*
Y398000D02*
D03*
X252750Y114000D02*
D03*
Y104000D02*
D03*
X128750Y428750D02*
D03*
Y438750D02*
D03*
X171750Y437250D02*
D03*
Y447250D02*
D03*
X335250Y529250D02*
D03*
Y539250D02*
D03*
X446000Y127750D02*
D03*
Y117750D02*
D03*
Y148750D02*
D03*
Y138750D02*
D03*
X457000Y127750D02*
D03*
Y117750D02*
D03*
Y148750D02*
D03*
Y138750D02*
D03*
X468000Y148750D02*
D03*
Y138750D02*
D03*
Y127750D02*
D03*
Y117750D02*
D03*
X479250Y148750D02*
D03*
Y138750D02*
D03*
Y127750D02*
D03*
Y117750D02*
D03*
X268750Y35500D02*
D03*
Y45500D02*
D03*
X159500Y363250D02*
D03*
Y373250D02*
D03*
X194000Y85750D02*
D03*
Y75750D02*
D03*
X173000Y75750D02*
D03*
Y85750D02*
D03*
X450250Y98500D02*
D03*
X450250Y88500D02*
D03*
X181750Y375500D02*
D03*
Y365500D02*
D03*
X407000Y492000D02*
D03*
Y502000D02*
D03*
X432000Y492000D02*
D03*
Y502000D02*
D03*
X481500Y445000D02*
D03*
Y455000D02*
D03*
X239250Y32500D02*
D03*
Y22500D02*
D03*
X149500Y41000D02*
D03*
Y31000D02*
D03*
X836954Y255227D02*
D03*
Y245227D02*
D03*
X836954Y225227D02*
D03*
Y235227D02*
D03*
X872540Y356537D02*
D03*
Y346537D02*
D03*
X414250Y566500D02*
D03*
Y576500D02*
D03*
X451250Y546250D02*
D03*
Y536250D02*
D03*
X474000Y543750D02*
D03*
Y553750D02*
D03*
X118500Y438750D02*
D03*
Y428750D02*
D03*
X585250Y392750D02*
D03*
Y382750D02*
D03*
X574250Y392750D02*
D03*
Y382750D02*
D03*
X563250Y392750D02*
D03*
Y382750D02*
D03*
X319000Y186500D02*
D03*
Y196500D02*
D03*
D25*
X300750Y48250D02*
D03*
X310750D02*
D03*
X289750Y48250D02*
D03*
X279750D02*
D03*
X92500Y377000D02*
D03*
X82500D02*
D03*
X261250Y444500D02*
D03*
X251250D02*
D03*
X160750Y458250D02*
D03*
X170750D02*
D03*
X158000Y225000D02*
D03*
X168000D02*
D03*
X179250Y241750D02*
D03*
X169250D02*
D03*
X414250Y555500D02*
D03*
X424250D02*
D03*
X208000Y105250D02*
D03*
X218000D02*
D03*
X151750Y311750D02*
D03*
X141750Y311750D02*
D03*
X520000Y456000D02*
D03*
X530000D02*
D03*
X378750Y500750D02*
D03*
X368750D02*
D03*
X469750Y53500D02*
D03*
X479750D02*
D03*
Y74500D02*
D03*
X469750D02*
D03*
X264500Y346250D02*
D03*
X274500D02*
D03*
X440000Y456000D02*
D03*
X450000D02*
D03*
X219500Y450500D02*
D03*
X229500D02*
D03*
X796805Y209839D02*
D03*
X786805D02*
D03*
X794260Y430924D02*
D03*
X784260D02*
D03*
X766805Y209839D02*
D03*
X776805D02*
D03*
X474000Y532750D02*
D03*
X464000D02*
D03*
D26*
X265000Y60750D02*
D03*
Y70750D02*
D03*
X276750Y454250D02*
D03*
Y464250D02*
D03*
X878454Y245227D02*
D03*
Y235227D02*
D03*
X150000Y568000D02*
D03*
Y578000D02*
D03*
X288250Y105500D02*
D03*
X288250Y115500D02*
D03*
X183500Y85750D02*
D03*
Y75750D02*
D03*
X439750Y88500D02*
D03*
Y98500D02*
D03*
X460750Y88500D02*
D03*
Y98500D02*
D03*
X470750Y88500D02*
D03*
Y98500D02*
D03*
X951250Y209500D02*
D03*
Y219500D02*
D03*
X790400Y86500D02*
D03*
Y96500D02*
D03*
X441250Y443750D02*
D03*
Y433750D02*
D03*
X456000Y443750D02*
D03*
Y433750D02*
D03*
X464500Y478750D02*
D03*
Y488750D02*
D03*
X417500Y502000D02*
D03*
Y492000D02*
D03*
X392500Y477750D02*
D03*
Y487750D02*
D03*
X381750Y477750D02*
D03*
Y487750D02*
D03*
X451750Y515250D02*
D03*
Y525250D02*
D03*
X181250Y468250D02*
D03*
Y458250D02*
D03*
X749656Y163117D02*
D03*
Y173117D02*
D03*
X776805Y178839D02*
D03*
Y188839D02*
D03*
X794260Y420424D02*
D03*
Y410424D02*
D03*
X784260Y420424D02*
D03*
Y410424D02*
D03*
X847346Y245223D02*
D03*
Y235223D02*
D03*
X786805Y188839D02*
D03*
Y178839D02*
D03*
X920757Y472550D02*
D03*
Y462550D02*
D03*
X953803Y366934D02*
D03*
Y356934D02*
D03*
X813796Y163102D02*
D03*
Y173102D02*
D03*
X798000Y517000D02*
D03*
Y507000D02*
D03*
X732750Y517000D02*
D03*
X732750Y507000D02*
D03*
X171250Y373250D02*
D03*
Y363250D02*
D03*
X424750Y566500D02*
D03*
Y576500D02*
D03*
X840941Y356379D02*
D03*
Y346379D02*
D03*
X669336Y508586D02*
D03*
Y518586D02*
D03*
X915500Y116000D02*
D03*
Y106000D02*
D03*
X912000Y80500D02*
D03*
Y70500D02*
D03*
X863500Y520250D02*
D03*
Y530250D02*
D03*
X867000Y484750D02*
D03*
Y494750D02*
D03*
X880750Y512500D02*
D03*
Y522500D02*
D03*
X660000Y128250D02*
D03*
Y118250D02*
D03*
X656500Y92500D02*
D03*
Y82500D02*
D03*
X210750Y482750D02*
D03*
Y472750D02*
D03*
D27*
X288250Y79000D02*
D03*
D28*
X278500Y92750D02*
D03*
X285000D02*
D03*
X291500D02*
D03*
X298000D02*
D03*
Y65250D02*
D03*
X291500D02*
D03*
X285000D02*
D03*
X278500D02*
D03*
D29*
X265250Y478250D02*
D03*
X275250D02*
D03*
X867954Y235227D02*
D03*
X857954D02*
D03*
X857954Y245227D02*
D03*
X867954D02*
D03*
X249000Y384250D02*
D03*
X259000D02*
D03*
X271750Y374250D02*
D03*
X261750D02*
D03*
X388750Y539750D02*
D03*
X398750D02*
D03*
X208000Y84750D02*
D03*
X218000D02*
D03*
X208000Y94750D02*
D03*
X218000D02*
D03*
X208000Y115750D02*
D03*
X218000D02*
D03*
X141750Y301250D02*
D03*
X151750D02*
D03*
X151750Y291250D02*
D03*
X141750D02*
D03*
X556250Y531000D02*
D03*
X546250D02*
D03*
X469750Y64000D02*
D03*
X479750D02*
D03*
X196500Y400250D02*
D03*
X206500D02*
D03*
X464000Y500000D02*
D03*
X454000D02*
D03*
X419750Y478500D02*
D03*
X409750D02*
D03*
X444000Y478000D02*
D03*
X454000D02*
D03*
X224500Y430750D02*
D03*
X234500D02*
D03*
X239250Y42500D02*
D03*
X249250D02*
D03*
X883674Y272160D02*
D03*
X873674D02*
D03*
X794260Y399924D02*
D03*
X784260D02*
D03*
X786805Y199339D02*
D03*
X776805D02*
D03*
X861441Y356378D02*
D03*
X851441D02*
D03*
X861437Y346487D02*
D03*
X851437D02*
D03*
X786805Y168339D02*
D03*
X776805D02*
D03*
X883656Y208367D02*
D03*
X873656D02*
D03*
X235000Y461250D02*
D03*
X225000D02*
D03*
X196500Y498250D02*
D03*
X206500D02*
D03*
X532100Y544000D02*
D03*
X542100D02*
D03*
X441500Y556750D02*
D03*
X451500D02*
D03*
X683250Y101250D02*
D03*
X673250D02*
D03*
D30*
X490750Y100250D02*
D03*
Y83250D02*
D03*
X191750Y460000D02*
D03*
Y443000D02*
D03*
X115000Y160250D02*
D03*
Y143250D02*
D03*
X131750Y129250D02*
D03*
Y112250D02*
D03*
X336250Y567500D02*
D03*
Y550500D02*
D03*
X151250Y91500D02*
D03*
Y74500D02*
D03*
D31*
X137000Y97250D02*
D03*
Y77250D02*
D03*
X123000Y357000D02*
D03*
Y377000D02*
D03*
X762600Y178736D02*
D03*
Y198736D02*
D03*
X801050Y178743D02*
D03*
Y198743D02*
D03*
X186250Y434000D02*
D03*
Y414000D02*
D03*
X205000Y462550D02*
D03*
Y442550D02*
D03*
X225500Y417000D02*
D03*
X225500Y397000D02*
D03*
X244000Y495000D02*
D03*
Y515000D02*
D03*
D32*
X24250Y434750D02*
D03*
Y420750D02*
D03*
X31250Y420750D02*
D03*
Y434750D02*
D03*
X14500D02*
D03*
Y420750D02*
D03*
X7500Y420750D02*
D03*
Y434750D02*
D03*
X24000Y480500D02*
D03*
Y466500D02*
D03*
X31000Y466500D02*
D03*
Y480500D02*
D03*
X14500Y480500D02*
D03*
Y466500D02*
D03*
X7500Y466500D02*
D03*
Y480500D02*
D03*
D33*
X112000Y415000D02*
D03*
X129000Y415000D02*
D03*
X99000Y355750D02*
D03*
X82000Y355750D02*
D03*
X90750Y24000D02*
D03*
X73750D02*
D03*
X487000Y40250D02*
D03*
X470000D02*
D03*
X104000Y84750D02*
D03*
X121000D02*
D03*
X356000Y538250D02*
D03*
X373000D02*
D03*
X122250Y388500D02*
D03*
X105250D02*
D03*
D34*
X200000Y433250D02*
D03*
X206500D02*
D03*
X213000D02*
D03*
Y414250D02*
D03*
X206500D02*
D03*
X200000D02*
D03*
D35*
X165750Y65250D02*
D03*
Y58750D02*
D03*
Y52250D02*
D03*
Y45750D02*
D03*
Y39250D02*
D03*
Y32750D02*
D03*
Y26250D02*
D03*
Y19750D02*
D03*
X224750Y65250D02*
D03*
Y58750D02*
D03*
Y52250D02*
D03*
Y45750D02*
D03*
Y39250D02*
D03*
Y32750D02*
D03*
Y26250D02*
D03*
Y19750D02*
D03*
X319500Y533500D02*
D03*
Y540000D02*
D03*
Y546500D02*
D03*
Y553000D02*
D03*
Y559500D02*
D03*
Y566000D02*
D03*
Y572500D02*
D03*
Y579000D02*
D03*
X260500Y533500D02*
D03*
Y540000D02*
D03*
Y546500D02*
D03*
Y553000D02*
D03*
Y559500D02*
D03*
Y566000D02*
D03*
Y572500D02*
D03*
Y579000D02*
D03*
D36*
X9250Y572500D02*
D03*
Y27500D02*
D03*
D37*
X82000Y574750D02*
D03*
X121000Y574750D02*
D03*
X82000Y562000D02*
D03*
X121000D02*
D03*
X82000Y549250D02*
D03*
X121000Y549250D02*
D03*
X82000Y536500D02*
D03*
X121000Y536500D02*
D03*
X82000Y523750D02*
D03*
X121000Y523750D02*
D03*
X221750Y523500D02*
D03*
X182750Y523500D02*
D03*
X221750Y536250D02*
D03*
X182750Y536250D02*
D03*
X221750Y549000D02*
D03*
X182750Y549000D02*
D03*
X221750Y561750D02*
D03*
X182750D02*
D03*
X221750Y574500D02*
D03*
X182750Y574500D02*
D03*
D38*
X94750Y191000D02*
D03*
X94750Y230000D02*
D03*
X107500Y191000D02*
D03*
Y230000D02*
D03*
X120250Y191000D02*
D03*
X120250Y230000D02*
D03*
X133000Y191000D02*
D03*
X133000Y230000D02*
D03*
X145750Y191000D02*
D03*
X145750Y230000D02*
D03*
D39*
X125500Y50750D02*
D03*
X84500D02*
D03*
D40*
X596750Y285500D02*
D03*
X591750D02*
D03*
X586750D02*
D03*
X581750D02*
D03*
Y313500D02*
D03*
X586750D02*
D03*
X591750D02*
D03*
X596750D02*
D03*
D41*
X589250Y299500D02*
D03*
D42*
X569300Y39750D02*
D03*
X552250D02*
D03*
X535200D02*
D03*
X518150D02*
D03*
X586350D02*
D03*
D43*
X552250Y130750D02*
D03*
D44*
X250000Y143750D02*
D03*
Y224250D02*
D03*
D45*
X171000Y126750D02*
D03*
D46*
Y112250D02*
D03*
D47*
X183500Y98250D02*
D03*
X178500D02*
D03*
X173500D02*
D03*
X168500Y98250D02*
D03*
X163500Y98250D02*
D03*
X158500Y98250D02*
D03*
Y138250D02*
D03*
X163500D02*
D03*
X168500Y138250D02*
D03*
X173500Y138250D02*
D03*
X178500D02*
D03*
X183500D02*
D03*
X449750Y31500D02*
D03*
X444750D02*
D03*
X439750D02*
D03*
X434750Y31500D02*
D03*
X429750D02*
D03*
X424750Y31500D02*
D03*
Y71500D02*
D03*
X429750D02*
D03*
X434750D02*
D03*
X439750D02*
D03*
X444750D02*
D03*
X449750D02*
D03*
D48*
X151000Y105750D02*
D03*
Y110750D02*
D03*
Y115750D02*
D03*
X151000Y120750D02*
D03*
Y125750D02*
D03*
Y130750D02*
D03*
X191000Y130750D02*
D03*
X191000Y125750D02*
D03*
Y120750D02*
D03*
X191000Y115750D02*
D03*
Y110750D02*
D03*
Y105750D02*
D03*
X457250Y64000D02*
D03*
Y59000D02*
D03*
Y54000D02*
D03*
X457250Y49000D02*
D03*
Y44000D02*
D03*
X457250Y39000D02*
D03*
X417250Y39000D02*
D03*
Y44000D02*
D03*
Y49000D02*
D03*
Y54000D02*
D03*
Y59000D02*
D03*
Y64000D02*
D03*
D49*
X184250Y199000D02*
D03*
Y229000D02*
D03*
X368000Y64500D02*
D03*
X368000Y34500D02*
D03*
X343750Y64500D02*
D03*
Y34500D02*
D03*
D50*
X179000Y164500D02*
D03*
X149000D02*
D03*
D51*
X868053Y221130D02*
D03*
X848053D02*
D03*
X868046Y259581D02*
D03*
X848046D02*
D03*
X268000Y460125D02*
D03*
X248000D02*
D03*
D52*
X868623Y186991D02*
D03*
X854481Y201133D02*
D03*
X841440Y159797D02*
D03*
X827298Y173939D02*
D03*
D53*
X729938Y175784D02*
D03*
X744080Y189926D02*
D03*
X702744Y202967D02*
D03*
X716886Y217109D02*
D03*
D54*
X805891Y397155D02*
D03*
X815129Y393329D02*
D03*
X817945Y426258D02*
D03*
X827184Y422431D02*
D03*
D55*
X594000Y518500D02*
D03*
Y526500D02*
D03*
Y534500D02*
D03*
X594000Y542500D02*
D03*
X578000Y518500D02*
D03*
Y526500D02*
D03*
Y534500D02*
D03*
X578000Y542500D02*
D03*
X275500Y491250D02*
D03*
Y499250D02*
D03*
Y507250D02*
D03*
X275500Y515250D02*
D03*
X259500Y491250D02*
D03*
Y499250D02*
D03*
Y507250D02*
D03*
X259500Y515250D02*
D03*
X294000Y435000D02*
D03*
Y427000D02*
D03*
Y419000D02*
D03*
X294000Y411000D02*
D03*
X310000Y435000D02*
D03*
Y427000D02*
D03*
Y419000D02*
D03*
X310000Y411000D02*
D03*
D56*
X500750Y426250D02*
D03*
X508750D02*
D03*
X516750D02*
D03*
X524750Y426250D02*
D03*
X500750Y442250D02*
D03*
X508750D02*
D03*
X516750D02*
D03*
X524750Y442250D02*
D03*
X476750Y480750D02*
D03*
X484750D02*
D03*
X492750D02*
D03*
X500750Y480750D02*
D03*
X476750Y496750D02*
D03*
X484750D02*
D03*
X492750D02*
D03*
X500750Y496750D02*
D03*
X391000Y426750D02*
D03*
X399000D02*
D03*
X407000D02*
D03*
X415000D02*
D03*
X391000Y442750D02*
D03*
X399000D02*
D03*
X407000D02*
D03*
X415000D02*
D03*
D57*
X586000Y472000D02*
D03*
Y477000D02*
D03*
Y482000D02*
D03*
Y487000D02*
D03*
Y492000D02*
D03*
Y497000D02*
D03*
Y502000D02*
D03*
Y507000D02*
D03*
X569000Y472000D02*
D03*
Y477000D02*
D03*
Y482000D02*
D03*
Y487000D02*
D03*
X569000Y492000D02*
D03*
X569000Y497000D02*
D03*
Y502000D02*
D03*
Y507000D02*
D03*
X294000Y524750D02*
D03*
Y519750D02*
D03*
Y514750D02*
D03*
Y509750D02*
D03*
Y504750D02*
D03*
Y499750D02*
D03*
Y494750D02*
D03*
Y489750D02*
D03*
X311000Y524750D02*
D03*
Y519750D02*
D03*
Y514750D02*
D03*
Y509750D02*
D03*
X311000Y504750D02*
D03*
X311000Y499750D02*
D03*
Y494750D02*
D03*
Y489750D02*
D03*
X294000Y480750D02*
D03*
Y475750D02*
D03*
Y470750D02*
D03*
Y465750D02*
D03*
Y460750D02*
D03*
Y455750D02*
D03*
Y450750D02*
D03*
Y445750D02*
D03*
X311000Y480750D02*
D03*
Y475750D02*
D03*
Y470750D02*
D03*
Y465750D02*
D03*
X311000Y460750D02*
D03*
X311000Y455750D02*
D03*
Y450750D02*
D03*
Y445750D02*
D03*
D58*
X537500Y424750D02*
D03*
X542500D02*
D03*
X547500D02*
D03*
X552500D02*
D03*
X557500D02*
D03*
X562500D02*
D03*
X567500D02*
D03*
X572500D02*
D03*
X537500Y441750D02*
D03*
X542500D02*
D03*
X547500D02*
D03*
X552500D02*
D03*
X557500Y441750D02*
D03*
X562500Y441750D02*
D03*
X567500D02*
D03*
X572500D02*
D03*
X513000Y480250D02*
D03*
X518000D02*
D03*
X523000D02*
D03*
X528000D02*
D03*
X533000D02*
D03*
X538000D02*
D03*
X543000D02*
D03*
X548000D02*
D03*
X513000Y497250D02*
D03*
X518000D02*
D03*
X523000D02*
D03*
X528000D02*
D03*
X533000Y497250D02*
D03*
X538000Y497250D02*
D03*
X543000D02*
D03*
X548000D02*
D03*
X343500Y425250D02*
D03*
X348500D02*
D03*
X353500D02*
D03*
X358500D02*
D03*
X363500D02*
D03*
X368500D02*
D03*
X373500D02*
D03*
X378500D02*
D03*
X343500Y442250D02*
D03*
X348500D02*
D03*
X353500D02*
D03*
X358500D02*
D03*
X363500Y442250D02*
D03*
X368500Y442250D02*
D03*
X373500D02*
D03*
X378500D02*
D03*
D59*
X428750Y51500D02*
D03*
D60*
X443250D02*
D03*
D61*
X411000Y129250D02*
D03*
X330500D02*
D03*
D62*
X291250Y366250D02*
D03*
Y351250D02*
D03*
X303250Y366250D02*
D03*
Y351250D02*
D03*
X268500Y417000D02*
D03*
Y402000D02*
D03*
X280500Y417000D02*
D03*
Y402000D02*
D03*
X291250Y391000D02*
D03*
Y376000D02*
D03*
X303250Y391000D02*
D03*
Y376000D02*
D03*
X291250Y341250D02*
D03*
Y326250D02*
D03*
X303250Y341250D02*
D03*
Y326250D02*
D03*
X303250Y266000D02*
D03*
Y281000D02*
D03*
X291250Y266000D02*
D03*
Y281000D02*
D03*
X303250Y301000D02*
D03*
Y316000D02*
D03*
X291250Y301000D02*
D03*
Y316000D02*
D03*
D63*
X291250Y361250D02*
D03*
Y356250D02*
D03*
X303250Y361250D02*
D03*
Y356250D02*
D03*
X268500Y412000D02*
D03*
X268500Y407000D02*
D03*
X280500Y412000D02*
D03*
Y407000D02*
D03*
X291250Y386000D02*
D03*
Y381000D02*
D03*
X303250Y386000D02*
D03*
Y381000D02*
D03*
X291250Y336250D02*
D03*
Y331250D02*
D03*
X303250Y336250D02*
D03*
Y331250D02*
D03*
X303250Y271000D02*
D03*
X303250Y276000D02*
D03*
X291250Y271000D02*
D03*
Y276000D02*
D03*
X303250Y306000D02*
D03*
X303250Y311000D02*
D03*
X291250Y306000D02*
D03*
Y311000D02*
D03*
D64*
X196000Y369750D02*
D03*
X230000D02*
D03*
D65*
X727870Y155831D02*
D03*
X734941Y162902D02*
D03*
X843991Y191373D02*
D03*
X836920Y184302D02*
D03*
X712862Y192996D02*
D03*
X719933Y200067D02*
D03*
X847851Y393764D02*
D03*
X840780Y386693D02*
D03*
Y400835D02*
D03*
X833709Y393764D02*
D03*
X744454Y378478D02*
D03*
X751525Y385549D02*
D03*
X719933Y185925D02*
D03*
X727004Y192996D02*
D03*
X682585Y200796D02*
D03*
X689656Y207867D02*
D03*
X722534Y400398D02*
D03*
X729605Y407469D02*
D03*
X858840Y162382D02*
D03*
X865912Y169453D02*
D03*
X685500Y506500D02*
D03*
X692571Y513571D02*
D03*
X938071Y102821D02*
D03*
X931000Y95750D02*
D03*
D66*
X823166Y412730D02*
D03*
X819339Y403491D02*
D03*
X813927Y416557D02*
D03*
X810100Y407318D02*
D03*
D67*
X700912Y156014D02*
D03*
X691931Y164994D02*
D03*
X682951Y173975D02*
D03*
X660465Y151489D02*
D03*
X669445Y142508D02*
D03*
X678426Y133528D02*
D03*
X877762Y412785D02*
D03*
X868782Y421765D02*
D03*
X859801Y430745D02*
D03*
X882287Y453231D02*
D03*
X900248Y435271D02*
D03*
D68*
X727711Y221987D02*
D03*
X734782Y214916D02*
D03*
X748924Y200774D02*
D03*
X741853Y207845D02*
D03*
X855276Y401188D02*
D03*
X848205Y408259D02*
D03*
D69*
X888727Y184796D02*
D03*
X881656Y191867D02*
D03*
X843477Y139546D02*
D03*
X836406Y146617D02*
D03*
X851416Y169806D02*
D03*
X844345Y176877D02*
D03*
X858487Y176877D02*
D03*
X851416Y183948D02*
D03*
X729959Y392973D02*
D03*
X737030Y385902D02*
D03*
X826280Y386447D02*
D03*
X833351Y379376D02*
D03*
X737030Y400044D02*
D03*
X744101Y392973D02*
D03*
X673544Y474420D02*
D03*
X680615Y467349D02*
D03*
X705437Y185571D02*
D03*
X712508Y178500D02*
D03*
X734428Y200420D02*
D03*
X727357Y207491D02*
D03*
D70*
X762390Y415741D02*
D03*
X766617Y406678D02*
D03*
X753327Y411515D02*
D03*
X757553Y402452D02*
D03*
D71*
X761987Y393044D02*
D03*
X771050Y397270D02*
D03*
D72*
X822420Y184764D02*
D03*
X829491Y191835D02*
D03*
X843633Y205977D02*
D03*
X836562Y198906D02*
D03*
D73*
X757953Y425257D02*
D03*
X748890Y421031D02*
D03*
D74*
X892398Y161856D02*
D03*
X883417Y152876D02*
D03*
X874437Y143896D02*
D03*
X896923Y121410D02*
D03*
X905903Y130390D02*
D03*
X914883Y139370D02*
D03*
X699798Y412244D02*
D03*
X708778Y421225D02*
D03*
X717759Y430205D02*
D03*
X695273Y452691D02*
D03*
X686292Y443711D02*
D03*
X677312Y434730D02*
D03*
D75*
X765105Y144239D02*
D03*
X777805D02*
D03*
X790505D02*
D03*
X790505Y112439D02*
D03*
X765105Y112439D02*
D03*
X797960Y455024D02*
D03*
X785260D02*
D03*
X772560D02*
D03*
Y486824D02*
D03*
X797960D02*
D03*
D76*
X824054Y451470D02*
D03*
X835787Y446610D02*
D03*
X847520Y441750D02*
D03*
X859690Y471129D02*
D03*
X847956Y475989D02*
D03*
X836223Y480849D02*
D03*
D77*
X754746Y450354D02*
D03*
X743236Y444986D02*
D03*
X731726Y439619D02*
D03*
X718287Y468440D02*
D03*
X741307Y479174D02*
D03*
D78*
X902554Y235527D02*
D03*
Y248227D02*
D03*
Y260927D02*
D03*
X934354D02*
D03*
Y235527D02*
D03*
X896041Y341679D02*
D03*
Y354379D02*
D03*
Y367079D02*
D03*
X927841D02*
D03*
Y341679D02*
D03*
D79*
X104370Y288750D02*
D03*
X95630D02*
D03*
D80*
X104370Y298750D02*
D03*
Y293750D02*
D03*
Y283750D02*
D03*
Y278750D02*
D03*
X95630Y278750D02*
D03*
Y283750D02*
D03*
Y298750D02*
D03*
Y293750D02*
D03*
D81*
X544500Y195500D02*
D03*
X534500D02*
D03*
X524500D02*
D03*
X514500D02*
D03*
X504500D02*
D03*
X494500D02*
D03*
X484500D02*
D03*
X474500D02*
D03*
X464500D02*
D03*
X454500D02*
D03*
X444500D02*
D03*
X434500D02*
D03*
X424500D02*
D03*
X414500D02*
D03*
X404500D02*
D03*
X394500D02*
D03*
X384500D02*
D03*
X374500D02*
D03*
X364500D02*
D03*
X354500D02*
D03*
X344500D02*
D03*
X334500D02*
D03*
X544500Y205500D02*
D03*
X534500D02*
D03*
X524500D02*
D03*
X514500D02*
D03*
X504500D02*
D03*
X494500D02*
D03*
X484500D02*
D03*
X474500D02*
D03*
X464500D02*
D03*
X454500D02*
D03*
X444500D02*
D03*
X434500D02*
D03*
X424500D02*
D03*
X414500D02*
D03*
X404500D02*
D03*
X394500D02*
D03*
X384500D02*
D03*
X374500D02*
D03*
X364500D02*
D03*
X354500D02*
D03*
X344500D02*
D03*
X334500D02*
D03*
X544500Y215500D02*
D03*
X534500D02*
D03*
X524500D02*
D03*
X514500D02*
D03*
X504500D02*
D03*
X494500D02*
D03*
X484500D02*
D03*
X474500D02*
D03*
X464500D02*
D03*
X454500D02*
D03*
X444500D02*
D03*
X434500D02*
D03*
X424500D02*
D03*
X414500D02*
D03*
X404500D02*
D03*
X394500D02*
D03*
X384500D02*
D03*
X374500D02*
D03*
X364500D02*
D03*
X354500D02*
D03*
X344500D02*
D03*
X334500D02*
D03*
X544500Y225500D02*
D03*
X534500D02*
D03*
X524500D02*
D03*
X514500D02*
D03*
X504500D02*
D03*
X494500D02*
D03*
X484500D02*
D03*
X474500D02*
D03*
X464500D02*
D03*
X454500D02*
D03*
X444500D02*
D03*
X434500D02*
D03*
X424500D02*
D03*
X414500D02*
D03*
X404500D02*
D03*
X394500D02*
D03*
X384500D02*
D03*
X374500D02*
D03*
X364500D02*
D03*
X354500D02*
D03*
X344500D02*
D03*
X334500D02*
D03*
X544500Y235500D02*
D03*
X534500D02*
D03*
X524500D02*
D03*
X514500D02*
D03*
X504500D02*
D03*
X494500D02*
D03*
X484500D02*
D03*
X474500D02*
D03*
X464500D02*
D03*
X454500D02*
D03*
X444500D02*
D03*
X434500D02*
D03*
X424500D02*
D03*
X414500D02*
D03*
X404500D02*
D03*
X394500D02*
D03*
X384500D02*
D03*
X374500D02*
D03*
X364500D02*
D03*
X354500D02*
D03*
X344500D02*
D03*
X334500D02*
D03*
X544500Y245500D02*
D03*
X534500D02*
D03*
X524500D02*
D03*
X514500D02*
D03*
X504500D02*
D03*
X494500D02*
D03*
X484500D02*
D03*
X474500D02*
D03*
X464500D02*
D03*
X454500D02*
D03*
X444500D02*
D03*
X434500D02*
D03*
X424500D02*
D03*
X414500D02*
D03*
X404500D02*
D03*
X394500D02*
D03*
X384500D02*
D03*
X374500D02*
D03*
X364500D02*
D03*
X354500D02*
D03*
X344500D02*
D03*
X334500D02*
D03*
X544500Y255500D02*
D03*
X534500D02*
D03*
X524500D02*
D03*
X514500D02*
D03*
X504500D02*
D03*
X494500D02*
D03*
X484500D02*
D03*
X474500D02*
D03*
X464500D02*
D03*
X454500D02*
D03*
X444500D02*
D03*
X434500D02*
D03*
X424500D02*
D03*
X414500D02*
D03*
X404500D02*
D03*
X394500D02*
D03*
X384500D02*
D03*
X374500D02*
D03*
X364500D02*
D03*
X354500D02*
D03*
X344500D02*
D03*
X334500D02*
D03*
X544500Y265500D02*
D03*
X534500D02*
D03*
X524500D02*
D03*
X514500D02*
D03*
X504500D02*
D03*
X494500D02*
D03*
X484500D02*
D03*
X474500D02*
D03*
X464500D02*
D03*
X454500D02*
D03*
X444500D02*
D03*
X434500D02*
D03*
X424500D02*
D03*
X414500D02*
D03*
X404500D02*
D03*
X394500D02*
D03*
X384500D02*
D03*
X374500D02*
D03*
X364500D02*
D03*
X354500D02*
D03*
X344500D02*
D03*
X334500D02*
D03*
X544500Y275500D02*
D03*
X534500D02*
D03*
X524500D02*
D03*
X514500D02*
D03*
X504500D02*
D03*
X494500D02*
D03*
X484500D02*
D03*
X474500D02*
D03*
X464500D02*
D03*
X454500D02*
D03*
X444500D02*
D03*
X434500D02*
D03*
X424500D02*
D03*
X414500D02*
D03*
X404500D02*
D03*
X394500D02*
D03*
X384500D02*
D03*
X374500D02*
D03*
X364500D02*
D03*
X354500D02*
D03*
X344500D02*
D03*
X334500D02*
D03*
X544500Y285500D02*
D03*
X534500D02*
D03*
X524500D02*
D03*
X514500D02*
D03*
X504500D02*
D03*
X494500D02*
D03*
X484500D02*
D03*
X474500D02*
D03*
X464500D02*
D03*
X454500D02*
D03*
X444500D02*
D03*
X434500D02*
D03*
X424500D02*
D03*
X414500D02*
D03*
X404500D02*
D03*
X394500D02*
D03*
X384500D02*
D03*
X374500D02*
D03*
X364500D02*
D03*
X354500D02*
D03*
X344500D02*
D03*
X334500D02*
D03*
X544500Y295500D02*
D03*
X534500D02*
D03*
X524500D02*
D03*
X514500D02*
D03*
X504500D02*
D03*
X494500D02*
D03*
X484500D02*
D03*
X474500D02*
D03*
X464500D02*
D03*
X454500D02*
D03*
X444500D02*
D03*
X434500D02*
D03*
X424500D02*
D03*
X414500D02*
D03*
X404500D02*
D03*
X394500D02*
D03*
X384500D02*
D03*
X374500D02*
D03*
X364500D02*
D03*
X354500D02*
D03*
X344500D02*
D03*
X334500D02*
D03*
X544500Y305500D02*
D03*
X534500D02*
D03*
X524500D02*
D03*
X514500D02*
D03*
X504500D02*
D03*
X494500D02*
D03*
X484500D02*
D03*
X474500D02*
D03*
X464500D02*
D03*
X454500D02*
D03*
X444500D02*
D03*
X434500D02*
D03*
X424500D02*
D03*
X414500D02*
D03*
X404500D02*
D03*
X394500D02*
D03*
X384500D02*
D03*
X374500D02*
D03*
X364500D02*
D03*
X354500D02*
D03*
X344500D02*
D03*
X334500D02*
D03*
X544500Y315500D02*
D03*
X534500D02*
D03*
X524500D02*
D03*
X514500D02*
D03*
X504500D02*
D03*
X494500D02*
D03*
X484500D02*
D03*
X474500D02*
D03*
X464500D02*
D03*
X454500D02*
D03*
X444500D02*
D03*
X434500D02*
D03*
X424500D02*
D03*
X414500D02*
D03*
X404500D02*
D03*
X394500D02*
D03*
X384500D02*
D03*
X374500D02*
D03*
X364500D02*
D03*
X354500D02*
D03*
X344500D02*
D03*
X334500D02*
D03*
X544500Y325500D02*
D03*
X534500D02*
D03*
X524500D02*
D03*
X514500D02*
D03*
X504500D02*
D03*
X494500D02*
D03*
X484500D02*
D03*
X474500D02*
D03*
X464500D02*
D03*
X454500D02*
D03*
X444500D02*
D03*
X434500D02*
D03*
X424500D02*
D03*
X414500D02*
D03*
X404500D02*
D03*
X394500D02*
D03*
X384500D02*
D03*
X374500D02*
D03*
X364500D02*
D03*
X354500D02*
D03*
X344500D02*
D03*
X334500D02*
D03*
X544500Y335500D02*
D03*
X534500D02*
D03*
X524500D02*
D03*
X514500D02*
D03*
X504500D02*
D03*
X494500D02*
D03*
X484500D02*
D03*
X474500D02*
D03*
X464500D02*
D03*
X454500D02*
D03*
X444500D02*
D03*
X434500D02*
D03*
X424500D02*
D03*
X414500D02*
D03*
X404500D02*
D03*
X394500D02*
D03*
X384500D02*
D03*
X374500D02*
D03*
X364500D02*
D03*
X354500D02*
D03*
X344500D02*
D03*
X334500D02*
D03*
X544500Y345500D02*
D03*
X534500D02*
D03*
X524500D02*
D03*
X514500D02*
D03*
X504500D02*
D03*
X494500D02*
D03*
X484500D02*
D03*
X474500D02*
D03*
X464500D02*
D03*
X454500D02*
D03*
X444500D02*
D03*
X434500D02*
D03*
X424500D02*
D03*
X414500D02*
D03*
X404500D02*
D03*
X394500D02*
D03*
X384500D02*
D03*
X374500D02*
D03*
X364500D02*
D03*
X354500D02*
D03*
X344500D02*
D03*
X334500D02*
D03*
X544500Y355500D02*
D03*
X534500D02*
D03*
X524500D02*
D03*
X514500D02*
D03*
X504500D02*
D03*
X494500D02*
D03*
X484500D02*
D03*
X474500D02*
D03*
X464500D02*
D03*
X454500D02*
D03*
X444500D02*
D03*
X434500D02*
D03*
X424500D02*
D03*
X414500D02*
D03*
X404500D02*
D03*
X394500D02*
D03*
X384500D02*
D03*
X374500D02*
D03*
X364500D02*
D03*
X354500D02*
D03*
X344500D02*
D03*
X334500D02*
D03*
X544500Y365500D02*
D03*
X534500D02*
D03*
X524500D02*
D03*
X514500D02*
D03*
X504500D02*
D03*
X494500D02*
D03*
X484500D02*
D03*
X474500D02*
D03*
X464500D02*
D03*
X454500D02*
D03*
X444500D02*
D03*
X434500D02*
D03*
X424500D02*
D03*
X414500D02*
D03*
X404500D02*
D03*
X394500D02*
D03*
X384500D02*
D03*
X374500D02*
D03*
X364500D02*
D03*
X354500D02*
D03*
X344500D02*
D03*
X334500D02*
D03*
X544500Y375500D02*
D03*
X534500D02*
D03*
X524500D02*
D03*
X514500D02*
D03*
X504500D02*
D03*
X494500D02*
D03*
X484500D02*
D03*
X474500D02*
D03*
X464500D02*
D03*
X454500D02*
D03*
X444500D02*
D03*
X434500D02*
D03*
X424500D02*
D03*
X414500D02*
D03*
X404500D02*
D03*
X394500D02*
D03*
X384500D02*
D03*
X374500D02*
D03*
X364500D02*
D03*
X354500D02*
D03*
X344500D02*
D03*
X334500D02*
D03*
X544500Y385500D02*
D03*
X534500D02*
D03*
X524500D02*
D03*
X514500D02*
D03*
X504500D02*
D03*
X494500D02*
D03*
X484500D02*
D03*
X474500D02*
D03*
X464500D02*
D03*
X454500D02*
D03*
X444500D02*
D03*
X434500D02*
D03*
X424500D02*
D03*
X414500D02*
D03*
X404500D02*
D03*
X394500D02*
D03*
X384500D02*
D03*
X374500D02*
D03*
X364500D02*
D03*
X354500D02*
D03*
X344500D02*
D03*
X334500D02*
D03*
X544500Y395500D02*
D03*
X534500D02*
D03*
X524500D02*
D03*
X514500D02*
D03*
X504500D02*
D03*
X494500D02*
D03*
X484500D02*
D03*
X474500D02*
D03*
X464500D02*
D03*
X454500D02*
D03*
X444500D02*
D03*
X434500D02*
D03*
X424500D02*
D03*
X414500D02*
D03*
X404500D02*
D03*
X394500D02*
D03*
X384500D02*
D03*
X374500D02*
D03*
X364500D02*
D03*
X354500D02*
D03*
X344500D02*
D03*
X334500D02*
D03*
X544500Y405500D02*
D03*
X534500D02*
D03*
X524500D02*
D03*
X514500D02*
D03*
X504500D02*
D03*
X494500D02*
D03*
X484500D02*
D03*
X474500D02*
D03*
X464500D02*
D03*
X454500D02*
D03*
X444500D02*
D03*
X434500D02*
D03*
X424500D02*
D03*
X414500D02*
D03*
X404500D02*
D03*
X394500D02*
D03*
X384500D02*
D03*
X374500D02*
D03*
X364500D02*
D03*
X354500D02*
D03*
X344500D02*
D03*
X334500D02*
D03*
D82*
X167500Y260250D02*
D03*
Y268250D02*
D03*
Y276250D02*
D03*
Y284250D02*
D03*
Y292250D02*
D03*
Y300250D02*
D03*
Y308250D02*
D03*
Y316250D02*
D03*
Y324250D02*
D03*
Y332250D02*
D03*
Y340250D02*
D03*
X175500Y260250D02*
D03*
Y268250D02*
D03*
Y276250D02*
D03*
Y284250D02*
D03*
Y292250D02*
D03*
Y300250D02*
D03*
Y308250D02*
D03*
Y316250D02*
D03*
Y324250D02*
D03*
Y332250D02*
D03*
Y340250D02*
D03*
X183500Y260250D02*
D03*
Y268250D02*
D03*
Y276250D02*
D03*
Y284250D02*
D03*
Y292250D02*
D03*
Y300250D02*
D03*
Y308250D02*
D03*
Y316250D02*
D03*
Y324250D02*
D03*
Y332250D02*
D03*
Y340250D02*
D03*
X191500Y260250D02*
D03*
Y268250D02*
D03*
Y276250D02*
D03*
Y284250D02*
D03*
Y292250D02*
D03*
Y300250D02*
D03*
Y308250D02*
D03*
Y316250D02*
D03*
Y324250D02*
D03*
Y332250D02*
D03*
Y340250D02*
D03*
X199500Y260250D02*
D03*
Y268250D02*
D03*
Y276250D02*
D03*
Y284250D02*
D03*
Y292250D02*
D03*
Y300250D02*
D03*
Y308250D02*
D03*
Y316250D02*
D03*
Y324250D02*
D03*
Y332250D02*
D03*
Y340250D02*
D03*
X207500Y260250D02*
D03*
Y268250D02*
D03*
Y276250D02*
D03*
Y284250D02*
D03*
Y292250D02*
D03*
Y300250D02*
D03*
Y308250D02*
D03*
Y316250D02*
D03*
Y324250D02*
D03*
Y332250D02*
D03*
Y340250D02*
D03*
X215500Y260250D02*
D03*
Y268250D02*
D03*
Y276250D02*
D03*
Y284250D02*
D03*
Y292250D02*
D03*
Y300250D02*
D03*
Y308250D02*
D03*
Y316250D02*
D03*
Y324250D02*
D03*
Y332250D02*
D03*
Y340250D02*
D03*
X223500Y260250D02*
D03*
Y268250D02*
D03*
Y276250D02*
D03*
Y284250D02*
D03*
Y292250D02*
D03*
Y300250D02*
D03*
Y308250D02*
D03*
Y316250D02*
D03*
Y324250D02*
D03*
Y332250D02*
D03*
Y340250D02*
D03*
X231500Y260250D02*
D03*
Y268250D02*
D03*
Y276250D02*
D03*
Y284250D02*
D03*
Y292250D02*
D03*
Y300250D02*
D03*
Y308250D02*
D03*
Y316250D02*
D03*
Y324250D02*
D03*
Y332250D02*
D03*
Y340250D02*
D03*
X239500Y260250D02*
D03*
Y268250D02*
D03*
Y276250D02*
D03*
Y284250D02*
D03*
Y292250D02*
D03*
Y300250D02*
D03*
Y308250D02*
D03*
Y316250D02*
D03*
Y324250D02*
D03*
Y332250D02*
D03*
Y340250D02*
D03*
X247500Y260250D02*
D03*
Y268250D02*
D03*
Y276250D02*
D03*
Y284250D02*
D03*
Y292250D02*
D03*
Y300250D02*
D03*
Y308250D02*
D03*
Y316250D02*
D03*
Y324250D02*
D03*
Y332250D02*
D03*
Y340250D02*
D03*
D83*
X631000Y506750D02*
D03*
D84*
X990000Y299500D02*
D03*
D85*
X631000Y92750D02*
D03*
D86*
Y297250D02*
D03*
D87*
X-64375Y-64375D02*
D03*
Y664375D02*
D03*
X1064375Y-64375D02*
D03*
Y664375D02*
D03*
X191250Y601000D02*
D03*
X203000D02*
D03*
X215000D02*
D03*
X191250Y-1000D02*
D03*
X203000D02*
D03*
X215000D02*
D03*
X785000D02*
D03*
X797000D02*
D03*
X808750D02*
D03*
Y601000D02*
D03*
X797000D02*
D03*
X785000D02*
D03*
D88*
X504000Y544000D02*
D03*
D89*
X517750Y553750D02*
D03*
Y547250D02*
D03*
Y540750D02*
D03*
Y534250D02*
D03*
X490250D02*
D03*
Y540750D02*
D03*
Y547250D02*
D03*
Y553750D02*
D03*
D90*
X355750Y572500D02*
D03*
D91*
Y567500D02*
D03*
Y562500D02*
D03*
Y557500D02*
D03*
Y552500D02*
D03*
X397750Y572500D02*
D03*
Y567500D02*
D03*
Y562500D02*
D03*
Y557500D02*
D03*
Y552500D02*
D03*
D92*
X376750Y562500D02*
D03*
D93*
X147750Y423000D02*
D03*
D94*
X140250Y409000D02*
D03*
X145250D02*
D03*
X150250D02*
D03*
X155250D02*
D03*
Y437000D02*
D03*
X150250D02*
D03*
X145250D02*
D03*
X140250D02*
D03*
D95*
X78300Y342750D02*
D03*
X72700D02*
D03*
D96*
X48000Y270000D02*
D03*
X48000Y290000D02*
D03*
X48000Y310000D02*
D03*
Y330000D02*
D03*
Y340000D02*
D03*
X48000Y320000D02*
D03*
X48000Y300000D02*
D03*
Y280000D02*
D03*
Y260000D02*
D03*
D97*
X761660Y301133D02*
D03*
D98*
X800060Y356373D02*
D03*
X803390Y353044D02*
D03*
X806720Y349714D02*
D03*
X810050Y346384D02*
D03*
X813380Y343053D02*
D03*
X816710Y339723D02*
D03*
X813380Y336393D02*
D03*
X810050Y339723D02*
D03*
X803390Y346384D02*
D03*
X806720Y343053D02*
D03*
X796730Y353044D02*
D03*
X800060Y349714D02*
D03*
X796730Y346384D02*
D03*
X793400Y349714D02*
D03*
X803390Y339723D02*
D03*
X800060Y343053D02*
D03*
X806720Y336393D02*
D03*
X810050Y333063D02*
D03*
X793400Y343053D02*
D03*
X790070Y346384D02*
D03*
X796730Y339723D02*
D03*
X806720Y329733D02*
D03*
X803390Y333063D02*
D03*
X783410Y353044D02*
D03*
X786740Y349714D02*
D03*
Y356373D02*
D03*
X790070Y353044D02*
D03*
X813380Y323073D02*
D03*
X810050Y326403D02*
D03*
X816710D02*
D03*
X813380Y329733D02*
D03*
X806720Y323073D02*
D03*
X810050Y319743D02*
D03*
X800060Y329733D02*
D03*
X803390Y326403D02*
D03*
X786740Y343053D02*
D03*
X790070Y339723D02*
D03*
X780080Y349714D02*
D03*
X783410Y346384D02*
D03*
X780080Y343053D02*
D03*
X776750Y346384D02*
D03*
X783410Y339723D02*
D03*
X776750D02*
D03*
X773420Y343053D02*
D03*
X770090Y339723D02*
D03*
X816710Y313083D02*
D03*
X813380Y316413D02*
D03*
X810050Y313083D02*
D03*
X813380Y309753D02*
D03*
X800060Y323073D02*
D03*
X806720Y316413D02*
D03*
X803390Y319743D02*
D03*
X813380Y303093D02*
D03*
X816710Y299763D02*
D03*
X803390Y313083D02*
D03*
X800060Y316413D02*
D03*
X810050Y306423D02*
D03*
X806720Y309753D02*
D03*
X800060D02*
D03*
X810050Y299763D02*
D03*
X806720Y303093D02*
D03*
Y296433D02*
D03*
X810050Y293103D02*
D03*
X800060Y303093D02*
D03*
X803390Y299763D02*
D03*
X816710Y286443D02*
D03*
X813380Y289773D02*
D03*
X806720D02*
D03*
X810050Y286443D02*
D03*
X800060Y296433D02*
D03*
X803390Y293103D02*
D03*
X813380Y283113D02*
D03*
X806720D02*
D03*
X810050Y279783D02*
D03*
X816710Y273123D02*
D03*
X813380Y276453D02*
D03*
X806720D02*
D03*
X810050Y273123D02*
D03*
X800060Y283113D02*
D03*
X803390Y279783D02*
D03*
X816710Y266463D02*
D03*
X813380Y269793D02*
D03*
X810050Y266463D02*
D03*
X800060Y276453D02*
D03*
X803390Y273123D02*
D03*
X810050Y259803D02*
D03*
X800060Y269793D02*
D03*
X803390Y266463D02*
D03*
X816710Y253143D02*
D03*
X813380Y256473D02*
D03*
X806720D02*
D03*
X810050Y253143D02*
D03*
X803390Y259803D02*
D03*
X813380Y249813D02*
D03*
X806720D02*
D03*
X800060Y256473D02*
D03*
X803390Y253143D02*
D03*
X810050Y353044D02*
D03*
X756770Y339723D02*
D03*
X750110D02*
D03*
X753440Y343053D02*
D03*
X756770Y346384D02*
D03*
X760100Y349714D02*
D03*
X763430Y353044D02*
D03*
X746780Y343053D02*
D03*
X750110Y346384D02*
D03*
X746780Y349714D02*
D03*
X743450Y346384D02*
D03*
Y353044D02*
D03*
X740120Y349714D02*
D03*
X753440D02*
D03*
X736790Y353044D02*
D03*
X733460Y356373D02*
D03*
X730130Y353044D02*
D03*
X733460Y349714D02*
D03*
X736790Y339723D02*
D03*
X733460Y343053D02*
D03*
X730130Y346383D02*
D03*
X723470Y353044D02*
D03*
X726800Y349714D02*
D03*
X720140Y356373D02*
D03*
X713480D02*
D03*
X720140Y349714D02*
D03*
X716810Y353044D02*
D03*
X723470Y346383D02*
D03*
X726800Y343053D02*
D03*
X730130Y339723D02*
D03*
X716810Y346383D02*
D03*
X720140Y343053D02*
D03*
X723470Y339723D02*
D03*
X706820Y349713D02*
D03*
X713480Y343053D02*
D03*
X710150Y346383D02*
D03*
X716810Y339723D02*
D03*
X720140Y336393D02*
D03*
X723470Y333063D02*
D03*
X706820Y343053D02*
D03*
X713480Y336393D02*
D03*
X710150Y339723D02*
D03*
X716810Y333063D02*
D03*
X720140Y329733D02*
D03*
X723470Y326403D02*
D03*
X713480Y329733D02*
D03*
X710150Y333063D02*
D03*
X716810Y326403D02*
D03*
X720140Y323073D02*
D03*
X723470Y319743D02*
D03*
X706820Y329733D02*
D03*
X713480Y323073D02*
D03*
X710150Y326403D02*
D03*
X716810Y319743D02*
D03*
X720140Y316413D02*
D03*
X723470Y313083D02*
D03*
X713480Y316413D02*
D03*
X710150Y319743D02*
D03*
X716810Y313083D02*
D03*
X720140Y309753D02*
D03*
X723470Y306423D02*
D03*
X706820Y316413D02*
D03*
X713480Y309753D02*
D03*
X710150Y313083D02*
D03*
X716810Y306423D02*
D03*
X720140Y303093D02*
D03*
X723470Y299763D02*
D03*
X713480Y303093D02*
D03*
X710150Y306423D02*
D03*
X716810Y299763D02*
D03*
X720140Y296433D02*
D03*
X723470Y293103D02*
D03*
X706820Y303093D02*
D03*
X713480Y296433D02*
D03*
X710150Y299763D02*
D03*
X716810Y293103D02*
D03*
X720140Y289773D02*
D03*
X713480Y289773D02*
D03*
X710150Y293103D02*
D03*
X716810Y286443D02*
D03*
X720140Y283113D02*
D03*
X706820Y289773D02*
D03*
X713480Y283113D02*
D03*
X710150Y286443D02*
D03*
X716810Y279783D02*
D03*
X720140Y276453D02*
D03*
X710150Y279783D02*
D03*
X716810Y273123D02*
D03*
X713480Y276453D02*
D03*
X720140Y269793D02*
D03*
X723470Y266463D02*
D03*
X726800Y263133D02*
D03*
X706820Y276453D02*
D03*
X713480Y269793D02*
D03*
X710150Y273123D02*
D03*
X716810Y266463D02*
D03*
X720140Y263133D02*
D03*
X723470Y259803D02*
D03*
X730130Y253143D02*
D03*
X726800Y256473D02*
D03*
X733460D02*
D03*
X730130Y259803D02*
D03*
X723470Y253143D02*
D03*
X720140Y256473D02*
D03*
X716810Y259803D02*
D03*
X713480Y263133D02*
D03*
X716810Y253143D02*
D03*
X713480Y256473D02*
D03*
X733460Y263133D02*
D03*
X740120D02*
D03*
X746780D02*
D03*
X753440D02*
D03*
X760100D02*
D03*
X766760D02*
D03*
X773420D02*
D03*
X780080D02*
D03*
X786740D02*
D03*
X793400D02*
D03*
X800060D02*
D03*
X806720D02*
D03*
X813380D02*
D03*
X736790Y259803D02*
D03*
X743450D02*
D03*
X750110D02*
D03*
X756770D02*
D03*
X763430D02*
D03*
X770090D02*
D03*
X776750D02*
D03*
X790070D02*
D03*
X783410D02*
D03*
X793400Y256473D02*
D03*
X786740D02*
D03*
X780080D02*
D03*
X773420D02*
D03*
X766760D02*
D03*
X760100D02*
D03*
X753440D02*
D03*
X746780D02*
D03*
X740120D02*
D03*
X790070Y253143D02*
D03*
X783410D02*
D03*
X776750D02*
D03*
X770090D02*
D03*
X763430D02*
D03*
X756770D02*
D03*
X750110D02*
D03*
X743450D02*
D03*
X736790D02*
D03*
X796730D02*
D03*
X803390Y246483D02*
D03*
X793400Y249813D02*
D03*
X746780D02*
D03*
X753440D02*
D03*
X760100D02*
D03*
X766760D02*
D03*
X773420D02*
D03*
X780080D02*
D03*
X786740D02*
D03*
X796730Y246483D02*
D03*
X790070D02*
D03*
X776750D02*
D03*
X763430D02*
D03*
X750110D02*
D03*
D115*
X554550Y571000D02*
D03*
X13350Y193500D02*
D03*
D116*
X579950Y571000D02*
D03*
X38750Y193500D02*
D03*
X64150D02*
D03*
D117*
X961500Y561500D02*
D03*
X38500Y38500D02*
D03*
Y561500D02*
D03*
X961500Y38500D02*
D03*
D118*
X49500Y461500D02*
D03*
X74500D02*
D03*
Y415250D02*
D03*
X49500D02*
D03*
D119*
X49500Y486500D02*
D03*
X74500D02*
D03*
Y440250D02*
D03*
X49500D02*
D03*
D120*
X59000Y391000D02*
D03*
X600000Y571250D02*
D03*
D121*
X46300Y391000D02*
D03*
X612700Y571250D02*
D03*
D122*
X42000Y117000D02*
D03*
D123*
X92000D02*
D03*
D124*
X66750Y90000D02*
D03*
D125*
X372000Y556250D02*
D03*
X381500D02*
D03*
Y568750D02*
D03*
X372000D02*
D03*
X376750Y562500D02*
D03*
D126*
X24000Y242000D02*
D03*
Y359000D02*
D03*
D127*
Y278000D02*
D03*
Y323000D02*
D03*
M02*
